<?xml version="1.0" encoding="UTF-8"?>
<svg id="Layer_2" data-name="Layer 2" xmlns="http://www.w3.org/2000/svg" viewBox="0 0 750 750">
  <defs>
    <style>
      .cls-1 {
        fill: #fff;
      }

      .cls-2 {
        fill: #ed4c5c;
      }

      .cls-3 {
        fill: #428bc1;
      }

      .cls-4 {
        fill: #83bf4f;
      }
    </style>
  </defs>
  <g id="Layer_1-2" data-name="Layer 1">
    <rect class="cls-3" width="750" height="250"/>
    <rect class="cls-4" x="0" y="500" width="750" height="250"/>
    <rect class="cls-2" x="0" y="250" width="750" height="250"/>
    <g>
      <path class="cls-1" d="m371,462.55c-48.05,0-87.55-39.51-87.55-87.55s39.51-87.55,87.55-87.55c11.74,0,22.42,2.14,32.03,6.41-17.08-12.81-38.44-21.35-61.93-21.35-56.59,0-101.43,45.91-101.43,102.5s45.91,102.5,101.43,102.5c23.49,0,44.84-7.47,61.93-21.35-9.61,4.27-20.29,6.41-32.03,6.41h0Z"/>
      <path class="cls-1" d="m464.96,389.95l-23.49,16.02,14.95-24.56-27.76-6.41,27.76-6.41-16.02-23.49,24.56,14.95,6.41-27.76,6.41,27.76,23.49-16.02-14.95,24.56,27.76,6.41-27.76,6.41,16.02,23.49-24.56-14.95-6.41,27.76-6.41-27.76Z"/>
    </g>
  </g>
</svg>