<?xml version="1.0" encoding="UTF-8"?>
<svg id="Layer_2" data-name="Layer 2" xmlns="http://www.w3.org/2000/svg" viewBox="0 0 6603.47 2157.94">
  <defs>
    <style>
      .cls-1 {
        stroke: #fff;
        stroke-miterlimit: 10;
        stroke-width: 20px;
      }
    </style>
  </defs>
  <g id="Layer_1-2" data-name="Layer 1">
    <path class="cls-1" d="m2319.13,1573.21c11.61,13.35,23.54,26.44,34.72,40.15,7.88,9.66,16.58,13.25,29.65,12.87,95.51-2.82,191.07-2.77,286.62-5.03,182.23-4.3,364.58-3.79,546.81-8.13,80.5-1.92,160.99-3.48,241.5-4.35,12.54-.14,21.82-.48,21.07-18.33-7.09-167.83-12.37-335.74-20.46-503.52-2.21-45.94-2.22-91.95-5.58-137.79-2.07-28.29-6.2-30.08-29.72-16.42-243.32,141.29-486.54,282.75-729.91,423.95-124.73,72.36-249.7,144.29-374.57,216.41-.09-17.55,15.77-20.15,26.34-26.29,355.72-206.85,711.67-413.31,1067.47-620.01,6.21-3.61,15.22-4.87,17.04-13.88-141.06-4.19-281.58-8.75-422.13-12.42-112.35-2.94-224.84-2.5-337.05-7.94-79.57-3.86-159.19-1.89-238.76-7.06-81.16-5.26-162.74-4.01-244.09-6.7-21.23-.7-28.69,6.79-26.77,27.59,2.84,30.79,4.11,61.73,6.18,92.6,10.29,153.44,21.22,306.84,30.29,460.35,1.38,23.41,10.18,29.16,30.63,26.91,7.99-.88,16.44-5.74,22.88,5.91,17.31,31.3,45.44,53.9,67.86,81.16Zm-1605.6,563.63c-5.33-.18-11.79-.1-19.67,0-174.42,2.19-348.84,4.23-523.26,6.71-43.36.62-86.72,2.19-130.04,4.31-19.39.95-28.17-7.57-28.34-25.97-.85-92.06-1.55-184.12-2.22-276.18-.1-13.58,8.89-17.61,20.53-19.6,38.36-6.55,76.55-14.14,115-20.07,14.75-2.27,18.92-7.62,16.83-22.72-19.49-140.98-37.98-282.1-57.27-423.11-22.16-162.02-45.2-323.93-67.12-485.99-8.27-61.16-7.46-61.87,53.05-75.75,198.33-45.47,396.78-90.46,595.17-135.69l69.19-15.47c1.84-.33,3.78-.75,5.85-1.24,129.17-30.42,258.61-59.66,387.96-89.28,369.91-84.7,740.25-167.57,1109.62-254.58,402.17-94.73,803.44-193.29,1205.06-290.33,10.67-2.58,20.23-2.86,30.91,1.25,52.8,20.3,105.97,39.62,158.92,59.54,8.57,3.23,15.11,5.71,20.11,7.14l46.58,18.28c1.95.95,4.07,1.83,6.37,2.67,66.52,24.26,132.55,49.84,198.75,74.97,628.87,238.73,1257.84,477.22,1886.5,716.5,81.71,31.1,166.33,55.68,242.97,98.98,107.08,60.5,213.28,122.58,320.14,183.48,13.99,7.97,19.25,17.73,19.84,33.9,4.06,110.62,1.56,221.26,1.44,331.88-.02,23.54,7.31,36.85,27.67,48.34,47.78,26.97,94.11,56.5,141.06,84.93,12.34,7.47,23.07,14.78,23.29,32.23,1.02,82.29,2.63,164.58,5.02,246.84.63,21.54-8.06,28.93-28.87,31.62-113.13,14.63-226.01,31.18-339.14,45.79-31.2,4.03-62.27,11.7-94.62,1.91-156.65-47.41-313.55-94.02-470.61-140.09-20.43-5.99-33.77-17.18-43.5-35.4-17.05-31.94-35.29-63.25-52.63-95.04-5.61-10.29-12.19-15.33-25.07-14.8-132.71,5.49-265.63.16-394.31,8.59-133.31-3.1-262.48,5-391.75,4.58-22.04-.07-35.43,8.02-48.27,25.11-65.96,87.74-133.44,174.34-199.41,262.07-14.15,18.81-29.93,26.67-53.6,26.85-146.97,1.12-293.93,3.37-440.89,5.64-84.09,1.3-168.16,3.85-252.26,4.65l-54.99.44c-38.01,1.71-76.05,2.95-114.09,3.62-207.1,3.64-414.2,7.33-621.31,10.45-187.67,2.83-375.4,3.09-562.98,8.73-46.24,1.39-74.26-13.65-102-48.13-64.32-79.96-132.49-156.83-199.27-234.8-9.07-10.59-17.45-20.62-34.78-20.28-190.29,3.72-380.59,6.47-570.88,9.74-32.73.56-65.42,2.68-98.15,3.27-13.79.25-23.01,5.87-30.89,16.9-25.2,35.3-51.27,69.97-76.59,105.18-10.2,14.19-22.78,23.57-39.75,29-158.33,50.66-316.35,102.3-474.87,152.36l-64.45,16.07M59.62,823.21c-1.32,2.81-2.65,5.61-3.97,8.42,7.57,5.81,15.63,11.07,22.63,17.49,232.3,212.95,464.65,425.84,696.35,639.45,15.66,14.44,30.74,20.19,51.66,19.69,110.63-2.62,221.28-4.13,331.93-5.59,12.99-.17,23.8-3.75,34.61-10.79,304.22-198.02,608.6-395.8,912.83-593.8,6.95-4.52,16.23-6.95,20.66-20.21-689.98-18.25-1378.34-36.46-2066.7-54.67Zm27.57-12.3c42.39,2.26,77.7,5.39,113.05,5.81,132.76,1.58,265.41,7,398.11,10.27,203.49,5.01,406.96,10.56,610.43,16.06,130.93,3.54,261.86,6.59,392.78,10.67,163.65,5.1,327.36,8.3,491.06,11.45,55.36,1.07,59.9,12.37,60.93-54.74.05-3.53.59-7.05.88-10.58,12.1-147.1,23.77-294.25,36.7-441.28,2.12-24.06-3.21-27.86-26.72-22.47-630.23,144.38-1260.63,288-1890.99,431.8-59.96,13.68-119.85,27.66-186.25,43Zm4951.2-21.58c.25,1.2.5,2.4.76,3.6-7.88-3.19-15.7-6.53-23.64-9.56-252.18-96.22-504.45-192.2-756.54-288.65-251.91-96.38-503.63-193.23-755.45-289.85-28.74-11.03-29.19-10.66-29.43,19.56-.61,76.13.88,152.34-2.38,228.35-3.91,91.15-1.56,182.3-4.31,273.41-.61,20.1,5.66,29.48,26.93,28.85,16.72-.5,33.51,2.7,50.3,3.14,209.7,5.58,419.41,11.14,629.12,16.3,113.28,2.79,226.59,4.43,339.86,7.28,75.19,1.89,150.33,6.28,225.53,7.25,99.73,1.28,199.49.32,299.24.32Zm-395.19,163.7c-94.64-13.93-188.44-10.45-281.96-14.94-105.12-5.05-210.57-3.2-315.69-8.32-71.63-3.49-143.27-2.68-214.88-5.56-114.89-4.61-229.89-6.18-344.84-9.41-17.72-.5-23.73,7.52-22.56,24.08,1.69,23.8,3.17,47.62,4.06,71.45,5.93,158.13,11.52,316.28,17.61,474.4,1.49,38.65,4.4,77.25,6.85,119.04,384.95-217.56,768.18-434.15,1151.41-650.74Zm1380.01,164.12c-.21-1.23-.42-2.45-.63-3.68-213.21-26.62-426.39-53.46-639.63-79.79-226.44-27.96-452.97-55.22-679.36-83.55-18.48-2.31-23.47,3.12-24.03,20.32-4.79,146.78-9.5,293.57-15.8,440.3-1.2,27.99,8.44,34.96,34.69,33.55,120.29-6.45,240.76-5.14,361.18-6.04,22.32-.17,43.83-4.69,64.98-12,157.28-54.32,314.65-108.43,472-162.54,142.18-48.9,284.4-97.72,426.6-146.57Zm-2509.39,486.72c.5,1.46,1,2.92,1.51,4.38,8.82,0,17.67.46,26.46-.07,137.91-8.38,276.08-3.67,414.1-8.37,151.25-5.15,302.68-5.2,454.04-6.75,16.88-.17,28.29-5.49,37.75-19.19,16.19-23.46,31.27-47.67,46.34-71.55,21.79-34.54,51.65-70.99,104.36-58.26,7.52,1.82,15.96-.62,23.83.25,21.24,2.36,29.98-5.99,30.62-27.97,4.26-146.75,9.29-293.47,14.45-440.19.67-19.1-5.82-22.27-21.2-12.52-4.48,2.84-9.23,5.25-13.85,7.86-281.27,158.91-562.55,317.8-843.79,476.76-91.6,51.77-183.08,103.73-274.62,155.6Zm-2311.37-105.66c52.63,0,100.34.22,148.05-.05,77.93-.45,155.88-.6,233.8-1.99,145.02-2.57,289.89-11.85,435.03-9.44,49.58.82,99.19-.21,148.79-.37,11.24-.04,21.55.01,20.14-16.57-2.17-25.55-2.8-51.23-4.47-76.82-10.31-157.95-20.7-315.89-31.17-473.82-.68-10.25,3.09-23.85-7.79-28.91-9.41-4.38-17.31,6.73-25.18,11.83-243.65,158.04-487.18,316.28-730.69,474.53-61.42,39.92-122.73,80.01-186.52,121.61Zm1214.25-771.99c69.63,2.19,131.1,4.41,192.57,6,101.75,2.64,203.51,4.69,305.26,7.35,171.6,4.48,343.2,9.04,514.78,14.13,19.84.59,25.98-6.8,26.17-26.14.85-86.69,2.98-173.37,4.59-260.06,1.47-78.72-.95-157.5,4.65-236.17,2.42-34.07-.19-35.37-29.97-20.34-297.93,150.28-595.84,300.58-893.7,451-39.2,19.79-78.04,40.29-124.36,64.24Zm3658.01,708.3c-61.09-3.26-121.67-1.32-182.32.06-207.88,4.73-415.81,7.6-623.72,10.93-155.73,2.5-311.47,4.5-467.2,6.98-70.77,1.12-141.52,3.31-212.29,4.03-21.57.22-26.98,4.61-15.06,25.37,44.92,78.25,89.49,156.74,132.05,236.29,12.62,23.58,24.87,29.98,51.7,23.67,358.06-84.28,716.43-167.27,1074.71-250.64,80.74-18.79,161.42-37.78,242.13-56.69Zm-3890.45,63.46c-133.37,6.91-265.34.73-397.16,5.22-157.43,5.35-315.05,5.12-472.57,7.77-163.69,2.75-327.37,5.98-491.05,9.14-28.95.56-29.45,1.69-14.07,28.03,45.5,77.94,92.21,155.22,136.04,234.08,13.32,23.97,26.4,28.28,52.1,21.58,297.01-77.42,594.31-153.7,891.56-230.2,98.35-25.31,196.76-50.41,295.14-75.61Zm2606.98,246.44c.2,1.47.4,2.94.6,4.4,187.55-3.64,375.08-7.79,562.64-10.78,193.82-3.08,387.65-5.03,581.48-7.49,7.08-.09,14.16-.49,21.24-.48,20.55.03,33.52-8.55,42.9-28.2,37.74-79.03,77.34-157.17,115.84-235.84,4-8.18,14.36-17.46,6.94-26.16-7.05-8.27-18.3-.93-27.48,1.2-354.91,82.53-709.8,165.16-1064.7,247.75-79.81,18.57-159.64,37.06-239.47,55.59ZM3663.06,87.93c-.53,1.13-1.07,2.26-1.6,3.39,9.95,4.99,19.79,10.19,29.85,14.94,452.88,213.9,905.63,428.06,1358.88,641.18,45.33,21.31,87.94,48.91,138.74,58.8,223.05,43.46,445.86,88.17,668.78,132.34,21.32,4.22,42.77,7.76,64.16,11.61.26-1.52.52-3.04.78-4.56-753.19-285.9-1506.39-571.8-2259.58-857.7ZM68.1,999.62c.65,12.5.56,16.65,1.12,20.72,11.79,85.79,23.81,171.55,35.46,257.36,23.53,173.39,47.05,346.78,70.02,520.24,2.86,21.57,11.51,29.71,34.31,28.85,111.65-4.23,223.33-8.31,335.11-6.97,5.9.07,9.93-2.48,13.92-6.29,13.78-13.17,6.48-24.6-1.56-37.37-149.83-238.21-299.39-476.59-449.04-714.91-11.54-18.38-23.35-36.6-39.32-61.62Zm2331.58,1094.18c.19,1.04.38,2.09.58,3.13,10.33,0,20.69.57,30.97-.09,133.44-8.47,267.13-4.19,400.7-8.17,206.94-6.17,414.01-7.67,621.03-11.2,34.56-.59,34.73-.71,34.27-36.61-.9-70.74-.26-141.48-4.09-212.21-2.77-51.21,3.21-46.69-43.9-33.22-282.3,80.73-564.52,161.75-846.76,242.72-64.29,18.45-128.53,37.08-192.8,55.63Zm-1375.71-286.27c.55,1.49,1.1,2.97,1.65,4.46,173.39-3.42,346.78-7.22,520.18-10.16,169.9-2.88,339.81-5.25,509.73-6.83,21.26-.2,33.66-5.93,42.98-26.03,39.06-84.27,79.75-167.78,119.8-251.58,2.19-4.58,6.05-9.01.72-17.23-397.75,102.3-796.41,204.84-1195.06,307.38ZM3415.45,203.97c-113.92,26.91-226.31,53.73-338.84,79.97-226.58,52.83-453.2,105.53-679.95,157.61-17.44,4.01-25.28,10.66-26.5,29.28-4.84,73.85-11.82,147.56-16.69,221.41-2.36,35.81,15.56,45.57,49.23,28.54,331.8-167.83,663.59-335.68,995.3-503.7,5.82-2.95,13.62-3.67,17.45-13.12ZM94.79,1007.61c-1.37,1.37-2.73,2.75-4.1,4.12,1.31,3.18,2.18,6.63,3.98,9.49,156.17,248.8,312.52,497.49,468.44,746.45,12.17,19.43,19.23,13.76,29.87-1.04,52.71-73.27,105.42-146.55,159.69-218.66,14.5-19.26,11-28.44-6.96-42.11-180.93-137.81-361.2-276.49-541.69-414.88-36.35-27.87-72.83-55.58-109.25-83.37Zm3441.75,1064.94c70.17,2.29,139.55,2.68,209.05.69,156.6-4.47,313.32-5.19,469.98-7.69,76.1-1.21,152.19-3.37,228.29-4.29,20.48-.25,28.28-3.29,15.44-24.95-47.84-80.68-95.11-161.72-141.03-243.5-11.34-20.19-21.78-21.76-42.13-13.6-169.19,67.88-338.84,134.6-508.34,201.69-77.1,30.52-154.18,61.09-231.26,91.64Zm-1172.64,12.93c1.5,1.93,3,3.87,4.5,5.81,355.37-101.9,710.74-203.81,1066.11-305.71-157.15,4.29-313.7-.12-470.14,4.99-142.33,4.65-284.8,5.18-427.21,6.64-19.25.2-30.68,6-39.33,23.71-25.99,53.23-53.73,105.61-80.59,158.41-17.95,35.3-35.57,70.76-53.34,106.15Zm2058.06-479.5c-6.78-1.45-9.26-2.49-11.72-2.44-119.46,2.24-238.92,4.98-358.39,6.8-177.91,2.7-355.83,5.1-533.75,6.65-22.37.19-29.84,7.42-27.97,29.31,2.48,29.05,3.06,58.28,3.9,87.45,1.01,35.25.75,35.45,35.93,35.02,168.18-2.06,336.39-2.85,504.52-7.03,66.68-1.66,133.98-4.46,197.83-29.58,36.19-14.24,73.51-25.66,110.54-37.63,8.02-2.59,14.42-6.16,19.5-12.65,19.06-24.34,38.18-48.62,59.62-75.89Zm1621.65-484.47c-301.28,103.55-599.32,205.99-897.37,308.44,9.37,4.28,17.89,4.25,26.42,4.29,204.37.98,408.51-10.1,612.83-11.57,47.8-.34,95.63-.71,143.41.45,19.9.48,29.77-5.41,35.51-25.81,20.83-74.06,44.02-147.45,65.86-221.22,4.89-16.52,12.79-32.54,13.35-54.57Zm106.97,445.89c2.32,0,4.65,0,6.97,0,0,88.37-.53,176.74.2,265.09.44,53.89,2.72,107.77,4.48,161.65.22,6.63-2.9,15.58,5.05,19.1,6.44,2.86,10.96-4.2,15.57-7.9,124.88-100.11,249.57-200.45,374.66-300.3,13.05-10.42,12.09-15.83-1.65-24.12-128.71-77.67-257.23-155.64-385.6-233.88-15.7-9.57-19.98-4.91-19.8,11.61.4,36.24.12,72.5.12,108.74Zm-3763.94,70.1c-1.47,2.34-2.95,4.69-4.42,7.03,23.94,26.68,46.49,54.85,72.62,79.18,8.41,7.83,24.15,8.49,29.32,22.45,12.52,33.8,38.84,39.85,71.55,39.24,159.24-3,318.5-4.68,477.75-6.85,8.8-.12,17.21-.79,25.85-4.19,119.32-47.01,238.85-93.49,358.18-140.47,6.13-2.41,15.24-2.02,19.66-13.9-352,5.87-701.25,11.69-1050.51,17.51Zm1872.69,137.18c-.27-1.61-.54-3.21-.81-4.82-9.29,0-18.59-.12-27.88.02-153.14,2.2-306.28,4.29-459.42,6.71-83.19,1.31-166.38,3.76-249.57,4.42-21.08.17-27.71,7.65-27.08,28.16,2.4,77.82,3.62,155.68,5.17,233.52.65,32.56.55,32.63,29.83,21.04,183.51-72.67,367-145.37,550.5-218.06,59.75-23.67,119.52-47.32,179.27-70.98Zm721.78-1043.3c.69-1.05,1.37-2.1,2.06-3.14-3.85-1.96-7.64-4.02-11.55-5.87-452.27-213.55-904.55-427.09-1356.85-640.59-36.82-17.38-73.84-34.34-110.66-51.74-13.61-6.43-19.16-2.97-19.67,12.4-.68,20.3-4.14,40.51-4.6,60.8-1.45,64.15-9.87,50.05,47.67,73.1,9.04,3.62,18.21,6.9,27.31,10.37,475.43,181.55,950.86,363.11,1426.28,544.67Zm-9.91,79.12c-65.29-19.04-134.68-1.8-203.69-8.32-136.19-12.86-273.87-10.1-410.95-13.38-112.33-2.69-224.79-2.44-336.97-7.91-78.68-3.84-157.38-2.28-236.07-6.69-97.1-5.44-194.55-4.79-291.83-7.28-16.29-.42-24.11,5.04-25.96,21.97-3.47,31.81-1.57,63.64-2.48,95.44-.41,14.24,7.61,18.88,20.12,17.96,21.08-1.54,42.1-4.04,63.2-5.32,96.19-5.81,192.41-11.18,288.61-17.01,137.66-8.35,275.29-17.13,412.95-25.4,98.84-5.94,197.73-10.99,296.57-17.05,142.95-8.76,285.86-18.08,426.5-27.01ZM48.59,2130.36c.44,1.52.87,3.04,1.31,4.56,8.48,0,16.97.08,25.45-.01,68.16-.78,136.29-1.55,204.45-3.52,138.06-3.98,276.21-4.84,414.32-7,29.48-.46,29.69-.91,14.48-27.06-46.73-80.34-94.11-160.31-139.69-241.3-11.13-19.78-19.99-21.05-38.65-9.89-113.97,68.17-228.61,135.22-343.04,202.63-46.2,27.22-92.42,54.4-138.63,81.59ZM4729.14,932.03l1.73,5.38c398.19,10,796.37,19.99,1194.56,29.99-3.96-4.6-8.06-6.16-12.31-7-235.1-46.71-470.23-93.31-705.32-140.09-27.85-5.54-54.62-9.26-83.39-.23-62.44,19.61-125.9,35.96-188.93,53.71-68.79,19.38-137.56,38.83-206.35,58.25Zm-2472.81-62.56c193.93,5.68,381.37,12.24,568.88,16.29,125.63,2.71,251.21,6.09,376.79,10.35,74.28,2.52,148.7.32,222.9,6.03,17.48,1.34,26.26-4.46,26.35-23.47.14-27.38,1.31-54.84,3.74-82.11,2.13-23.89-6.84-30.81-30.41-28.65-192.79,17.72-385.63,34.87-578.5,51.58-194.42,16.84-388.89,32.99-589.74,49.98Zm58.08-568.64c8.08.53,9.86.94,11.56.72,174.48-22.57,348.92-45.41,523.42-67.75,197.31-25.26,394.63-50.4,592.07-74.59,18.12-2.22,24.45-8.52,25.14-25.85,1.05-26.48,3.43-52.94,6.22-79.3,3.51-33.17,3.79-33.38-29.83-25.3-201.25,48.38-402.49,96.8-603.71,145.31-172.82,41.66-345.61,83.46-524.87,126.76Zm2514.52,654.61c-.05-.39-.09-.78-.13-1.17,13.87,2.05,27.7,4.41,41.61,6.11,178.9,21.88,357.83,43.45,536.7,65.54,206.04,25.45,412.04,51.18,618,77.26,19.4,2.46,21.27-5.45,16.72-20.72-8.08-27.1-16.53-54.12-23.61-81.48-4.01-15.49-12.28-20.93-28.19-21.3-129.08-3-258.13-7.13-387.21-10.18-121.15-2.86-242.4-2.76-363.44-7.92-78.69-3.35-157.4-2.08-236.07-5.63-58.02-2.62-116.25-.51-174.39-.51ZM530.9,1833.71c-37.37,0-72.22-.43-107.06.08-121.95,1.78-243.9,3.83-365.84,5.87-38.15.64-38.61.77-38.04,37.76,1.14,75.07,2.77,150.14,4.31,225.2.57,27.73,1.51,28.35,26.22,13.85,96.03-56.37,191.94-112.94,287.9-169.43,63.73-37.52,127.47-75.03,192.53-113.33Zm4560.96-1015.24c-.2-1.2-.4-2.4-.6-3.6-499.95,30.06-999.89,60.13-1499.84,90.19,212.25,6.64,424.4,12.63,636.54,18.45,140.64,3.86,281.29,7.54,421.94,11.13,11.28.29,22.13,3.33,34.02-.33,43.1-13.28,86.62-25.2,130.03-37.47,92.62-26.18,185.27-52.25,277.9-78.36Zm-1727.3-55.33c-68.99-4.8-132.16,2.62-195.87-4.75-63.86-7.39-129.02-3.85-193.61-5.99-177.82-5.89-356.01-4.16-533.48-14.84-73.39-4.42-130.04,12.15-181.71,61.07-23.9,22.63-51.94,40.88-78.11,61.11.81,1.73,1.62,3.45,2.42,5.18,391.56-33.76,783.13-67.53,1180.36-101.78Zm2697.05,505.36h.21c0,41.58.63,83.18-.29,124.74-.41,18.68,6.96,26.57,25,24.07,41.18-5.72,75.85,8.78,108.89,31.87,23.15,16.18,48.65,28.98,72.38,44.4,13.32,8.65,21.26,7.96,29.09-7.03,24.99-47.82,50.83-95.19,76.78-142.5,6.79-12.38,9.28-21.69-5.51-30.84-96.32-59.57-192.36-119.6-288.27-179.83-14.16-8.89-18.49-5.13-18.38,10.37.29,41.58.1,83.16.1,124.75ZM2226.79,324.86l-.78,6.11c44.19,25.48,88.38,50.96,132.58,76.42,8.65,4.98,17.48,1.52,25.86-.42,260.17-60.28,520.3-120.73,780.42-181.2,49.15-11.43,98.25-23.07,147.38-34.62-.33-1.63-.65-3.26-.98-4.9-361.49,46.2-722.98,92.4-1084.48,138.61Zm266.54,1481.17c-2.15-11.32-11.7-8.08-18.49-7.95-45.92.91-91.83,2.8-137.75,3.44-70.71.99-141.42,1.16-212.13,1.93-5.73.06-13.56-2.91-16.54,4.41-2.21,5.42,3.32,9.49,6.67,13.42,72.24,84.7,144.71,169.19,216.59,254.19,12.75,15.07,18.7,12.96,27.12-3.89,41.89-83.75,84.73-167.02,127.21-250.47,2.4-4.71,4.62-9.5,7.33-15.1Zm2213.95-41.94c-7.15-2.08-8.84-3.02-10.51-3-121.2,1.64-242.39,3.5-363.59,4.95-22.01.26-12.04,11.03-7.06,19.65,48.25,83.47,96.92,166.71,144.89,250.34,9.05,15.78,14.77,18.81,27.23,2.17,50.4-67.25,102.04-133.57,153.14-200.3,18.13-23.68,36.01-47.54,55.9-73.81Zm-2578.99,30.27c110.54-6.76,215.75-4.01,320.9-5.41,7.94-.11,15.92-.39,23.81-1.22,12.27-1.29,19-4.37,7.43-17.27-74.92-83.53-149.67-167.22-223.96-251.32-14.55-16.47-21.65-11.67-29.75,5.45-35.87,75.87-72.39,151.43-108.66,227.11-4.2,8.76-8.08,17.68-12.45,26.36-5.36,10.65-4.08,16.91,9.59,16.34,6.18-.26,12.37-.04,13.08-.04Zm2225.61-37.25c86.6-6.4,173.38-3.86,260.08-5.1,24.77-.35,49.56-.44,74.3-1.48,14.19-.6,21.64-5.29,12.43-21.57-47.02-83.17-93.51-166.64-139.83-250.2-8.57-15.47-14.89-13.27-24.42-.6-21.27,28.27-43.67,55.7-65.58,83.49-46.01,58.37-92.03,116.73-137.98,175.14-3.74,4.75-10.81,9.37-8.49,15.53,3.2,8.49,12.33,3.78,18.88,4.74,3.47.51,7.07.09,10.61.04Zm-3491.14,67.24c-90.99,4.11-182.03,5.38-273.1,5.25-14.56-.02-23.2,1.77-13.15,18.94,49.54,84.68,98.81,169.51,147.92,254.43,6.37,11.02,11.44,14.8,20.53,2.26,63.82-88.02,127.85-175.89,192.06-263.64,11.47-15.68,2.81-17.39-10.59-17.3-21.22.15-42.45.04-63.67.04Zm-293.2-8.06c50.67,0,96.5.49,142.31-.12,69.77-.93,139.57,1.21,209.32-3.52,20.94-1.42,27.82-5.32,15.57-25.97-47.78-80.51-95.13-161.28-141.72-242.48-10.52-18.33-16.34-15.15-26.94-.37-49.98,69.6-100.74,138.63-151.24,207.84-15.43,21.15-30.92,42.25-47.29,64.61Zm5614.34,202.58c8.93,6.59,16.01,3.87,22.55,2.99,115.65-15.5,231.22-31.64,346.94-46.54,21.56-2.78,27.94-12.45,27.56-33.04-1.3-71.67-1.15-143.37-1.88-215.05-.07-6.4,3.2-14.27-6.54-20.3-129,103.54-258.4,207.41-388.64,311.94ZM52.2,840.08c-2.4,1.29-4.81,2.58-7.21,3.87,4.62,33.94,9.58,67.85,13.71,101.85,2.06,16.98,10.32,28.62,23.89,39,227,173.63,453.68,347.67,680.56,521.45,3.96,3.04,7.39,10.99,17.82,2.55-243.36-223.31-486.06-446.01-728.76-668.71Zm6085.84,615.31c-3.04,1.66-5.14,2.07-5.72,3.23-43.97,87.82-87.63,175.8-131.89,263.47-6,11.89-.66,20.02,4.57,29.34,31.63,56.32,63.05,112.76,94.64,169.1,14.9,26.58,30.03,53.03,45.05,79.53,1.87-.53,3.74-1.07,5.6-1.6-4.08-180.7-8.15-361.4-12.25-543.06Zm-3977.06-594.33c55.31-42.07,103.83-80.11,153.7-116.29,16.96-12.31,18.32-23.95,11.78-42.37-34-95.75-66.79-191.93-100.15-287.91-6.18-17.79-13.09-35.33-19.66-52.98-1.46.28-2.92.55-4.38.83-13.53,163.4-27.05,326.8-41.29,498.71Zm923.49,913.94c58.55-3.85,116.58-1.37,174.52-5.91,66.74-5.23,134.32-.51,201.5,1.42,16.68.48,22.01-3.92,21.54-20.18-.97-33.58-1.67-67.23-.4-100.78.87-23.16-5.67-27.38-27.17-18.7-72.97,29.44-146.51,57.44-219.85,85.95-50.03,19.44-100.08,38.81-150.13,58.21Zm-747.04-1072.18c7.28-93.56,13.83-179.63,20.87-265.67.8-9.81-.37-17.53-9.32-22.68-44.16-25.38-88.34-50.73-139.02-79.82,43.35,125.19,84.23,243.26,127.47,368.17Zm-1570.58,1404.43c1.02,1.69,2.03,3.38,3.05,5.07,53.54-17.42,107.12-34.7,160.58-52.35,10.88-3.59,15.71-13.73,21.31-22.76,32.68-52.64,65.41-105.25,98.11-157.88,10.38-16.7,20.72-33.43,31.07-50.15-1.41-.98-2.82-1.95-4.23-2.93-103.3,93.67-206.6,187.34-309.9,281.01Zm5229.79-310.66l-4.14.91c0,53.75-.04,107.49.04,161.24.01,8.87-.52,18.61,10.4,22.01,44.86,14,89.81,27.7,142.19,43.81-51.94-93.03-99.59-178.39-147.25-263.75-.98.49-1.96.97-2.95,1.46,18.23,46.91,36.46,93.81,54.04,139.03,7.62-.65,1.2-11.34,11.26-8.96,1.14,6.03.18,14.66,3.79,17.51,12.18,9.62,12.13,26.17,4.21,30.06-15.29,7.52-19.27-10-24.21-20.78-4.41-9.63-7.61-19.81-11.44-29.71-11.96-30.96-23.97-61.9-35.96-92.85Zm-23.17,151.67c3.47-.6,6.94-1.21,10.41-1.81,0-60.87-.22-121.74.13-182.6.11-18.93-6.99-26.29-26.87-24.83-26.42,1.94-53.08.8-79.63.79-12.13,0-16.63,3.94-10.02,15.91,35.42,64.12,70.67,128.35,105.98,192.54Zm-4911.76-123.45c-34.17,0-62.06-.07-89.96.05-6.77.03-11.55,4.07-15.32,9.23-59.71,81.64-119.37,163.31-179.05,244.97l2.3,1.8c92.59-84.06,185.19-168.12,282.03-256.04Zm4987.81-658.91c-1.51-.05-3.02-.09-4.53-.14-20.21,66.85-41.24,133.47-60.36,200.64-15.49,54.41-28.18,50.52,41.36,51.14,17.12.15,23.79-6.45,23.7-23.4-.39-76.08-.17-152.16-.17-228.23Zm338.4,184.65l-5.05-.46c-25.94,48.06-51.67,96.23-77.96,144.09-6.15,11.19-6.64,18.78,5.99,25.79,20.81,11.56,41,24.25,61.19,36.87,10.92,6.82,15.93,5.11,15.91-8.47-.14-65.94-.06-131.88-.06-197.82Zm-258.55-227.52c-.4,1.51-.8,3.03-1.2,4.54,77.56,49.09,155.08,98.26,232.78,147.13,6,3.77,12.58,12.45,20.63,3.6,10.29-11.31.33-63.57-13.69-68.72-79.38-29.2-158.99-57.77-238.52-86.56Zm-278.33,625.96c-1.83,1.05-3.65,2.09-5.48,3.14,8.89,54.85,17.45,109.76,26.97,164.5,1.84,10.61.67,24.53,14.58,29.05,26.47,8.6,52.49,19.09,85.48,23.94-42.03-76.29-81.79-148.46-121.56-220.62Zm-4484.87,71.35c-31.82-1.34-185.89,124.57-210.08,167.31,23.56-7.45,44.41-13.62,64.96-20.68,17.4-5.98,38.99-6.46,50.71-20.97,31.93-39.5,61.24-81.1,94.4-125.66Zm4677.59-800.26c4.98,52.64,31.24,80.84,78.93,89.05,7.7,1.33,14.93,5.3,22.4,7.99,51.96,18.67,103.93,37.33,155.9,55.99.75-1.63,1.51-3.26,2.26-4.89-85.94-49.07-171.89-98.13-259.48-148.14Zm-1582.7-464.35c-.51,1.11-1.01,2.23-1.52,3.34,4.01,1.56,8.02,3.15,12.04,4.69,189.93,72.65,379.98,144.96,569.63,218.33,27.18,10.52,54.28,17.23,83.97,15.28-221.38-80.55-442.75-161.09-664.13-241.64Zm-982.87-386.6c-1.57,4.16-3.15,8.33-4.72,12.49,224.13,83.85,449.46,164.54,675.46,243.46-223.58-85.32-447.15-170.63-670.73-255.95Zm2207.46,1572.08c-5.86,14.67-.22,20.18,2.95,26,22.35,41.09,44.76,82.15,67.59,122.96,13.32,23.81,58.5,42.6,91.61,37.64-53.71-61.81-106.61-122.69-162.15-186.61Zm47.16,160.05c1.32-1.95,2.63-3.89,3.95-5.84-45.29-48.07-90.57-96.14-135.88-144.18-1.2-1.27-2.67-2.38-4.21-3.21-4.91-2.66-10.11-4-14.73.18-3.85,3.49-3.51,8.58-.96,12.17,8.27,11.67,17.13,22.93,26,34.16.73.93,4.28-.13,4.76.73,3.71,6.59,11.53,17.54,9.7,19.55-17.98,19.82,3.15,29.99,10.49,41.53,23.81,37.44,67.29,29.55,100.88,44.91Zm-4572.23-75.26c-25.9-5.01-53.17-14.68-68.7,8.46-36.18,53.91-69.25,109.91-103.58,165.06,1.32,1.05,2.63,2.1,3.95,3.14,56.11-58.89,112.22-117.77,168.33-176.66Zm4691.85,73.46c1.92-.64,3.84-1.28,5.76-1.91-7.98-47.5-15.45-95.09-24.3-142.43-2.02-10.81-49.35-17.21-57.88-8.91-4.1,3.99-2.31,8.15-.24,11.98,25.49,47.12,51.09,94.19,76.67,141.27Zm-4882.99,143.11c36.23-3.71,55.89-9.29,64.89-21.37,42.96-57.64,85.18-115.82,127.66-173.81-1.25-.99-2.5-1.98-3.75-2.97-61.67,64.73-123.34,129.45-188.8,198.15ZM2855.84,323.81c-.24-1.13-.48-2.25-.72-3.38-51.63,10.78-103.26,21.59-154.91,32.32-102.03,21.18-204.08,42.23-306.06,63.6-8.64,1.81-24.67.66-21.26,12.9,3.31,11.9,17,2.36,25.53.47,55.26-12.26,110.38-25.2,165.52-38.01,97.3-22.6,194.59-45.26,291.89-67.9Zm155.38-51.47c.09,1.4.17,2.81.26,4.21,146.79-30.5,293.58-61,440.37-91.5,6.09-1.27,14-2.23,11.33-10.75-2.77-8.82-10.57-3.69-15.9-2.47-145.38,33.38-290.72,66.97-436.06,100.52Zm-1753.69,1554.51c-1.66-1.58-3.31-3.16-4.97-4.74-61.79,65.84-123.59,131.67-180.36,192.16,10.58-3.53,33.32-3.91,47.59-20.75,46.59-54.98,91.91-111.03,137.73-166.67Zm4449.36-78.71c42.52,49.22,82.81,95.85,123.09,142.48-16.72-39.65-38.52-75.97-56.39-114.13-13.1-27.98-31.06-38.65-66.7-28.35Zm-4611.62,209.24c49.8-43.29,100.06-85.39,146.43-137.48-24.38-.06-43.36-5.81-57.71,15.08-28.52,41.52-59.04,81.68-88.73,122.39Zm4628.08-92.43c1.44-1.27,2.88-2.55,4.32-3.82-16.09-29.26-32-58.63-48.33-87.76-18.02-32.15-24.61-34.55-64.52-23.87,36.58,38.91,72.56,77.18,108.53,115.45Zm-1385.51-157.65c-47.42,16.13-92.33,31.4-137.25,46.68,49.52-1.87,108.21,22.99,137.25-46.68Zm-3151.08,223.03c1.04,1.35,2.07,2.71,3.11,4.06,41.41-36.85,82.82-73.7,126.32-112.41-25.47-7.33-41.13-1.13-54.65,16.38-24.14,31.26-49.77,61.37-74.78,91.97Z"/>
  </g>
</svg>