<?xml version="1.0" encoding="UTF-8"?>
<svg id="Layer_2" data-name="Layer 2" xmlns="http://www.w3.org/2000/svg" viewBox="0 0 1073.18 1073.18">
  <defs>
    <style>
      .cls-1 {
        fill: none;
      }

      .cls-2 {
        fill: #010101;
        stroke: #fff;
        stroke-miterlimit: 10;
        stroke-width: 5px;
      }
    </style>
  </defs>
  <g id="Layer_1-2" data-name="Layer 1">
    <rect class="cls-1" width="1073.18" height="1073.18"/>
    <g id="Layer_1-2" data-name="Layer 1-2">
      <path class="cls-2" d="m415.03,597.73c1.44,1.65,2.91,3.27,4.3,4.97.97,1.2,2.05,1.64,3.67,1.59,11.82-.35,23.64-.34,35.46-.62,22.54-.53,45.1-.47,67.64-1.01,9.96-.24,19.92-.43,29.88-.54,1.55-.02,2.7-.06,2.61-2.27-.88-20.76-1.53-41.53-2.53-62.29-.27-5.68-.27-11.37-.69-17.05-.26-3.5-.77-3.72-3.68-2.03-30.1,17.48-60.19,34.98-90.3,52.45-15.43,8.95-30.89,17.85-46.34,26.77-.01-2.17,1.95-2.49,3.26-3.25,44.01-25.59,88.04-51.13,132.05-76.7.77-.45,1.88-.6,2.11-1.72-17.45-.52-34.83-1.08-52.22-1.54-13.9-.36-27.81-.31-41.7-.98-9.84-.48-19.69-.23-29.54-.87-10.04-.65-20.13-.5-30.2-.83-2.63-.09-3.55.84-3.31,3.41.35,3.81.51,7.64.76,11.46,1.27,18.98,2.63,37.96,3.75,56.95.17,2.9,1.26,3.61,3.79,3.33.99-.11,2.03-.71,2.83.73,2.14,3.87,5.62,6.67,8.39,10.04h0Zm-198.63,69.73c-.66-.02-1.46-.01-2.43,0-21.58.27-43.15.52-64.73.83-5.36.08-10.73.27-16.09.53-2.4.12-3.48-.94-3.51-3.21-.11-11.39-.19-22.78-.27-34.17-.01-1.68,1.1-2.18,2.54-2.42,4.75-.81,9.47-1.75,14.23-2.48,1.82-.28,2.34-.94,2.08-2.81-2.41-17.44-4.7-34.9-7.08-52.34-2.74-20.04-5.59-40.07-8.3-60.12-1.02-7.57-.92-7.65,6.56-9.37,24.53-5.62,49.08-11.19,73.63-16.79l8.56-1.91c.23-.04.47-.09.72-.15,15.98-3.76,31.99-7.38,47.99-11.04,45.76-10.48,91.57-20.73,137.27-31.49,49.75-11.72,99.39-23.91,149.08-35.92,1.32-.32,2.5-.35,3.82.15,6.53,2.51,13.11,4.9,19.66,7.37,1.06.4,1.87.71,2.49.88l5.76,2.26c.24.12.5.23.79.33,8.23,3,16.4,6.17,24.59,9.27,77.8,29.53,155.6,59.04,233.37,88.64,10.11,3.85,20.58,6.89,30.06,12.24,13.25,7.48,26.38,15.16,39.6,22.7,1.73.99,2.38,2.19,2.45,4.19.5,13.68.19,27.37.18,41.06,0,2.91.9,4.56,3.42,5.98,5.91,3.34,11.64,6.99,17.45,10.51,1.53.92,2.85,1.83,2.88,3.99.13,10.18.33,20.36.62,30.54.08,2.66-1,3.58-3.57,3.91-14,1.81-27.96,3.86-41.95,5.66-3.86.5-7.7,1.45-11.71.24-19.38-5.86-38.79-11.63-58.22-17.33-2.53-.74-4.18-2.13-5.38-4.38-2.11-3.95-4.37-7.82-6.51-11.76-.69-1.27-1.51-1.9-3.1-1.83-16.42.68-32.86.02-48.78,1.06-16.49-.38-32.47.62-48.46.57-2.73,0-4.38.99-5.97,3.11-8.16,10.85-16.51,21.57-24.67,32.42-1.75,2.33-3.7,3.3-6.63,3.32-18.18.14-36.36.42-54.54.7-10.4.16-20.8.48-31.21.58l-6.8.05c-4.7.21-9.41.36-14.11.45-25.62.45-51.24.91-76.86,1.29-23.22.35-46.44.38-69.65,1.08-5.72.17-9.19-1.69-12.62-5.95-7.96-9.89-16.39-19.4-24.65-29.05-1.12-1.31-2.16-2.55-4.3-2.51-23.54.46-47.08.8-70.62,1.2-4.05.07-8.09.33-12.14.4-1.71.03-2.85.73-3.82,2.09-3.12,4.37-6.34,8.66-9.47,13.01-1.26,1.76-2.82,2.92-4.92,3.59-19.59,6.27-39.13,12.66-58.75,18.85l-7.97,1.99m-80.89-162.51c-.16.35-.33.69-.49,1.04.94.72,1.93,1.37,2.8,2.16,28.74,26.34,57.48,52.68,86.14,79.11,1.94,1.79,3.8,2.5,6.39,2.44,13.69-.32,27.37-.51,41.06-.69,1.61-.02,2.94-.46,4.28-1.33,37.63-24.5,75.29-48.96,112.92-73.46.86-.56,2.01-.86,2.56-2.5-85.36-2.26-170.51-4.51-255.67-6.76h0Zm3.41-1.52c5.24.28,9.61.67,13.99.72,16.42.2,32.83.87,49.25,1.27,25.17.62,50.34,1.31,75.52,1.99,16.2.44,32.39.82,48.59,1.32,20.24.63,40.5,1.03,60.75,1.42,6.85.13,7.41,1.53,7.54-6.77,0-.44.07-.87.11-1.31,1.5-18.2,2.94-36.4,4.54-54.59.26-2.98-.4-3.45-3.31-2.78-77.96,17.86-155.95,35.63-233.93,53.42-7.42,1.69-14.83,3.42-23.04,5.32h0Zm612.5-2.67c.03.15.06.3.09.45-.97-.39-1.94-.81-2.92-1.18-31.2-11.9-62.4-23.78-93.59-35.71-31.16-11.92-62.3-23.9-93.46-35.86-3.56-1.36-3.61-1.32-3.64,2.42-.08,9.42.11,18.85-.29,28.25-.48,11.28-.19,22.55-.53,33.82-.08,2.49.7,3.65,3.33,3.57,2.07-.06,4.15.33,6.22.39,25.94.69,51.88,1.38,77.83,2.02,14.01.35,28.03.55,42.04.9,9.3.23,18.6.78,27.9.9,12.34.16,24.68.04,37.02.04h0Zm-48.89,20.25c-11.71-1.72-23.31-1.29-34.88-1.85-13-.62-26.05-.4-39.05-1.03-8.86-.43-17.72-.33-26.58-.69-14.21-.57-28.44-.76-42.66-1.16-2.19-.06-2.94.93-2.79,2.98.21,2.94.39,5.89.5,8.84.73,19.56,1.43,39.13,2.18,58.69.18,4.78.54,9.56.85,14.73,47.62-26.91,95.03-53.71,142.44-80.5h0Zm170.72,20.3c-.03-.15-.05-.3-.08-.46-26.38-3.29-52.75-6.61-79.13-9.87-28.01-3.46-56.04-6.83-84.04-10.34-2.29-.29-2.9.39-2.97,2.51-.59,18.16-1.18,36.32-1.95,54.47-.15,3.46,1.04,4.32,4.29,4.15,14.88-.8,29.78-.64,44.68-.75,2.76-.02,5.42-.58,8.04-1.48,19.46-6.72,38.92-13.41,58.39-20.11,17.59-6.05,35.18-12.09,52.77-18.13h0Zm-310.43,60.21c.06.18.12.36.19.54,1.09,0,2.19.06,3.27,0,17.06-1.04,34.15-.45,51.23-1.04,18.71-.64,37.44-.64,56.17-.84,2.09-.02,3.5-.68,4.67-2.37,2-2.9,3.87-5.9,5.73-8.85,2.7-4.27,6.39-8.78,12.91-7.21.93.23,1.97-.08,2.95.03,2.63.29,3.71-.74,3.79-3.46.53-18.15,1.15-36.3,1.79-54.45.08-2.36-.72-2.75-2.62-1.55-.55.35-1.14.65-1.71.97-34.8,19.66-69.59,39.31-104.38,58.98-11.33,6.4-22.65,12.83-33.97,19.25h0Zm-285.93-13.07c6.51,0,12.41.03,18.31,0,9.64-.06,19.28-.07,28.92-.25,17.94-.32,35.86-1.47,53.82-1.17,6.13.1,12.27-.03,18.41-.05,1.39,0,2.67,0,2.49-2.05-.27-3.16-.35-6.34-.55-9.5-1.28-19.54-2.56-39.08-3.86-58.62-.08-1.27.38-2.95-.96-3.58-1.16-.54-2.14.83-3.11,1.46-30.14,19.55-60.27,39.13-90.39,58.7-7.6,4.94-15.18,9.9-23.07,15.04h0Zm150.21-95.5c8.61.27,16.22.55,23.82.74,12.59.33,25.18.58,37.76.91,21.23.55,42.46,1.12,63.68,1.75,2.45.07,3.21-.84,3.24-3.23.11-10.72.37-21.45.57-32.17.18-9.74-.12-19.48.58-29.22.3-4.21-.02-4.38-3.71-2.52-36.86,18.59-73.71,37.18-110.56,55.79-4.85,2.45-9.65,4.98-15.38,7.95h0Zm452.52,87.62c-7.56-.4-15.05-.16-22.55,0-25.72.59-51.44.94-77.16,1.35-19.27.31-38.53.56-57.8.86-8.75.14-17.51.41-26.26.5-2.67.03-3.34.57-1.86,3.14,5.56,9.68,11.07,19.39,16.34,29.23,1.56,2.92,3.08,3.71,6.4,2.93,44.29-10.43,88.63-20.69,132.95-31.01,9.99-2.32,19.97-4.67,29.95-7.01h0Zm-481.28,7.85c-16.5.85-32.82.09-49.13.65-19.48.66-38.97.63-58.46.96-20.25.34-40.5.74-60.75,1.13-3.58.07-3.64.21-1.74,3.47,5.63,9.64,11.41,19.2,16.83,28.96,1.65,2.97,3.27,3.5,6.45,2.67,36.74-9.58,73.52-19.01,110.29-28.48,12.17-3.13,24.34-6.24,36.51-9.35h0Zm322.5,30.49c.02.18.05.36.07.54,23.2-.45,46.4-.96,69.6-1.33,23.98-.38,47.96-.62,71.93-.93.88-.01,1.75-.06,2.63-.06,2.54,0,4.15-1.06,5.31-3.49,4.67-9.78,9.57-19.44,14.33-29.18.49-1.01,1.78-2.16.86-3.24-.87-1.02-2.26-.12-3.4.15-43.91,10.21-87.81,20.43-131.71,30.65-9.87,2.3-19.75,4.58-29.62,6.88h0Zm-139.56-204.92c-.07.14-.13.28-.2.42,1.23.62,2.45,1.26,3.69,1.85,56.02,26.46,112.03,52.95,168.1,79.32,5.61,2.64,10.88,6.05,17.16,7.27,27.59,5.38,55.16,10.91,82.73,16.37,2.64.52,5.29.96,7.94,1.44.03-.19.06-.38.1-.56-93.18-35.37-186.35-70.74-279.53-106.1h0Zm-444.72,112.78c.08,1.55.07,2.06.14,2.56,1.46,10.61,2.95,21.22,4.39,31.84,2.91,21.45,5.82,42.9,8.66,64.36.35,2.67,1.42,3.68,4.24,3.57,13.81-.52,27.63-1.03,41.46-.86.73,0,1.23-.31,1.72-.78,1.7-1.63.8-3.04-.19-4.62-18.54-29.47-37.04-58.96-55.55-88.44-1.43-2.27-2.89-4.53-4.86-7.62h0Zm288.43,135.36c.02.13.05.26.07.39,1.28,0,2.56.07,3.83-.01,16.51-1.05,33.05-.52,49.57-1.01,25.6-.76,51.22-.95,76.83-1.39,4.28-.07,4.3-.09,4.24-4.53-.11-8.75-.03-17.5-.51-26.25-.34-6.34.4-5.78-5.43-4.11-34.92,9.99-69.84,20.01-104.75,30.03-7.95,2.28-15.9,4.59-23.85,6.88h0Zm-170.19-35.41c.07.18.14.37.2.55,21.45-.42,42.9-.89,64.35-1.26,21.02-.36,42.04-.65,63.06-.84,2.63-.02,4.16-.73,5.32-3.22,4.83-10.42,9.87-20.76,14.82-31.12.27-.57.75-1.11.09-2.13-49.2,12.66-98.52,25.34-147.84,38.03h0Zm295.84-198.37c-14.09,3.33-28,6.65-41.92,9.89-28.03,6.54-56.06,13.05-84.12,19.5-2.16.5-3.13,1.32-3.28,3.62-.6,9.14-1.46,18.25-2.06,27.39-.29,4.43,1.92,5.64,6.09,3.53,41.05-20.76,82.09-41.53,123.13-62.31.72-.36,1.68-.45,2.16-1.62h0Zm-410.79,99.42c-.17.17-.34.34-.51.51.16.39.27.82.49,1.17,19.32,30.78,38.66,61.54,57.95,92.34,1.51,2.4,2.38,1.7,3.7-.13,6.52-9.06,13.04-18.13,19.75-27.05,1.79-2.38,1.36-3.52-.86-5.21-22.38-17.05-44.68-34.2-67.01-51.32-4.5-3.45-9.01-6.88-13.52-10.31h0Zm425.77,131.74c8.68.28,17.26.33,25.86.09,19.37-.55,38.76-.64,58.14-.95,9.41-.15,18.83-.42,28.24-.53,2.53-.03,3.5-.41,1.91-3.09-5.92-9.98-11.77-20.01-17.45-30.12-1.4-2.5-2.69-2.69-5.21-1.68-20.93,8.4-41.92,16.65-62.89,24.95-9.54,3.78-19.07,7.56-28.61,11.34h0Zm-145.06,1.6c.19.24.37.48.56.72,43.96-12.61,87.92-25.21,131.89-37.82-19.44.53-38.81-.01-58.16.62-17.61.58-35.23.64-52.85.82-2.38.02-3.8.74-4.87,2.93-3.22,6.58-6.65,13.06-9.97,19.6-2.22,4.37-4.4,8.75-6.6,13.13h0Zm254.6-59.32c-.84-.18-1.15-.31-1.45-.3-14.78.28-29.56.62-44.34.84-22.01.33-44.02.63-66.03.82-2.77.02-3.69.92-3.46,3.63.31,3.59.38,7.21.48,10.82.12,4.36.09,4.39,4.44,4.33,20.81-.25,41.61-.35,62.41-.87,8.25-.21,16.57-.55,24.47-3.66,4.48-1.76,9.09-3.17,13.67-4.66.99-.32,1.78-.76,2.41-1.56,2.36-3.01,4.72-6.01,7.38-9.39h0Zm200.61-59.93c-37.27,12.81-74.14,25.48-111.01,38.16,1.16.53,2.21.53,3.27.53,25.28.12,50.54-1.25,75.81-1.43,5.91-.04,11.83-.09,17.74.06,2.46.06,3.68-.67,4.39-3.19,2.58-9.16,5.45-18.24,8.15-27.37.6-2.04,1.58-4.03,1.65-6.75h0Zm13.23,55.16h.86c0,10.93-.07,21.86.02,32.79.05,6.67.34,13.33.55,20,.03.82-.36,1.93.62,2.36.8.35,1.36-.52,1.93-.98,15.45-12.38,30.87-24.8,46.35-37.15,1.61-1.29,1.5-1.96-.2-2.98-15.92-9.61-31.82-19.25-47.7-28.93-1.94-1.18-2.47-.61-2.45,1.44.05,4.48.01,8.97.01,13.45h0Zm-465.63,8.67c-.18.29-.36.58-.55.87,2.96,3.3,5.75,6.79,8.98,9.8,1.04.97,2.99,1.05,3.63,2.78,1.55,4.18,4.8,4.93,8.85,4.85,19.7-.37,39.4-.58,59.1-.85,1.09-.01,2.13-.1,3.2-.52,14.76-5.82,29.55-11.57,44.31-17.38.76-.3,1.89-.25,2.43-1.72-43.55.73-86.75,1.45-129.96,2.17h0Zm231.67,16.97c-.03-.2-.07-.4-.1-.6-1.15,0-2.3-.01-3.45,0-18.94.27-37.89.53-56.83.83-10.29.16-20.58.47-30.87.55-2.61.02-3.43.95-3.35,3.48.3,9.63.45,19.26.64,28.89.08,4.03.07,4.04,3.69,2.6,22.7-8.99,45.4-17.98,68.1-26.98,7.39-2.93,14.79-5.85,22.18-8.78h0Zm89.29-129.06c.09-.13.17-.26.25-.39-.48-.24-.95-.5-1.43-.73-55.95-26.42-111.9-52.83-167.85-79.25-4.55-2.15-9.13-4.25-13.69-6.4-1.68-.8-2.37-.37-2.43,1.53-.08,2.51-.51,5.01-.57,7.52-.18,7.94-1.22,6.19,5.9,9.04,1.12.45,2.25.85,3.38,1.28,58.81,22.46,117.63,44.92,176.44,67.38h0Zm-1.23,9.79c-8.08-2.36-16.66-.22-25.2-1.03-16.85-1.59-33.88-1.25-50.84-1.66-13.9-.33-27.81-.3-41.69-.98-9.73-.48-19.47-.28-29.2-.83-12.01-.67-24.07-.59-36.1-.9-2.02-.05-2.98.62-3.21,2.72-.43,3.94-.19,7.87-.31,11.81-.05,1.76.94,2.34,2.49,2.22,2.61-.19,5.21-.5,7.82-.66,11.9-.72,23.8-1.38,35.7-2.1,17.03-1.03,34.06-2.12,51.09-3.14,12.23-.73,24.46-1.36,36.69-2.11,17.68-1.08,35.36-2.24,52.76-3.34h0Zm-608.97,163.28c.05.19.11.38.16.56,1.05,0,2.1,0,3.15,0,8.43-.1,16.86-.19,25.29-.44,17.08-.49,34.17-.6,51.25-.87,3.65-.06,3.67-.11,1.79-3.35-5.78-9.94-11.64-19.83-17.28-29.85-1.38-2.45-2.47-2.6-4.78-1.22-14.1,8.43-28.28,16.73-42.44,25.07-5.72,3.37-11.43,6.73-17.15,10.09h0Zm579.02-148.24l.21.67c49.26,1.24,98.52,2.47,147.78,3.71-.49-.57-1-.76-1.52-.87-29.08-5.78-58.17-11.54-87.25-17.33-3.45-.69-6.76-1.15-10.32-.03-7.72,2.43-15.57,4.45-23.37,6.64-8.51,2.4-17.02,4.8-25.53,7.21h0Zm-305.91-7.74c23.99.7,47.18,1.51,70.37,2.02,15.54.34,31.08.75,46.61,1.28,9.19.31,18.4.04,27.57.75,2.16.17,3.25-.55,3.26-2.9.02-3.39.16-6.78.46-10.16.26-2.96-.85-3.81-3.76-3.54-23.85,2.19-47.71,4.31-71.57,6.38-24.05,2.08-48.11,4.08-72.96,6.18h0Zm7.18-70.35c1,.07,1.22.12,1.43.09,21.58-2.79,43.16-5.62,64.75-8.38,24.41-3.12,48.82-6.23,73.24-9.23,2.24-.27,3.02-1.05,3.11-3.2.13-3.28.42-6.55.77-9.81.43-4.1.47-4.13-3.69-3.13-24.9,5.98-49.79,11.97-74.68,17.98-21.38,5.15-42.75,10.32-64.93,15.68Zm311.07,80.98s-.01-.1-.02-.14c1.72.25,3.43.55,5.15.76,22.13,2.71,44.27,5.38,66.39,8.11,25.49,3.15,50.97,6.33,76.45,9.56,2.4.3,2.63-.67,2.07-2.56-1-3.35-2.04-6.7-2.92-10.08-.5-1.92-1.52-2.59-3.49-2.63-15.97-.37-31.93-.88-47.9-1.26-14.99-.35-29.99-.34-44.96-.98-9.73-.41-19.47-.26-29.2-.7-7.18-.32-14.38-.06-21.57-.06h0Zm-531.7,108.65c-4.62,0-8.93-.05-13.24,0-15.09.22-30.17.47-45.26.73-4.72.08-4.78.1-4.71,4.67.14,9.29.34,18.57.53,27.86.07,3.43.19,3.51,3.24,1.71,11.88-6.97,23.74-13.97,35.62-20.96,7.88-4.64,15.77-9.28,23.82-14.02h0Zm564.23-125.59c-.02-.15-.05-.3-.07-.45-61.85,3.72-123.69,7.44-185.54,11.16,26.26.82,52.5,1.56,78.75,2.28,17.4.48,34.8.93,52.2,1.38,1.4.04,2.74.41,4.21-.04,5.33-1.64,10.72-3.12,16.09-4.64,11.46-3.24,22.92-6.46,34.38-9.69h0Zm-213.68-6.84c-8.53-.59-16.35.32-24.23-.59-7.9-.91-15.96-.48-23.95-.74-22-.73-44.04-.51-66-1.84-9.08-.55-16.09,1.5-22.48,7.55-2.96,2.8-6.43,5.06-9.66,7.56.1.21.2.43.3.64,48.44-4.18,96.88-8.35,146.02-12.59h0Zm333.65,62.52h.03c0,5.14.08,10.29-.04,15.43-.05,2.31.86,3.29,3.09,2.98,5.09-.71,9.38,1.09,13.47,3.94,2.86,2,6.02,3.59,8.95,5.49,1.65,1.07,2.63.98,3.6-.87,3.09-5.92,6.29-11.78,9.5-17.63.84-1.53,1.15-2.68-.68-3.82-11.92-7.37-23.8-14.8-35.66-22.25-1.75-1.1-2.29-.63-2.27,1.28.04,5.14.01,10.29.01,15.43Zm-474.4-116.74l-.1.76c5.47,3.15,10.93,6.3,16.4,9.45,1.07.62,2.16.19,3.2-.05,32.19-7.46,64.37-14.94,96.54-22.42,6.08-1.41,12.15-2.85,18.23-4.28-.04-.2-.08-.4-.12-.61-44.72,5.72-89.44,11.43-134.16,17.15h0Zm32.97,183.23c-.27-1.4-1.45-1-2.29-.98-5.68.11-11.36.35-17.04.43-8.75.12-17.49.14-26.24.24-.71,0-1.68-.36-2.05.55-.27.67.41,1.17.83,1.66,8.94,10.48,17.9,20.93,26.79,31.45,1.58,1.86,2.31,1.6,3.35-.48,5.18-10.36,10.48-20.66,15.74-30.99.3-.58.57-1.18.91-1.87h0Zm273.88-5.19c-.88-.26-1.09-.37-1.3-.37-14.99.2-29.99.43-44.98.61-2.72.03-1.49,1.36-.87,2.43,5.97,10.33,11.99,20.62,17.92,30.97,1.12,1.95,1.83,2.33,3.37.27,6.23-8.32,12.62-16.52,18.94-24.78,2.24-2.93,4.45-5.88,6.92-9.13h0Zm-319.04,3.74c13.67-.84,26.69-.5,39.7-.67.98-.01,1.97-.05,2.95-.15,1.52-.16,2.35-.54.92-2.14-9.27-10.33-18.52-20.69-27.71-31.09-1.8-2.04-2.68-1.44-3.68.67-4.44,9.39-8.96,18.73-13.44,28.1-.52,1.08-1,2.19-1.54,3.26-.66,1.32-.5,2.09,1.19,2.02.76-.03,1.53,0,1.62,0h0Zm275.33-4.61c10.71-.79,21.45-.48,32.17-.63,3.06-.04,6.13-.05,9.19-.18,1.76-.07,2.68-.65,1.54-2.67-5.82-10.29-11.57-20.61-17.3-30.95-1.06-1.91-1.84-1.64-3.02-.07-2.63,3.5-5.4,6.89-8.11,10.33-5.69,7.22-11.38,14.44-17.07,21.67-.46.59-1.34,1.16-1.05,1.92.4,1.05,1.53.47,2.34.59.43.06.87.01,1.31,0h0Zm-431.88,8.32c-11.26.51-22.52.67-33.78.65-1.8,0-2.87.22-1.63,2.34,6.13,10.48,12.22,20.97,18.3,31.47.79,1.36,1.42,1.83,2.54.28,7.9-10.89,15.82-21.76,23.76-32.61,1.42-1.94.35-2.15-1.31-2.14-2.63.02-5.25,0-7.88,0h0Zm-36.27-1c6.27,0,11.94.06,17.6-.01,8.63-.12,17.27.15,25.89-.44,2.59-.18,3.44-.66,1.93-3.21-5.91-9.96-11.77-19.95-17.53-30-1.3-2.27-2.02-1.87-3.33-.05-6.18,8.61-12.46,17.15-18.71,25.71-1.91,2.62-3.83,5.23-5.85,7.99h0Zm694.54,25.06c1.1.82,1.98.48,2.79.37,14.31-1.92,28.6-3.91,42.92-5.76,2.67-.34,3.46-1.54,3.41-4.09-.16-8.87-.14-17.74-.23-26.6,0-.79.4-1.77-.81-2.51-15.96,12.81-31.97,25.66-48.08,38.59h0ZM134.6,507.04c-.3.16-.6.32-.89.48.57,4.2,1.19,8.39,1.7,12.6.25,2.1,1.28,3.54,2.96,4.82,28.08,21.48,56.12,43.01,84.19,64.51.49.38.91,1.36,2.2.32-30.11-27.63-60.13-55.17-90.15-82.72h0Zm752.87,76.12c-.38.21-.64.26-.71.4-5.44,10.86-10.84,21.75-16.32,32.59-.74,1.47-.08,2.48.57,3.63,3.91,6.97,7.8,13.95,11.71,20.92,1.84,3.29,3.71,6.56,5.57,9.84.23-.07.46-.13.69-.2-.5-22.35-1.01-44.71-1.52-67.18h0Zm-491.99-73.52c6.84-5.2,12.84-9.91,19.01-14.39,2.1-1.52,2.27-2.96,1.46-5.24-4.21-11.85-8.26-23.74-12.39-35.62-.76-2.2-1.62-4.37-2.43-6.55-.18.03-.36.07-.54.1-1.67,20.21-3.35,40.43-5.11,61.69h0Zm114.24,113.06c7.24-.48,14.42-.17,21.59-.73,8.26-.65,16.62-.06,24.93.18,2.06.06,2.72-.48,2.66-2.5-.12-4.15-.21-8.32-.05-12.47.11-2.87-.7-3.39-3.36-2.31-9.03,3.64-18.12,7.11-27.2,10.63-6.19,2.4-12.38,4.8-18.57,7.2h0Zm-92.41-132.64c.9-11.57,1.71-22.22,2.58-32.87.1-1.21-.05-2.17-1.15-2.81-5.46-3.14-10.93-6.28-17.2-9.87,5.36,15.49,10.42,30.09,15.77,45.55Zm-194.29,173.74c.13.21.25.42.38.63,6.62-2.15,13.25-4.29,19.87-6.48,1.35-.44,1.94-1.7,2.64-2.82,4.04-6.51,8.09-13.02,12.14-19.53,1.28-2.07,2.56-4.14,3.84-6.2-.17-.12-.35-.24-.52-.36-12.78,11.59-25.56,23.18-38.34,34.76h0Zm646.97-38.43l-.51.11c0,6.65,0,13.3,0,19.95,0,1.1-.06,2.3,1.29,2.72,5.55,1.73,11.11,3.43,17.59,5.42-6.43-11.51-12.32-22.07-18.22-32.63-.12.06-.24.12-.36.18,2.26,5.8,4.51,11.61,6.69,17.2.94-.08.15-1.4,1.39-1.11.14.75.02,1.81.47,2.17,1.51,1.19,1.5,3.24.52,3.72-1.89.93-2.38-1.24-2.99-2.57-.55-1.19-.94-2.45-1.42-3.68-1.48-3.83-2.97-7.66-4.45-11.49h0Zm-2.87,18.76c.43-.07.86-.15,1.29-.22,0-7.53-.03-15.06.02-22.59.01-2.34-.86-3.25-3.32-3.07-3.27.24-6.57.1-9.85.1-1.5,0-2.06.49-1.24,1.97,4.38,7.93,8.74,15.88,13.11,23.82h0Zm-607.62-15.27c-4.23,0-7.68,0-11.13,0-.84,0-1.43.5-1.9,1.14-7.39,10.1-14.77,20.2-22.15,30.3l.28.22c11.45-10.4,22.91-20.8,34.89-31.67h0Zm617.03-81.51c-.19,0-.37-.01-.56-.02-2.5,8.27-5.1,16.51-7.47,24.82-1.92,6.73-3.49,6.25,5.12,6.33,2.12.02,2.94-.8,2.93-2.89-.05-9.41-.02-18.82-.02-28.23h0Zm41.86,22.84l-.62-.06c-3.21,5.95-6.39,11.9-9.64,17.83-.76,1.38-.82,2.32.74,3.19,2.57,1.43,5.07,3,7.57,4.56,1.35.84,1.97.63,1.97-1.05-.02-8.16,0-16.31,0-24.47h0Zm-31.98-28.15c-.05.19-.1.37-.15.56,9.59,6.07,19.18,12.16,28.8,18.2.74.47,1.56,1.54,2.55.45,1.27-1.4.04-7.86-1.69-8.5-9.82-3.61-19.67-7.15-29.51-10.71h0Zm-34.43,77.44c-.23.13-.45.26-.68.39,1.1,6.79,2.16,13.58,3.34,20.35.23,1.31.08,3.03,1.8,3.59,3.27,1.06,6.49,2.36,10.57,2.96-5.2-9.44-10.12-18.37-15.04-27.29h0Zm-554.81,8.83c-3.94-.17-23,15.41-25.99,20.7,2.91-.92,5.49-1.68,8.04-2.56,2.15-.74,4.82-.8,6.27-2.59,3.95-4.89,7.58-10.03,11.68-15.55h0Zm578.65-99c.62,6.51,3.86,10,9.76,11.02.95.16,1.85.66,2.77.99,6.43,2.31,12.86,4.62,19.29,6.93.09-.2.19-.4.28-.6-10.63-6.07-21.26-12.14-32.1-18.33h0Zm-195.79-57.44c-.06.14-.12.28-.19.41.5.19.99.39,1.49.58,23.5,8.99,47.01,17.93,70.47,27.01,3.36,1.3,6.71,2.13,10.39,1.89-27.39-9.96-54.77-19.93-82.16-29.89h0Zm-121.59-47.83c-.19.51-.39,1.03-.58,1.55,27.73,10.37,55.6,20.35,83.56,30.12-27.66-10.55-55.32-21.11-82.97-31.66h0Zm273.08,194.48c-.72,1.81-.03,2.5.36,3.22,2.76,5.08,5.54,10.16,8.36,15.21,1.65,2.95,7.24,5.27,11.33,4.66-6.64-7.65-13.19-15.18-20.06-23.09h0Zm5.83,19.8c.16-.24.33-.48.49-.72-5.6-5.95-11.2-11.89-16.81-17.84-.15-.16-.33-.29-.52-.4-.61-.33-1.25-.49-1.82.02-.48.43-.43,1.06-.12,1.51,1.02,1.44,2.12,2.84,3.22,4.23.09.12.53-.02.59.09.46.82,1.43,2.17,1.2,2.42-2.22,2.45.39,3.71,1.3,5.14,2.95,4.63,8.32,3.66,12.48,5.56h0Zm-565.62-9.31c-3.2-.62-6.58-1.82-8.5,1.05-4.48,6.67-8.57,13.6-12.81,20.42.16.13.33.26.49.39,6.94-7.29,13.88-14.57,20.82-21.85Zm580.42,9.09c.24-.08.48-.16.71-.24-.99-5.88-1.91-11.76-3.01-17.62-.25-1.34-6.1-2.13-7.16-1.1-.51.49-.29,1.01-.03,1.48,3.15,5.83,6.32,11.65,9.48,17.48h0Zm-604.06,17.7c4.48-.46,6.91-1.15,8.03-2.64,5.31-7.13,10.54-14.33,15.79-21.5l-.46-.37c-7.63,8.01-15.26,16.01-23.36,24.51h0Zm233.36-212.62c-.03-.14-.06-.28-.09-.42-6.39,1.33-12.77,2.67-19.16,4-12.62,2.62-25.25,5.22-37.86,7.87-1.07.22-3.05.08-2.63,1.6.41,1.47,2.1.29,3.16.06,6.84-1.52,13.65-3.12,20.48-4.7,12.04-2.8,24.07-5.6,36.11-8.4h0Zm19.22-6.37c.01.17.02.35.03.52,18.16-3.77,36.32-7.55,54.48-11.32.75-.16,1.73-.28,1.4-1.33-.34-1.09-1.31-.46-1.97-.31-17.98,4.13-35.96,8.28-53.94,12.44h0Zm-216.95,192.31c-.21-.2-.41-.39-.61-.59-7.64,8.14-15.29,16.29-22.31,23.77,1.31-.44,4.12-.48,5.89-2.57,5.76-6.8,11.37-13.74,17.04-20.62h0Zm550.42-9.74c5.26,6.09,10.24,11.86,15.23,17.63-2.07-4.91-4.77-9.4-6.98-14.12-1.62-3.46-3.84-4.78-8.25-3.51h0Zm-570.49,25.88c6.16-5.36,12.38-10.56,18.11-17.01-3.02,0-5.36-.72-7.14,1.87-3.53,5.14-7.3,10.1-10.98,15.14h0Zm572.53-11.43c.18-.16.36-.32.53-.47-1.99-3.62-3.96-7.25-5.98-10.86-2.23-3.98-3.04-4.27-7.98-2.95,4.53,4.81,8.98,9.55,13.43,14.28h0Zm-171.4-19.5c-5.87,2-11.42,3.88-16.98,5.77,6.13-.23,13.39,2.84,16.98-5.77Zm-389.81,27.59c.13.17.26.34.38.5,5.12-4.56,10.25-9.12,15.63-13.91-3.15-.91-5.09-.14-6.76,2.03-2.99,3.87-6.16,7.59-9.25,11.38h0Z"/>
    </g>
  </g>
</svg>