<?xml version="1.0" encoding="UTF-8"?>
<svg id="Layer_2" data-name="Layer 2" xmlns="http://www.w3.org/2000/svg" viewBox="0 0 1073.18 1073.18">
  <defs>
    <style>
      .cls-1 {
        fill: #fff;
        stroke: #fff;
        stroke-miterlimit: 10;
        stroke-width: 2px;
      }

      .cls-2 {
        fill: none;
      }
    </style>
  </defs>
  <g id="Layer_1-2" data-name="Layer 1">
    <rect class="cls-2" width="1073.18" height="1073.18"/>
    <g id="Layer_1-2" data-name="Layer 1-2">
      <path class="cls-1" d="m593.5,523.39c.83-.04,1.65-.08,2.48-.11m-9.04,53.42c-3.79.22-7.58.39-11.37.46-28.01.49-56.02.99-84.03,1.41-22.66.34-45.32.57-67.98.85-1.12.01-2.27-.1-3.34.16-2.91.71-4.79-.52-6.61-2.68-9.13-10.84-18.37-21.59-27.59-32.35-1.36-1.58-2.54-3.06-5.17-3.01-24.33.45-48.66.7-73,1.05-3.79.05-7.58.37-11.37.47-1.64.04-2.65.84-3.55,2.1-2.86,3.99-5.95,7.82-8.64,11.93-1.97,3.01-4.57,4.6-7.92,5.66-19.23,6.1-38.4,12.4-57.64,18.46l-7.84,2.04c-24.33.46-48.65.85-72.98,1.26-4.02.07-8.05-.03-12.05.22-3.17.2-4.14-1.29-4.14-4.14.02-8.37-.04-16.74-.06-25.11,0-1,0-2.01-.02-3.01-.14-7.89-.16-7.96,7.77-9.38l57.63-.15,4.98-2.71,13.55-17.78,11.61-16.35c.89-1.04,1.78-1.96,3.27-2.09,2.32-.2,4.65-.39,6.95-.76,11.75-1.87,23.59-1.15,35.41-1.3,2.98-.04,6.07.51,8.26-2.42.39-.52,1.39-.77,2.13-.81,6.22-.35,12.33-1.73,18.63-1.51,16.51.59,33-.48,49.5-.85,6.87-.16,13.76.04,20.64-.24,22.07-.87,44.17-.94,66.26-1.35,3.92-.07,6.85,1.32,9.47,4.42,6.84,8.09,14.06,15.86,21.04,23.84,1.54,1.76,3.22,2.47,5.53,2.41,10.93-.28,21.86-.46,32.8-.65,14.81-.26,29.61-.49,44.42-.73,14.39-.23,28.79-.56,43.18-.59.32,0,.61-.01.89-.03l10.42-.15c4.97-.22,9.95-.37,14.92-.43,9.6-.12,19.2-.14,28.81-.14,2.02,0,3.72-.41,4.94-2.18,5.96-8.64,13.12-16.37,19.12-24.95,2.65-3.8,5.95-4.87,10.12-4.93,15.85-.23,31.7-.48,47.55-.74,13.47-.22,26.93-.75,40.4-.62,19.87.19,39.71-.83,59.57-.84,5.78,0,11.29.24,16.49,2.97,1.54.81,3.27.59,4.93.66,16.18.66,32.37.44,48.55.49,1.68,0,3.33-.04,4.86.89,17.45,10.61,34.91,21.21,52.38,31.79,1.44.87,2.26,1.94,2.28,3.75.15,10.26.35,20.52.65,30.78.08,2.71-.7,3.94-3.65,4.31-14.15,1.79-28.26,3.91-42.4,5.73-4.15.54-8.29,1.51-12.59.21-18.99-5.76-38.01-11.45-57.07-16.96-3.92-1.13-6.77-2.9-8.44-6.76-1.27-2.96-3.33-5.57-4.63-8.52-1.31-2.96-3.32-3.65-6.35-3.53-5.46.23-10.94.07-16.41.07-8.6.03-17.18.47-25.77.66-18.41.41-36.83.62-55.25.82-2.22.02-3.68.68-5.04,2.5-8.46,11.23-17.1,22.33-25.55,33.56-1.85,2.46-3.89,3.56-7.03,3.53-8.92-.09-17.85.14-26.78.38-19.86.52-39.73.72-59.6.86l-8.05.07h0Zm299.16-82.04c-.01-.11-.02-.22-.04-.32-.51,0-1.03,0-1.55,0-20.3.39-40.61.8-60.91,1.16-26.33.47-52.67.88-79,1.33-15.29.26-30.58.04-45.86.71-2.56.11-3.16.58-1.78,3.01,5.91,10.37,11.69,20.81,17.48,31.26,1.01,1.82,2.13,2.52,4.32,1.88,3.53-1.03,7.16-1.68,10.74-2.52,41.15-9.56,82.31-19.12,123.46-28.7,11.05-2.57,22.09-5.2,33.13-7.8h0Zm-490.94,8.11c-16.12.94-32.19.15-48.25.61-31.01.89-62.03,1.14-93.05,1.6-9.93.15-19.86,0-29.78.56-3.5.2-3.59.24-1.78,3.35,5.78,9.93,11.72,19.77,17.32,29.8,1.64,2.94,3.29,3.36,6.38,2.55,45.86-11.89,91.76-23.66,137.64-35.46,3.84-.99,7.68-2.01,11.52-3.01h0Zm329.96,30.89c0,.21-.01.43-.02.64,23.97-.47,47.94-1,71.92-1.38,22.98-.37,45.95-.58,68.93-.88,1.89-.02,3.79-.38,5.67-.33,2.46.07,3.82-1.01,4.88-3.19,4.93-10.13,10.01-20.18,15.01-30.27.43-.86,1.43-1.86.78-2.74-.8-1.09-2.06-.22-3.09.02-37.23,8.64-74.46,17.28-111.69,25.93-17.47,4.06-34.94,8.13-52.41,12.2h0Zm-302.26,44.21c.02.15.05.29.07.44,3.07-.16,6.13-.43,9.2-.48,28.35-.5,56.69-.97,85.04-1.43,13.06-.21,26.12-.04,39.17-.6,2.77-.12,3.68-1,3.6-3.74-.31-9.59-.44-19.18-.64-28.77-.09-4.44-.17-4.5-4.34-3.3-32.81,9.4-65.62,18.8-98.43,28.2-11.23,3.22-22.45,6.46-33.68,9.69h0Zm-173.4-36.08c.05.17.1.33.15.5,21.51-.43,43.03-.92,64.55-1.28,21.74-.36,43.49-.65,65.24-.84,2.68-.02,4.23-.74,5.41-3.28,4.87-10.52,9.96-20.94,14.95-31.4.31-.66.97-1.28.31-2.44-50.15,12.9-100.37,25.82-150.6,38.74h0Zm317.21,33.22c.06.21.12.41.18.61,1.11,0,2.23.02,3.34,0,19.85-.37,39.7-.76,59.55-1.11,16.95-.3,33.91-.6,50.86-.8,2.89-.03,3.25-.71,1.79-3.19-6.03-10.17-11.99-20.38-17.79-30.68-1.34-2.38-2.56-2.67-5.01-1.68-19.66,7.9-39.37,15.67-59.07,23.47-11.28,4.47-22.56,8.92-33.84,13.38h0Zm-147.88,2.49c44.84-12.86,89.64-25.7,134.43-38.54-18.38.77-36.69,0-54.98.62-19.29.67-38.61.71-57.91.89-2.59.02-4.03.83-5.19,3.16-5.05,10.19-10.29,20.29-15.43,30.45-.47.94-1.34,1.8-.92,3.42h0Zm476.97-67.09h.85c0,11.93-.07,23.86.03,35.79.05,6.46.37,12.93.59,19.39.02.73-.31,1.71.59,2.09.7.29,1.19-.43,1.69-.83,15.84-12.7,31.66-25.43,47.52-38.1,1.42-1.14,1.64-1.79-.09-2.83-16.24-9.8-32.46-19.62-48.65-29.51-2.29-1.4-2.6-.5-2.56,1.61.07,4.13.02,8.25.02,12.38h0Zm-238.62,27.21c-14.09-.25-28.13-.47-42.17.02-16.71.58-33.44.67-50.17.79-3.13.02-4.03,1.02-3.92,4.05.36,9.91.59,19.83.62,29.74,0,3.16,1.15,2.89,3.34,2,8.16-3.31,16.35-6.54,24.54-9.78,22.58-8.95,45.17-17.89,67.76-26.83h0Zm-530.64,44.85c.04.18.09.36.13.54,1.06,0,2.13.02,3.19,0,9.48-.19,18.96-.41,28.45-.56,16.63-.28,33.25-.54,49.88-.73,2.47-.03,3.31-.36,1.81-2.9-6.04-10.17-12.03-20.37-17.83-30.67-1.49-2.64-2.73-2.81-5.19-1.33-11.67,7.01-23.42,13.88-35.15,20.79-8.43,4.96-16.86,9.92-25.29,14.87h0Zm60.49-37.3c-.04-.19-.09-.37-.13-.56-3.11.15-6.22.38-9.34.43-17.07.3-34.13.6-51.2.8-2.47.03-3.65.59-3.56,3.39.33,10.14.5,20.29.62,30.43.03,2.7,1.06,2.37,2.78,1.33,4.01-2.42,8.07-4.77,12.1-7.15,16.24-9.56,32.48-19.11,48.72-28.67h0Zm240.62-4.61c-8.57.57-17.17.6-25.75.63-4.57.02-9.15.01-13.72.06-.71,0-1.77-.36-1.99.64-.1.47.51,1.17.92,1.66,9.11,10.7,18.24,21.38,27.35,32.07,1.18,1.38,1.94,1.93,3.02-.23,5.44-10.87,10.98-21.68,16.54-32.49.85-1.65.79-2.47-1.34-2.36-1.67.08-3.35.02-5.02.02h0Zm285.97-4.1c-.59-.36-.69-.46-.78-.46-15.29.18-30.57.36-45.85.57-2.88.04-1.66,1.62-.96,2.84,6.03,10.44,12.11,20.84,18.1,31.29,1.09,1.9,1.77,2.16,3.2.22,4.11-5.57,8.4-10.99,12.61-16.49,4.53-5.92,9.03-11.87,13.68-17.96h0Zm-324.92,3.59c12.26-.82,24.54-.45,36.8-.62,2-.03,4-.22,6.01-.34,2.27-.13,2.47-.88.96-2.56-9.16-10.21-18.3-20.44-27.35-30.75-1.9-2.16-2.88-2.15-4.14.56-4.76,10.21-9.68,20.33-14.54,30.5-1.57,3.29-1.52,3.37,2.26,3.21h0Zm279.74-4.68c7.65-.71,15.13-.41,22.6-.58,6.58-.15,13.15.22,19.73-.34,2.43-.21,3.28-.63,1.88-3.1-5.79-10.18-11.5-20.39-17.16-30.64-1.22-2.2-1.94-2.06-3.42-.16-8.27,10.66-16.67,21.22-25.01,31.82-.6.76-1.88,1.49-1.46,2.44.54,1.2,1.99.37,2.83.55h0Zm-438.16,8.54c-11.71.64-23.43.73-35.15.62-3.34-.03-2.85,1.12-1.62,3.22,5.94,10.1,11.85,20.21,17.66,30.38,1.28,2.24,1.95,2.79,3.73.3,7.51-10.54,15.22-20.94,22.82-31.41.56-.78,1.72-1.55,1.31-2.53-.46-1.1-1.79-.52-2.73-.56-2.01-.08-4.02-.02-6.03-.02h0Zm-17.87-.91c8.14-.12,16.27-.22,24.4-.65,2.38-.13,3.05-.7,1.73-2.94-6.07-10.27-12.08-20.56-18.07-30.88-.95-1.63-1.63-2.23-3.02-.31-7.76,10.76-15.61,21.45-23.41,32.17-.43.6-1.24,1.18-.82,2.04.43.86,1.38.55,2.12.56,5.69.02,11.37.01,17.06.01h0Zm687.68,25.38c.77.82,1.47.56,2.07.48,14.88-2,29.76-4.03,44.64-6.02,2.27-.3,3.21-1.35,3.17-3.75-.15-9.36-.13-18.71-.2-28.07,0-.6.27-1.37-.88-1.81-16.18,12.99-32.47,26.07-48.8,39.18h0Zm-5.95-70.83c-.18-.01-.36-.03-.53-.04-3.77,7.57-7.55,15.13-11.31,22.71-1.97,3.99-5.31,7.96-5.45,12.02-.14,4.22,3.8,8.04,5.99,12.02,3.99,7.28,8.1,14.5,12.15,21.74l.69-.18c-.52-22.75-1.03-45.51-1.55-68.26h0Zm-417.07,32.18c6.96,2.67,13.74,4.74,21.22,4.52,19.28-.58,38.58-.6,57.87-.85.45,0,.89-.02,1.34-.03,1.08-.03,2.1-.22,2.04-1.61-.06-1.29.18-2.85-1.57-3.28-.85-.21-1.77-.15-2.66-.13-23.64.28-47.28.56-70.92.89-2.44.03-4.87.33-7.31.5h0Zm-178.91-30c2.15.92,4.11,1.16,6.13,1.09,13.5-.45,27-.13,40.51-.59,18.85-.64,37.73-.36,56.57-1.09,7.26-.28,12.92.98,17.13,7.35,1.43,2.16,3.18,5.94,5.67,5.4,2.2-.47,2.75-4.5,3.92-7.01,2.25-4.83.63-7.19-4.88-7.19-7.25,0-14.5.27-21.75.42-23.43.48-46.88.48-70.31,1.02-10.9.25-21.8.5-32.99.59Zm298.73,33c8.67-.82,18.25-.48,27.82-.65,6.45-.11,12.91-.28,19.36-.51.88-.03,2.79.56,2.15-1.4-.6-1.82-1.42-3.81-4.11-3.6-12.56.95-25.15.39-37.73.65-3.89.08-7.78.37-11.67.51-1.69.06-2.37.88-2.37,2.52s.57,2.56,2.33,2.5c1.11-.04,2.23,0,4.23,0h0Zm-340.31,11.8c-.15-.12-.3-.24-.45-.36-13,11.79-26.01,23.58-39.01,35.38,5.8-1.19,11.15-3.09,16.62-4.55,3.6-.96,5.93-2.93,7.81-6.11,4.85-8.21,10-16.25,15.03-24.36Zm194.84-18.92c-6.75-7.58-12.83-14.37-18.87-21.19-1.33-1.5-2.14-1.14-2.88.52-1,2.24-1.98,4.5-3.15,6.65-1.01,1.84-.67,3.21.56,4.85,4.94,6.61,10.32,12.02,19.68,9.22,1.11-.33,2.41-.05,4.67-.05h0Zm443.54,43.42c-6.43-11.51-12.41-22.23-18.39-32.95-.69,8.57-.66,16.91-.71,25.25-.01,1.75,1.07,2.28,2.42,2.68,5.23,1.57,10.46,3.14,16.68,5.02h0Zm-243.4-47.19c7.53.68,14.34,1.56,18.05-6.3.37-.78,1.1-1.39,1.65-2.09,3.49-4.48,3.63-9.1.42-13.85-.82-1.23-1.32-1.61-2.38-.26-5.75,7.34-11.54,14.65-17.74,22.51h0Zm221.9,37.65l1.29-.17c0-8.08,0-16.15,0-24.23,0-1.22-.66-1.87-1.87-1.86-3.68.03-7.35.03-11.03.17-1.25.05-2.26.7-1.45,2.19,4.33,7.98,8.71,15.93,13.06,23.89h0Zm-620.36-14.59c-.01-.29-.02-.58-.04-.86-3.48,0-6.97-.03-10.45.02-.83.01-1.37.72-1.83,1.35-7.29,9.96-14.57,19.92-21.85,29.89l.34.29c11.28-10.23,22.56-20.46,33.84-30.69h0Zm550.14-52.49c0-.32,0-.64-.01-.96-39.91.61-79.82,1.23-119.73,1.84v1.22c39.93-.3,79.83-1.23,119.74-2.11Zm54.77,42.05c-.23.08-.46.17-.69.25,1.22,7.21,2.45,14.42,3.65,21.63.21,1.23.32,2.46,1.78,2.91,3.26.99,6.51,1.98,10.67,3.25-5.43-9.87-10.42-18.96-15.42-28.04h0Zm-591.95,29.1c8.92-1.14,16.72-3.81,20.84-12.45.85-1.78,2.36-3.23,3.48-4.89.58-.85,2.11-1.83,1.23-2.72-.96-.97-2.56-.3-3.63.61-2.21,1.87-4.37,3.8-6.54,5.72-5.13,4.57-10.26,9.15-15.38,13.73h0Zm163.19-32.81c.13-.1.26-.2.39-.3-5.47-8.79-11.04-17.52-16.34-26.41-1.61-2.71-3.33-3.24-6.29-2.55-2.65.62-2.63,1.33-1.06,3.09,7.78,8.71,15.53,17.45,23.3,26.18h0Zm-10.11-21.17c-.16.14-.33.27-.5.41,3.7,5.94,7.4,11.89,11.1,17.83,1.94,3.11,3.83,6.26,5.84,9.33,1.93,2.94,3.4-.1,4.99-.59,1.57-.48,1.11-1.56.22-2.55-7.23-8.13-14.45-16.28-21.67-24.43h0Zm18.53,17.64c3.12,6.59,10.72,10.12,16.73,8.1,1.29-.44,3.61-4.87,2.85-5.09-2.11-.6-3.4-2.83-5.5-2.94-4.63-.23-9.27-.07-14.08-.07h0Zm405.42,26.3c.12-.25.24-.49.36-.74-5.55-5.92-11.09-11.85-16.65-17.75-.37-.39-.85-.78-1.35-.95-.73-.25-1.64-.46-2.24.1-.77.72.04,1.44.39,2.07,1.93,3.51,3.8,7.07,5.93,10.46.89,1.42,1.59,3.27,3.41,3.85,3.36,1.07,6.76,1.99,10.15,2.97Zm13.82,4.04c.21-.19.41-.37.62-.56-6.73-7.7-13.17-15.66-20.67-22.71,3.13,6.74,6.68,13.15,10.25,19.54.46.83,1.28,1.25,2.14,1.51,2.55.76,5.11,1.49,7.67,2.23h0Zm-172.03-50.22l-.39-.23c-7.93,7.65-15.86,15.29-23.77,22.97-.87.85-2.5,1.77-.54,3.1,1.33.9,2.47,2.56,4.31.15,6.68-8.75,13.58-17.34,20.39-25.98h0Zm-439.87,58.59l.51.32c7.07-7.45,14.14-14.9,21.21-22.34-.18-.25-.35-.5-.53-.75-2.89.88-6.46-.9-8.66,2.67-4.15,6.72-8.35,13.41-12.52,20.11h0Zm195.31-27.14c23.02.36,45.42-1.11,67.84-.76-20.59-1.31-41.23-.47-61.83-1.51-2.1-.11-3.93.47-6.01,2.27Zm44.12-4.73c-4.33-1.31-7.86-2.31-11.34-3.46-3.94-1.3-7.96-.75-11.95-.7-2.3.03-3.08,2.18-3.16,3.73-.11,2.18,2.06,1.05,3.1,1.05,7.47.01,14.95.4,23.35-.63h0Zm208.17-36.84c-2.89-.23-5.01-2.03-6.78.19-6.47,8.08-12.86,16.22-19.28,24.34.11.09.22.18.33.27,8.39-8.08,16.77-16.16,25.73-24.8h0Zm-201.86,37.85v1.03c22.17-.25,44.32.63,66.48.92.88.01,1.93.35,1.93-1.07,0-1.21-.92-1.42-1.87-1.39-5.01.15-10.03.47-15.04.49-17.17.06-34.33.02-51.5.02h0Zm93.33-2.63c-6.67-1.38-12.72-5.24-19.86-4.61-1.81.16-3.24.15-3.25,2.63-.01,2.48,1.22,2.86,3.31,2.99,6.63.39,13.16-.89,19.8-1h0Zm78.64-8.57c-4.23,0-7.99-.19-11.72.07-2.01.14-4.13,2.37-4.09,3.53.08,2.16,1.65,3.78,4.65,4.17,6.2.81,8.19-3.5,11.16-7.77h0Zm-36.04,12.3c.01-.38.02-.77.04-1.15-18.29,0-36.58.02-54.87-.02-3.01,0-6.01-.31-9.02-.42-.8-.03-1.68.13-1.58,1.23.08.82.83.96,1.51.99.78.04,1.56.02,2.34.03,20.53.19,41.03-1.17,61.57-.66h0Zm231.52,17.16l.65-.24c-.97-5.87-1.89-11.74-2.94-17.6-.28-1.55-6.27-2.63-7.34-1.41-.44.5-.21,1.05.05,1.54,3.19,5.91,6.38,11.8,9.58,17.71h0Zm-253.41-19.33c12.98-.18,34.04,1.11,55.56,1.52-1.93-2.24-3.95-2.38-6.12-2.4-19.16-.15-38.31,1.17-49.44.87h0Zm70.56-40.21c-2.4-.14-3.96,1.98-2.91,4.15,1.06,2.19,2.35,4.26,3.54,6.39.46.81,1.03,1.77,1.94.6,2.22-2.87,4.79-5.49,6.53-8.72-2.53-1.83-5.67-1.4-8.46-2.27-.21-.07-.43-.09-.65-.13h0Zm-409.11,53.75c-.18-.12-.37-.24-.55-.36-7.53,7.91-15.05,15.83-22.58,23.74,3.1-.26,6.12-.19,7.93-2.63,5.12-6.88,10.14-13.83,15.2-20.75h0Zm-10.94,20.38c1.77-.63,4.38-.64,5.91-2.44,5.96-6.98,11.73-14.13,17.57-21.22-.16-.14-.31-.28-.47-.41-7.72,8.08-15.45,16.16-23.01,24.07h0Zm183.32-59.84c-.13.13-.26.25-.39.37,2.23,2.55,4.45,5.11,6.71,7.64,3.25,3.65,6.56,7.25,9.79,10.91,1.31,1.48,2.35.54,3.46-.19,1.31-.86.39-1.43-.28-2.01-6.43-5.58-12.86-11.15-19.28-16.73h0Zm401.31,26.27c5.31,6.13,10.36,11.96,15.41,17.78-2.19-4.96-4.93-9.54-7.18-14.35-1.65-3.54-3.94-4.77-8.24-3.43h0Zm-563.8,9.04c-1.7-.04-4.01-.98-5.35.71-4.25,5.38-8.2,11-12.26,16.53.24.21.49.42.73.62,5.62-5.94,11.23-11.89,16.87-17.86h0Zm173.9-27.42c.08-.1.16-.19.24-.28-3.75-4.24-7.5-8.49-11.25-12.73-1.55-1.75-3.16-3.44-4.64-5.24-1.53-1.87-3.66-1.34-4.69-.25-1.15,1.23,1.12,1.62,1.81,2.41.87.99,1.97,1.79,2.98,2.67,5.18,4.48,10.37,8.96,15.55,13.44h0Zm378.15,18.36c4.68,4.97,9.22,9.79,13.76,14.61-1.51-4.03-3.51-7.63-5.51-11.24-2.44-4.41-2.49-4.43-8.25-3.37h0Zm-165.52-28.9c-.08-.13-.16-.26-.24-.39-5.33,5.32-10.66,10.62-15.98,15.95-.91.91-2.29,1.84-.63,3.22,1.75,1.45,2.29-.45,2.99-1.32,4.66-5.79,9.25-11.63,13.86-17.46h0Zm8.84-11.95c-1.58-.7-2.79-1.51-4.03.08-4.74,6.06-9.51,12.11-14.26,18.16-.16-.18-.31-.35-.47-.53,6.19-5.85,12.39-11.69,18.76-17.71Zm159.46-1.39c.05-.55.1-1.1.15-1.65-8.34-1.39-16.69.91-25.05,1.24,8.28,1.32,16.61-.25,24.9.41Zm-560.43,64.58c.16.16.32.31.48.47,4.99-4.43,9.98-8.86,15.41-13.68-2.52-.28-4.4-.71-5.82.99-3.39,4.05-6.72,8.14-10.07,12.22h0Zm189.78-28.95c12.46.49,24.84-.04,38.03-1.2-13.26-.21-25.68.07-38.03,1.2Zm98.57-1.03c-.01-.41-.02-.81-.04-1.22-15.11.62-30.22,1.23-45.32,1.85,0-.21,0-.42,0-.63h45.36Zm16.85,1.09c.02.19.03.39.05.59,3.6,1.04,7.2,2.12,10.82,3.11.88.24,1.94,1.26,2.68.15.4-.62.24-1.72.07-2.56-.25-1.27-1.37-1.27-2.38-1.27-3.75-.01-7.49,0-11.24,0h0Z"/>
    </g>
  </g>
</svg>