<?xml version="1.0" encoding="UTF-8"?>
<svg id="Layer_2" data-name="Layer 2" xmlns="http://www.w3.org/2000/svg" viewBox="0 0 3034.44 353.83">
  <defs>
    <style>
      .cls-1 {
        fill: #fff;
        stroke: #fff;
        stroke-miterlimit: 10;
        stroke-width: 2px;
      }
    </style>
  </defs>
  <g id="Layer_1-2" data-name="Layer 1">
    <path class="cls-1" d="m1725.17,128.67c3.02-.14,6.04-.28,9.05-.41m-33.04,195.19c-13.83.82-27.69,1.43-41.54,1.67-102.35,1.79-204.69,3.61-307.04,5.14-82.79,1.24-165.58,2.08-248.37,3.11-4.08.05-8.31-.37-12.19.58-10.63,2.61-17.49-1.89-24.15-9.8-33.36-39.6-67.12-78.87-100.8-118.2-4.96-5.79-9.27-11.17-18.9-10.99-88.9,1.64-177.81,2.56-266.72,3.84-13.85.2-27.69,1.35-41.54,1.71-6,.15-9.67,3.06-12.98,7.68-10.44,14.59-21.75,28.59-31.56,43.58-7.19,10.98-16.69,16.82-28.92,20.69-70.26,22.28-140.29,45.29-210.59,67.46l-28.64,7.44c-88.88,1.67-177.77,3.11-266.66,4.59-14.68.24-29.4-.11-44.04.82-11.59.73-15.14-4.71-15.12-15.11.06-30.58-.13-61.17-.22-91.75-.01-3.67-.02-7.34-.08-11.01-.52-28.83-.57-29.08,28.39-34.26l210.56-.55,18.2-9.91,49.52-64.98,42.42-59.74c3.25-3.8,6.52-7.15,11.95-7.62,8.48-.74,17-1.44,25.4-2.77,42.94-6.83,86.21-4.22,129.37-4.76,10.88-.13,22.19,1.85,30.17-8.85,1.41-1.9,5.09-2.8,7.78-2.95,22.73-1.28,45.05-6.33,68.06-5.51,60.31,2.15,120.59-1.76,180.86-3.12,25.11-.57,50.27.14,75.43-.86,80.64-3.18,161.4-3.42,242.11-4.92,14.32-.27,25.02,4.84,34.59,16.15,25.01,29.55,51.38,57.94,76.88,87.09,5.63,6.44,11.75,9.01,20.2,8.79,39.94-1.03,79.89-1.69,119.84-2.38,54.1-.94,108.2-1.8,162.3-2.66,52.59-.84,105.18-2.04,157.78-2.15,1.16,0,2.24-.04,3.25-.12l38.06-.56c18.16-.79,36.34-1.34,54.51-1.56,35.08-.43,70.17-.51,105.25-.51,7.39,0,13.6-1.48,18.06-7.96,21.76-31.58,47.94-59.81,69.87-91.18,9.7-13.88,21.75-17.78,36.97-18,57.91-.83,115.81-1.74,173.72-2.69,49.2-.8,98.41-2.74,147.6-2.28,72.59.68,145.08-3.03,217.65-3.08,21.13-.01,41.26.88,60.24,10.85,5.63,2.96,11.94,2.16,18.03,2.4,59.12,2.41,118.27,1.62,177.41,1.78,6.12.02,12.15-.13,17.75,3.27,63.76,38.78,127.56,77.49,191.39,116.16,5.27,3.19,8.24,7.08,8.34,13.7.56,37.5,1.29,74.99,2.39,112.48.29,9.89-2.56,14.38-13.32,15.74-51.7,6.54-103.25,14.27-154.93,20.94-15.17,1.96-30.29,5.53-45.99.77-69.39-21.06-138.87-41.83-208.53-61.98-14.33-4.14-24.74-10.59-30.83-24.7-4.65-10.8-12.17-20.35-16.92-31.12-4.78-10.83-12.14-13.35-23.2-12.89-19.95.83-39.97.24-59.96.24-31.41.1-62.78,1.71-94.17,2.41-67.28,1.49-134.57,2.26-201.86,2.98-8.1.09-13.43,2.5-18.42,9.13-30.91,41.03-62.48,81.58-93.37,122.63-6.76,8.98-14.23,13.01-25.67,12.89-32.61-.33-65.23.52-97.85,1.38-72.57,1.9-145.18,2.64-217.77,3.13l-29.42.27ZM2794.25,23.71c-.04-.39-.09-.79-.13-1.18-1.88,0-3.77-.03-5.65,0-74.19,1.42-148.37,2.94-222.56,4.25-96.21,1.7-192.43,3.21-288.64,4.85-55.86.95-111.74.14-167.58,2.59-9.37.41-11.54,2.11-6.49,10.99,21.58,37.9,42.73,76.04,63.86,114.2,3.69,6.66,7.79,9.2,15.77,6.86,12.88-3.77,26.16-6.15,39.25-9.19,150.37-34.94,300.75-69.87,451.11-104.87,40.37-9.4,80.7-18.99,121.05-28.5Zm-1793.79,29.63c-58.89,3.42-117.62.55-176.29,2.23-113.29,3.26-226.64,4.17-339.97,5.85-36.28.54-72.57-.01-108.82,2.03-12.78.72-13.13.88-6.52,12.25,21.12,36.28,42.83,72.23,63.28,108.88,5.99,10.74,12.03,12.26,23.3,9.33,167.57-43.45,335.26-86.45,502.92-129.58,14.04-3.61,28.06-7.33,42.09-11Zm1205.61,112.86c-.02.78-.04,1.56-.06,2.35,87.59-1.71,175.18-3.66,262.78-5.06,83.95-1.35,167.91-2.11,251.87-3.22,6.91-.09,13.83-1.39,20.72-1.19,8.98.26,13.95-3.7,17.83-11.67,18.02-37,36.58-73.73,54.86-110.6,1.57-3.16,5.21-6.79,2.86-10-2.93-4-7.51-.81-11.29.07-136.03,31.56-272.06,63.15-408.08,94.76-63.83,14.83-127.66,29.71-191.49,44.56Zm-1104.4,161.52c.09.53.18,1.06.27,1.59,11.21-.6,22.41-1.56,33.63-1.75,103.57-1.82,207.14-3.55,310.71-5.22,47.71-.77,95.43-.13,143.13-2.21,10.11-.44,13.46-3.66,13.14-13.67-1.14-35.03-1.62-70.08-2.35-105.13-.34-16.21-.62-16.43-15.85-12.07-119.88,34.34-239.76,68.68-359.63,103.05-41.03,11.76-82.03,23.61-123.05,35.42ZM468.11,195.88c.19.61.38,1.21.56,1.82,78.61-1.57,157.22-3.35,235.84-4.66,79.45-1.33,158.91-2.37,238.37-3.07,9.8-.09,15.47-2.71,19.76-11.97,17.8-38.43,36.39-76.5,54.62-114.73,1.15-2.4,3.56-4.69,1.12-8.93-183.23,47.13-366.75,94.34-550.28,141.54Zm1159.02,121.38c.22.75.43,1.49.65,2.24,4.06,0,8.13.07,12.19,0,72.53-1.35,145.06-2.77,217.59-4.06,61.95-1.1,123.9-2.2,185.85-2.92,10.55-.12,11.89-2.61,6.53-11.66-22.02-37.16-43.8-74.46-65-112.09-4.9-8.7-9.37-9.74-18.32-6.15-71.83,28.87-143.85,57.26-215.83,85.77-41.21,16.32-82.44,32.59-123.66,48.88Zm-540.33,9.1c163.85-46.97,327.51-93.9,491.18-140.82-67.16,2.82-134.06-.03-200.9,2.28-70.49,2.43-141.06,2.59-211.6,3.25-9.45.09-14.72,3.02-18.95,11.56-18.46,37.25-37.61,74.15-56.37,111.25-1.73,3.43-4.89,6.59-3.35,12.49Zm1742.74-245.14c1.03,0,2.06,0,3.09,0,0,43.59-.25,87.18.1,130.77.19,23.62,1.34,47.23,2.17,70.85.09,2.67-1.13,6.25,2.17,7.65,2.54,1.07,4.35-1.57,6.19-3.04,57.87-46.41,115.69-92.9,173.64-139.21,5.2-4.15,5.98-6.55-.33-10.35-59.34-35.79-118.61-71.7-177.75-107.81-8.36-5.1-9.5-1.84-9.36,5.9.26,15.08.08,30.16.08,45.24Zm-871.87,99.41c-51.48-.9-102.77-1.71-154.09.07-61.06,2.12-122.19,2.46-183.3,2.89-11.42.08-14.73,3.71-14.33,14.8,1.3,36.21,2.17,72.45,2.27,108.68.03,11.53,4.2,10.56,12.21,7.3,29.81-12.11,59.75-23.88,89.66-35.72,82.52-32.69,165.05-65.35,247.57-98.02ZM18.8,344.5c.16.65.33,1.3.49,1.96,3.89,0,7.78.07,11.66-.01,34.65-.68,69.29-1.48,103.94-2.06,60.75-1.01,121.5-1.99,182.25-2.68,9.01-.1,12.1-1.32,6.6-10.59-22.06-37.15-43.96-74.41-65.15-112.06-5.43-9.65-9.98-10.26-18.96-4.87-42.63,25.63-85.58,50.71-128.44,75.96-30.79,18.14-61.6,36.23-92.4,54.34Zm221.01-136.3c-.16-.68-.32-1.36-.48-2.05-11.37.54-22.73,1.38-34.11,1.58-62.36,1.1-124.72,2.18-187.08,2.91-9.01.11-13.33,2.15-13,12.37,1.2,37.05,1.82,74.13,2.26,111.2.12,9.88,3.89,8.65,10.17,4.86,14.65-8.85,29.47-17.43,44.22-26.11,59.34-34.92,118.68-69.84,178.02-104.76Zm879.19-16.84c-31.33,2.1-62.72,2.2-94.1,2.32-16.71.07-33.43.04-50.14.21-2.61.03-6.47-1.31-7.26,2.34-.37,1.71,1.85,4.29,3.37,6.07,33.28,39.09,66.65,78.1,99.92,117.19,4.3,5.06,7.09,7.07,11.04-.83,19.86-39.72,40.12-79.23,60.42-118.72,3.1-6.03,2.89-9.03-4.9-8.64-6.1.3-12.23.06-18.34.06Zm1044.86-14.99c-2.17-1.3-2.51-1.69-2.84-1.68-55.85.67-111.69,1.33-167.53,2.07-10.51.14-6.08,5.91-3.51,10.36,22.02,38.13,44.24,76.13,66.15,114.32,3.99,6.95,6.47,7.91,11.71.81,15-20.34,30.71-40.16,46.06-60.24,16.55-21.64,33.01-43.36,49.97-65.64Zm-1187.21,13.1c44.79-2.99,89.65-1.66,134.47-2.25,7.32-.1,14.63-.82,21.95-1.23,8.28-.46,9.03-3.21,3.52-9.35-33.46-37.32-66.86-74.7-99.94-112.35-6.95-7.91-10.52-7.86-15.13,2.03-17.4,37.29-35.38,74.3-53.13,111.43-5.75,12.03-5.55,12.3,8.26,11.74Zm1022.11-17.11c27.94-2.59,55.27-1.49,82.56-2.11,24.03-.55,48.06.82,72.1-1.26,8.88-.77,11.99-2.3,6.86-11.32-21.14-37.18-42.03-74.5-62.69-111.94-4.44-8.04-7.08-7.54-12.48-.57-30.22,38.94-60.91,77.52-91.37,116.27-2.19,2.78-6.87,5.43-5.32,8.91,1.96,4.39,7.27,1.35,10.35,2.02Zm-1600.95,31.21c-42.78,2.34-85.6,2.65-128.42,2.27-12.21-.11-10.43,4.1-5.91,11.78,21.69,36.9,43.29,73.85,64.51,111.02,4.68,8.19,7.13,10.21,13.62,1.1,27.44-38.51,55.61-76.51,83.39-114.78,2.06-2.84,6.29-5.67,4.8-9.26-1.67-4.02-6.54-1.91-9.98-2.04-7.33-.29-14.68-.09-22.02-.09Zm-65.3-3.32c29.74-.45,59.46-.79,89.17-2.39,8.69-.47,11.16-2.54,6.31-10.75-22.17-37.51-44.13-75.14-66.01-112.82-3.46-5.96-5.94-8.16-11.02-1.12-28.36,39.3-57.03,78.36-85.54,117.56-1.58,2.18-4.54,4.32-2.98,7.45,1.57,3.14,5.03,2.02,7.73,2.03,20.78.09,41.56.05,62.34.05Zm2512.66,92.72c2.82,3,5.38,2.03,7.56,1.74,54.37-7.29,108.73-14.73,163.1-22.01,8.3-1.11,11.73-4.95,11.59-13.7-.55-34.19-.47-68.38-.72-102.57-.02-2.19.97-5.02-3.23-6.61-59.12,47.47-118.65,95.26-178.31,143.16Zm-21.75-258.79c-.65-.05-1.3-.11-1.95-.16-13.78,27.66-27.6,55.29-41.31,82.98-7.21,14.57-19.4,29.07-19.9,43.91-.52,15.43,13.9,29.37,21.88,43.91,14.59,26.6,29.58,52.97,44.4,79.44l2.53-.66c-1.89-83.14-3.77-166.28-5.66-249.42Zm-1523.88,117.59c25.44,9.76,50.21,17.32,77.55,16.5,70.45-2.13,140.96-2.2,211.45-3.09,1.63-.02,3.26-.06,4.89-.1,3.95-.11,7.68-.8,7.45-5.88-.21-4.73.66-10.42-5.75-12-3.1-.76-6.48-.53-9.73-.49-86.38,1.04-172.76,2.06-259.14,3.24-8.91.12-17.81,1.2-26.72,1.83ZM645.84,42.17c7.85,3.35,15.02,4.24,22.4,4,49.32-1.65,98.66-.47,148.01-2.15,68.87-2.35,137.85-1.3,206.7-3.99,26.54-1.04,47.19,3.59,62.59,26.84,5.24,7.9,11.61,21.69,20.71,19.73,8.04-1.73,10.05-16.44,14.33-25.61,8.23-17.64,2.31-26.26-17.83-26.26-26.5,0-52.99.99-79.48,1.53-85.62,1.74-171.28,1.74-256.89,3.74-39.83.93-79.66,1.82-120.54,2.17Zm1091.49,120.58c31.67-2.99,66.67-1.77,101.64-2.37,23.58-.41,47.16-1.04,70.72-1.87,3.23-.11,10.2,2.04,7.86-5.11-2.18-6.65-5.19-13.91-15.03-13.17-45.9,3.47-91.9,1.44-137.85,2.36-14.22.28-28.43,1.34-42.65,1.85-6.17.22-8.65,3.21-8.65,9.2,0,5.89,2.08,9.34,8.5,9.14,4.06-.13,8.14-.02,15.46-.02Zm-1243.44,43.1c-.54-.44-1.09-.88-1.63-1.33-47.51,43.09-95.03,86.17-142.54,129.26,21.21-4.33,40.74-11.28,60.71-16.62,13.16-3.52,21.67-10.7,28.54-22.32,17.73-30,36.54-59.37,54.92-88.99Zm711.91-69.12c-24.66-27.68-46.87-52.5-68.95-77.44-4.86-5.48-7.83-4.17-10.53,1.89-3.65,8.19-7.22,16.45-11.52,24.3-3.68,6.72-2.46,11.72,2.03,17.72,18.06,24.14,37.71,43.93,71.9,33.69,4.07-1.22,8.82-.17,17.07-.17Zm1620.62,158.64c-23.48-42.06-45.35-81.22-67.21-120.38-2.52,31.3-2.42,61.78-2.6,92.26-.04,6.4,3.9,8.32,8.85,9.8,19.11,5.73,38.21,11.48,60.96,18.33Zm-889.35-172.42c27.51,2.5,52.41,5.69,65.95-23.03,1.35-2.86,4.03-5.07,6.03-7.63q19.15-24.58,1.54-50.61c-3-4.48-4.84-5.88-8.7-.95-21,26.83-42.17,53.53-64.83,82.23Zm810.77,137.58l4.71-.62c0-29.51.01-59.02-.02-88.53,0-4.45-2.4-6.83-6.83-6.79-13.43.11-26.87.12-40.29.63-4.57.17-8.27,2.54-5.3,8.02,15.83,29.14,31.81,58.2,47.73,87.3ZM481.17,207.23c-.05-1.05-.09-2.11-.14-3.16-12.73,0-25.46-.12-38.19.08-3.03.05-5.02,2.64-6.7,4.94-26.64,36.38-53.23,72.8-79.83,109.2l1.23,1.07c41.21-37.38,82.42-74.76,123.63-112.13ZM2491.26,15.45c-.01-1.16-.03-2.33-.04-3.49-145.82,2.24-291.64,4.48-437.46,6.73l.05,4.46c145.83-1.08,291.64-4.51,437.45-7.7Zm200.12,153.63c-.84.31-1.68.61-2.51.92,4.46,26.34,8.94,52.68,13.34,79.04.75,4.48,1.16,9,6.51,10.62,11.9,3.61,23.8,7.25,38.98,11.88-19.83-36.07-38.08-69.26-56.33-102.45Zm-2162.88,106.34c32.58-4.17,61.09-13.93,76.15-45.48,3.1-6.5,8.63-11.81,12.73-17.87,2.11-3.12,7.71-6.69,4.48-9.93-3.52-3.53-9.34-1.11-13.27,2.22-8.07,6.84-15.98,13.87-23.89,20.91-18.76,16.69-37.47,33.44-56.2,50.16Zm596.26-119.89c.48-.37.96-.74,1.44-1.11-19.98-32.12-40.33-64.03-59.71-96.51-5.9-9.89-12.16-11.85-22.98-9.33-9.68,2.26-9.62,4.87-3.87,11.3,28.43,31.83,56.76,63.75,85.12,95.64Zm-36.93-77.35c-.6.5-1.2,1-1.81,1.49,13.52,21.72,27.04,43.45,40.57,65.16,7.09,11.38,13.99,22.89,21.34,34.09,7.06,10.75,12.44-.38,18.24-2.16,5.74-1.76,4.05-5.7.82-9.33-26.43-29.72-52.79-59.5-79.17-89.27Zm67.72,64.45c11.41,24.07,39.16,36.98,61.14,29.58,4.71-1.59,13.18-17.8,10.4-18.59-7.7-2.18-12.42-10.35-20.08-10.73-16.9-.83-33.87-.26-51.46-.26Zm1481.32,96.1c.44-.9.88-1.8,1.32-2.7-20.27-21.63-40.52-43.28-60.84-64.87-1.36-1.44-3.09-2.84-4.92-3.48-2.65-.92-6-1.68-8.17.36-2.8,2.63.15,5.26,1.41,7.55,7.07,12.83,13.87,25.84,21.66,38.22,3.27,5.19,5.8,11.93,12.45,14.05,12.27,3.9,24.71,7.27,37.09,10.87Zm50.51,14.77c.75-.69,1.5-1.37,2.26-2.06-24.58-28.13-48.11-57.22-75.54-82.98,11.42,24.63,24.4,48.03,37.45,71.41,1.68,3.02,4.66,4.56,7.81,5.51,9.31,2.79,18.68,5.43,28.02,8.13Zm-628.55-183.49l-1.43-.84c-28.96,27.96-57.95,55.88-86.84,83.91-3.19,3.1-9.14,6.48-1.98,11.32,4.87,3.29,9.01,9.36,15.73.55,24.39-31.98,49.61-63.34,74.51-94.93ZM451.64,284.09l1.85,1.17c25.83-27.21,51.66-54.43,77.49-81.64-.64-.91-1.28-1.82-1.92-2.74-10.56,3.21-23.6-3.3-31.66,9.74-15.18,24.54-30.5,48.98-45.75,73.47Zm713.62-99.16c84.11,1.31,165.95-4.07,247.87-2.77-75.25-4.79-150.65-1.71-225.9-5.51-7.66-.39-14.36,1.72-21.97,8.28Zm161.2-17.3c-15.83-4.8-28.71-8.43-41.42-12.63-14.39-4.75-29.09-2.75-43.68-2.54-8.39.12-11.27,7.95-11.56,13.63-.4,7.95,7.53,3.84,11.33,3.85,27.28.05,54.61,1.45,85.33-2.31Zm760.61-134.59c-10.56-.83-18.3-7.4-24.78.69-23.64,29.52-46.99,59.28-70.45,88.95.4.32.8.65,1.2.97,30.64-29.53,61.27-59.05,94.03-90.62Zm-737.55,138.3c0,1.26,0,2.51,0,3.77,81-.91,161.93,2.3,242.9,3.35,3.2.04,7.05,1.29,7.05-3.9,0-4.43-3.37-5.19-6.82-5.08-18.32.56-36.63,1.71-54.95,1.78-62.72.23-125.44.09-188.16.09Zm341-9.62c-24.38-5.05-46.46-19.16-72.58-16.86-6.6.58-11.83.54-11.87,9.6-.04,9.07,4.47,10.46,12.1,10.91,24.21,1.41,48.08-3.26,72.35-3.64Zm287.33-31.32c-15.47,0-29.21-.68-42.84.27-7.35.51-15.1,8.65-14.94,12.88.3,7.91,6.03,13.81,16.99,15.23,22.67,2.95,29.93-12.78,40.79-28.39Zm-131.67,44.94c.05-1.4.09-2.8.14-4.2-66.83,0-133.65.08-200.48-.07-10.98-.02-21.96-1.13-32.95-1.55-2.92-.11-6.15.49-5.76,4.51.29,3.01,3.02,3.5,5.53,3.63,2.85.14,5.7.09,8.56.11,75,.68,149.93-4.26,224.95-2.42Zm845.91,62.7l2.39-.88c-3.54-21.44-6.89-42.91-10.74-64.29-1.02-5.68-22.9-9.62-26.83-5.14-1.59,1.82-.78,3.83.18,5.61,11.64,21.58,23.32,43.13,34.99,64.7Zm-925.92-70.64c47.41-.66,124.36,4.07,202.99,5.57-7.06-8.17-14.44-8.7-22.36-8.76-70.02-.53-139.97,4.27-180.63,3.19ZM2023.98,20.47c-8.76-.51-14.47,7.23-10.63,15.15,3.87,7.99,8.57,15.58,12.93,23.33,1.67,2.97,3.77,6.47,7.09,2.18,8.12-10.49,17.51-20.05,23.87-31.86-9.25-6.67-20.71-5.12-30.9-8.31-.77-.24-1.58-.34-2.37-.49ZM529.18,216.86c-.67-.44-1.34-.87-2.01-1.31-27.5,28.91-55,57.83-82.5,86.74,11.33-.96,22.35-.7,28.99-9.62,18.7-25.13,37.04-50.52,55.52-75.81Zm-39.99,74.47c6.48-2.32,15.99-2.33,21.61-8.91,21.78-25.51,42.85-51.64,64.19-77.53-.57-.5-1.14-1.01-1.71-1.51-28.22,29.52-56.44,59.03-84.09,87.96Zm669.8-218.65c-.48.46-.96.91-1.44,1.37,8.16,9.31,16.26,18.67,24.5,27.91,11.89,13.33,23.96,26.48,35.77,39.87,4.77,5.4,8.58,1.97,12.64-.69,4.78-3.13,1.44-5.22-1.01-7.35-23.48-20.38-46.97-40.75-70.46-61.12Zm1466.3,95.97c19.42,22.41,37.87,43.7,56.32,64.98-8.02-18.11-18.01-34.86-26.23-52.44-6.04-12.93-14.4-17.43-30.09-12.54Zm-2060.01,33.02c-6.2-.15-14.64-3.59-19.53,2.59-15.54,19.64-29.95,40.18-44.79,60.38.89.76,1.78,1.52,2.67,2.28,20.52-21.72,41.05-43.45,61.65-65.25Zm635.39-100.17c.29-.35.59-.7.89-1.04-13.7-15.51-27.4-31.02-41.12-46.52-5.65-6.39-11.56-12.56-16.95-19.16-5.6-6.85-13.39-4.91-17.14-.92-4.22,4.5,4.1,5.91,6.63,8.81,3.18,3.63,7.19,6.55,10.88,9.74,18.93,16.37,37.88,32.73,56.82,49.09Zm1381.67,67.07c17.1,18.15,33.69,35.76,50.29,53.38-5.52-14.72-12.83-27.88-20.12-41.06-8.93-16.13-9.09-16.2-30.16-12.32Zm-604.77-105.6c-.29-.48-.59-.95-.88-1.43-19.47,19.42-38.95,38.82-58.38,58.27-3.33,3.34-8.35,6.73-2.29,11.75,6.41,5.31,8.37-1.65,10.91-4.81,17.03-21.14,33.79-42.5,50.63-63.78Zm32.3-43.66c-5.77-2.57-10.18-5.52-14.72.28-17.33,22.15-34.74,44.23-52.12,66.34-.57-.64-1.15-1.28-1.72-1.92,22.63-21.36,45.27-42.72,68.56-64.7Zm582.62-5.08c.18-2.01.36-4.01.54-6.02-30.48-5.09-61,3.34-91.51,4.52,30.26,4.84,60.68-.9,90.97,1.5ZM544.78,250.21c.59.57,1.18,1.14,1.77,1.71,18.23-16.18,36.46-32.36,56.31-49.99-9.2-1.04-16.07-2.61-21.28,3.62-12.37,14.8-24.55,29.76-36.8,44.65Zm693.42-105.76c45.53,1.79,90.77-.16,138.95-4.37-48.45-.76-93.83.25-138.95,4.37Zm360.15-3.78c-.05-1.48-.09-2.97-.14-4.45-55.2,2.25-110.4,4.5-165.6,6.76,0-.77,0-1.54.01-2.31h165.73Zm61.58,3.99c.06.71.12,1.43.18,2.14,13.17,3.81,26.31,7.73,39.53,11.36,3.2.88,7.1,4.62,9.78.53,1.47-2.25.86-6.3.27-9.36-.9-4.63-5.02-4.63-8.7-4.65-13.69-.05-27.37-.02-41.06-.02Z"/>
  </g>
</svg>