<?xml version="1.0" encoding="UTF-8"?>
<svg id="Layer_2" data-name="Layer 2" xmlns="http://www.w3.org/2000/svg" viewBox="0 0 552.83 173.24">
  <defs>
    <style>
      .cls-1 {
        fill: #9d9d9d;
      }

      .cls-2 {
        fill: #8b8b8b;
      }

      .cls-3 {
        fill: #848484;
      }

      .cls-4 {
        fill: #8c8c8c;
      }

      .cls-5 {
        fill: #868686;
      }

      .cls-6 {
        fill: #7c7c7c;
      }

      .cls-7 {
        fill: #929292;
      }

      .cls-8 {
        fill: #787878;
      }

      .cls-9 {
        fill: #8e8e8e;
      }

      .cls-10 {
        fill: #adadad;
      }

      .cls-11 {
        fill: #c2c2c2;
      }

      .cls-12 {
        fill: #6d6d6d;
      }

      .cls-13 {
        fill: #888;
      }
    </style>
  </defs>
  <g id="Layer_1-2" data-name="Layer 1">
    <g>
      <path class="cls-3" d="m3.82,94.91c-1.18-8.41-2.35-16.82-3.53-25.23.22-.35.29-.73.27-1.14-.15-4-.15-4.03,3.95-4.27,10.56-.63,21.09.17,31.62.77,5.08.29,10.17.39,15.25.58,12.06.46,24.12,1.03,36.18,1.5,10.86.42,21.73.77,32.57,1.54,4.98.36,9.97.41,14.95.57,11.77.39,23.52,1.01,35.28,1.49,10.86.44,21.73.69,32.58,1.52,5.17.4,10.37.5,15.55.62,11.97.28,23.92,1.01,35.88,1.45,18.34.68,36.67,1.59,55.01,2.38,13.25.57,26.5,1.19,39.76,1.78,18.33.82,36.67,1.68,55,2.41,14.35.57,28.7,1.15,43.05,1.8,12.65.58,25.32.88,37.96,1.78,2.71.19,5.39.78,7.94,1.74,1.45.68,1.34,2.55,2.61,3.36,1.2,1.94,2.23,3.96,1.92,6.37-.65,5.86-.07,11.73-.29,17.59-.12,3.26.52,6.59-.77,9.76-.98,1.62-2.63,1.17-4.04,1.17-10.68.03-21.37.02-32.05.02-27.06,0-54.12.11-81.18-.09-5.65-.04-9.62,1.79-13,6.27-4.26,5.65-8.84,11.06-13.44,16.45-1.49,1.75-3.14,2.52-5.43,2.52-47.03-.02-94.07-.03-141.1,0-2.28,0-3.89-.76-5.42-2.49-5.29-5.98-10.5-12.02-15.63-18.13-2.56-3.05-5.53-4.56-9.57-4.56-35.25.05-70.5.04-105.75,0-3.93,0-6.83,1.41-9.22,4.53-4.44,5.78-8.74,11.65-13.07,17.5-1.62,2.18-3.44,3.19-6.21,3.15-8.29-.12-16.58-.05-24.86-.04-2.2,0-4.39.04-6.56.5-1.68.15-3.36.01-5.03.09-1.91.1-3.49-.43-4.64-2.01,1.95-.93,4.05-.59,6.09-.67,1.71-.06,3.14-.43,3.44-2.43.67-4.44-.7-8.73-1.16-13.06-.59-5.52-1.34-11.04-2.12-16.55-.97-6.85-1.44-13.76-2.77-20.56Z"/>
      <path class="cls-1" d="m10.44,148.13c1.16-1.35,2.38,0,3.56,0,9.19-.1,18.37-.07,27.56-.04,2.23,0,3.67-1.03,4.96-2.77,4.8-6.5,9.76-12.88,14.55-19.38,1.5-2.04,3.26-2.97,5.8-2.97,37.25.04,74.49.04,111.74,0,2.63,0,4.44.97,6.13,2.99,5.37,6.43,11.01,12.63,16.36,19.07,2.01,2.41,4.3,3.15,7.31,3.12,10.78-.11,21.57-.04,32.35-.04,34.55,0,69.1-.05,103.65.07,3.82.01,6.6-.93,8.99-4.03,4.56-5.93,9.59-11.49,14.12-17.43,2.2-2.88,4.73-3.77,8.21-3.77,38.34.08,76.69.05,115.03.05,1.7,0,3.4-.02,5.09-.03.27-.24.52-.49.78-.74,3.57-1.38,4.4-.91,5.18,2.67.3,1.39.3,2.76.3,4.14.02,11.55-.02,23.09.03,34.64.02,5.74,1.11,6.84,6.82,6.86,11.67.05,23.33.05,35,0,5.54-.03,6.62-1.16,6.69-6.69.03-2.69-.12-5.38.03-8.06.24-4.35-1.65-7.14-5.61-8.88-2.82-1.24-5.59-2.62-8.38-3.96-1.06-.51-2.55-.8-2.34-2.56.14-.35.34-.64.62-.88.38-.12.72-.03,1.01.24,4.52,2.26,9,4.61,13.58,6.76,2.24,1.05,3.32,2.47,3.26,5.03-.15,7.03-.1,14.07-.13,21.1-.51.43-1.13.31-1.72.31-16.34,0-32.67,0-49.01,0-.5,0-1,.01-1.45-.24-1.36-2.22-2.72-4.44-4.08-6.65-1.77-1.41-1.98-3.87-3.59-5.39-1.4-4.15-3.21-8.11-5.42-11.89-.79-.65-1.73-.34-2.59-.35-32.7-.02-65.41-.02-98.11,0-.78,0-1.6-.19-2.34.25-5.65,6.05-10.31,12.91-15.63,19.23-1.34,1.6-2.72,3.17-4.07,4.75-1.14.57-2.36.27-3.53.27-55.86.02-111.72.01-167.58.03-1.08,0-2.19-.23-3.25.21-5.55-5.66-10.22-12.08-15.43-18.04-1.89-2.16-3.78-4.32-5.66-6.48-.85-.44-1.76-.23-2.64-.23-28.79-.01-57.58-.01-86.38,0-.88,0-1.8-.23-2.63.27-5.5,7.26-11,14.53-16.52,21.78-.59.78-1.32,1.46-1.98,2.19-.83.51-1.76.27-2.63.27-17.67.01-35.34-.04-53,.07-2.43.02-2.98-.71-2.93-3,.15-6.37.12-12.76,0-19.13-.04-1.95.5-2.58,2.49-2.52,2.47.07,4.97.41,7.43-.22Z"/>
      <path class="cls-2" d="m493.44,87.08c-1.42-.83-2.97-1.15-4.59-1.16-4.89-.03-9.76-.29-14.65-.54-12.25-.62-24.51-.85-36.77-1.32-14.45-.56-28.89-1.19-43.33-1.81-13.45-.58-26.89-1.18-40.34-1.78-17.93-.8-35.86-1.53-53.78-2.43-13.54-.68-27.09-1.3-40.64-1.79-15.74-.57-31.47-1.54-47.2-2.24-11.46-.51-22.92-.81-34.38-1.3-11.35-.49-22.7-1.11-34.05-1.67-4.98-.24-9.96-.3-14.95-.59-11.54-.67-23.12-.84-34.67-1.35-16.04-.7-32.06-1.58-48.1-2.28-11.75-.51-23.52-.86-35.28-1.28-1.3-.05-2.6-.08-3.88-.22-5.12-.57-5.12-.59-6.54,4.37q-.63-4.96,4.39-6.07c57.38-12.82,114.81-25.48,172.14-38.53,34.46-7.84,68.79-16.24,103.14-24.53,3.79-.91,7.06-.74,10.67.77,73.02,30.56,146.07,61.02,219.13,91.49.74.31,1.49.56,2.24.85.18,2.62-1.54,1.44-2.49,1.09-3.73-1.37-7.34-3.04-11.04-4.48-1.9-.74-3.82-1.39-5.02-3.2Z"/>
      <path class="cls-11" d="m496.4,95.5c-.58-1.82-1.15-3.63-1.73-5.45-.05-1.99-.02-2.06,1.96-1.28,3.67,1.44,7.22,3.18,10.96,4.49,8.8,3.1,17.24,7.06,25.93,10.42.82.32,1.65.69,2.3,1.34.33.36.49.82.72,1.24-.01,2.55-.03,5.1-.04,7.64-.17.26-.38.49-.62.68-1.03.53-1.95.04-2.85-.36-11.48-5.1-22.96-10.23-34.32-15.6-1.35-.64-2.52-1.37-2.3-3.14Z"/>
      <path class="cls-10" d="m190.32,173.16c1.53-.57,3.14-.52,4.73-.52,56.55,0,113.09,0,169.64.01-1.09.66-2.3.58-3.49.58-56.56,0-113.12,0-169.68-.01-.4,0-.8-.03-1.2-.05Z"/>
      <path class="cls-4" d="m384.39,148.67c1.53-.58,3.13-.55,4.73-.55,31.21,0,62.41,0,93.62,0,1.59,0,3.2-.06,4.7.64-31.65-.02-63.31-.04-94.96-.06-2.7,0-5.39-.02-8.09-.03Z"/>
      <path class="cls-6" d="m535.99,105.65c-8.37-2.95-16.4-6.72-24.61-10.06-4.62-1.87-9.2-3.83-13.8-5.73-.98-.41-2.03-1.11-2.91.19-1.01-.74-1.03-1.89-1.23-2.97,4.95,1.99,9.91,3.97,14.86,5.97,1.19.48,2.34,1.12,3.69.62,2.61,1.17,5.22,2.34,7.83,3.51,4.3,2.42,9,3.92,13.49,5.89,1.02.45,3.36.15,2.68,2.58Z"/>
      <path class="cls-10" d="m10.44,148.13c-2.02.78-4.14.55-6.23.59-2.21.04-3.32,1.07-3.32,3.3,0,5.78.01,11.56,0,17.35,0,2.97,1.96,3.28,4.26,3.27,13.48-.01,26.96,0,40.44,0,4.49,0,8.99,0,13.48.01-1.19.71-2.51.58-3.8.58-16.87.01-33.74.02-50.61,0-4.18,0-4.39-.21-4.4-4.42,0-6.88.04-13.75.07-20.63,3.37-.02,6.73-.04,10.1-.06Z"/>
      <path class="cls-4" d="m77.57,148.68c1.62-.63,3.33-.56,5.02-.56,27.2,0,54.41,0,81.61,0,1.69,0,3.39-.07,5.03.53-30.55.01-61.1.02-91.65.03Z"/>
      <path class="cls-9" d="m3.82,94.91c1.15-.4.61.63.64.9,1.95,15.25,3.86,30.51,5.79,45.76.15,1.21.09,2.37-.38,3.51-1.71-13.95-3.43-27.9-5.14-41.85-.34-2.77-.61-5.55-.92-8.32Z"/>
      <path class="cls-7" d="m500.52,172.7c17.39-.03,34.79-.05,52.18-.08-1.4.71-2.91.6-4.4.6-14.45,0-28.9,0-43.36,0-1.49,0-3,.05-4.42-.53Z"/>
      <path class="cls-2" d="m535.98,114.03c.17-.04.34-.08.52-.12.44,8.62-.17,17.22-.51,25.82-.21-.01-.42-.03-.63-.04-1.34-.79-1.35-2.16-1.41-3.44-.31-6.63.84-13.22.62-19.85-.04-1.04.33-1.95,1.41-2.38Z"/>
      <path class="cls-4" d="m535.99,105.65c-.97-1.73-2.82-2.08-4.41-2.88-3.88-1.95-8.38-2.6-11.76-5.6,4.66,1.89,9.31,3.79,13.97,5.68,1.56.63,2.79,1.5,2.75,3.41-.18-.2-.37-.41-.55-.61Z"/>
      <path class="cls-5" d="m492.85,160.66c2.53.91,3,3.19,3.59,5.39-2.88-.68-2.99-3.19-3.59-5.39Z"/>
      <path class="cls-8" d="m535.98,114.03c.4,8.57-.71,17.1-.62,25.66,0,0,.01.02.01.02-.74,1.13-1.7,1.19-2.82.59-9.69-5.1-19.93-9.1-29.41-14.57-2.2-1.27-4.05-2.78-6.69-2.73-.2-.02-.4-.04-.6-.06,0-7.58,0-15.15,0-22.73,0-1.6-.03-3.2.56-4.72,4.68,3.05,9.96,4.87,14.97,7.23,8.17,3.85,16.4,7.54,24.61,11.3Z"/>
      <path class="cls-7" d="m496.45,123.01c2.88-.28,5.45.57,8.02,1.83,10.27,5.02,20.6,9.93,30.9,14.87.75,1.29,2.03,1.83,3.31,2.43,3.52,1.66,6.99,3.42,10.51,5.07,1.91.9,2.96,2.25,2.95,4.42-.03,5.68-.02,11.36,0,17.04,0,2.2-1.04,3.33-3.28,3.33-14.98,0-29.95,0-44.93,0-2.96,0-3.3-1.93-3.29-4.24.01-13.06-.08-26.12.06-39.17.04-3.23-.92-5.16-4.24-5.58Z"/>
      <path class="cls-13" d="m258.41,155.36c-.02.7-.43,1.1-1.07,1.21-.7.12-1.2-.21-1.16-.96.04-.69.53-1.05,1.2-1.08.55-.03.93.25,1.03.84Z"/>
      <path class="cls-12" d="m421.46,70.77c-2.92-.18-5.66-.37-8.39-.53-6.17-.36-12.34-.79-18.52-1.05-11.66-.49-23.33-.8-34.99-1.31-15.94-.7-31.88-1.55-47.82-2.26-11.36-.5-22.73-.83-34.09-1.32-11.46-.49-22.91-1.13-34.37-1.63-5.38-.24-10.76-.38-16.15-.67-11.06-.59-22.13-.87-33.19-1.3-3.03-.12-3.74-.73-3.65-3.81.21-7.07.62-14.13.9-21.19.08-2.07,1.6-2.28,3.07-2.61,10.12-2.31,20.25-4.61,30.37-6.9,18.5-4.19,37.01-8.33,55.49-12.59,2.75-.63,5.23-.5,7.85.6,43.64,18.27,87.3,36.48,130.95,54.72.86.36,1.97.42,2.53,1.85Z"/>
    </g>
  </g>
</svg>