<?xml version="1.0" encoding="UTF-8"?>
<svg id="Layer_2" data-name="Layer 2" xmlns="http://www.w3.org/2000/svg" viewBox="0 0 346.4 346.78">
  <defs>
    <style>
      .cls-1 {
        fill: #979797;
      }

      .cls-2 {
        fill: #939393;
      }

      .cls-3 {
        fill: #8b8b8b;
      }

      .cls-4 {
        fill: #cbcbcb;
      }

      .cls-5 {
        fill: #d1d1d1;
      }

      .cls-6 {
        fill: #a5a5a5;
      }

      .cls-7 {
        fill: #cacaca;
      }

      .cls-8 {
        fill: #aeaeae;
      }

      .cls-9 {
        fill: silver;
      }

      .cls-10 {
        fill: #a0a0a0;
      }

      .cls-11 {
        fill: #8c8c8c;
      }

      .cls-12 {
        fill: #bababa;
      }

      .cls-13 {
        fill: #d6d6d6;
      }

      .cls-14 {
        fill: #c9c9c9;
      }

      .cls-15 {
        fill: #7c7c7c;
      }

      .cls-16 {
        fill: #8d8d8d;
      }

      .cls-17 {
        fill: #c3c3c3;
      }

      .cls-18 {
        fill: #cfcfcf;
      }

      .cls-19 {
        fill: #969696;
      }

      .cls-20 {
        fill: #d4d4d4;
      }

      .cls-21 {
        fill: #b8b8b8;
      }

      .cls-22 {
        fill: #898989;
      }

      .cls-23 {
        fill: #c8c8c8;
      }

      .cls-24 {
        fill: #a3a3a3;
      }

      .cls-25 {
        fill: #aaa;
      }

      .cls-26 {
        fill: #afafaf;
      }

      .cls-27 {
        fill: #adadad;
      }

      .cls-28 {
        fill: #d5d5d5;
      }

      .cls-29 {
        fill: #c1c1c1;
      }

      .cls-30 {
        fill: #bcbcbc;
      }

      .cls-31 {
        fill: #9b9b9b;
      }

      .cls-32 {
        fill: #ccc;
      }

      .cls-33 {
        fill: #ababab;
      }

      .cls-34 {
        fill: #c2c2c2;
      }

      .cls-35 {
        fill: #a8a8a8;
      }

      .cls-36 {
        fill: #acacac;
      }

      .cls-37 {
        fill: #cdcdcd;
      }

      .cls-38 {
        fill: #919191;
      }

      .cls-39 {
        fill: #d0d0d0;
      }
    </style>
  </defs>
  <g id="Layer_1-2" data-name="Layer 1">
    <g>
      <path class="cls-13" d="m85.29,219.41c-11.71-1.06-23.47-1.44-35.21-2.03-3.17,2.07-5.35,5.2-8.15,7.66-1.4,1.23-2.4,2.89-4.15,3.72v-.03c-1.93-.93-3.11-2.72-4.58-4.15-4.41-4.31-8.72-8.71-13.11-13.04-.68-.67-1.13-1.68-2.28-1.75-2.44,2.06-4.26,4.82-7.14,6.39-2.89-2.28-5.32-5.03-7.85-7.67-.89-1.52.36-2.43,1.15-3.2,10.5-10.15,20.7-20.61,31.45-30.49,6.4-5.88,12.89-11.71,20.42-16.17.71-.42,1.45-1.5,2.56-.64-2.56,6.42-6.58,12-10.67,18.06,1.91.24,3.2-.52,4.48-1.03,38.13-15.17,76.25-30.37,114.38-45.56,1.19-.47,2.35-1.1,3.7-1.02.53,2.79-2,3.79-3.39,5.19-6.88,6.94-14.09,13.55-20.57,20.89-.17.19-.72.09-.71.62-5,5.32-10.46,10.2-15.3,15.69-1.38,1.57-3.01,2.91-4.35,4.48-5.6,5.7-11.05,11.57-16.41,17.51-7.3,8.08-14.68,16.13-20.88,25.14-.97.85-1.51,2.76-3.4,1.43Z"/>
      <path class="cls-13" d="m128.93,296.2c-.59-11.56-1.19-23.12-1.78-34.69-1.21-1.65-.19-2.77.94-3.83,2.77-2.6,5.91-4.75,8.85-7.14,10.93-8.87,21.12-18.57,31.51-28.06,15.42-14.09,29.64-29.37,44.62-43.89.79-.76,1.49-1.69,2.45-2.19,1.5-.77,2.3-.3,1.91,1.51-6.06,15.18-12.14,30.35-18.16,45.55-9.94,25.11-19.84,50.24-29.76,75.36.57,1.85-.58,2.89-1.8,3.91-.88.29-1.62.78-2.22,1.48-9.19,7.35-18.04,15.05-26.17,23.57-.74.77-1.44,1.69-2.67.39-6.18-6.51-12.68-12.7-18.94-19.12-.13-.13-.16-.36-.23-.55v-.03c2.8-3.6,6.36-6.47,9.43-9.81.72-.78,1.76-1.31,2.04-2.47Z"/>
      <path class="cls-20" d="m345.01.35c1.55-.89,1.6.1,1.13,1.07-2.52,5.16-3.87,10.78-6.23,16-.96.5-1.83.54-2.5-.49-.12-.35-.36-.71-.02-1.07-.34.14-.47.53-.63.77-5.14,7.82-10.32,15.6-15.91,23.09-5.11,6.85-10.24,13.69-15.66,20.31-1.25,1.52-3.08,2.16-4.53,3.36-1.85-.32-2.72.99-3.41,2.28-2.7,5.02-6.7,9.04-10.19,13.44-8.5,10.7-17.57,20.93-26.4,31.35-4.8,5.67-10.31,10.7-15.16,16.36-2.2,2.56-2.91,5.76-4.96,8.33-1.56,1.95-3.08,3.89-4.99,5.5-3.68,2.08-6.39,5.2-9.28,8.23-4.55,4.75-8.24,10.4-14.04,13.89-.34.2-.5.61-.66.97-.55,4.15-2.6,7.28-5.61,10.25-15.04,14.83-29.68,30.08-44.96,44.65-12.84,12.24-25.56,24.7-40.16,34.95-2.73,1.92-5.43,3.88-8.29,5.62-.27.25-.53.5-.79.75-2.68,2.5-5.61,4.68-8.7,6.63-1.32,1.09-2.77,1.61-4.53,1.91-2.44.42-4.8,1.4-7.04,2.63-1.08.59-2.64.66-3.5-.52-.68-.93-.3-2.09.53-2.93,6.48-6.55,12.07-13.91,18.46-20.55.39-.4.81-.32,1.12-.61,1.3.49,1.88,1.35,1.46,3.19,6.83-4.87,13.77-9.04,19.8-14.49,6.28-5.67,12.86-11.03,18.81-17.06,6.22-6.3,12.64-12.39,18.92-18.62,7.7-7.64,15.58-15.12,23.28-22.79,3.24-3.23,6.21-6.71,9.62-9.79,3.3-2.97,3.19-5.36.44-8.87-1.55-1.98-3.98-3.4-4.08-6.24.51-.55,1.02-1.08,1.77-1.3,1.12-.39,2.22.96,3.52-.21.65-.59,1.49.59,2.12,1.19,3.07,2.94,5.35,3.18,8.23.06,8.91-9.67,18.71-18.5,27.17-28.59,2-2.38,4.47-4.26,6.57-6.54,9.24-10.06,18.38-20.22,27.55-30.35,6.23-6.87,12.13-14.04,18.13-21.11,6.51-7.69,13.12-15.29,19.6-23.01,8.44-10.04,16.48-20.4,24.78-30.55.29-.36.87-.28.89-.78.31-.31-.45-.23-.11-.03.08.05.05.11-.06.23-4.04,4.63-8.86,8.44-13.21,12.73-5.9,5.82-12.1,11.31-18.13,16.98-10.25,9.63-20.22,19.57-30.63,29.01-12.05,10.93-23.49,22.5-35.5,33.46-11.86,10.83-22.89,22.49-34.53,33.52-2.24,2.12-4.09,4.63-6.48,6.59-1.25,1.03-.7,2.27-.68,3.48-.63,1.04-1.57,1.8-2.41,2.65-23.28,23.29-46.62,46.51-69.79,69.9-4.75,4.79-9.72,9.12-15.7,12.24-2.34,2.18-4.57,4.52-7.89,5.23-2.11-.73-2.02-2.16-1.19-3.8,1.37-2.71,3.5-4.87,5.49-7.06,9.25-10.19,18.49-20.38,28.22-30.12,7.82-7.83,15.78-15.52,23.25-23.72,8.66-9.49,18.3-18.03,27.53-26.97.43-.42.86-1.05,1.4-1.09,3.46-.24,4.68-3.13,6.72-5.22,8.01-8.21,16.04-16.39,24.5-24.15,2.85-2.62,5.6-5.38,8.34-8.11,11.94-11.9,24.58-23.06,36.73-34.74,8.2-7.88,16.96-15.18,25.4-22.83,8.25-7.47,16.77-14.65,25.2-21.9,7.65-6.59,15.22-13.22,22.4-20.3,2.78-2.67,6.2-4.38,9.51-6.27Z"/>
      <path class="cls-18" d="m208.99,161.02c3.34.03,5.42-1.82,7.75-4.09,5.87-5.72,10.34-12.84,17.26-17.51,4.27-2.9,6.76-7.44,10.1-11.19,8.79-9.88,18.12-19.21,27.54-28.48.93-.91,2.06-1.78,3.35-.65,1.24,1.08.58,2.23-.16,3.32-1.12,1.65-2.35,3.21-3.77,4.62-5.86,5.84-11.72,11.68-17.55,17.55-2.21,2.22-4.01,4.54-2.46,7.92.7,1.54-1.14,1.91-1.41,3.01-4.87,5.76-10.07,11.22-14.97,16.94-4.21,4.92-8.85,9.37-13.34,14-1.4,1.45-2.31,2.99-2.1,5.02.25,2.4-.61,4.45-1.8,6.43-1.76-.48-2.5.99-3.43,1.91-9.27,9.21-18.46,18.51-27.76,27.7-17.88,17.66-36.08,34.98-56.01,50.37-1.29.99-2.31,2.19-3.07,3.62-1.34-.22-2.25.63-3.25,1.28-3.93,2.55-7.82,5.18-11.82,7.6-1.69,1.02-2.51,2.33-2.99,4.19-2.2,8.49-4.53,16.95-6.82,25.42-2.26,3.17-5.3,5.6-7.99,8.35-4.86,4.97-9.8,9.86-14.74,14.75-.68.67-1.15,1.66-2.28,1.78-.18-.09-.36-.17-.54-.25-.49-.18-.82-.51-.98-1-.23-1.74.95-2.73,2-3.79,5.89-5.92,11.79-11.85,17.74-17.72,2.4-2.37,4.05-5.04,4.98-8.32,2.11-7.47,4.09-14.97,6.06-22.48,1.12-4.3,2.15-8.61,4.6-12.41.14-.15.29-.29.43-.44,3.87.37,6.08-2.72,8.7-4.56,11.6-8.14,22.05-17.67,32.35-27.39,5.8-5.47,11.76-10.8,17.36-16.46,9.25-9.35,19.31-17.88,28.02-27.8,2.94-3.34,6.69-5.99,9.63-9.38,2.85-3.29,4.27-4.44,1.1-9.67-.42-.7-1.62-1.71.28-2.2Z"/>
      <path class="cls-5" d="m211.87,95.36c-3.83-3.6-6.69-8.09-10.6-11.63-.85-.77-1.36-1.93-2.02-2.91-.04-.09-.07-.2-.13-.27-3.58-4.21-3.45-4.08.34-8.22,3.78-4.13,9.07-4.58,13.88-6.08,15.89-4.98,31.84-9.8,47.79-14.59,6.81-2.04,13.56-4.25,20.41-6.17,1.19-.33,2.45-1.03,3.37.51.8,2.69-1.69,3.55-3.02,4.66-4.42,3.69-8.75,7.51-13.32,11.02-2.06,1.58-4.03,3.27-5.51,5.41-.95,1.92-3.27,1.4-4.68,2.55-3.14,2.56-6.28,5.11-9.39,7.71-7.02,5.85-13.86,11.91-20.55,18.13-7.36,6.84-15.36,12.9-23.01,19.38-1.14.97-2.27,1.95-3.31,3.02-1.18,1.12-2.31.52-3.02-.44-.67-.9.56-1.51.88-2.27,2.19-5.17,7.05-7.99,10.51-12.04.84-.99,1.62-2.01,1.8-3.34.12-.61-.26-1.23-.03-1.85.11-.46-.11-.86-.24-1.28-.11-.42-.13-.86-.15-1.29Z"/>
      <path class="cls-9" d="m249.62,135.53c.23-1.26-.03-2.41-.92-3.33-1.94-1.99-1.32-3.64.43-5.38,6.72-6.67,13.4-13.38,20.08-20.08,1.67-1.67,3.29-3.38,4.37-5.73-1.57-.08-2.14,1-2.85,1.71-9.32,9.28-18.61,18.6-27.92,27.89-2.94,2.93-4.89,6.86-8.81,8.81,3.23-3.28,5.95-6.99,8.72-10.63,7.68-10.08,16.61-19.09,24.76-28.76,9.9-11.73,19.69-23.55,29.25-35.56,1.05-1.32,2.22-2.56,3.33-3.84,2.02.82,1.06,2.31.72,3.54-2.67,9.61-5.81,19.08-8.69,28.62-4.26,14.14-8.7,28.22-12.84,42.39-1.43,4.91-3.18,9.48-7.47,12.67-1.05.78-1.97,1.58-3.37,1.27-1.33-.31-2.17-1.3-3.13-2.18-3.8-3.48-7.6-6.97-11.46-10.37-1.16-1.02-2.42-2.24-4.2-1.06Z"/>
      <path class="cls-5" d="m64.93,271.16c-6.05,6.04-12.08,12.08-18.15,18.1-.9.89-1.66,2.02-3.04,2.28-3.86-3.01-6.96-6.81-10.51-10.13-2.68-2.68-5.34-5.38-8.06-8.04-1.03-1.01-1.45-1.73-.2-3.05,6.88-7.26,13.59-14.68,20.85-21.58,1.11-1.05,2.24-1.87,3.68-2.26,7.1-1.93,14.2-3.88,21.33-5.7,2.16-.55,4.03-1.67,6.03-2.5,1.95-.81,3.88-1.36,5.95-1.58,1.56-.4,3.14-.93,4.42.64.58,1.33.12,2.47-.69,3.52-4.22,5.48-7.14,11.84-11.79,17.03-1.43,1.6-.18,4.46-2.53,5.67-2.42,2.53-5.16,4.76-7.28,7.59Z"/>
      <path class="cls-9" d="m111.12,258.92c-.32,4.94-2.28,9.48-3.44,14.21-1.88,7.65-4.13,15.2-6.14,22.81-.61,2.32-1.88,4.13-3.53,5.78-7.35,7.32-14.66,14.66-21.99,22-3.45-2.37-6.04-5.66-8.99-8.57-3.31-3.26-6.79-6.38-9.76-9.99-.1-.17-.2-.34-.3-.52.16-1.1,1.13-1.59,1.81-2.27,7.22-7.26,14.47-14.48,21.69-21.74.68-.68,1.64-1.17,1.81-2.28-.41-.41-.83-.82-1.24-1.23-.29-.69-.04-1.17.61-1.42,4.54-1.78,8.63-4.54,13.13-6.33,2.91-1.16,4.84-3.77,7.87-4.55,2.77-2.04,5.99-3.45,8.48-5.91Z"/>
      <path class="cls-28" d="m184.92,290.23c1.06-.83,1.91-2.03,3.51-2.08.71,1.08-.16,1.79-.6,2.59-3.08,5.48-7.05,10.31-10.73,15.37-8.15,11.18-17.61,21.15-27.43,30.82-2.1,2.07-4.16,4.17-6.24,6.25-.99.99-2,1.98-3.53,2.04-2.71-1.83-4.86-4.24-6.89-6.77,1.03-3.18,3.94-4.77,6.02-7.06,7.26-7.96,15.17-15.3,23.02-22.64,5.51-5.16,10.87-10.58,17.14-14.93,1.86-1.29,4.03-2.07,5.74-3.59Z"/>
      <path class="cls-37" d="m268.41,149.13c5.64-4.56,8.47-10.58,10.47-17.54,6.01-20.96,12.61-41.74,18.95-62.6.84-2.76,1.49-5.57,2.23-8.36,2.02-.16,3.44-1.18,4.71-2.76,10.86-13.49,21.1-27.44,31.12-41.55,1.2-1.68,2.46-3.32,3.96-4.84.22,1.97-1.22,3.36-1.65,5.08.92,1.65-.37,2.78-1.05,3.95-4.77,8.17-10.1,15.98-15.29,23.88-2.62,4-5.4,7.88-8.08,11.83-.96,1.42-2.07,2.67-3.53,3.58-6.31,7.34-11.69,15.05-14.38,24.7-5.27,18.91-11.33,37.6-16.97,56.41-1.24,4.14-4.59,6.4-7.45,9.1-1.15,1.08-2.2.04-3.04-.87Z"/>
      <path class="cls-13" d="m286.07,35.61c-2-3.43-3.89-6.93-6.04-10.26-1.19-1.85-.63-2.73,1.14-3.33,3.02-1.02,6.04-2.05,9.09-2.97,14.59-4.42,28.99-9.41,43.35-14.49,1.5-.53,3.03-.96,4.55-1.44,1.54,1.48-.42,1.53-.92,2.03-.94.94-2.35,1.16-3.44,1.92-4.41,3.3-9.21,5.98-13.94,8.79-7.68,5.17-15.4,10.28-23.23,15.23-2.48,1.57-4.82,3.36-7.21,5.05-1.7,1.2-2.46,1.23-3.36-.51Z"/>
      <path class="cls-13" d="m310.26,59.8c.06-1.14.54-2.1,1.18-3.01,8.61-12.43,17-25,24.92-37.89.52-.84,1.23-1.56,1.84-2.34.76-.09,1.3.24,1.71.86-2.3,7.54-4.55,15.1-8.49,22.02-1.4,3.41-2.96,6.74-4.69,9.99-1.44,2.7-1.32,5.74-1.69,8.67-.13,1.06.18,2.23-1.02,2.9-.02.1-.06.19-.06.29q-.45,6.04-5.67,3.08c-2.68-1.52-5.36-3.04-8.03-4.56Z"/>
      <path class="cls-21" d="m171.84,127.13c.65.12,1.31.23,1.96.35,1.87.99,4.08,1.55,4.9,3.86-.17,4.58-3.99,6.82-6.76,9.21-6.07,5.24-11.49,11.16-17.06,16.81-8.52,8.64-17.01,17.34-25.55,25.99-5.93,6.01-11.55,12.32-17.32,18.48-5.78,6.16-11.47,12.48-16.64,19.18-3.67,4.76-7.34,9.53-10.72,14.52-1.15,1.69-2.75,3.25-5.24,2.33.22-3.29,2.74-5.27,4.38-7.75,6.09-9.25,12.97-17.93,20.38-26.09,11.72-12.92,23.53-25.78,36.13-37.88,6.79-6.52,12.94-13.65,19.62-20.27,3.73-3.7,7.5-7.37,11.21-11.11.98-.99,2.57-1.71,2.01-3.58-.36-.68-.8-1.3-1.32-1.84-.35-.73.18-1.46.03-2.18Z"/>
      <path class="cls-29" d="m333.1,6.42c1.64-1.18,3.77-1.61,5.07-3.31,2.28-.92,4.56-1.84,6.84-2.76-2.84,2.29-5.67,4.57-8.51,6.86-.36.19-.71.4-1.04.65-5.83,4.85-12.37,8.73-18.14,13.7-4.1,3.53-8.66,6.56-12.78,10.11-5.4,4.65-11.21,8.82-16.48,13.62-1.34,1.22-2.54,1.52-4.11.92-10.52,2.39-20.71,5.97-31.05,8.97-15.53,4.5-30.96,9.33-46.47,13.87-3.85,1.13-6.22,3.88-8.53,6.71-1.65,2.02.73,3.4,1.34,5.06-1.5-1.35-3.05-2.67-3.88-4.59,2.09-2.72,4.53-5.08,7.19-7.24,11.29-3.58,22.58-7.16,33.86-10.74,12.04-3.82,24.08-7.65,36.13-11.48,1.19-.39,2.38-.77,3.35-1.63,1.32-.76,2.75-1.25,4.2-1.71,4-.47,6.36-3.64,9.21-5.83,9.65-7.41,19.42-14.63,29.53-21.39,3.93-2.64,7.93-5.16,11.88-7.77.86-.57,2.01-.86,2.39-2.03Z"/>
      <path class="cls-9" d="m79.75,237.69c1.82-.26,3.03-1.38,4.06-2.81,6.19-8.57,12.6-16.97,19.64-24.86,5.18-5.8,10.58-11.39,15.75-17.19,8.49-9.53,17.81-18.26,26.6-27.5,8.16-8.59,16.82-16.7,25.09-25.19,2.42-2.48,5.96-4.26,6.29-8.37,2.61.82,3.29,3.62,1.11,5.34-6.77,5.37-12.15,12.15-18.47,17.98-6.3,5.81-11.92,12.27-18.01,18.27-6.55,6.46-13.22,12.83-19.37,19.67-5.62,6.26-11.73,12.1-17.05,18.58-6.49,7.92-13.7,15.32-18.91,24.27-.58,1-1.91,1.81-3.35,1.81-6.64,2.51-13.52,4.34-20.44,5.64-10.12,1.89-18.5,6.13-24.99,14.26-3.41,4.27-7.38,8.09-11.13,12.08-1.53,1.63-1.49,3.12.06,4.68,2.18,2.19,4.34,4.41,6.51,6.61.02.17.03.33.05.5-.15-.08-.29-.16-.44-.24-2.48-2.44-4.91-4.94-7.46-7.31-1.81-1.68-1.72-3.12.05-4.73,1.25-1.13,2.35-2.42,3.52-3.64,5.94-6.44,12.14-12.62,18.57-18.58,6.27-2.46,12.9-3.68,19.32-5.62,2.08-.63,4.16-1.23,6.24-1.85.38-.13.6-.48.91-.7.5-.44,1.09-.7,1.71-.91.62-.24,1.25-.44,1.89-.62.73.22,1.62-.38,2.24.43Z"/>
      <path class="cls-19" d="m75.92,238.93c-.71.16-1.41.32-2.12.48,1.84-4.56,4.95-8.37,7.38-12.59,1.86-3.23,4.33-6.05,6.47-9.11,4.03-6.47,9.03-12.19,14.04-17.86,7.59-8.6,15.52-16.89,23.3-25.31,4.95-5.69,10.6-10.7,15.8-16.14,1.29-1.35,2.86-2.46,3.82-4.12,8.57-8.61,17.13-17.22,25.7-25.83.51-.44,1.02-.88,1.52-1.33.38.42.75.83,1.13,1.25.81,1.84-.61,2.72-1.64,3.75-11.12,11.13-22.24,22.25-33.36,33.37-2.04,2.04-4.05,4.12-5.71,6.49-3.09,3.24-6.51,6.18-9.43,9.57-8.6,9.96-18.14,19.08-25.96,29.75-2.31,3.15-5.01,6.13-7.66,9.08-2.54,2.83-2.78,6.91-5.59,9.56-2.88,2.72-4.78,6.3-7.7,9Z"/>
      <path class="cls-17" d="m83.14,237.7c2.57-1.87,3.96-4.73,5.78-7.19,5.77-7.79,12.19-15.02,18.55-22.31,10.44-11.96,21.62-23.2,32.66-34.59,12.08-12.46,24.37-24.72,36.64-36.99,1.68-1.68,2.02-3.08.41-4.85-1.28-1.31-2.68-2.53-3.38-4.3.28,0,.57-.02.85-.03,2.63,1.72,4.92,3.77,6.37,6.64.37,2.09-.48,3.42-2.05,4.97-7.46,7.35-14.99,14.63-22.17,22.25-4.96,5.26-10.37,10.11-15.35,15.35-7.62,8-15.58,15.67-23.03,23.85-7.26,7.98-14.57,15.91-21.54,24.13-3.37,3.98-6.88,8-9.21,12.8-.33.3-.71.38-1.14.27-1.13,0-2.26,0-3.39,0Z"/>
      <path class="cls-39" d="m102.64,264.82c-5.62,4.86-12.46,7.87-18.43,12.2-.99.72-2.12.31-3.19.1-1.55,1.49-3.11,2.99-4.66,4.48-1.36-.33-2.03-1.42-2.74-2.46-.23-1.76.98-2.77,2.04-3.84,4.2-4.26,8.48-8.45,12.68-12.71,10.02-10.16,19.37-20.91,28.21-32.11,1.38-1.74,2.78-3.46,4.72-4.66.71.14,1.46.22,1.99.82.62.66.28,1.26-.11,1.87-3.82,6.04-7.66,12.05-12.14,17.64-.76.94-1.41,1.95-2.86,1.29-5.55,6.8-11.14,13.56-17.26,19.86-.53.55-1.38,1.2-.9,2.03.59,1.01,1.62.47,2.42.17,2.14-.81,4.33-1.54,6.14-3.04,1.17-.97,2.5-1.64,4.08-1.65Z"/>
      <path class="cls-37" d="m139.57,344.94c4.73-4.72,9.45-9.45,14.18-14.17,12.46-12.41,23.78-25.78,34.07-40.03-2.63,6.41-6.83,11.86-10.82,17.42-9.85,13.71-21.74,25.59-33.8,37.3-.55.54-1.3.88-1.95,1.32-.76-.42-1.48-.89-1.67-1.84Z"/>
      <path class="cls-7" d="m58.41,158c-6.05,2.81-10.87,7.32-15.73,11.69-8.49,7.64-16.83,15.46-25.03,23.41-5.05,4.9-9.72,10.18-14.57,15.29-.83.03-1.11-.73-1.64-1.14-.25-.27-.38-.58-.42-.94,1.37-2.47,3.65-4.13,5.57-6.1,5.3-5.42,10.69-10.74,16.05-16.09,7.2-7.18,15.02-13.63,23.42-19.35,2.3-1.57,4.61-3.15,6.95-4.68,1.69-.97,2.98-2.98,5.39-2.1Z"/>
      <path class="cls-14" d="m184.92,290.23c-3.58,3.02-7.15,6.04-10.73,9.05-9.91,8.35-19.19,17.38-28.29,26.6-4.2,4.26-8.44,8.47-12.67,12.7-.8-.03-1.11-.67-1.51-1.21.22-3.27,2.02-5.48,4.74-7.11.32-.17.59-.39.79-.7,5.13-4.85,10.45-9.48,15.52-14.38,7.54-7.3,15.73-13.81,24.07-20.15.15-.11.25-.29.38-.44,1.4-1.3,3.11-2.11,4.71-3.09,1-.42,2-.85,2.99-1.27Z"/>
      <path class="cls-35" d="m73.85,279.21c.84.8,1.68,1.59,2.52,2.39-3.12-1.12-4.76-3.99-7.07-6.06-1.54-1.37-2.91-2.92-4.36-4.39.31-2.7,2.56-4.02,4.16-5.8.84-.94,1.73-1.84,2.6-2.75,2.61-4.71,6.53-8.39,10.01-12.4,1.04-1.2,3.07-1.3,4.03-2.79,3.49-3.68,7.51-6.76,11.47-9.91,1.36-1.08,2.78-1.75,4.53-1.61,2.27-1.65,4.55-3.29,6.82-4.94,1.44.62.66,1.39.07,2.01-3.95,4.11-8.23,7.85-12.84,11.19-1.04.75-1.4,1.83-2.12,2.68-3.04,3.6-7.74,4.87-10.89,8.44-4.63,5.26-9.86,9.99-13.87,15.79-.8,1.18.4,1.52.9,2.13,1.63,1.82,4.24,2.97,4.04,6.01Z"/>
      <path class="cls-35" d="m131.97,337.32c.42.42.84.84,1.26,1.26,2.11,2.12,4.23,4.24,6.34,6.36.56.61,1.11,1.22,1.67,1.83-3.93-2.48-6.8-6.07-9.89-9.42-1-1.09-.9-2.37.07-3.53.38-.46.78-.9,1.2-1.32,3.83-3.82,4.75-3.33,0-8.03-4.25-4.2-8.46-8.44-12.67-12.67-.98-.98-2.07-1.89-2.5-3.29,5.66,5.64,11.31,11.31,17,16.93,2.59,2.56,3.32,2.58,5.91-.06,7.84-8,16.05-15.56,25-22.3,1.48,1.44-.41,1.65-.91,2.07-8.17,7.05-15.92,14.54-23.68,22.04-1.22,1.18-2.34,2.42-3.35,3.78h0c-2.2,1.79-4.43,3.56-5.47,6.35Z"/>
      <path class="cls-12" d="m53.02,160.1c-5.7,4.53-11.38,9.06-17.09,13.57-9.73,7.69-18.25,16.66-26.95,25.44-2.53,2.55-5.09,5.06-7.64,7.59-1.64-.66-1.73-1.46-.52-2.79,1.82-2,3.8-3.81,5.89-5.51,6.92-7.51,14.66-14.15,22.25-20.96.35-.31.35-.93.92-.99,5.51-4.6,11.21-8.96,17.21-12.9,1.98-1.15,3.96-2.31,5.94-3.46Z"/>
      <path class="cls-31" d="m7.24,199.08c-1.86,1.14-3.45,2.6-4.92,4.2-.91.98-1.6,2.02-.97,3.44.12.14.24.28.36.42.09.15.17.31.26.46-.17-.02-.35-.04-.52-.06-1.8-1.52-1.94-3.11-.26-4.83,13.43-13.74,27.25-27.02,43.26-37.79.81-.55,1.76-.9,2.64-1.35-5.51,4.36-11.02,8.71-16.52,13.07-8.15,7.09-16.23,14.26-23.32,22.44Z"/>
      <path class="cls-10" d="m279.73,44.53c-1.2.65-2.47,1.12-3.83,1.31.68-2.28,3.01-2.8,4.53-4.18,1.9-1.72,4.44-2.68,6.01-4.84-.12-.41-.24-.81-.36-1.22,2.22.85,3.57-.81,5.06-1.85,9.31-6.52,18.77-12.82,28.41-18.84.96.82-.08,1.13-.41,1.62-12.73,8.57-24.89,17.92-37.38,26.83-.64.46-1.29.87-2.02,1.16Z"/>
      <path class="cls-3" d="m211.87,95.36c.29.28.59.56.88.84-.74,3.26-3.55,4.91-5.76,6.89-1.22,1.1-2.63,2.11-3.86,3.26-5.28,4.95-10.67,9.77-15.9,14.77-2.88,2.75-5.65,5.82-9.25,7.8-.7-.28-1.02-.75-.74-1.51,10.08-9.77,20.35-19.33,30.98-28.5,1.28-1.1,2.43-2.36,3.63-3.55Z"/>
      <path class="cls-11" d="m87.65,217.72c-.13.47-.15,1.01-.4,1.4-4.46,6.78-8.96,13.54-13.45,20.3-.27.03-.54.05-.81.08,2.97-6.1,6.99-11.57,10.56-17.3.58-.93,1.15-1.86,1.73-2.78.79-.56,1.58-1.12,2.36-1.69Z"/>
      <path class="cls-32" d="m177.25,127.41c.29.29.57.57.86.86.47.05.95.08,1.37.34.65.88,1.75.5,2.56.93.53.74.57,1.65,1.6,2.27,1.07.64,2.18,1.95,1.3,3.62-2.65,2.44-3.05,2.31-4.78-1.53-1.89-2.1-4.33-3.74-5.5-6.45.86-.21,1.73-.35,2.59-.03Z"/>
      <path class="cls-10" d="m82.27,278.36c-.6,1.65-1.89,2.76-3.07,3.96-7.41,7.45-14.82,14.89-22.23,22.33.53-1.57,1.77-2.61,2.88-3.73,7.47-7.53,14.95-15.04,22.42-22.56Z"/>
      <path class="cls-33" d="m77.27,324.89c8.34-8.29,16.67-16.59,25.01-24.88-.39,1.17-1.24,2.02-2.08,2.87-6.66,6.69-13.33,13.39-20,20.07-.84.84-1.63,1.77-2.92,1.95Z"/>
      <path class="cls-38" d="m286.44,36.82c-1.24,3.01-4.34,3.96-6.54,5.9-1.26,1.12-2.66,2.08-4,3.11-1.06.52-2.16.91-3.36.93,4.63-3.31,9.27-6.63,13.9-9.94Z"/>
      <path class="cls-22" d="m57.27,305.16c6.25,6.18,12.5,12.37,18.75,18.55.24.31.47.62.71.93-2.84-1.56-4.83-4.09-7-6.37-4.16-4.36-8.95-8.13-12.46-13.11Z"/>
      <path class="cls-36" d="m17.82,209.79c1.53.39,2.51,1.54,3.56,2.58,5.48,5.45,10.95,10.91,16.42,16.36-1.53-.4-2.47-1.61-3.52-2.64-5.5-5.43-10.98-10.87-16.46-16.31Z"/>
      <path class="cls-15" d="m47.44,246.97c-6.19,6.19-12.38,12.38-18.57,18.58,2.19-3.61,5.5-6.18,8.43-9.09,3.28-3.26,6.16-6.96,10.13-9.49Z"/>
      <path class="cls-35" d="m181.93,291.5c-1.41,1.15-2.82,2.3-4.24,3.45-3.22,2.07-6.01,4.71-9.09,6.97-.47.34-.88,1.32-1.59.24.83-1.11,1.66-2.23,2.49-3.34,3.15-1.27,5.58-3.68,8.47-5.37,1.27-.74,2.46-1.66,3.95-1.95Z"/>
      <path class="cls-10" d="m37.79,228.76c3.21-3.2,6.41-6.41,9.63-9.6.77-.76,1.57-1.51,2.67-1.79-3.22,3.19-6.43,6.38-9.65,9.57-.77.76-1.57,1.5-2.65,1.82Z"/>
      <path class="cls-35" d="m128.93,296.2c-2.2,4.1-6.13,6.63-9.12,10.01-.72.81-1.56,1.51-2.34,2.27,3.12-4.75,7.78-8.06,11.46-12.28Z"/>
      <path class="cls-6" d="m32.76,281.23c.13-.09.26-.17.39-.26,3.53,3.52,7.06,7.05,10.59,10.57-4.26-2.8-7.44-6.74-10.98-10.31Z"/>
      <path class="cls-12" d="m1.44,207.53c.09-.13.18-.26.26-.4.46.42.92.84,1.38,1.26,2.53,2.59,5.06,5.19,7.59,7.78-3.66-2.26-6.21-5.71-9.23-8.65Z"/>
      <path class="cls-2" d="m202.55,68.99c-2.4,2.41-4.79,4.83-7.19,7.24,1.79-3.01,4.23-5.38,7.19-7.24Z"/>
      <path class="cls-8" d="m144.61,154.28c-2.09,3.44-5.3,5.87-8.04,8.72-3.79,3.92-7.71,7.71-11.58,11.55,1.14-2.14,2.99-3.68,4.67-5.36,4.97-4.99,9.97-9.94,14.96-14.9Z"/>
      <path class="cls-30" d="m167.01,302.16c2.8-1.29,4.95-3.49,7.4-5.28,1.02-.75,2.18-1.29,3.28-1.93-5.6,5.09-11.79,9.47-17.35,14.63-7.3,6.77-14.77,13.33-21.75,20.44-.35.35-.77.63-1.15.95.7-1.46,1.78-2.62,2.9-3.76,7.4-7.49,14.82-14.96,23.03-21.58.87-.7,1.57-1.52,2-2.55.55-.3,1.1-.61,1.64-.91Z"/>
      <path class="cls-13" d="m196.67,146.16c-1.13-1.89.04-3.12,1.14-4.49,3.34-4.13,7.46-7.48,11.17-11.23,9.39-9.51,18.91-18.91,28.51-28.21,10.39-10.06,20.81-20.08,31.44-29.87,10.56-9.73,20.95-19.64,31.31-29.59,11.21-10.77,22.78-21.17,34.23-31.69,1.57-1.44,3.34-2.67,5.17-4.13.36,1.48-.36,2.14-.87,2.81-7.05,9.17-14.12,18.32-21.6,27.15-6.25,7.38-12.28,14.95-18.66,22.22-9.34,10.64-18.38,21.52-27.8,32.1-8.22,9.23-16.88,18.06-24.85,27.51-2.36,2.79-5.17,5.21-7.69,7.9-8.57,9.16-17.49,18-26.07,27.16-3.28,3.5-5.97,3.15-9.69.11-1.32-1.08-2.62-1.3-4-1.77-1.03-2.43,1.06-3.92,2.23-4.99,11.57-10.47,21.54-22.52,32.99-33.1.55-.51,1.99-1.27,1.11-2.65-.86-.68-1.12.27-1.63.55-.6.57-1.16,1.17-1.8,1.69-3.8,2.63-6.78,6.13-10.07,9.3-7.23,7.23-14.44,14.47-21.71,21.66-.76.75-1.29,2.17-2.85,1.57Z"/>
      <path class="cls-13" d="m108.16,247.45c4.25-5.84,8.65-11.58,12.34-17.82.55-.92,1.37-1.69,2.06-2.52-.32-1.43.79-2.1,1.58-2.89,18.41-18.31,36.73-36.7,55.08-55.07,5.29-5.29,9.82-11.32,15.74-15.98.69-.55,1.15-1.37,2.16-.63,2.33,2.46,4.97,4.62,6.75,7.59,1.26,2.1,1.18,3.96-.58,5.68-10.65,10.37-20.79,21.24-31.64,31.41-6.1,5.72-12,11.65-17.8,17.68-6.44,6.7-13.7,12.48-20.44,18.84-7.58,7.13-16.25,12.81-24.94,18.45-.55.36-1.03,1-2.01.47.25-1.81,2.03-3.2,1.69-5.2Z"/>
      <path class="cls-5" d="m101.73,235.89c-4.8,4.01-9.9,7.66-14.46,11.97-1.13.52-1.76,1.6-2.67,2.36-.79.65-1.49,2.18-2.64,1.26-1.2-.96-.22-2.27.42-3.29,1.78-2.89,3.73-5.67,5.88-8.3,5.87-7.17,11.48-14.55,17.59-21.53,3.61-4.13,7.33-8.17,11.08-12.16,20.64-21.96,42.07-43.14,63.42-64.41.64-.63,1.21-1.47,2.04-1.73,6.49-2.04,10.28-7.48,14.83-11.86,11.94-11.49,24.03-22.81,36.14-34.12,9.63-9,19.66-17.57,29.21-26.66,6.37-6.06,13.32-11.44,19.9-17.24,11.75-10.37,24.09-20.02,36.17-29.99,5.65-4.67,11.46-9.15,17.46-13.38.14.13.28.27.42.4-1.02,2.06-3.02,3.17-4.64,4.6-10.74,9.53-21.63,18.9-32.35,28.45-8.79,7.83-17.3,15.95-26.13,23.72-12.44,10.94-24.16,22.64-36.45,33.74-5.47,4.95-10.58,10.3-15.86,15.45-8.21,8-16.45,15.98-24.66,23.99-1,.97-1.98,1.98-2.84,3.08-.95,1.21-1.56,2.58-.92,4.17.25.63.86,1.27-.01,1.83-.67.43-1.39.15-1.98-.24-2.46-1.64-4.23-.52-6.05,1.24-19.97,19.25-39.24,39.2-58.71,58.94-7.83,7.93-15.44,16.15-22.46,24.86-1.15,1.42-2.29,2.82-1.69,4.85Z"/>
      <path class="cls-39" d="m208.99,161.02c-.16,1.94,1,3.4,1.81,4.98,1.62,3.16,1.63,4.32-.8,6.67-10.86,10.43-21.17,21.4-32.1,31.77-5.61,5.33-11.19,10.76-16.73,16.2-10.74,10.55-21.9,20.65-33.66,30.06-3.57,2.86-7.54,5.23-11.32,7.82-1.56,1.07-3.11,1.32-4.64-.05,6.19-4.69,12.51-9.23,18.55-14.13,5.96-4.83,11.72-9.92,17.39-15.08,13.71-12.5,26.69-25.77,39.8-38.89,6.42-6.42,12.85-12.83,19.25-19.27,3.23-3.26,3.3-3.82,1.46-8.1-.45-1.05-1.18-2.25,1-1.98Z"/>
      <path class="cls-18" d="m197.13,152.55c-24.86,24.85-49.71,49.71-74.57,74.56-.42-.14-.85-.28-1.27-.42-.59-1.07.21-1.82.6-2.66.57-.64,1.31-1.06,2.02-1.5,4.07-3.46,7.63-7.45,11.43-11.19,14.58-14.33,28.77-29.07,43.47-43.28.97-.94,1.95-2.09,1.5-3.71,2.82-3.73,6.25-6.9,9.77-9.96,1.58-1.37,3.21-2.68,4.69-4.16,12.78-12.67,25.39-25.52,38.22-38.15.69-.68,1.97-1.31,1.42-2.74,1.09-.64,2.41-1.97,3.45-.89,1.14,1.19-.58,2.25-1.2,3.27-.57.92-1.34,1.74-2.1,2.53-9.65,9.96-19.3,19.93-28.99,29.85-2.51,2.57-5.06,5.11-7.16,8.04-.42.14-.85.28-1.27.43Z"/>
      <path class="cls-30" d="m196.67,146.16c8.05-8.03,16.11-16.06,24.16-24.09.45.02.73.25.81.68-.8,2.06-2.7,3.14-4.14,4.62-8.49,8.76-17.01,17.52-25.89,25.87-7.8,7.32-14.79,15.42-22.57,22.73-13.73,13.72-27.44,27.46-41.19,41.17-2.51,2.5-4.73,5.21-6.62,8.19-.6.64-1.29,1.23-1.87,1.93-3,2.66-5.54,5.93-9.81,6.76-1.11.22-1.85,1.12-2.73,1.77-8.93,6.55-16.65,14.45-24.61,22.08-4.38,4.19-8.33,8.82-12.88,12.84-.78.69-1.45,1.48-2.64,1.31-.12-1.58.87-2.58,1.86-3.58,11.83-11.96,23.62-23.98,37.18-34.06,1.21-.9,2.25-1.96,2.83-3.4,9.1-4.79,15.79-12.41,22.9-19.53,21.75-21.75,43.48-43.51,65.22-65.27Z"/>
      <path class="cls-32" d="m336.08,6.81c-8.84,7.31-17.73,14.56-26.5,21.96-9.37,7.91-18.66,15.93-27.92,23.97-10.69,9.28-21.34,18.62-31.98,27.95-3.67,3.22-7.25,6.57-10.79,9.92-13.38,12.71-27.1,25.06-40.06,38.2-3.56,3.61-7.74,6.61-10.77,10.77-.53.73-1.28,1.38-2.23,1.37-2.6-.04-4.18,1.62-5.81,3.26-14.46,14.47-29.19,28.7-43.34,43.47-17.1,17.85-34.36,35.62-49,55.65-1.58,2.16-3.04,4.4-4.16,7.03,1.25-.83,2.5-1.66,3.75-2.48-5.2,4.92-10.39,9.83-15.59,14.75,1.31-4.89,4.54-8.76,7.04-13,2.41-4.09,5.19-7.95,7.81-11.92.14-.14.28-.28.42-.42,3.1-3.32,5.5-7.19,8.37-10.68,7.95-9.66,16.43-18.83,24.96-27.97,9.6-10.28,19.58-20.14,29.61-29.99,5.29-5.19,10.39-10.65,15.49-16.06,4.9-5.2,9.61-10.71,15.5-14.73,13.48-9.18,23.56-22.04,35.93-32.37,7.8-6.51,15.03-13.62,22.76-20.18,6.97-5.92,13.75-12.07,20.67-18.04.77-.67,1.62-1.24,1.68-2.4,6.71-5.33,13.43-10.64,20.1-16.02.82-.66,1.3-1.74,1.93-2.62,6.55-4.04,12.16-9.3,18.19-14.02,10.43-8.17,20.64-16.6,31.56-24.12.73-.5,1.58-.85,2.37-1.26Z"/>
      <path class="cls-23" d="m261.93,64.85c.02,1.94-1.33,3.04-2.59,4.17-12.67,11.41-25.46,22.7-37.86,34.41-10.37,9.79-20.99,19.32-31.01,29.49-1.5,1.52-3.14,2.74-5.25,3.31-1.37.37-2.55,1.15-3.56,2.14-4.21,4.09-8.49,8.13-12.73,12.17-6.86,6.55-13.01,13.76-19.83,20.33-12.8,12.31-25.15,25.08-37.14,38.18-7.26,7.94-14.4,16.02-20.8,24.71-1.08,1.47-1.97,3.36-4.21,3.52.95-3.51,3.47-6.03,5.61-8.75,8.21-10.41,17.17-20.17,26.13-29.95,11.33-12.37,23.69-23.69,35.12-35.93,5.17-5.53,11.1-10.28,15.82-16.27,2.24-2.85,5.58-4.79,8.1-7.51,1.32-1.43,2.43-2.91,2.41-4.97,1.2.86,2.29,2.68,3.82.42-.19-1.39.45-2.46,1.35-3.42,4.19-4.4,8.61-8.55,13.12-12.62.78-.7,2.27-.3,2.46-1.73,6.12-5.08,12.25-10.14,18.62-14.92,5.55-4.18,10.6-9.03,15.81-13.66,7.44-6.61,14.94-13.16,22.67-19.43,1.39-1.13,2.62-2.45,3.92-3.68Z"/>
      <path class="cls-25" d="m180.97,130.58c-.69-.47-1.38-.94-2.06-1.41.88-1.99,2.66-3.12,4.2-4.51,8.62-7.81,16.93-15.95,25.67-23.62,1.56-1.37,2.93-3.02,4.82-4,.42.42.83.84,1.25,1.26-1.25,2.98-3.92,4.87-5.76,7.42-2.59,3.58-6.35,6.16-9.03,9.7-4.24,5.59-10.14,9.47-14.8,14.62-1.26,1.39-2.64,2.14-4.3.54Z"/>
      <path class="cls-30" d="m180.97,130.58c1.53-.27,2.74-1.11,3.82-2.18,6.34-6.31,13.01-12.25,19.63-18.27,3.87-3.52,6.99-7.85,10.44-11.82-.76,3.86-4.04,5.95-6.29,8.74-2.23,2.76-5.07,5.01-7.09,7.98-.31.45-.95.81-.57,1.53-.99,3.12-3.51,4.95-5.77,7.04-3.78,3.51-7.45,7.15-11.17,10.73-1.87-.55-2.77-1.87-3-3.73Z"/>
      <path class="cls-1" d="m213.61,97.04c-2.33,3.83-6.21,6.1-9.33,9.12-6.7,6.5-13.69,12.71-20.53,19.07-1.53,1.42-2.98,2.93-4.84,3.94-.27-.3-.54-.6-.8-.9,11.55-10.69,23.1-21.38,34.64-32.07.29.28.57.56.86.84Z"/>
      <path class="cls-33" d="m319.13,16.12c.14-.4.27-.8.41-1.2,4.52-2.84,9.04-5.67,13.56-8.51-.84,2-2.75,2.82-4.37,3.94-3.04,2.09-6.11,4.13-9.17,6.19-.45.17-.6.03-.42-.42Z"/>
      <path class="cls-36" d="m79.75,237.69c-.7.16-1.41.31-2.11.47-.96-.77-.14-1.38.22-1.96,3.33-5.37,6.89-10.6,10.68-15.65,3.82-5.1,7.86-10.04,12.08-14.85,5.7-6.49,11.6-12.78,17.4-19.16,9.26-10.18,18.88-20,28.6-29.72.56-.56,1.07-1.18,1.47-1.86,7.92-8.25,16.28-16.04,24.17-24.31.44-.46,1-1.25,1.94-1.02,1.39,1.6,1.09,3.1-.31,4.49-6.21,6.19-12.52,12.27-18.61,18.57-12.19,12.62-25.01,24.6-36.91,37.51-8.85,9.6-17.7,19.21-25.69,29.53-4.51,5.83-9.09,11.63-12.94,17.94Z"/>
      <path class="cls-10" d="m174.21,129.65c-8.61,8.61-17.22,17.23-25.83,25.84-5.24,5.45-10.46,10.93-15.85,16.24-.37.36-.82.58-1.1-.14.73-1.7,2.07-2.91,3.34-4.17,11.48-11.48,22.96-22.96,34.43-34.44,1.41-1.41,2.87-2.78,3.76-4.61.42.43.83.85,1.25,1.28Z"/>
      <path class="cls-27" d="m319.13,16.12l.42.42c-6.25,4.58-12.51,9.14-18.73,13.75-4.95,3.66-9.85,7.39-14.77,11.09-1.91,1.44-3.83,2.86-6.32,3.14,3.34-3.31,7.32-5.8,11.07-8.57,9.28-6.84,18.68-13.52,28.33-19.84Z"/>
      <path class="cls-24" d="m131.43,171.59c4.67-3.42,8.42-7.78,12.26-12.04,1.4-1.56,2.87-3,4.7-4.06-.61,1.41-1.63,2.5-2.71,3.54-11.19,10.81-21.86,22.14-32.53,33.45-12.26,13-23.73,26.65-33.39,41.74-.8,1.25-1.41,2.62-2.11,3.94-.57.26-1.15.51-1.72.77,4.19-7.97,9.38-15.3,14.93-22.32,12.55-15.87,26.29-30.7,40.58-45.02Z"/>
      <path class="cls-13" d="m122.55,224.57c-.42.71-.84,1.41-1.26,2.12-8.96,12.38-19.02,23.83-29.69,34.75-5.85,5.99-11.83,11.86-17.75,17.78-1.83-1.84-3.67-3.67-5.5-5.51-.48-1.64.53-2.71,1.54-3.67,7.86-7.4,15.21-15.33,23.16-22.64,7.49-6.88,15-13.75,23.33-19.64.64-.46,1.1-1.15,1.75-1.62,1.38-.12,1.79-1.37,2.61-2.18.79-.79,1.79-1.26,1.81.62Z"/>
      <path class="cls-30" d="m131.97,337.32c.42-3.33,3.01-4.78,5.47-6.35-1.82,2.12-3.64,4.24-5.47,6.35Z"/>
      <path class="cls-4" d="m118.33,226.27c-12.63,10.09-23.99,21.56-35.73,32.61-4.98,4.69-9.51,9.86-14.25,14.82-.55-.57-1.11-1.13-1.66-1.7,7.9-7.91,15.54-16.11,23.77-23.65,8.89-8.14,18-16.09,28.29-22.53.05.32-.09.47-.42.44Z"/>
      <path class="cls-33" d="m7.24,199.08c.69-.96,1.28-2.03,2.1-2.87,6.1-6.27,12.3-12.45,18.99-18.1.68-.57,1.48-.99,2.23-1.47-7.73,7.53-15.9,14.6-23.32,22.44Z"/>
      <path class="cls-34" d="m234.4,109.34c1.37,2-.47,2.93-1.48,3.95-6.64,6.74-13.38,13.38-20.02,20.11-10.42,10.55-21.05,20.89-31.88,31.02-.1.44-.36.58-.78.42-.26-.35-.23-.67.07-.98,7.05-7.06,14.08-14.13,21.17-21.15,2.32-1.51,4.12-3.61,5.98-5.58,5.54-5.85,11.81-11,16.7-17.47,2.54-3.12,5.86-5.46,8.47-8.5.59-.61,1.17-1.21,1.76-1.82Z"/>
      <path class="cls-19" d="m232.64,111.15c-1.97,3.55-5.32,5.85-7.95,8.8-3.94,4.73-8.53,8.83-12.87,13.17-3.28,3.29-6.3,6.85-10.02,9.69-7.2,7.22-14.4,14.43-21.6,21.65.34,2.84-2.09,3.81-3.59,5.43-2.21,2.39-4.23,4.99-7.36,6.27-.47,0-.77-.22-.9-.68,16.25-16.28,32.5-32.55,48.74-48.83,1.41-1.41,2.77-2.86,4.15-4.29,2.98-3.45,6.19-6.68,9.66-9.64.58-.52,1.16-1.04,1.74-1.56Z"/>
      <path class="cls-20" d="m230.9,112.72c-3.22,3.22-6.44,6.43-9.66,9.65-.13-.1-.27-.2-.4-.29,3.38-3.09,6.12-6.87,10.07-9.35Z"/>
      <path class="cls-13" d="m180.6,164.81c.14-.13.28-.26.43-.39.49-.06,1.09-.32,1.44-.13.62.34.16.88-.14,1.23-.72.82-1.48,1.61-2.26,2.39-18.6,18.61-37.21,37.21-55.81,55.82-1.83-.2-1.64-.99-.87-2.3.8-1.36,2.02-2.29,3.08-3.33,12.08-11.86,23.77-24.11,36.02-35.79,5.73-5.47,11.29-11.1,16.9-16.67.35-.35.7-.71,1.22-.81Z"/>
      <path class="cls-39" d="m180.6,164.81c-17.95,17.96-35.9,35.91-53.83,53.88-1.37,1.37-3.18,2.6-2.51,5.03-.57.28-1.14.57-1.7.85-1.69-.13-2.8,1.17-4.23,1.7.14-.15.28-.3.42-.44.45-.48.9-.95,1.35-1.43.19-.73.8-1.13,1.28-1.62,15.22-15.23,30.45-30.46,45.68-45.68.49-.49.9-1.08,1.61-1.3,3.84-3.78,7.69-7.56,11.53-11.34.13.11.27.23.4.34Z"/>
      <path class="cls-16" d="m168.67,175.81c-16.19,16.2-32.38,32.4-48.58,48.6.64-.88,1.16-1.87,1.92-2.63,15.43-15.44,30.88-30.86,46.33-46.28.11.11.22.21.32.32Z"/>
      <path class="cls-26" d="m201.8,142.82c7.63-7.62,15.26-15.24,22.89-22.86-.62,1.39-1.67,2.46-2.72,3.51-5.55,5.55-11.1,11.09-16.65,16.64-1.06,1.06-2.12,2.1-3.52,2.71Z"/>
    </g>
    <path class="cls-13" d="m310.29,59.35c3.43,2,6.93,3.89,10.26,6.04,1.85,1.19,2.73.63,3.33-1.14,1.02-3.02,2.05-6.04,2.97-9.09,4.42-14.59,9.41-28.99,14.49-43.35"/>
  </g>
</svg>