<?xml version="1.0" encoding="UTF-8"?>
<svg id="Layer_2" data-name="Layer 2" xmlns="http://www.w3.org/2000/svg" viewBox="0 0 420.68 201.52">
  <defs>
    <style>
      .cls-1 {
        fill: #979797;
      }

      .cls-2 {
        fill: #939393;
      }

      .cls-3 {
        fill: #8b8b8b;
      }

      .cls-4 {
        fill: #cbcbcb;
      }

      .cls-5 {
        fill: #d1d1d1;
      }

      .cls-6 {
        fill: #a5a5a5;
      }

      .cls-7 {
        fill: #cacaca;
      }

      .cls-8 {
        fill: #aeaeae;
      }

      .cls-9 {
        fill: silver;
      }

      .cls-10 {
        fill: #a0a0a0;
      }

      .cls-11 {
        fill: #8c8c8c;
      }

      .cls-12 {
        fill: #bababa;
      }

      .cls-13 {
        fill: #d6d6d6;
      }

      .cls-14 {
        fill: #c9c9c9;
      }

      .cls-15 {
        fill: #7c7c7c;
      }

      .cls-16 {
        fill: #8d8d8d;
      }

      .cls-17 {
        fill: #c3c3c3;
      }

      .cls-18 {
        fill: #cfcfcf;
      }

      .cls-19 {
        fill: #969696;
      }

      .cls-20 {
        fill: #d4d4d4;
      }

      .cls-21 {
        fill: #b8b8b8;
      }

      .cls-22 {
        fill: #898989;
      }

      .cls-23 {
        fill: #c8c8c8;
      }

      .cls-24 {
        fill: #a3a3a3;
      }

      .cls-25 {
        fill: #aaa;
      }

      .cls-26 {
        fill: #afafaf;
      }

      .cls-27 {
        fill: #adadad;
      }

      .cls-28 {
        fill: #d5d5d5;
      }

      .cls-29 {
        fill: #c1c1c1;
      }

      .cls-30 {
        fill: #bcbcbc;
      }

      .cls-31 {
        fill: #9b9b9b;
      }

      .cls-32 {
        fill: #ccc;
      }

      .cls-33 {
        fill: #ababab;
      }

      .cls-34 {
        fill: #c2c2c2;
      }

      .cls-35 {
        fill: #a8a8a8;
      }

      .cls-36 {
        fill: #acacac;
      }

      .cls-37 {
        fill: #cdcdcd;
      }

      .cls-38 {
        fill: #919191;
      }

      .cls-39 {
        fill: #d0d0d0;
      }
    </style>
  </defs>
  <g id="Layer_1-2" data-name="Layer 1">
    <g>
      <path class="cls-13" d="m81.06,71.34c-7.54-9.03-15.58-17.61-23.46-26.33-3.71-.78-7.46-.1-11.18-.35-1.85-.12-3.74.35-5.56-.3l.03-.02c-.72-2.03-.28-4.12-.3-6.18-.07-6.16,0-12.33-.05-18.49,0-.95.39-1.99-.38-2.85-3.18-.26-6.42.4-9.57-.53-.43-3.65-.21-7.32-.13-10.98.44-1.7,1.97-1.46,3.08-1.45,14.6.24,29.21.06,43.8.68,8.68.37,17.39.84,25.88,3.01.8.2,2.08-.04,2.26,1.35-6.35,2.73-13.14,3.83-20.31,5.23,1.18,1.52,2.63,1.9,3.9,2.44,37.69,16.23,75.4,32.44,113.09,48.66,1.18.51,2.44.88,3.34,1.9-1.6,2.34-4.09,1.27-6.07,1.27-9.77.04-19.55-.38-29.32.23-.25.02-.58-.44-.94-.07-7.3.23-14.61-.18-21.91.27-2.09.13-4.19-.07-6.25.09-7.99.07-15.99.37-23.98.78-10.87.56-21.79,1.02-32.54,3.01-1.29-.08-3.02.88-3.42-1.39Z"/>
      <path class="cls-13" d="m57.62,156.5c7.76-8.59,15.51-17.19,23.27-25.78.31-2.02,1.83-2.1,3.37-2.05,3.8.12,7.54.82,11.31,1.21,14.01,1.46,28.06,1.8,42.12,2.44,20.87.94,41.73.19,62.59.51,1.1.02,2.25-.14,3.27.18,1.61.51,1.84,1.41.29,2.42-15.02,6.45-30.05,12.88-45.05,19.37-24.79,10.73-49.56,21.5-74.33,32.25-.9,1.71-2.46,1.63-4.04,1.49-.82-.42-1.69-.59-2.62-.52-11.69-1.3-23.4-2.11-35.17-1.84-1.07.02-2.21.17-2.17-1.61.23-8.97.02-17.95.13-26.92,0-.19.14-.37.22-.55l.02-.02c4.53-.57,9.07-.09,13.6-.27,1.06-.04,2.18.32,3.19-.3Z"/>
      <path class="cls-20" d="m419.61,100.09c1.73.47,1.07,1.2.04,1.55-5.43,1.87-10.36,4.89-15.72,6.9-1.03-.33-1.68-.92-1.42-2.11.16-.33.25-.75.74-.77-.34-.15-.71.04-.99.1-9.16,1.9-18.33,3.73-27.58,5.08-8.46,1.23-16.92,2.44-25.44,3.28-1.96.19-3.71-.64-5.59-.83-1.09-1.54-2.63-1.22-4.02-.8-5.46,1.63-11.13,1.66-16.72,2.3-13.58,1.56-27.22,2.37-40.84,3.5-7.4.61-14.85.28-22.28.85-3.36.26-6.13,2.02-9.4,2.38-2.49.28-4.93.57-7.42.36-4.08-1.13-8.2-.84-12.38-.75-6.57.14-13.18,1.53-19.75-.1-.38-.1-.78.08-1.15.22-3.32,2.54-6.99,3.31-11.21,3.28-21.12-.15-42.25.28-63.36-.22-17.73-.42-35.54-.61-53.11-3.69-3.29-.58-6.58-1.1-9.84-1.88-.37,0-.73-.02-1.09-.03-3.66-.13-7.27-.66-10.85-1.46-1.71-.16-3.1-.82-4.55-1.86-2.02-1.43-4.39-2.4-6.84-3.12-1.18-.35-2.34-1.4-2.11-2.84.18-1.13,1.27-1.69,2.45-1.7,9.22-.05,18.37-1.3,27.58-1.48.56-.01.8.35,1.22.36.58,1.26.37,2.28-1.22,3.28,8.28,1.39,16.13,3.35,24.24,3.76,8.45.43,16.89,1.29,25.36,1.23,8.85-.06,17.7.18,26.54.21,10.85.04,21.71.32,32.57.35,4.57,0,9.13-.36,13.73-.12,4.43.23,6.05-1.53,6.58-5.96.3-2.5-.41-5.21,1.53-7.3.75-.03,1.48-.04,2.17.33,1.07.51.89,2.25,2.64,2.34.87.05.64,1.47.66,2.34.1,4.25,1.53,6.04,5.77,5.86,13.14-.54,26.31.14,39.43-1.01,3.1-.27,6.17.15,9.27.02,13.65-.58,27.29-1.3,40.94-1.98,9.26-.46,18.5-1.35,27.75-2.11,10.04-.83,20.09-1.54,30.13-2.41,13.07-1.13,26.08-2.77,39.13-4.08.46-.05.81.41,1.18.08.44,0-.15-.48-.06-.09.02.09-.05.11-.21.12-6.13.42-12.23-.29-18.34-.34-8.29-.06-16.56-.56-24.83-.82-14.06-.44-28.13-.46-42.18-1.14-16.25-.79-32.52-.7-48.76-1.44-16.04-.73-32.09-.28-48.12-.71-3.08-.08-6.16.38-9.24.08-1.62-.16-2.1,1.11-2.94,1.98-1.18.29-2.39.17-3.58.17-32.93,0-65.85-.08-98.78.07-6.74.03-13.32-.42-19.76-2.44-3.2-.11-6.43-.03-9.27-1.88-.97-2.01.1-2.96,1.85-3.53,2.88-.95,5.92-.97,8.88-1.11,13.74-.66,27.48-1.34,41.25-1.34,11.07,0,22.13.18,33.21-.33,12.83-.59,25.69.19,38.54.4.6,0,1.35-.14,1.76.22,2.62,2.27,5.53,1.1,8.45,1.06,11.47-.14,22.94-.25,34.4.25,3.87.17,7.76.15,11.64.16,16.86.03,33.69,1.07,50.54,1.4,11.37.22,22.73,1.26,34.11,1.82,11.12.55,22.22,1.51,33.31,2.34,10.07.75,20.11,1.41,30.19,1.49,3.85.07,7.49,1.29,11.16,2.29Z"/>
      <path class="cls-18" d="m209.82,117.53c2.33,2.38,5.12,2.55,8.37,2.59,8.2.11,16.39-1.76,24.59-.18,5.07.97,10.04-.48,15.05-.77,13.2-.77,26.4-.77,39.61-.66,1.3.01,2.71.19,2.83,1.91.11,1.64-1.17,1.98-2.46,2.23-1.96.38-3.93.61-5.94.6-8.27-.02-16.55-.02-24.82,0-3.13,0-6.04.37-7.34,3.86-.59,1.59-2.16.54-3.13,1.13-7.51.63-15.06.81-22.56,1.4-6.46.5-12.89.37-19.33.47-2.01.03-3.75.48-5.03,2.06-1.52,1.88-3.58,2.71-5.82,3.27-.91-1.59-2.47-1.07-3.78-1.07-13.07-.04-26.14.04-39.21-.04-25.13-.15-50.25-.77-75.22-3.99-1.61-.21-3.18-.08-4.73.39-.79-1.1-2.04-1.15-3.2-1.39-4.58-.98-9.19-1.87-13.74-2.98-1.91-.47-3.42-.13-5.08.85-7.56,4.45-15.19,8.78-22.8,13.16-3.84.64-7.71.21-11.56.26-6.95.08-13.9.04-20.85,0-.96,0-1.99.36-2.87-.35-.07-.19-.14-.38-.21-.56-.22-.47-.22-.94.02-1.4,1.06-1.39,2.61-1.26,4.1-1.26,8.36-.02,16.72-.04,25.07,0,3.37.02,6.43-.7,9.41-2.36,6.77-3.79,13.48-7.69,20.18-11.61,3.83-2.24,7.61-4.57,12.03-5.52.21,0,.41,0,.62,0,2.47,3,6.22,2.37,9.37,2.93,13.96,2.45,28.08,3.1,42.24,3.51,7.97.23,15.96.68,23.92.64,13.15-.07,26.3,1.01,39.46.16,4.44-.29,8.96.5,13.45.18,4.34-.31,6.16-.12,7.62-6.06.19-.79.06-2.36,1.75-1.36Z"/>
      <path class="cls-5" d="m258.28,73.13c-.16-5.26.99-10.45.73-15.73-.06-1.15.4-2.32.63-3.48.03-.09.09-.19.1-.28.44-5.51.45-5.33,6.06-5.57,5.59-.24,9.65,3.18,14.11,5.51,14.76,7.72,29.44,15.58,44.11,23.47,6.26,3.37,12.6,6.58,18.79,10.07,1.07.6,2.46,1,2.03,2.74-1.34,2.47-3.71,1.32-5.43,1.16-5.74-.51-11.49-.87-17.21-1.63-2.57-.34-5.16-.54-7.72-.07-2.03.69-3.3-1.32-5.11-1.51-4.03-.41-8.06-.82-12.09-1.19-9.11-.83-18.23-1.38-27.35-1.71-10.04-.36-19.98-1.74-29.97-2.56-1.49-.12-2.98-.22-4.47-.21-1.63-.04-2-1.26-1.83-2.45.16-1.11,1.46-.67,2.23-.98,5.2-2.11,10.64-.67,15.95-1.09,1.29-.1,2.56-.28,3.63-1.09.52-.35.69-1.06,1.28-1.33.4-.25.53-.68.73-1.07.22-.38.52-.7.81-1.02Z"/>
      <path class="cls-9" d="m256.58,128.23c1.05-.73,1.69-1.72,1.7-3,.04-2.77,1.64-3.51,4.11-3.5,9.47.04,18.94,0,28.4,0,2.36,0,4.72-.06,7.14-.96-1.05-1.17-2.22-.8-3.23-.81-13.16-.03-26.31,0-39.47-.02-4.15,0-8.31,1.39-12.46,0,4.6-.04,9.14-.73,13.68-1.35,12.56-1.7,25.24-1.75,37.84-2.82,15.3-1.3,30.58-2.73,45.83-4.46,1.68-.19,3.38-.24,5.07-.36.85,2-.88,2.39-2,3.02-8.68,4.91-17.6,9.38-26.38,14.09-13.01,6.98-26.11,13.8-39.05,20.89-4.48,2.46-8.95,4.46-14.24,3.68-1.29-.19-2.51-.27-3.28-1.49-.72-1.16-.62-2.46-.67-3.75-.22-5.15-.45-10.3-.77-15.44-.1-1.54-.13-3.3-2.22-3.72Z"/>
      <path class="cls-5" d="m30.07,93.54c-8.54,0-17.09,0-25.63-.03-1.27,0-2.6.25-3.76-.54-.6-4.86-.11-9.73-.27-14.6,0-3.79.03-7.59-.01-11.38-.02-1.44.2-2.25,2.01-2.3,10-.27,19.99-.77,30-.52,1.53.04,2.91.26,4.2,1,6.39,3.66,12.78,7.3,19.11,11.05,1.92,1.14,4.03,1.67,6.03,2.5,1.95.81,3.71,1.78,5.33,3.09,1.39.82,2.88,1.56,2.68,3.58-.53,1.36-1.66,1.84-2.98,2.01-6.85.89-13.43,3.32-20.37,3.7-2.14.12-3.28,3.03-5.8,2.22-3.5.08-7.01-.28-10.51.22Z"/>
      <path class="cls-9" d="m71.39,117.54c-3.71,3.27-8.31,5.09-12.48,7.62-6.74,4.08-13.67,7.83-20.48,11.79-2.07,1.21-4.25,1.59-6.58,1.59-10.37-.02-20.74,0-31.1,0-.76-4.12-.27-8.28-.3-12.41-.03-4.65-.29-9.31.16-13.96.05-.19.1-.38.15-.57.9-.66,1.93-.33,2.89-.33,10.24-.03,20.47,0,30.71-.03.96,0,1.99.33,2.89-.33,0-.58,0-1.17,0-1.75.28-.69.8-.85,1.44-.57,4.47,1.95,9.31,2.89,13.76,4.8,2.88,1.24,6.09.75,8.79,2.35,3.41.52,6.68,1.79,10.17,1.82Z"/>
      <path class="cls-28" d="m101.43,191.87c1.34.16,2.79-.09,3.95,1.01-.26,1.27-1.38,1.15-2.26,1.4-6.05,1.7-12.28,2.31-18.46,3.28-13.67,2.14-27.41,2.5-41.19,2.4-2.94-.02-5.89,0-8.83.01-1.4,0-2.82,0-3.94-1.05-.62-3.21-.44-6.43-.08-9.66,2.98-1.52,6.16-.59,9.25-.73,10.76-.49,21.54-.09,32.29.26,7.55.25,15.17.2,22.68,1.56,2.23.4,4.31,1.39,6.6,1.52Z"/>
      <path class="cls-37" d="m260.24,151.14c7.22.76,13.47-1.49,19.8-5,19.07-10.57,38.43-20.6,57.67-30.86,2.54-1.36,5-2.88,7.49-4.33,1.54,1.32,3.27,1.59,5.28,1.38,17.22-1.86,34.32-4.49,51.39-7.37,2.04-.34,4.09-.61,6.22-.62-1.24,1.55-3.24,1.52-4.76,2.42-.51,1.82-2.23,1.71-3.54,2.05-9.15,2.4-18.44,4.15-27.7,6.08-4.68.97-9.39,1.75-14.08,2.65-1.68.33-3.35.42-5.03.04-9.66.73-18.91,2.37-27.63,7.29-17.1,9.64-34.6,18.58-51.89,27.89-3.81,2.05-7.77,1.28-11.7,1.16-1.57-.05-1.58-1.52-1.54-2.77Z"/>
      <path class="cls-13" d="m353,83.35c1.01-3.84,2.15-7.65,2.99-11.53.47-2.15,1.49-2.38,3.16-1.55,2.86,1.41,5.72,2.82,8.53,4.32,13.44,7.19,27.15,13.85,40.9,20.41,1.44.68,2.82,1.47,4.24,2.2.05,2.14-1.38.79-2.09.79-1.33,0-2.49-.84-3.79-1.08-5.45-.78-10.75-2.28-16.07-3.65-9.09-1.77-18.16-3.62-27.19-5.65-2.87-.64-5.79-1.03-8.67-1.53-2.05-.36-2.61-.87-2.02-2.74Z"/>
      <path class="cls-13" d="m353,117.56c.84-.76,1.87-1.1,2.96-1.3,14.88-2.7,29.7-5.66,44.42-9.17.96-.23,1.97-.24,2.96-.35.6.47.76,1.09.6,1.81-6.96,3.71-13.9,7.46-21.57,9.57-3.4,1.42-6.86,2.67-10.38,3.75-2.92.89-4.99,3.13-7.32,4.94-.85.66-1.46,1.7-2.78,1.33-.08.05-.18.1-.25.16q-4.59,3.95-6.18-1.83c-.82-2.97-1.64-5.94-2.46-8.9Z"/>
      <path class="cls-21" d="m207.51,67.29c.38.54.76,1.09,1.14,1.63.62,2.02,1.79,3.98.73,6.19-3.36,3.12-7.65,2-11.29,1.73-8-.59-16.01-.23-23.95-.18-12.14.09-24.29.23-36.44.31-8.45.06-16.88.54-25.31.81-8.44.27-16.93.71-25.33,1.79-5.96.77-11.93,1.55-17.85,2.68-2,.38-4.24.35-5.35-2.05,2.48-2.17,5.66-1.79,8.58-2.39,10.84-2.23,21.85-3.5,32.86-4.04,17.42-.85,34.87-1.59,52.33-1.24,9.41.19,18.8-.5,28.21-.46,5.26.02,10.52.09,15.78.07,1.4,0,3.03.61,3.95-1.11.23-.73.35-1.48.37-2.24.27-.77,1.16-.9,1.57-1.52Z"/>
      <path class="cls-29" d="m406.9,95.96c1.99.33,3.8,1.53,5.93,1.25,2.26.96,4.53,1.92,6.79,2.88-3.62-.39-7.24-.78-10.87-1.16-.39-.13-.79-.22-1.19-.27-7.55-.69-14.92-2.57-22.52-3.14-5.39-.4-10.76-1.49-16.19-1.89-7.11-.53-14.16-1.69-21.28-2.02-1.81-.08-2.87-.72-3.56-2.26-9.13-5.75-18.86-10.42-28.3-15.61-14.16-7.79-28.49-15.29-42.67-23.05-3.52-1.93-7.14-1.65-10.78-1.29-2.6.26-1.89,2.92-2.63,4.52-.1-2.02-.27-4.04.5-5.99,3.4-.45,6.8-.39,10.2-.04,10.51,5.45,21.03,10.9,31.54,16.35,11.22,5.81,22.44,11.62,33.66,17.43,1.12.56,2.23,1.14,3.52,1.22,1.47.4,2.83,1.07,4.18,1.76,3.16,2.5,7.07,1.92,10.64,2.39,12.06,1.59,24.08,3.39,36,5.76,4.64.91,9.26,1.96,13.9,2.91,1.01.21,2.03.81,3.12.25Z"/>
      <path class="cls-9" d="m64.22,80.36c1.47,1.1,3.12,1.16,4.85.89,10.44-1.68,20.91-3.1,31.47-3.69,7.76-.44,15.54-.57,23.29-1.02,12.75-.74,25.51-.32,38.26-.64,11.84-.3,23.7.09,35.55-.07,3.46-.05,7.23,1.2,10.37-1.48,1.26,2.42-.23,4.88-3,4.56-8.59-.99-17.19,0-25.77-.35-8.56-.35-17.1.25-25.66.19-9.2-.07-18.42-.27-27.61.22-8.4.45-16.85.26-25.19,1.09-10.19,1.01-20.52,1.15-30.53,3.79-1.12.3-2.63-.06-3.65-1.09-6.47-2.92-12.63-6.49-18.44-10.47-8.5-5.82-17.42-8.74-27.75-7.59-5.43.61-10.94.51-16.41.67-2.23.07-3.26,1.15-3.27,3.35,0,3.09-.05,6.18-.07,9.28-.11.13-.21.26-.32.39-.05-.16-.1-.32-.14-.48-.03-3.48.02-6.96-.1-10.44-.09-2.47.99-3.43,3.38-3.31,1.68.08,3.38-.05,5.06-.08,8.75-.36,17.51-.34,26.26,0,6.17,2.69,11.73,6.52,17.64,9.68,1.91,1.02,3.81,2.07,5.72,3.1.36.18.76.09,1.14.15.66.04,1.27.28,1.86.57.61.27,1.19.58,1.77.9.37.67,1.42.88,1.28,1.89Z"/>
      <path class="cls-19" d="m60.63,78.53c-.61-.39-1.23-.77-1.84-1.16,4.52-1.92,9.42-2.42,14.12-3.68,3.59-.97,7.34-1.21,11.01-1.87,7.42-1.73,15-2.24,22.56-2.71,11.44-.71,22.92-.97,34.38-1.42,7.52-.52,15.06-.07,22.59-.24,1.87-.04,3.76.28,5.62-.21,12.15-.03,24.29-.06,36.44-.09.67.05,1.34.09,2.02.14-.03.56-.06,1.12-.08,1.68-.73,1.87-2.36,1.49-3.81,1.49-15.73,0-31.46,0-47.19,0-2.89,0-5.77.05-8.63.56-4.48.1-8.98-.23-13.43.1-13.12.96-26.32.67-39.39,2.68-3.86.59-7.88.79-11.83,1-3.8.21-6.85,2.92-10.71,2.81-3.96-.12-7.83,1.08-11.81.92Z"/>
      <path class="cls-17" d="m66.61,82.76c3.14.49,6.14-.55,9.17-1,9.59-1.43,19.24-2,28.89-2.66,15.84-1.08,31.7-1.12,47.55-1.36,17.35-.27,34.71-.25,52.07-.25,2.37,0,3.61-.75,3.72-3.14.03-1.83-.1-3.69.65-5.43.21.19.42.39.63.58.64,3.08.82,6.14-.19,9.2-1.22,1.74-2.76,2.08-4.96,2.06-10.47-.08-20.94-.25-31.41.06-7.23.21-14.48-.18-21.71,0-11.05.27-22.09.06-33.15.58-10.77.51-21.55.95-32.29,1.84-5.2.43-10.52.79-15.56,2.53-.44-.02-.77-.23-.99-.61-.8-.8-1.6-1.6-2.41-2.39Z"/>
      <path class="cls-39" d="m61.22,115.72c-7.41-.54-14.37-3.25-21.66-4.4-1.21-.19-1.71-1.28-2.33-2.18-2.15-.04-4.31-.09-6.46-.13-.73-1.19-.43-2.44-.2-3.68,1.08-1.4,2.65-1.26,4.15-1.27,5.98-.04,11.97.02,17.96-.02,14.27-.09,28.48-1.08,42.65-2.75,2.21-.26,4.41-.48,6.63.05.41.6.88,1.19.82,1.99-.03.91-.69,1.08-1.4,1.24-6.97,1.57-13.94,3.1-21.06,3.89-1.2.13-2.38.39-2.93-1.11-8.73.88-17.46,1.71-26.25,1.84-.77.01-1.83-.13-2.07.8-.3,1.13.81,1.48,1.59,1.83,2.09.94,4.15,1.97,6.49,2.19,1.52.14,2.93.61,4.06,1.72Z"/>
      <path class="cls-37" d="m30.68,198.49c6.68,0,13.36,0,20.05,0,17.58.03,35.04-1.42,52.4-4.21-6.39,2.68-13.22,3.55-19.97,4.66-16.66,2.73-33.47,2.72-50.28,2.48-.77-.01-1.54-.29-2.31-.45-.24-.84-.42-1.68.12-2.48Z"/>
      <path class="cls-7" d="m105.48,8.91c-6.26-2.3-12.87-2.51-19.39-2.85-11.41-.6-22.83-.97-34.25-1.15-7.03-.11-14.07.32-21.11.51-.61-.57-.27-1.3-.35-1.97.01-.36.14-.68.36-.96,2.72-.78,5.5-.34,8.26-.37,7.57-.08,15.15-.04,22.72-.03,10.17.02,20.26.99,30.24,2.88,2.74.52,5.49,1.03,8.22,1.61,1.88.51,4.21,0,5.3,2.33Z"/>
      <path class="cls-14" d="m101.43,191.87c-4.66-.4-9.32-.79-13.99-1.19-12.92-1.1-25.86-1.29-38.81-1.19-5.98.05-11.96.02-17.94.02-.54-.59-.31-1.26-.21-1.92,2.47-2.16,5.31-2.45,8.37-1.68.35.1.69.14,1.05.06,7.05.2,14.09.69,21.15.8,10.5.17,20.89,1.36,31.27,2.78.19.03.38-.03.58-.05,1.91.07,3.69.71,5.52,1.15,1.01.41,2.01.81,3.02,1.22Z"/>
      <path class="cls-35" d="m30.68,105.54c.03,1.16.06,2.31.09,3.47-1.41-3-.54-6.19-.72-9.29-.12-2.05,0-4.12.02-6.18,2.13-1.69,4.65-1.03,7.04-1.16,1.26-.07,2.52-.08,3.78-.11,5.18-1.49,10.55-1.32,15.85-1.68,1.59-.11,3.09,1.25,4.82.87,5.07-.13,10.09.53,15.12,1.1,1.73.2,3.2.73,4.34,2.06,2.77.44,5.54.89,8.31,1.33.58,1.46-.52,1.45-1.37,1.47-5.7.11-11.38-.27-16.99-1.17-1.27-.2-2.28.3-3.39.4-4.7.4-8.92-2.03-13.67-1.73-6.99.44-14.03.09-20.97,1.36-1.4.27-.79,1.35-.87,2.15-.13,2.44.9,5.1-1.4,7.11Z"/>
      <path class="cls-35" d="m30.7,187.73c0,.6,0,1.19,0,1.79,0,2.99,0,5.99-.01,8.98-.04.83-.08,1.65-.11,2.48-1.03-4.53-.52-9.1-.33-13.66.06-1.48,1.04-2.31,2.54-2.45.59-.05,1.19-.09,1.79-.09,5.41,0,5.72,1,5.68-5.67-.03-5.97-.02-11.95,0-17.92,0-1.38-.13-2.8.56-4.1.01,8,0,15.99.05,23.99.02,3.64.52,4.17,4.22,4.13,11.19-.11,22.35.35,33.45,1.91.03,2.07-1.46.87-2.11.82-10.76-.8-21.54-.97-32.32-1.16-1.69-.03-3.37.06-5.04.3h0c-2.82-.29-5.65-.62-8.36.63Z"/>
      <path class="cls-12" d="m100.18,6.58c-7.23-.83-14.46-1.64-21.68-2.49-12.32-1.44-24.69-1.12-37.05-1.06-3.59.02-7.18-.02-10.77-.03-.69-1.62-.19-2.26,1.6-2.34,2.7-.13,5.38-.01,8.06.27,10.2-.41,20.37.36,30.55.91.47.03.9-.41,1.35-.04,7.15.64,14.26,1.59,21.29,3.04,2.22.58,4.43,1.17,6.65,1.75Z"/>
      <path class="cls-31" d="m40.25,1.77c-2.12-.51-4.28-.6-6.45-.52-1.34.05-2.56.29-3.12,1.74-.02.19-.03.37-.04.56-.05.17-.09.34-.14.51-.11-.14-.22-.28-.33-.41-.2-2.35.82-3.57,3.23-3.6,19.21-.22,38.37.16,57.31,3.87.96.19,1.88.6,2.82.92-6.98-.81-13.95-1.63-20.93-2.44-10.78-.75-21.55-1.39-32.36-.62Z"/>
      <path class="cls-10" d="m342.21,85.17c-1.31-.39-2.54-.95-3.64-1.78,2.09-1.14,4.11.15,6.16.25,2.56.13,5.03,1.25,7.67.82.2-.37.4-.74.6-1.12.97,2.17,3.1,1.96,4.88,2.27,11.19,1.98,22.33,4.21,33.41,6.77.1,1.26-.85.74-1.43.86-15.06-2.94-30.27-4.93-45.4-7.46-.78-.13-1.53-.3-2.25-.61Z"/>
      <path class="cls-3" d="m258.28,73.13c0,.41.02.81.03,1.22-2.83,1.78-5.98.96-8.94.8-1.64-.09-3.35-.37-5.03-.43-7.23-.23-14.45-.63-21.69-.8-3.98-.09-8.11.12-12.06-1.02-.3-.69-.19-1.25.55-1.59,14.04.21,28.06.72,42.06,1.76,1.69.12,3.39.05,5.08.06Z"/>
      <path class="cls-11" d="m83.93,71.82c-.42.24-.82.61-1.27.7-7.95,1.64-15.91,3.24-23.86,4.85-.21-.17-.42-.34-.63-.51,6.42-2.21,13.12-3.23,19.7-4.77,1.06-.25,2.13-.5,3.19-.74.95.16,1.91.32,2.86.48Z"/>
      <path class="cls-32" d="m211.14,71.31c0,.4,0,.81,0,1.21.29.37.61.73.73,1.21-.16,1.08.89,1.59,1.15,2.47-.15.9-.76,1.57-.48,2.73.3,1.21.16,2.92-1.64,3.48-3.6-.15-3.8-.52-2.29-4.46.15-2.82-.42-5.7.68-8.45.76.46,1.46.98,1.86,1.81Z"/>
      <path class="cls-10" d="m37.24,110.89c-1.59.74-3.29.62-4.97.62-10.5.03-21.01.05-31.51.07,1.49-.73,3.09-.59,4.67-.6,10.6-.04,21.2-.07,31.81-.1Z"/>
      <path class="cls-33" d="m.8,140.26c11.76.03,23.52.06,35.28.09-1.11.55-2.31.55-3.5.55-9.45.02-18.89.04-28.34.05-1.18,0-2.4.1-3.44-.69Z"/>
      <path class="cls-38" d="m352.4,84.47c-3,1.25-5.87-.27-8.8-.45-1.68-.1-3.35-.41-5.03-.63-1.12-.38-2.17-.88-3.03-1.72,5.62.93,11.24,1.87,16.86,2.8Z"/>
      <path class="cls-22" d="m.61,112.16c.05,8.79.09,17.58.14,26.38-.05.39-.1.77-.15,1.16-.91-3.11-.52-6.31-.45-9.45.14-6.03-.58-12.08.46-18.08Z"/>
      <path class="cls-36" d="m40.15,16.83c.8,1.36.69,2.87.69,4.34.02,7.73.03,15.45.04,23.18-.8-1.37-.61-2.88-.62-4.35-.05-7.72-.08-15.45-.11-23.17Z"/>
      <path class="cls-15" d="m34.81,64.07c-8.75,0-17.51,0-26.26,0,4.1-1,8.26-.48,12.39-.47,4.62.02,9.28-.57,13.87.46Z"/>
      <path class="cls-35" d="m98.42,190.65c-1.81-.19-3.62-.37-5.43-.56-3.74-.82-7.58-.92-11.35-1.5-.57-.09-1.56.31-1.29-.95,1.37-.2,2.75-.4,4.12-.6,3.13,1.34,6.55,1.34,9.78,2.19,1.43.37,2.91.57,4.18,1.41Z"/>
      <path class="cls-10" d="m40.86,44.37c4.53,0,9.07,0,13.6.02,1.09,0,2.17.04,3.15.62-4.53-.02-9.06-.03-13.59-.06-1.08,0-2.17-.05-3.16-.59Z"/>
      <path class="cls-35" d="m57.62,156.5c-4.46,1.34-9.02.35-13.53.63-1.08.07-2.17-.03-3.26-.05,5.56-1.15,11.2-.2,16.79-.58Z"/>
      <path class="cls-6" d="m.2,77.91c.15.03.31.06.46.09,0,4.99,0,9.98.01,14.96-1.03-4.99-.49-10.03-.48-15.06Z"/>
      <path class="cls-12" d="m30.17,3.65c.16-.03.31-.06.47-.09.03.62.06,1.24.08,1.87-.05,3.62-.09,7.25-.14,10.87-.99-4.19-.36-8.43-.42-12.64Z"/>
      <path class="cls-2" d="m270.34,47.89c-3.4.01-6.8.03-10.2.04,3.4-.86,6.8-.81,10.2-.04Z"/>
      <path class="cls-8" d="m169.06,67.24c-3.92.96-7.9.41-11.85.48-5.45.1-10.9,0-16.36-.02,2.33-.71,4.72-.49,7.09-.49,7.04-.01,14.07.02,21.11.04Z"/>
      <path class="cls-30" d="m80.33,187.64c2.89,1.07,5.97,1.03,8.96,1.5,1.25.19,2.46.63,3.69.95-7.56-.36-15.03-1.64-22.61-1.93-9.94-.37-19.87-1.02-29.83-.92-.49,0-.99-.09-1.48-.15,1.53-.54,3.11-.6,4.71-.61,10.53-.06,21.06-.1,31.55,1.03,1.11.12,2.18.03,3.22-.39.6.17,1.21.34,1.81.52Z"/>
      <path class="cls-13" d="m211.61,98.3c.53-2.14,2.23-2.18,3.99-2.37,5.28-.56,10.56-.01,15.84-.05,13.37-.09,26.74,0,40.11.22,14.45.23,28.91.52,43.35,1.11,14.35.59,28.7.92,43.06,1.21,15.54.32,31.08,1.14,46.61,1.79,2.13.09,4.25.47,6.57.74-.79,1.3-1.77,1.26-2.6,1.37-11.47,1.5-22.94,2.97-34.47,3.92-9.64.8-19.25,1.89-28.91,2.52-14.12.92-28.22,2.22-42.36,3.04-12.34.71-24.7.83-37.03,1.88-3.64.31-7.34.03-11.03.15-12.54.42-25.1.36-37.64.77-4.79.16-6.45-1.99-6.93-6.78-.17-1.69-.94-2.77-1.58-4.08.99-2.45,3.52-2.03,5.1-1.95,15.58.78,31.16-.69,46.73-.08.75.03,2.31.5,2.66-1.09-.12-1.09-.98-.61-1.54-.77-.82-.02-1.65,0-2.47-.08-4.54-.83-9.13-.45-13.7-.54-10.22,0-20.44.02-30.66-.03-1.06,0-2.45.62-3.13-.91Z"/>
      <path class="cls-13" d="m77.4,107.34c7.14-1.13,14.31-2.07,21.32-3.88,1.04-.27,2.16-.22,3.24-.33.78-1.24,2.05-.92,3.16-.92,25.96.07,51.93.02,77.89.01,7.48,0,14.94-1.06,22.43-.17.88.1,1.78-.16,1.97,1.08-.09,3.39.25,6.78-.59,10.14-.59,2.38-1.96,3.63-4.42,3.6-14.86-.2-29.72.32-44.58-.16-8.35-.27-16.72-.25-25.08-.09-9.29.18-18.51-.86-27.78-1.14-10.4-.31-20.55-2.43-30.68-4.59-.65-.14-1.44-.02-1.76-1.09,1.46-1.1,3.7-.82,4.88-2.48Z"/>
      <path class="cls-5" d="m81.03,94.63c-6.23-.56-12.42-1.59-18.69-1.76-1.16-.43-2.37-.11-3.56-.23-1.02-.1-2.6.48-2.76-.98-.17-1.53,1.46-1.76,2.62-2.04,3.3-.78,6.65-1.38,10.02-1.71,9.22-.92,18.4-2.17,27.66-2.79,5.47-.36,10.96-.6,16.43-.76,30.12-.93,60.25-.76,90.39-.7.9,0,1.9-.18,2.67.22,6.03,3.15,12.56,1.98,18.88,2.1,16.57.32,33.12.87,49.68,1.43,13.18.45,26.33,1.48,39.51,1.8,8.79.22,17.51,1.33,26.26,1.88,15.64.97,31.19,2.88,46.78,4.37,7.3.7,14.58,1.63,21.81,2.88,0,.19.01.39.02.58-2.18.74-4.38.1-6.54-.03-14.34-.86-28.66-1.93-43-2.76-11.75-.68-23.52-.95-35.26-1.7-16.53-1.06-33.09-1.08-49.63-1.92-7.37-.37-14.76-.19-22.14-.29-11.47-.15-22.93-.33-34.4-.47-1.39-.02-2.8,0-4.18.17-1.53.18-2.93.72-3.6,2.3-.27.62-.29,1.51-1.3,1.28-.78-.17-1.09-.88-1.23-1.57-.58-2.9-2.63-3.36-5.15-3.41-27.73-.51-55.46-.03-83.19.16-11.14.08-22.34.5-33.46,1.7-1.82.2-3.62.38-4.62,2.23Z"/>
      <path class="cls-39" d="m209.82,117.53c-1.49,1.26-1.69,3.12-2.24,4.81-1.09,3.38-1.9,4.21-5.28,4.14-15.05-.3-30.1.16-45.16-.23-7.74-.2-15.52-.3-23.29-.37-15.05-.13-30.09-.88-45.05-2.54-4.55-.51-9.03-1.63-13.54-2.48-1.85-.35-3.13-1.27-3.25-3.32,7.7,1.06,15.38,2.32,23.1,3.12,7.63.79,15.3,1.28,22.96,1.63,18.54.85,37.09.64,55.64.64,9.08,0,18.16.02,27.24-.01,4.59-.02,5.03-.37,6.76-4.69.42-1.06.76-2.43,2.1-.69Z"/>
      <path class="cls-18" d="m207.41,103.15c-35.15,0-70.3,0-105.45,0-.2-.4-.4-.8-.6-1.2.34-1.18,1.44-1.14,2.31-1.46.85-.04,1.67.17,2.49.37,5.32.43,10.66.12,16,.17,20.45.18,40.89-.21,61.34.14,1.35.02,2.86-.1,3.68-1.57,4.63-.65,9.29-.46,13.95-.14,2.09.14,4.16.37,6.26.38,18,.08,36-.09,54,.05.96,0,2.32.47,2.94-.93,1.23.32,3.1.32,3.07,1.81-.03,1.65-2,1.18-3.16,1.46-1.06.25-2.18.29-3.27.31-13.87.22-27.74.45-41.6.61-3.6.04-7.19.04-10.75.62-.4-.2-.8-.4-1.2-.6Z"/>
      <path class="cls-30" d="m211.61,98.3c11.37.02,22.75.03,34.12.05.31.33.34.69.09,1.06-2.02.89-4.13.31-6.2.34-12.2.19-24.41.36-36.6-.02-10.69-.33-21.36.45-32.03.11-19.41,0-38.82.02-58.23-.02-3.54,0-7.03.34-10.47,1.11-.88.03-1.78-.04-2.69.04-4.01-.24-8.1.28-11.72-2.15-.94-.63-2.1-.52-3.18-.68-10.95-1.68-21.99-1.56-33.01-1.79-6.06-.13-12.12.35-18.19-.03-1.04-.07-2.08.02-2.79-.94,1.03-1.2,2.44-1.21,3.85-1.22,16.83-.09,33.66-.26,50.38,2.21,1.5.22,2.98.21,4.41-.41,9.82,3.05,19.94,2.38,30,2.38,30.76,0,61.51-.02,92.27-.04Z"/>
      <path class="cls-32" d="m408.73,98.35c-11.42-1.08-22.83-2.24-34.26-3.21-12.22-1.03-24.46-1.93-36.69-2.8-14.12-1-28.25-1.92-42.38-2.85-4.88-.32-9.77-.48-14.64-.61-18.45-.48-36.88-1.44-55.34-1.31-5.08.04-10.15-.8-15.23,0-.89.14-1.88.07-2.55-.61-1.81-1.86-4.1-1.81-6.41-1.8-20.46,0-40.93-.34-61.38.09-24.72.53-49.48.89-74,4.7-2.64.41-5.26.96-7.91,2.03,1.47.3,2.94.6,4.41.9-7.15-.2-14.3-.4-21.45-.59,4.38-2.54,9.4-2.99,14.17-4.22,4.59-1.18,9.29-1.96,13.95-2.91.2,0,.4,0,.6,0,4.54-.16,8.97-1.19,13.47-1.63,12.45-1.21,24.93-1.7,37.43-2.12,14.06-.48,28.09-.39,42.14-.27,7.41.06,14.87-.18,22.31-.4,7.14-.21,14.37-.78,21.37.55,16.03,3.04,32.25,1.07,48.3,2.51,10.12.91,20.26,1,30.37,1.82,9.12.74,18.25,1.19,27.38,1.86,1.02.07,2.03.27,2.88-.51,8.51.97,17.02,1.98,25.54,2.88,1.04.11,2.14-.31,3.22-.48,7.49,1.78,15.18,2.02,22.77,2.95,13.15,1.6,26.34,2.86,39.37,5.27.87.16,1.71.52,2.57.78Z"/>
      <path class="cls-23" d="m315.26,86.96c-1.36,1.39-3.09,1.21-4.78,1.12-17.03-.89-34.05-1.95-51.1-2.44-14.26-.41-28.51-1.18-42.78-1.08-2.14.01-4.16-.28-6.05-1.37-1.23-.71-2.62-.99-4.03-1.01-5.87-.08-11.75-.26-17.61-.39-9.48-.22-18.93.53-28.4.35-17.76-.34-35.52-.05-53.25.74-10.75.48-21.51,1.14-32.18,2.77-1.8.27-3.76.98-5.46-.49,3.15-1.81,6.72-1.81,10.15-2.22,13.17-1.55,26.4-2.12,39.65-2.7,16.75-.74,33.5,0,50.24-.57,7.56-.26,15.12.58,22.69-.32,3.6-.43,7.33.56,11.03.42,1.95-.08,3.78-.34,5.22-1.81.24,1.45-.28,3.52,2.41,3,.85-1.12,2.06-1.43,3.37-1.46,6.07-.15,12.14.04,18.2.35,1.05.05,1.82,1.4,2.96.52,7.92.73,15.83,1.5,23.72,2.62,6.88.97,13.88,1.11,20.83,1.52,9.94.58,19.87,1.26,29.77,2.29,1.78.19,3.58.12,5.37.17Z"/>
      <path class="cls-25" d="m211.53,76.19c-.15-.82-.31-1.64-.46-2.45,2.03-.79,4.09-.32,6.16-.22,11.61.58,23.25.7,34.86,1.45,2.07.14,4.2-.07,6.24.58,0,.59,0,1.18,0,1.77-2.99,1.22-6.21.67-9.31,1.17-4.36.7-8.85-.13-13.25.47-6.94.96-13.86-.48-20.8-.13-1.87.09-3.38-.36-3.42-2.66Z"/>
      <path class="cls-30" d="m211.53,76.19c1.28.89,2.72,1.15,4.24,1.16,8.94.02,17.87.54,26.8.96,5.22.25,10.49-.61,15.74-.98-3.27,2.19-7.07,1.35-10.63,1.73-3.52.38-7.12-.05-10.65.63-.54.1-1.24-.1-1.49.67-2.9,1.51-5.98,1.02-9.06.9-5.16-.19-10.32-.22-15.48-.31-.93-1.71-.64-3.28.52-4.76Z"/>
      <path class="cls-1" d="m258.32,75.55c-4.36,1.06-8.7-.08-13.05-.15-9.34-.14-18.66-.69-28-1.03-2.09-.08-4.18-.04-6.21-.64.02-.4.05-.81.07-1.21,15.72.61,31.45,1.21,47.17,1.82,0,.4,0,.8.01,1.2Z"/>
      <path class="cls-33" d="m390.16,92.95c.38-.19.76-.37,1.14-.56,5.2,1.19,10.4,2.38,15.6,3.57-2.01.82-3.94.05-5.88-.31-3.63-.67-7.24-1.4-10.86-2.11-.44-.2-.44-.4,0-.6Z"/>
      <path class="cls-36" d="m64.22,80.36c-.61-.39-1.22-.77-1.83-1.16-.14-1.22.88-1.07,1.54-1.23,6.15-1.45,12.37-2.62,18.61-3.51,6.31-.9,12.65-1.54,19.04-1.96,8.62-.56,17.23-.83,25.85-1.24,13.74-.65,27.49-.79,41.24-.79.79,0,1.59-.08,2.36-.27,11.43-.23,22.86.17,34.28-.1.63-.01,1.6-.18,2.09.66-.15,2.12-1.42,2.96-3.39,2.96-8.76-.01-17.53-.18-26.29-.03-17.54.3-35.08-.29-52.62.42-13.05.53-26.09,1.07-39.05,2.72-7.31.93-14.65,1.79-21.83,3.54Z"/>
      <path class="cls-10" d="m207.41,70.75c-12.18,0-24.36,0-36.54.01-7.56.15-15.13.33-22.69.28-.52,0-1-.17-.68-.88,1.72-.68,3.52-.59,5.31-.59,16.23,0,32.47,0,48.7,0,1.99,0,3.99.06,5.92-.6,0,.6-.01,1.19-.02,1.79Z"/>
      <path class="cls-27" d="m390.16,92.95v.6c-7.65-1.18-15.31-2.38-22.97-3.52-6.09-.91-12.19-1.74-18.29-2.6-2.37-.34-4.73-.69-6.69-2.25,4.7.02,9.27,1.07,13.89,1.77,11.4,1.73,22.77,3.64,34.06,6.01Z"/>
      <path class="cls-24" d="m147.5,70.16c5.72.88,11.45.45,17.18.15,2.1-.11,4.15-.09,6.19.45-1.42.57-2.92.62-4.42.59-15.56-.27-31.11.2-46.65.65-17.86.52-35.63,2.07-53.13,5.9-1.45.32-2.85.86-4.28,1.29-.59-.22-1.17-.45-1.76-.67,8.6-2.68,17.45-4.19,26.34-5.23,20.1-2.34,40.3-3.12,60.53-3.14Z"/>
      <path class="cls-13" d="m103.76,101.34c-.8.2-1.59.4-2.39.6-15.09,2.42-30.3,3.4-45.56,3.58-8.37.1-16.75.02-25.12.02,0-2.6,0-5.19,0-7.79.82-1.5,2.29-1.55,3.69-1.5,10.79.32,21.6-.09,32.39.37,10.16.43,20.33.88,30.39,2.6.78.13,1.59-.03,2.38.1,1.07.89,2.24.3,3.39.3,1.11,0,2.15.37.84,1.72Z"/>
      <path class="cls-30" d="m30.7,187.73c2.65-2.06,5.51-1.25,8.36-.63-2.79.21-5.57.42-8.36.63Z"/>
      <path class="cls-4" d="m99.57,99.55c-16.06-1.8-32.21-1.72-48.33-2.21-6.84-.21-13.7.25-20.55.4,0-.79.02-1.58.03-2.37,11.18,0,22.38-.4,33.53.09,12.04.53,24.11,1.35,35.93,4.07-.2.26-.4.27-.61.02Z"/>
      <path class="cls-33" d="m40.25,1.77c1.17-.19,2.34-.53,3.51-.55,8.75-.12,17.5-.11,26.23.64.88.08,1.75.35,2.62.53-10.79-.14-21.56-.92-32.36-.62Z"/>
      <path class="cls-34" d="m264.33,98.95c-.45,2.38-2.4,1.74-3.84,1.75-9.46.07-18.92,0-28.37.06-14.83.1-29.65-.12-44.47-.61-.38.24-.66.15-.85-.26.06-.43.31-.64.74-.64,9.98,0,19.95-.04,29.92.02,2.71.58,5.47.36,8.18.28,8.05-.22,16.13.57,24.16-.54,4-.41,8.01.28,12-.03.84-.01,1.69-.03,2.53-.04Z"/>
      <path class="cls-19" d="m261.8,98.99c-3.9,1.11-7.9.38-11.85.6-6.13.56-12.28.21-18.41.22-4.64,0-9.3.39-13.94-.24-10.19.01-20.38.02-30.58.04-1.76,2.25-4.17,1.22-6.38,1.3-3.25.13-6.52.54-9.64-.77-.33-.33-.39-.7-.16-1.12,23-.02,46-.04,68.99-.07,1.99,0,3.98-.07,5.97-.1,4.55-.33,9.1-.35,13.65.01.78.04,1.56.08,2.34.13Z"/>
      <path class="cls-20" d="m259.47,98.86c-4.55,0-9.1,0-13.65-.01-.03-.16-.05-.33-.08-.49,4.58.2,9.19-.53,13.73.51Z"/>
      <path class="cls-13" d="m187.07,100.13c.19,0,.39.02.58.02.39.3,1,.54,1.11.92.2.68-.51.74-.97.77-1.09.07-2.19.09-3.29.09-26.31,0-52.62,0-78.93,0-1.15-1.43-.46-1.86,1.01-2.25,1.53-.4,3.05-.19,4.53-.18,16.93.15,33.85-.24,50.77.16,7.92.19,15.83.13,23.74.16.5,0,1-.01,1.43.29Z"/>
      <path class="cls-39" d="m187.07,100.13c-25.39,0-50.78,0-76.16.03-1.94,0-4.09-.41-5.34,1.78-.6-.2-1.21-.4-1.81-.6-1.1-1.29-2.81-1.16-4.19-1.79.2,0,.41-.01.61-.02.65-.02,1.31-.03,1.96-.05.65-.38,1.36-.23,2.05-.23,21.54,0,43.07,0,64.61,0,.69,0,1.4-.13,2.06.22,5.39.05,10.78.09,16.17.14.01.17.03.35.04.52Z"/>
      <path class="cls-16" d="m170.85,99.47c-22.9,0-45.81.01-68.71.01,1.08-.18,2.15-.5,3.22-.5,21.83-.01,43.66.01,65.48.03,0,.15,0,.3,0,.45Z"/>
      <path class="cls-26" d="m217.6,99.57c10.78,0,21.57.01,32.35.02-1.42.54-2.92.56-4.41.56-7.85,0-15.69,0-23.54,0-1.49,0-2.98-.02-4.41-.57Z"/>
    </g>
    <path class="cls-13" d="m353.34,117.26c1.01,3.84,2.15,7.65,2.99,11.53.47,2.15,1.49,2.38,3.16,1.55,2.86-1.41,5.72-2.82,8.53-4.32,13.44-7.19,27.15-13.85,40.9-20.41"/>
  </g>
</svg>