<?xml version="1.0" encoding="UTF-8"?>
<svg id="Layer_2" data-name="Layer 2" xmlns="http://www.w3.org/2000/svg" viewBox="0 0 1073.18 1073.18">
  <defs>
    <style>
      .cls-1 {
        stroke: #fff;
        stroke-miterlimit: 10;
        stroke-width: 3px;
      }

      .cls-1, .cls-2 {
        fill: none;
      }
    </style>
  </defs>
  <g id="Layer_1-2" data-name="Layer 1">
    <path class="cls-1" d="m596.61,846.09c-6.49,1.44-13.04,2.52-19.73,2.67-2.15.05-3.7-.05-5.36-1.72-2.41-2.43-6.4-1.87-8.17,1.07-1.18,1.97-2.71,2.29-4.65,2.29-17.81,0-35.7,1.05-53.41-.26-21.09-1.57-42.01-5.48-62.08-12.51-3.62-1.27-8.87-1.48-10.34-7.31-.48-1.9-4.52-3.96-7.48-1.64-1.82,1.43-3.32,1.23-5.1.37-16-7.75-32.59-14.51-47.86-23.5-17.83-10.5-34.64-22.76-49.68-37.18-2.34-2.24-4.35-4.8-6.58-7.16-1.05-1.11-1.31-2.07-.81-3.7.79-2.57-2.49-6.69-5.07-6.07-3.62.87-5.08-1.3-6.87-3.42-5.47-6.46-9.89-13.77-15.35-20.12-5.24-6.1-10.48-12.21-14.88-18.86-12.13-18.33-22.46-37.67-30.52-58.16-.9-2.29-1.48-4.7-2.18-7.06-.35-1.2-.4-2.19.46-3.43,2.1-3.01,1.14-7.16-2.13-8.27-2.37-.81-3.27-2.26-3.6-4.28-1.23-7.54-5.31-14.59-3.86-22.62.17-.95-.53-2.07-.9-3.09-7.27-19.69-7.99-40.36-8.75-60.94-.4-10.78-.81-21.65,1.13-32.41.54-3,.36-5.81,3.54-7.97,1.93-1.31,2.98-4.96.76-7.04-2.31-2.17-2.06-4.34-1.59-6.74,1.06-5.31,2.54-10.54,3.36-15.88.48-3.1,3.92-4.36,3.8-7.71-.47-14.14,5.77-26.58,10.24-39.46,6.16-17.75,14.36-34.53,24.23-50.5.96-1.56,1.69-3.05,4-3.37,3.87-.53,5.6-3.64,4.63-7.56-.27-1.1-.49-2.15.25-3.1,4.27-5.51,8.01-11.59,13.06-16.24,2.58-2.37,6.48-3.85,7.24-7.44.59-2.8,1.74-4.95,3.58-6.69,8.39-7.95,15.97-16.67,24.47-24.56,10.03-9.29,20.62-17.75,31.47-25.95,3.19-2.41,6.67-4.45,10.04-6.64,1.07-.7,2.08-.83,3.45-.33,3.46,1.24,7.1-.91,7.57-4.57.27-2.11,1.5-2.92,3.03-3.68,5.69-2.81,11.47-5.44,17.05-8.44,2.3-1.23,4.6.88,6.97-1.02,16.08-12.88,36.34-15.64,54.99-22.32,0,0,16.77-5.02,35.33-6.99,2.62-.2,4.85-.62,7.29,1.47,2.4,2.05,5.89,1.65,7.82-1.06,1.66-2.33,3.6-2.6,5.97-2.6,5.27,0,10.54.03,15.81-.04,2.07-.03,3.85.57,5.76,1.36,1.61.67,3.8.87,5.45.37,11.19-3.42,22.18-.44,33.21.79,7.51.84,14.98,2.01,22.46,3.07,0,0,15.74,2.22,36.91,9.53,2.15.89,3.83,1.67,5.02,4.18,1.33,2.8,4.48,4.3,7.72,2.28,1.33-.83,2.33-1.28,3.78-.61,5.89,2.75,11.94,5.21,17.65,8.3,2.64,1.43,3.87,4.64,7.48,5.48,17.52,4.08,30.98,15.76,45.53,25.26,12.45,8.13,23.81,17.75,33.95,28.71.91.99,1.96,1.62,1.68,3.45-.63,4.13,1.96,6.8,6.07,6.41,2.28-.22,3.51,1.02,4.58,2.54,4.4,6.27,10.81,11.1,13.29,18.76.31.95,1.28,1.76,2.09,2.46,10.94,9.46,17.64,22.02,25.11,34.04,7.28,11.73,13.37,24.03,18.78,36.72,1.89,4.43,2.93,9.11,4.8,13.51.52,1.23.33,2.25-.4,3.46-2.13,3.49-1.1,7.08,2.6,8.33,2.03.68,2.7,1.98,3,3.65,1.37,7.53,4.78,14.69,4.05,22.62-.13,1.44.56,3.03,1.11,4.46,5.52,14.28,6.69,29.29,8.11,44.36,1.14,12.07.59,24.07.78,36.11.09,5.66-1.68,10.97-1.99,16.51-.07,1.2-.82,1.87-1.76,2.54-3.43,2.44-4.03,5.51-1.36,8.73,1.55,1.86,1.43,3.67.98,5.63-3.88,16.83-6.97,33.9-11.94,50.4-6.11,20.29-14.42,39.86-25.7,57.92-2.38,3.8-4,9.08-10.32,9.6-1.84.15-4.35,3.31-2.76,6.34,1.09,2.08.47,3.53-.75,5.06-11.34,14.3-21.68,29.55-34.28,42.64-14.33,14.88-29.84,28.83-47.53,39.92-2.47,1.55-5.14,2.78-7.68,4.22-1.03.58-1.88.66-3.02.12-3.91-1.82-7.19.02-7.68,4.45-.23,2.12-1.58,2.93-3.07,3.66-16.28,7.88-32.25,16.55-49,23.27-11.67,4.68-23.78,8.82-36.31,11.07l-10.99,2.07Zm-334.84-362.03c-1.81-.32-3.14.72-3.43,4.06-.8,9.36-2.01,18.69-3.06,28.03-.12,1.03-.9,2.27.23,2.98,1.01.64,2.04-.3,2.98-.76,8.18-4,16.32-8.1,24.55-11.98,2.12-1,2.97-2.63,3.39-4.6.8-3.75,1.38-7.55,2.11-11.32.48-2.49-.34-3.56-3.01-3.8-7.52-.68-15.01-1.62-23.76-2.6Zm84.96,264.41c2.49-11.13,4.67-21.07,6.95-31,.51-2.2-.09-3.93-1.56-5.48-2.76-2.92-5.64-5.73-8.27-8.76-1.45-1.68-2.39-1.85-4-.17-5.57,5.8-11.24,11.5-16.96,17.15-1.57,1.55-1.56,2.62,0,4.18,7.76,7.74,15.43,15.56,23.83,24.07Zm29.29-442.62c.97.75,1.18.99,1.45,1.12,6.01,2.85,12.29,5.24,17.96,8.65,7.56,4.54,14.52,6.07,21.53-.68.74-.71,1.89-1.03,2.89-1.44,2.17-.89,2.76-2.07,1.33-4.24-4.35-6.58-8.57-13.24-12.82-19.88-1.04-1.62-2.21-2.56-4.18-1.32-9.25,5.86-18.51,11.7-28.16,17.79Zm-101.27,338.79c7.27-9.2,13.86-17.52,20.43-25.84.75-.95.62-1.9.3-3.03-1.17-4.13-2.22-8.3-3.26-12.47-.63-2.49-1.92-3.16-4.42-2.22-7.36,2.77-14.78,5.38-22.19,8.03-1.9.68-2.72,1.69-1.95,3.84,3.61,10.15,7.13,20.34,11.09,31.69Zm33.98-245.49c10.62,1.59,20.03.54,24.66-11.13.11-.28.3-.54.51-.77,1.87-2.12,1.54-3.53-1.01-5.01-6.55-3.8-12.99-7.79-19.38-11.85-2.24-1.42-3.72-1.55-5.26.98-5.07,8.31-10.28,16.54-15.49,24.75-1.35,2.13-1.01,3.06,1.59,3.04,4.79-.04,9.59-.01,14.38-.01Zm147.88,410.96c-2.61-11.29-4.97-21.5-7.34-31.71-.32-1.38-1.48-1.95-2.62-2.42-4-1.62-8.07-3.08-12.04-4.78-2.4-1.03-3.4-.01-4.1,2.09-2.44,7.34-4.91,14.66-7.4,21.98-.67,1.96-.27,3.13,1.86,3.85,10.22,3.48,20.41,7.07,31.63,10.98Zm97.23-17.33c-2.83,0-4.58.25-6.23-.05-4.72-.83-5.06,1.66-4.51,5.32,1,6.73,1.99,13.46,2.61,20.23.29,3.12,1.57,4.03,4.43,3.71,9.53-1.06,19.07-2.05,28.6-3.09,3.12-.34,3.07-1.65,1.27-3.8-4.17-4.99-8.5-9.89-12.24-15.19-3.79-5.38-8.05-8.92-13.93-7.13Zm-37.06-508.06c4.1-.92,8.27-1.1,12.45-.99,3.02.08,3.14-1.91,2.87-4.08-.89-7.21-1.86-14.41-2.72-21.63-.27-2.25-1.1-3.26-3.61-2.95-9.83,1.19-19.67,2.25-29.52,3.27-2.95.31-3.06,1.32-1.33,3.43,5.7,6.94,11.36,13.92,16.94,20.96,1.34,1.68,2.94,2.13,4.91,2.01Zm181.78,486.62c-.9-.71-1.51-1.4-2.28-1.77-7.98-3.76-15.99-7.46-23.97-11.21-1.37-.65-2.61-.7-3.96.03-4.21,2.29-8.41,4.58-12.67,6.77-2.09,1.07-2.04,2.31-.88,4.07,4.25,6.46,8.46,12.96,12.61,19.49.95,1.49,1.71,1.76,3.3.74,8.45-5.45,16.99-10.77,25.49-16.16.75-.48,1.39-1.15,2.36-1.97Zm-80.07-504.28c1.44,6.22,3.33,11.44,3.73,16.76.88,11.63,7.03,17.88,18.04,20.44,2.59.6,4.03.78,4.93-2.01,2.19-6.77,4.48-13.5,6.77-20.24.63-1.86.59-3.23-1.63-3.99-10.37-3.53-20.72-7.13-31.85-10.97Zm149.79,410.82c-12.52-3.44-19.22,3.49-24.25,13.51-.07.14-.15.28-.25.39-1.94,2.05-1.22,3.39.99,4.69,5.86,3.46,11.69,6.99,17.43,10.65,2.26,1.44,3.53.93,4.85-1.21,5.19-8.43,10.49-16.8,15.74-25.2.48-.76,1.29-1.63.64-2.5-.61-.84-1.71-.35-2.62-.34-4.18.02-8.35,0-12.53,0Zm45.28-84.92c2.56.55,3.04-.97,3.28-3.11,1.08-9.8,2.24-19.59,3.46-29.37.34-2.74-.3-3.45-2.91-2.1-4.79,2.49-9.46,5.48-14.55,7.07-7.78,2.44-10.74,7.75-11.39,15.19-.17,1.98-.59,3.95-.99,5.9-.57,2.77.21,4.36,3.31,4.61,6.61.52,13.2,1.19,19.8,1.8Zm-85.19-264.27c-2.27,10.5-4.23,19.7-6.28,28.88-.36,1.6.16,2.59,1.25,3.66,3.65,3.56,7.33,7.1,10.78,10.85,1.4,1.53,2.25,1.13,3.36-.04,4.92-5.14,9.84-10.28,14.78-15.41,1.37-1.42,1.11-2.69-.19-4.01-7.62-7.67-15.21-15.37-23.7-23.94Zm61.5,146.62c6.66-2.52,13.94-5.16,21.11-8.05,1.6-.64.94-2.37.47-3.72-3.25-9.19-6.48-18.39-9.7-27.59-.83-2.38-1.71-3.15-3.6-.67-4.87,6.41-9.88,12.72-14.85,19.06-1.03,1.31-1.57,2.66-.8,4.28,2.15,4.5,3.18,9.33,4.17,14.17.29,1.44.65,2.77,3.2,2.52Zm-506.8-6.09c8.69-11.07,19.19-21.03,23.36-35.14,1.09-3.7,2.93-7.13,5.17-10.32,3.44-4.9-1.66-4.93-3.86-6.59-2.67-2.02-4.16-1.36-5.36,1.82-6.34,16.78-12.85,33.5-19.31,50.23Zm55.37-103.74c.15.27.3.53.45.8,7-3.56,14.01-7.13,21.01-10.69,2.19-1.11,4.63-1.84,6.28-3.83,4.37-5.3,10.1-9.04,15.36-13.3,5.47-4.42,5.45-4.52.95-9.98-1.41-1.71-2.38-1.99-4.07-.4-13.29,12.5-26.65,24.94-39.98,37.4Zm-60.06,221.27c6.53-18.24,5.96-36.75,5.4-55.21-.14-4.77-4.55-2.19-7.03-2.69-2.55-.52-2.98,1.02-2.78,3.36.87,10.46,1.5,20.94,2.33,31.41.6,7.6,1.36,15.18,2.09,23.13Zm45.58,105.96c.36-.14.72-.28,1.08-.43-1.68-6.7-3.27-13.43-5.08-20.09-.52-1.9-.53-3.91-1.74-5.7-4.87-7.18-8.3-15.15-11.83-23.02-1.13-2.51-2.08-3.32-4.79-2.2-6.28,2.6-6.33,2.49-2.9,8.33.78,1.33,1.6,2.65,2.38,3.98,7.63,13.04,15.25,26.08,22.88,39.12Zm109.99-396.64c11.47-.01,22.92,2.23,34.04-2.06,5.99-2.31,12.49-3.29,18.78-4.78,4.4-1.05,2.58-4.03,2.16-6.58-.31-1.87-.52-3.76-3.38-2.85-17.19,5.46-34.41,10.85-51.61,16.27Zm-20.78,474.68c-9.31-17.34-25.77-26.55-39.88-38.14-3.23-2.65-4.43,2.58-6.38,4.27-2.18,1.89.32,2.85,1.55,3.72,3.53,2.5,7.13,4.89,10.71,7.3,11.22,7.55,22.45,15.09,33.99,22.85Zm112.88,30.85c.11-.36.22-.72.33-1.08-8.53-2.52-15.72-8.05-24.62-9.86-8.73-1.77-17.73-2.33-26.17-5.34-4.83-1.72-4.41,1.85-5.34,4.41-1.21,3.32.58,3.96,3.33,4.34,9.93,1.38,19.83,2.95,29.74,4.39,7.57,1.1,15.14,2.1,22.72,3.14Zm22.25-526.6c-.03.29-.07.57-.1.86,5.22,2.34,10.46,4.62,15.64,7.05,2.24,1.05,4.36,2.39,6.89,2.62,9.85.92,19.52,2.97,29.14,5.1,4.18.93,4.22-1.4,5.01-3.98,1.01-3.29-1.12-3.69-3.37-4.02-5.81-.86-11.64-1.65-17.45-2.49-11.92-1.71-23.83-3.43-35.75-5.14Zm-65.86-13.29c-.05-.21-.11-.41-.16-.62-.9.05-1.81.02-2.69.17-13.09,2.15-26.17,4.33-39.25,6.48-7.51,1.24-14.09,7.4-16.78,15.77,19.65-7.28,39.27-14.54,58.89-21.81Zm160.93,518.27c-8.4,0-15.78-1.34-22.42.3-11.04,2.74-22.02,5.88-33.1,8.52-4.29,1.02-1.74,3.9-1.69,5.92.06,2.51,1.8,2.79,3.96,2.06,3.96-1.33,7.96-2.51,11.94-3.77,13.36-4.21,26.72-8.43,41.31-13.04Zm-35-514.66c.04-.23.08-.46.12-.69-15.24-4.44-30.49-8.88-45.73-13.33-1.53-.45-3.05-.65-4.51.12-4.45,2.36-8.87,4.76-14.49,7.78,22.46,2.13,43.54,4.12,64.61,6.12Zm-239.84,47.05c-.11-.23-.23-.45-.34-.68-13.24,9.31-26.48,18.61-39.7,27.94-.73.51-1.61,1.26-1.77,2.04-1.14,5.29-2.1,10.62-3.37,17.23,15.73-16.2,30.46-31.37,45.19-46.53Zm350.21,10.19l.46-.5c-.57-.62-1.1-1.3-1.73-1.87-9.9-8.86-20.18-17.34-29.6-26.68-6.86-6.8-14.24-4.05-21.97-2.87,17.61,10.64,35.22,21.28,52.83,31.92Zm-463.2,206.1c-.18.01-.36.02-.54.03-.39,6.85-.78,13.7-1.16,20.54-.39,6.93-.63,13.87-1.18,20.79-.76,9.48,2.42,16.15,11.09,21.94-2.76-21.32-5.49-42.31-8.21-63.3Zm10.95-60.49c.29.02.57.04.86.05,6.46-19.6,12.92-39.2,19.38-58.8-8.47,13.26-16.07,26.86-23.69,40.46-.63,1.13-.79,2.28-.44,3.56,1.33,4.9,2.6,9.82,3.89,14.73Zm494.6-98.28c-.2.27-.39.54-.59.81,11.34,17.44,22.69,34.87,34.03,52.31-5.45-15.08-11.55-29.77-17.62-44.47-.56-1.36-1.38-2.42-2.72-3-4.36-1.89-8.73-3.77-13.09-5.65Zm-447.4,336.12c.18-.23.37-.47.55-.7-11.45-17.6-22.9-35.21-34.35-52.81,5.41,14.88,11.43,29.41,17.42,43.96.62,1.5,1.49,2.7,2.98,3.39,4.47,2.06,8.94,4.11,13.41,6.17Zm119.2-419.22c.09.22.17.44.26.65.6-.08,1.21-.14,1.8-.25,15.33-2.98,30.64-6.15,46.02-8.88,7.28-1.29,7.93-1.76,7.64-9.09-.12-3.1-1.36-3.31-3.76-2.38-17.31,6.66-34.63,13.3-51.95,19.95Zm119.94-20.4c1.15,1.45,2.47,1.41,3.62,1.71,14.21,3.75,28.56,7.04,42.58,11.38,7.74,2.4,7.51,1.83,11.53-5.33,1.08-1.92.8-2.76-1.49-2.95-4.62-.38-9.23-.94-13.84-1.33-14.01-1.18-28.02-2.31-42.39-3.49Zm257.93,215.88c2.97,22.93,5.78,44.51,8.61,66.38.96-15.58,1.93-30.85,2.8-46.12.15-2.57,1-5.41-.77-7.66-3.12-3.97-6.5-7.72-10.65-12.6Zm-477.78-124.12c.16.09.31.18.47.28,13.54-10.07,27.09-20.13,40.62-30.22,5.65-4.21,5.54-4.2,2.86-10.53-1.22-2.87-2.21-3.7-4.73-1.01-13,13.89-26.14,27.67-39.23,41.49Zm75.98,428.42l.24-.79c-17.85-10.89-35.7-21.78-53.56-32.67,11.32,11.14,23.06,21.65,34.79,32.16.97.87,2.06,1.31,3.36,1.31,5.05-.02,10.1,0,15.16,0Zm119.97,31.21l.05-1.04c-21.06-2.07-42.13-4.14-63.19-6.21,15.48,4.94,31.06,9.4,46.64,13.89,1.62.47,3.05.02,4.46-.68,4.01-1.99,8.03-3.97,12.04-5.96Zm-260.1-234.32c.39-.06.78-.13,1.16-.19,0-2.14-.05-4.28,0-6.42.35-13.26.12-26.58,1.28-39.77.87-9.83.85-8.55-8.16-11.09-.56-.16-1.17-.14-2.34-.27,2.71,19.44,5.38,38.59,8.05,57.75Zm490.63-203.13c-.21.12-.41.24-.62.36,6.7,15.06,13.38,30.13,20.1,45.19,2.83,6.33,2.82,5.95,9.63,5.04,4.45-.59,3.34-2.01,1.68-4.47-7.69-11.41-15.3-22.88-22.93-34.33-2.62-3.93-5.24-7.86-7.86-11.79Zm28.22,286.7c.24.06.49.12.73.18,7.53-13.7,15.06-27.39,22.58-41.09.6-1.09,1.29-2.21.97-3.5-1.2-4.89-2.46-9.77-3.7-14.66-.28,0-.56,0-.84-.01-6.58,19.69-13.17,39.39-19.75,59.08Zm-118.18-366.98c.38,2.05,1.66,2.46,2.54,3.21,11.27,9.61,22.6,19.16,33.84,28.82,5.72,4.92,5.55,4.87,11.39.5,2.88-2.15,2.35-3.07-.44-4.67-10.44-5.99-20.77-12.18-31.14-18.29-5.26-3.1-10.51-6.21-16.19-9.57Zm-393.41,161.6c.3.08.6.16.9.24,8.01-15.17,16.01-30.33,24.04-45.49.88-1.67.43-2.96-.84-4.13-1.25-1.15-2.66-2.17-3.73-3.47-1.96-2.36-2.91-2.15-3.82.83-2.57,8.43-5.37,16.78-8.04,25.18-2.85,8.94-5.67,17.9-8.5,26.85Zm529.35,26.91c-.5,17.99-.81,35.48-1.56,52.96-.3,7.09-.71,6.99,5.96,8.8,3.18.86,4.47.51,3.9-3.33-2.86-19.26-5.51-38.56-8.31-58.43Zm-212.51,325.39c.04.18.07.36.11.54.86-.04,1.73.01,2.57-.13,12.8-2.21,25.6-4.4,38.39-6.68,7.63-1.36,13.85-6.88,16.87-14.91-19.41,7.1-38.68,14.14-57.94,21.18Zm143.93-102.82c-.16-.26-.32-.51-.48-.77-5.85,3.1-12.63,5.18-17.34,9.51-8.77,8.07-17.68,15.91-27.32,22.89-2.91,2.1-.94,3.2.19,4.61,1.16,1.45,2.06,3.81,4.61,1.42,13.41-12.59,26.89-25.11,40.34-37.66Zm-29.43,51.11c.17.24.34.48.5.71,11.42-8.16,22.56-16.77,34.37-24.32,7.97-5.1,6.44-12.87,7.76-20.04-14.21,14.55-28.42,29.1-42.64,43.65Zm-391.8-65.91c.13-.2.27-.39.4-.59-6.44-14.55-12.97-29.06-19.28-43.67-3.22-7.46-3.02-7.45-10.54-6.19-2.56.43-3.38,1.15-1.8,3.52,10.42,15.63,20.81,31.29,31.21,46.93Zm483.46-82.12c-.21-.17-.42-.33-.63-.5-.5.93-1.02,1.85-1.51,2.79-7.34,13.8-13.86,28.04-21.97,41.41-2.42,4-1.26,6.3,2.08,8.86,2.79,2.15,4.18,3.14,5.56-1.32,5.31-17.14,10.96-34.17,16.48-51.25Zm-277.1,195.78c.03-.16.07-.33.1-.49-1.01-.3-2.01-.64-3.03-.91-14.64-3.9-29.28-7.76-43.91-11.68-6.84-1.83-6.94-1.7-10.36,5.14-1.32,2.64-.64,3,1.94,3.21,9.39.75,18.76,1.79,28.15,2.61,9.03.78,18.07,1.42,27.1,2.13Zm-118.35-34.69l.49-.71c-1.32-1.23-2.59-2.52-3.96-3.68-10.38-8.83-20.8-17.62-31.17-26.46-5.5-4.69-5.39-4.63-10.98-.44-2.49,1.86-2.6,2.85.22,4.48,11.92,6.91,23.75,14.01,35.61,21.03,3.26,1.93,6.52,3.85,9.79,5.78Zm238.6,14.33c-.1-.15-.19-.3-.29-.45-16.07,3.1-32.13,6.29-48.23,9.24-7.11,1.3-7.45,1.59-7.03,8.91.14,2.45.84,2.95,3.08,2.1,17.48-6.63,34.98-13.21,52.47-19.8Zm18.17-483.58c5.55,5.17,9.03,11.87,15.19,16.26,8.79,6.26,18.35,11.48,26.19,19.05,2.25,2.17,3.85,1.96,5.83-.64,2.47-3.23-.2-4.04-1.98-5.24-14.1-9.56-28.23-19.07-42.38-28.56-.7-.47-1.31-1.37-2.86-.87Zm78.59,415.24c-.26-.2-.52-.4-.79-.6-12.5,9.38-24.81,19.04-37.61,27.98-4.5,3.14-4.71,5.75-2.66,10.2,1.56,3.4,2.57,2.98,4.69.68,3.98-4.33,8.2-8.44,12.25-12.71,8.07-8.5,16.09-17.03,24.13-25.55Zm53.19-114.16c-.23-.13-.46-.26-.69-.39-3.21,4.48-7.25,8.59-9.48,13.52-5.26,11.65-9.07,23.95-15.55,35.08-1.32,2.27-.73,3.58,1.56,4.74,2.55,1.3,3.69.33,4.47-2,.54-1.61,1.24-3.17,1.85-4.76,5.95-15.39,11.89-30.79,17.84-46.18Zm-42.12-224.86c1.29,9.66,3.86,18.73,9.8,26.57,3.94,5.2,6.57,11.17,9.36,17.03,1.06,2.23,2.06,4.49,2.97,6.78,1.13,2.84,2.9,1.89,4.88,1.09,2.47-.99,1.83-2.34.83-3.98-1.69-2.78-3.28-5.61-4.92-8.41-7.64-13.03-15.28-26.06-22.92-39.09Zm46.79,108.21c-1.62,5.24-4.44,10.65-3.47,16.07,2.24,12.44,1.19,24.94,1.86,37.4.12,2.31-.01,3.98,2.96,3.87,3.06-.11,2.9-2.22,2.78-4.27-.28-4.62-.61-9.25-.97-13.86-1.04-13.07-2.1-26.14-3.16-39.21Zm-537.73,29.87c.15.34.3.68.45,1.03,6.86.72,13.73,1.43,20.59,2.16,3.1.33,4.63-1.03,4.69-4.15.07-3.65-.24-7.31.91-12.04-9.45,4.62-18.05,8.81-26.64,13.01Zm118.92-210.84c-.24.24-.48.49-.71.73,4.15,6.3,8.28,12.61,12.45,18.89.49.73,1.25,1.88,2.19,1.16,3.83-2.93,8.62-4.48,12.39-8.33-9.07-4.29-17.69-8.37-26.32-12.45Zm-83.63,91.89c-.06.34-.12.68-.18,1.03,4.36,2.62,8.71,5.24,13.07,7.86q8.37,5.02,13.15-3.24c.54-.93,1.09-1.88,1.76-2.72,1.73-2.15,1.01-2.93-1.48-2.93-8.78.01-17.55,0-26.33,0Zm-15.22,241.02c.27.39.53.78.8,1.17,6.89-2.53,13.77-5.06,20.66-7.61,1.19-.44,1.66-1.24,1.19-2.55-1.54-4.28-3.05-8.57-4.84-13.62-6.29,7.98-12.05,15.29-17.81,22.61Zm70.88,100.88c4.61-4.02,10.4-9.04,16.15-14.09,1.01-.89.87-1.77-.12-2.72-2.77-2.67-5.48-5.39-8.18-8.13-1.27-1.29-2.2-1.07-2.58.64-1.94,8.79-3.82,17.59-5.28,24.3Zm107.72,62.6c.36.04.71.09,1.07.13,2.34-6.97,4.61-13.96,7.05-20.89.76-2.16-.4-2.81-1.98-3.26-3.96-1.13-7.95-2.17-12.56-3.43,2.19,9.37,4.3,18.41,6.42,27.45Zm53.56-520.61c-6.17-7.55-11.92-14.59-17.67-21.62-.85,7.37.74,14.01,1.48,20.74.27,2.46,1.52,3.26,4.21,2.6,3.57-.87,7.3-1.09,11.98-1.72Zm-11-44.92c-2.52-3.79-4.79-7.24-7.08-10.67-.7-1.05-1.61-2.36-2.88-1.02-5.02,5.28-9.92,10.69-15.59,16.85,9.43-.37,17.12-2.89,25.56-5.17Zm81.18,573.37c.52-7.57-.55-14.66-1.77-21.72-.25-1.46-1.27-2.03-2.74-1.79-4.17.68-8.33,1.35-12.95,2.1,6.06,7.43,11.76,14.42,17.46,21.41Zm-311.33-410.12c5.4-6.78,7.25-14.23,10.75-20.83.44-.84.65-2.19-.45-2.35-3.95-.55-7.87-1.77-11.93-1.14-1.59.25-1.77,1.61-1.58,2.89.99,6.83,2.04,13.65,3.22,21.43Zm104.11-117.83c-.22-1.2-1.04-1.4-1.68-1.8-2.62-1.63-5.26-3.24-7.86-4.91-2.15-1.38-3.34-.76-4.05,1.62-1.63,5.47-3.38,10.91-5.07,16.36-.32,1.02-.88,2.18.28,2.93,1,.64,1.61-.5,2.39-.91,5.68-2.95,9.27-8.53,14.77-11.71.59-.34.9-1.16,1.21-1.58Zm195.94-39.25c7.25,0,13.66.03,20.06-.02,1.84-.01,2.44-1.1,1.92-2.79-1.22-3.97-2.46-7.94-3.73-11.9-.46-1.42-1.28-1.62-2.34-.52-4.89,5.04-10.75,9.08-15.91,15.23Zm37.77.65l-.11.98c4.11,1.18,8.2,2.46,12.34,3.52,10.71,2.74,12.91.54,10.62-10.15-.5-2.33-1.3-2.83-3.43-1.97-6.45,2.59-12.94,5.09-19.41,7.62Zm-104.57,582.08c-7.51-1.75-14-.98-20.42-1.1-1.68-.03-2.1.97-1.63,2.48,1.2,3.82,2.36,7.65,3.57,11.47.47,1.48,1.27,2.07,2.68.85,4.98-4.34,9.98-8.65,15.8-13.7Zm-257.58-258.98c-1.72-7.71-3.2-14.13-4.57-20.57-.42-1.95-1.38-2.25-2.94-1.34-3.48,2.01-6.93,4.05-10.4,6.08-1.41.82-1.72,1.69-.23,2.77,5.71,4.1,11.41,8.22,18.15,13.07Zm41.44,122.75c.18-.33.36-.66.53-.99-4-5.23-7.99-10.46-11.99-15.69-1.03-1.34-2.07-1.19-2.97.12-2.26,3.32-4.49,6.66-6.71,10.01-.83,1.24-.97,2.34.9,2.69,6.74,1.29,13.49,2.57,20.24,3.85Zm93.83,92.46c-4.24-2.16-7.52-3.85-10.81-5.51-11.26-5.7-12.15-5.14-12.34,7.64,0,.15,0,.31-.02.46-.16,2.42.77,3.52,3.31,2.82,6.25-1.72,12.51-3.41,19.86-5.41Zm58.94-524.3c6.58-3.24,12.23-6.03,17.89-8.81,1.67-.82,3.18-1.67,1.3-3.72-3.1-3.36-6.2-6.71-9.82-10.62-3.21,7.94-6.13,15.14-9.37,23.14Zm-179.69,179.57c1.78-7.47,3.3-13.75,4.76-20.05.34-1.46.31-2.94-1.86-2.79-3.7.25-7.4.54-11.1.85-2.66.22-3.04,1.5-1.79,3.73,3.16,5.67,6.24,11.38,9.99,18.26Zm69.83-110.95c4.57-5.75,8.66-10.9,12.77-16.04,1.43-1.79.16-2.46-1.22-3-3.59-1.41-7.21-2.74-10.82-4.12-1.63-.63-3.01-.45-2.61,1.63,1.29,6.81.03,13.84,1.88,21.52Zm217.75,207.61c-.19.38-.38.75-.57,1.13,3.56,3.4,7.13,6.81,10.69,10.2,1.01.97,2.12,2.21,3.53.82,3.86-3.84,7.62-7.78,11.87-12.15h-25.52Zm178.58-230.75c4.5,7.41,12,10.25,18.21,14.75,1.19.86,1.74-.11,2.03-.93,1.07-3.04,2.04-6.12,2.99-9.21.49-1.58.23-2.65-1.79-2.8-7.04-.54-14.08-1.18-21.43-1.81Zm-92.76,507.49c-4.84,2.12-8.57,3.78-12.32,5.41q-9.38,4.07-2.46,11.22c1.18,1.22,2.33,2.45,3.55,3.63,1.19,1.16,2.08.98,2.77-.62,2.63-6.17,5.31-12.32,8.47-19.63Zm63.53-46.36l.51-.8c-2.02-3.08-4.03-6.16-6.06-9.23q-6.65-10.09-16.78-3.63c-.13.08-.25.18-.39.25-2.5,1.17-1.65,2.06.21,2.93,7.51,3.49,15,6.99,22.5,10.48Zm-458.66-235.34c2.12-8.62.67-16.24-.59-23.87-.11-.68-.29-1.12-1.02-1.29-.83-.19-10.7,3.45-11.18,4.13-.72,1.02.03,1.75.51,2.47,3.96,6.02,7.95,12.01,12.29,18.55Zm454.27-243.13c6.68,3.29,12.43,6.12,18.17,8.96,1.86.92,2.95.41,3.23-1.65.52-3.8.93-7.62,1.56-11.41.43-2.61-.84-2.5-2.63-1.96-6.44,1.93-12.88,3.84-20.34,6.06Zm-75.75-18.52c-.28,0-.57,0-.85.01-1.41,4.21-2.95,8.39-4.19,12.65-3.38,11.56-5.67,8.97,7.4,12.7.44.13.87.36,1.31.42,1.66.22,2.29-.49,1.9-2.14-1.87-7.88-3.72-15.76-5.58-23.64Zm211.13,233.76c1.53,7.45,2.75,13.47,4,19.48.41,1.97,1.17,3.17,3.47,1.72,3.13-1.98,6.35-3.81,9.57-5.64,1.91-1.08,2.01-2.1.19-3.38-5.4-3.79-10.78-7.61-17.23-12.18Zm-302.64,55.11l-1.11,1.34c3.88,3.44,7.78,6.86,11.62,10.34,1.14,1.03,2.14,1.08,3.22.04,3.84-3.67,7.68-7.34,12.25-11.72h-25.99Zm288.07,74.62c-1.79,7.08-3.32,13.28-4.94,19.46-.56,2.13.29,2.88,2.29,2.73,3.98-.31,7.97-.61,11.95-.99,2.05-.2,1.57-1.54.95-2.67-3.23-5.91-6.51-11.78-10.24-18.52Zm-69.96,111.1c-4.69,5.51-8.85,10.33-12.92,15.23-1.34,1.62-.16,2.48,1.29,3.05,3.44,1.34,6.89,2.63,10.32,4,2.14.86,2.72-.01,2.73-2.07,0-6.42-.26-12.8-1.42-20.22Zm63.51-333.71c.31,4.2,2.44,6.48,3.27,9.24.88,2.96,2.77,5.03,4.82,7.33,4.38,4.91,4.04,5.2,8.58.54.97-1,1.93-2,2.92-2.97,1.08-1.05,1.4-2-.16-2.9-6.25-3.61-12.49-7.22-19.44-11.24Zm-22.06-30.08c4.57,5.87,8.49,10.95,12.45,16,1.13,1.45,2.3,1.36,3.32-.17,2.14-3.19,4.29-6.38,6.39-9.59,1.01-1.55.62-2.68-1.25-2.98-6.63-1.07-13.28-2.07-20.92-3.25ZM245.45,652.07c3.55,8.12,6.54,15,9.56,21.86.61,1.39,1.49,1.33,2.5.34,2.43-2.38,4.87-4.75,7.32-7.11,1.44-1.39,1.48-2.57-.36-3.67-5.94-3.54-11.86-7.12-19.01-11.42Zm301.7-117.46c9.64,1.46,17.71.88,26.2.23-3.36-4.13-7.15-7.53-10.85-11.01-1.37-1.29-2.51-1.55-3.96-.14-3.41,3.34-6.89,6.62-11.39,10.92Zm-76.97,308.48c-.32-3.25-.46-5.71-.81-8.14-1.01-7.02-1.05-7.03-7.63-4.65-4.93,1.78-9.85,3.62-14.77,5.43.08.37.16.74.23,1.11,7.42,2.02,14.84,4.04,22.98,6.26Zm156.82-605.6c-.63-.49-.83-.76-1.09-.83-3.86-1.03-7.72-2.05-11.58-3.05q-10.62-2.75-10.01,7.88c.04.61.08,1.23.05,1.84-.1,2.11.72,2.82,2.78,2,6.52-2.61,13.07-5.17,19.84-7.84Zm-97.93,297.59l.87-.89c-4.06-3.73-8.12-7.46-12.18-11.19-.73-.67-1.57-1.25-2.43-.42-3.91,3.77-7.75,7.6-11.62,11.41.21.37.42.73.63,1.1h24.73Zm-204.64,231.94c4.33,3.8,7.72,6.86,11.2,9.82,8.95,7.6,9.02,7.51,12.46-3.8.81-2.67.09-3.71-2.5-3.96-6.66-.63-13.31-1.29-21.16-2.06Zm34.37-487.13c-4.88,2.1-7.82,5.04-11.05,7.48-9.86,7.47-9.8,7.79,1.38,13.63.27.14.53.31.79.47,1.29.77,2.15.14,2.52-1.01,2.07-6.53,4.06-13.09,6.36-20.57Zm-92.89,382.11c-.52-9.15-7.69-13.57-10.26-20.47-.25-.68-1.15-1.15-1.98-.67-3.14,1.8-5.62,4.33-7.6,7.34-.66,1-.02,1.8.82,2.32,6.15,3.74,12.32,7.46,19,11.49Zm-.88-278.94c-.37-.12-.75-.24-1.12-.36-3.11,6.17-6.22,12.33-9.32,18.51-.91,1.81-.45,3.01,1.64,3.3,2.9.39,5.81.75,8.72,1.05,2.49.25,3.37-1.04,3.01-3.37-.98-6.37-1.95-12.74-2.93-19.12Zm222.59-154.57l-.54-.91c-7.61,1.56-15.22,3.12-23.27,4.77,2.32,3.87,4.4,7.25,6.38,10.7.96,1.68,1.84,2.37,3.43.62,4.63-5.09,9.33-10.13,14.01-15.18Zm361.31,330.17c.46-6.81.92-12.45,1.2-18.11.34-6.95.28-6.95-6.53-4.71-1.61.53-3.21,1.05-4.83,1.54-2.28.68-2.99,1.76-1.46,3.97,3.75,5.43,7.36,10.94,11.63,17.31Zm-322.64-43.09c-.4.43-.8.86-1.2,1.29,3.92,3.49,7.86,6.96,11.74,10.48,1.06.96,1.91,1.42,3.14.24,3.75-3.58,7.55-7.11,11.33-10.65-.25-.45-.5-.91-.76-1.36h-24.26Zm187.73,279.42c6.86-4.99,12.52-9.22,18.3-13.27,2.26-1.59,1.47-2.49-.29-3.6-2.47-1.56-4.97-3.1-7.31-4.84-2.02-1.5-3.19-1.33-3.99,1.17-2.05,6.42-4.18,12.82-6.71,20.54Zm-162.35-281.87c-4.27-4.55-7.84-8.36-11.44-12.15-.62-.66-1.33-1.47-2.33-.48-3.99,3.96-7.98,7.92-12.72,12.63h26.49Zm195.65-206.91l.21-.98c-3.04-2.61-6-5.32-9.14-7.81-10.21-8.11-7.65-10.08-13.02,3.64-.94,2.4-.2,3.57,2.2,3.76,6.58.51,13.16.94,19.75,1.4Zm-522.55,209.11c-.45.08-.9.16-1.36.24,0,7.35.08,14.7-.04,22.05-.04,2.35,1.19,2.16,2.63,1.73,3.25-.96,6.47-2.02,9.7-3.04,1.77-.56,2.09-1.47,1.01-3.07-4.02-5.95-7.97-11.94-11.94-17.92Zm359.95,330.88c8.09-1.44,14.89-2.68,21.7-3.86,2.02-.35,2.78-1.3,1.69-3.19-1.71-2.95-3.5-5.84-5.21-8.79-.82-1.4-1.65-1.71-2.86-.42-4.81,5.13-9.66,10.24-15.33,16.25Zm223.86-154.05c2.71-4.91,4.79-8.62,6.81-12.36q5.25-9.73-5.67-11.31c-.61-.09-1.23-.17-1.84-.19-1.74-.08-2.57.61-2.29,2.5.97,6.65,1.87,13.31,2.99,21.36Zm17.43-272.03c.34-.28.69-.57,1.03-.85-2.72-6.17-5.45-12.34-8.16-18.51-.79-1.8-1.91-1.82-3.23-.6-2.39,2.2-4.75,4.43-7.12,6.65-1.35,1.26-1.29,2.38.33,3.32,5.71,3.34,11.44,6.66,17.16,10Zm11.17,145.58c2.84-.14,5.92-2.05,9.24-3.13,1.34-.44,1.62-1.47.89-2.57-3.93-5.99-7.92-11.93-12.2-18.36-3.23,8.82-.37,16.31,2.07,24.06Zm-333-28.3c-.29.47-.59.95-.88,1.42,3.64,3.33,7.32,6.62,10.9,10.02,1.45,1.37,2.63,1.34,3.94-.06,3.55-3.78,7.13-7.55,10.76-11.39h-24.71Zm81.97-308.8c-3.93,0-6.5,0-9.07,0-13.14-.03-13.01-.06-10.14,12.96.78,3.56,1.88,2.74,3.72,1.07,4.77-4.33,9.55-8.65,15.49-14.02Zm-259.92,78.2c-4.54,5.58-8.2,10.06-11.83,14.56-1.12,1.39-.84,2.51.75,3.35,4,2.1,8,4.22,12.62,6.67-.52-8.29-.98-15.7-1.54-24.58Zm455.36,369.19c.07-.25.14-.5.22-.75-3.79-2.27-7.58-4.54-11.36-6.82q-7.83-4.72-12.56,2.69c-.5.78-.93,1.6-1.48,2.34-1.28,1.73-.75,2.52,1.27,2.52,7.97.01,15.94,0,23.9,0ZM247.18,421c-1.7,6.79-3.09,12.29-4.44,17.81-.43,1.74-.19,2.97,2.11,3.05,3.7.13,7.39.51,11.09.77,2.31.17,2.79-.83,1.72-2.76-3.28-5.92-6.56-11.83-10.47-18.87Zm135.31,366.31c-8.12,2.18-15.28,4.11-23.5,6.32,6.21,3.29,11.35,6.02,16.5,8.76,1.81.96,2.84.48,3.35-1.54,1.06-4.17,2.23-8.31,3.65-13.54Zm-93.22-91.74c-7.33-1.42-13.69-2.66-20.05-3.85-.71-.13-1.7-.19-2.18.19-.71.57-.1,1.37.36,1.99,3.17,4.19,6.35,8.38,9.48,12.59.95,1.28,1.8,1.54,2.93.2,2.96-3.53,5.96-7.02,9.45-11.13Zm-62.53-136.54c-.32.23-.65.47-.97.7,1.17,5.66,2.33,11.32,3.49,16.98.38,1.87,1.46,2.1,3.05,1.41,3.38-1.47,6.79-2.89,10.18-4.36,1.22-.53,2.48-1.37.83-2.61-5.47-4.11-11.05-8.09-16.58-12.11Zm119.72,207.96c-.39-.91-.51-1.33-.74-1.69-4.21-6.5-12.45-7.16-17.73-12.14-1.07-1-1.59.23-1.9,1.07-.95,2.6-1.83,5.23-2.74,7.85-.6,1.73.11,2.79,1.81,2.96,6.97.69,13.96,1.29,21.3,1.95Zm456.92-96.93c-.75.96-1.24,1.49-1.61,2.09-3.04,4.96-5.24,9.9-5.69,16.13-.31,4.23-1.08,5.99,3.81,5.67,1.04-.07,2.12.35,3.18.51,2.73.42,3.67-.89,3.3-3.45-.97-6.79-1.94-13.58-2.99-20.95Zm-314.99,175.04c4.01.39,6.91.9,9.82.93,13.21.1,11.27,1.33,9.1-10.41-.14-.76-.2-1.53-.31-2.29-.4-2.65-1.58-3.15-3.64-1.34-4.73,4.15-9.46,8.29-14.97,13.12Zm203.16-557.91c9.38-1.74,19.68-5.25,21.63-7.35-4.72-2.37-9.48-4.62-14.09-7.13-2.53-1.38-3.54-.64-4.16,1.91-.98,4.04-2.15,8.03-3.38,12.56Zm-64.98,549.01c6.48-2.79,11.67-5.04,16.88-7.26,1.52-.65,2.37-1.55,1.22-3.16-2.34-3.26-4.73-6.48-7.08-9.73-.86-1.18-1.73-1.4-2.37.08-2.75,6.28-5.43,12.59-8.65,20.07ZM446.69,239.23c-3.33.31-5.35,1.83-7.54,2.84q-11.88,5.49-3.57,15.8c.1.12.2.23.29.36,1.36,2.11,2.42,2.08,3.37-.36,2.36-6.02,4.79-12,7.45-18.64Zm19.75,587.14c-1.31-.64-1.71-.85-2.12-1.04-5.11-2.42-10.48-1.55-15.87-1.8-8.1-.38-8.06-1.07-6.45,7.09.09.45.28.9.32,1.35.19,2.38,1.37,2.72,3.44,1.94,6.64-2.48,13.31-4.86,20.67-7.54Zm382.08-310.1c-1.38-6.86-2.49-12.27-3.54-17.7-.35-1.79-.81-2.93-3.02-1.89-3.36,1.58-6.81,2.96-10.22,4.41-2.19.93-2.01,1.94-.21,3.19,5.3,3.7,10.57,7.45,17,11.98Zm-40.08-133.19c-4.17-5.48-7.67-10.11-11.21-14.71-.96-1.25-2.1-1.19-3.1-.02-3.03,3.53-6.02,7.09-9.35,11.01,8,1.26,15.26,2.4,23.66,3.72Zm18.24,270.29c1.73-6.38,3.22-11.8,4.66-17.23.57-2.16-.35-3.21-2.57-3.22-3.39-.02-6.78-.07-10.17-.15-2.2-.05-2.84.79-1.73,2.79,3.11,5.63,6.21,11.27,9.82,17.8Zm-79.17,112.41c.36.19.72.38,1.07.57,3.41-3.9,6.74-7.86,10.25-11.67,2.3-2.5,1.49-3.88-1.24-5.11-2.38-1.08-4.71-2.31-6.97-3.63-2.87-1.68-4.23-1.24-4.01,2.36.36,5.82.6,11.66.9,17.49Zm-197.9-208.83c.44-.57.88-1.15,1.32-1.72-3.6-3.12-7.22-6.22-10.81-9.36-1.19-1.04-2.47-1.58-3.66-.28-3.49,3.8-6.88,7.69-10.15,11.37h23.29Zm170.3-199.28c2.06-9.48,3.83-17.57,5.78-26.53-1.3.94-1.71,1.15-2.02,1.47-2.82,2.87-5.68,5.71-8.43,8.65-5.63,6.02-5.59,6.02.31,11.51,1.24,1.15,2.26,2.53,4.36,4.91Zm-.64,414.66c-2.02,1.13-2.81,1.58-3.61,2.02-4.72,2.62-7.48,6.72-10.29,11.3-3.13,5.1-3.9,4.62,1.45,7.75.67.39,1.35.75,1.99,1.18,1.64,1.13,2.82.94,3.49-1.08,2.19-6.68,4.39-13.36,6.97-21.17Zm-120.3,57.44c-.34-.54-.69-1.08-1.03-1.63-1.19.08-2.38.22-3.58.24-5.21.1-9.37,2.51-12.99,5.99-1.7,1.63-5.52.02-5.65,2.36-.12,2,2.31,4.15,3.61,6.23.08.13.18.25.25.38,1.15,2.14,2.28,2.39,4.19.54,4.96-4.82,10.12-9.43,15.2-14.12Zm-336.36-234.32c-3.94-4.78-6.95-8.44-9.98-12.08-.97-1.17-2.14-1.93-3.58-.84-3.92,2.98-7.8,6.03-12.39,9.6,8.93,1.14,16.7,2.14,25.95,3.33Zm.91-125.68c.35-.19.71-.38,1.06-.57-1.27-4.72-2.55-9.44-3.78-14.17-.37-1.42-1.07-2.18-2.62-1.85-4.76,1.02-9.52,2.03-15.35,3.27,7.55,4.86,14.13,9.09,20.7,13.32Zm533.04-35.82c-.18-.25-.37-.49-.55-.74-3.42,1.26-6.87,2.44-10.26,3.79-11.8,4.7-10.12,1.5-5.7,14.37.05.15.06.31.11.45.59,1.56,1.41,1.43,2.3.28,4.71-6.05,9.4-12.1,14.1-18.15Zm-489.26-96.97c4.87,7.84,8.99,14.48,13.83,22.27,1.13-6.22,1.98-11.03,2.88-15.84.32-1.69-.36-2.7-1.95-3.07-4.44-1.04-8.88-2.03-14.76-3.36Zm509.07,219.64c-.09-.29-.18-.57-.27-.86-5.06-.49-10.13-.84-15.16-1.49-5.76-.75-6.72-.02-6.84,5.98-.03,1.39.01,2.78,0,4.16-.03,2.19.92,2.8,2.88,1.83,6.47-3.2,12.94-6.41,19.41-9.62Zm-396.42-275.05c.37.09.73.18,1.1.27,2.79-3.84,5.6-7.67,8.38-11.51.64-.89,1.32-1.9.25-2.88-3.66-3.34-7.39-6.6-12.51-9.89,1.02,8.82,1.91,16.42,2.79,24.01Zm103.44,561.05c3.1-8.49,5.76-15.76,8.85-24.22-5.47,2.7-9.74,4.81-14.01,6.9-1.43.7-2.22,1.59-1.41,3.29,2.04,4.27,4.02,8.57,6.57,14.03Zm-210.33-133.23c.03-.44.05-.88.08-1.32-4.3-1.98-8.6-3.95-12.89-5.93-1.31-.6-2.49-.42-3.16.89-2.19,4.3-4.3,8.64-6.95,14,8.5-2.83,15.71-5.23,22.93-7.63Zm97.87,79.37c-5.46,0-10.08,0-14.71,0-2.01,0-3.79.36-3.79,2.95,0,4.42,0,8.84,0,14.51,6.58-6.21,12.26-11.57,18.5-17.46Zm139.9-555.97c-2.74,7.92-4.99,14.46-7.25,21-.25.72-.7,1.49-.07,2.16.68.73,1.47.18,2.1-.16,3.54-1.88,7.05-3.83,10.59-5.72,1.5-.8,1.89-1.83,1.13-3.4-1.99-4.15-3.91-8.33-6.5-13.87Zm131.03,39.29c-5.03,4.53-10.88,9.8-16.84,15.17,4.8.64,9.36-.7,13.97-.7,2.21,0,2.89-1.33,2.88-3.32-.03-4.44,0-8.89,0-11.15Zm-27.34,521.77c-11.92,10.86-12.03,13.76-1.34,21.42.13.09.25.18.38.27.76.48,1.49,1.4,2.43.97,1.26-.57.84-1.91.74-2.89-.66-6.38-1.41-12.74-2.21-19.77Zm-189.05-509.96c-.07-.21-.14-.42-.21-.64-14.08,2.77-28.16,5.52-42.23,8.31-1.34.27-3.74-.06-2.62,2.47.75,1.71,1.8,3.72,4.5,2.84,13.51-4.35,27.04-8.67,40.56-12.99Zm300.14,454.28c.22-.36.45-.72.67-1.09-4.03-6.37-8.05-12.75-12.72-20.14-1.26,5.79-2.21,10.15-3.16,14.52-.37,1.69-.22,3.03,1.85,3.5,4.46,1.02,8.9,2.13,13.35,3.21Zm-5.74-371.14c5.29,2.3,9.37,4.13,13.5,5.86,1.07.45,2.53,1.39,3.35-.05,2.5-4.43,5.22-8.8,6.58-14.35-7.94,2.89-15.16,5.53-23.44,8.54Zm-486.56,184.7c-.22,0-.44,0-.67.01-.39,14.43-.79,28.86-1.16,43.29-.04,1.53.38,3.03,2.32,2.57,1.98-.47,3.66-1.19,3.25-4.08-.76-5.34-1.05-10.76-1.52-16.14-.75-8.55-1.48-17.11-2.22-25.66Zm556.47,67.48l.38-1.21c-6.41-3.99-12.83-7.97-20.4-12.68,1.46,5.74,2.61,10.02,3.61,14.34.51,2.17,1.89,2.72,3.78,2.33,4.22-.87,8.42-1.84,12.62-2.77Zm-468.45-278.01c-.19-.21-.38-.43-.57-.64-11.17,8.33-22.36,16.63-33.49,25.01-.94.71-3.16,1.58-1.59,3.07,1.31,1.24,3.13,3.14,5.55.84,9.97-9.49,20.06-18.87,30.1-28.28Zm450.77,139.31c2.54,3.04,4.38,5.31,6.29,7.52q5.18,6,11.62,1.04c1.22-.94,2.48-1.85,3.66-2.85.77-.65,2.21-1.04,1.8-2.37-.37-1.18-1.78-1.17-2.78-1.28-6.56-.72-13.13-1.33-20.59-2.06Zm-519.01-43.13c-.23-.16-.47-.32-.7-.49-6.5,12.46-13,24.93-19.5,37.39-1.53,2.93.16,3.57,2.59,3.63,2.2.05,2.68-1.64,3.31-3.28,4.74-12.43,9.53-24.84,14.3-37.25Zm261.43,328.51c-4.34-3.14-7.48-5.63-10.84-7.79-2.52-1.62-5.13-5.71-7.54-4.27-2.8,1.67-1.22,6.26-1.48,9.58-.19,2.54.94,3.78,3.52,3.6,5.02-.35,10.05-.69,16.34-1.13Zm214.76-354.81c.22-.11.44-.22.65-.33-6-13.51-12-27.02-18-40.52-.86-1.94-1.57-1.83-2.81-.12-1.31,1.82-1.83,3.34-.59,5.45,6.97,11.81,13.84,23.67,20.75,35.52Zm-463.58,254.5c-.22.11-.45.22-.67.34,5.81,13.03,11.62,26.05,17.42,39.09.65,1.47,1.35,2.47,3.07,1.15,1.36-1.05,3.06-1.95,1.87-4.04-1.06-1.87-2.39-3.59-3.48-5.45-6.09-10.35-12.15-20.72-18.21-31.09Zm350.03-373.46c-.12,3.1-2.68,5.45.62,7.66,11.23,7.51,22.42,15.07,33.63,22.61.18-.23.35-.45.53-.68-11.32-9.63-22.64-19.27-34.78-29.59Zm59.37,98.98c0,7.99-.01,14.71.02,21.43,0,.75.1,1.56,1.2,1.6.99.03,10.38-6.51,10.38-7.45,0-.71-.27-1.55-.7-2.11-3.31-4.18-6.7-8.3-10.9-13.47Zm86.57,134.21c.17-.03.35-.06.52-.09.5-14.51,1.02-29.01,1.44-43.52.03-1.15.8-3.33-1.3-3.21-1.83.1-4.09.77-4.18,3.44-.02.61.24,1.21.29,1.83,1.08,13.85,2.15,27.7,3.23,41.55Zm-221.03-247.71c.03-.33.05-.66.08-.99-12.85-3.37-25.7-6.75-38.56-10.07-1.31-.34-3.34-1.82-3.86.46-.45,1.98-.16,4.33,2.95,4.77,13.14,1.87,26.26,3.87,39.39,5.82Zm-197.18,475.67c-.11.18-.23.36-.34.54,6.93,5.87,13.86,11.75,20.79,17.62,4.12,3.49,8.23,6.98,12.36,10.46,1.91,1.61,3.03,1.74,3.58-1.28.38-2.1-.3-3.1-1.86-4.14-11.53-7.71-23.02-15.46-34.53-23.2Zm370.98-212.33c4.2,1.07,7.7,1.16,11.23,1.16,2.1,0,3.56-1.12,3.27-3-.81-5.22-.34-10.52-.81-17.05-4.96,6.85-9.1,12.55-13.69,18.89Zm-2.35-88.38c-2.38,7.41-4.42,13.66-6.36,19.93-.32,1.05-.92,2.89,1.32,2.34,3.44-.84,6.78-2.04,10.16-3.1,1.76-.55,1.33-1.91.92-3.04-1.82-5.01-3.73-9.98-6.05-16.14Zm-7.09,185.76c-7.66,3.43-14.27,6.39-21.75,9.74,4.21,2.63,7.61,4.65,10.89,6.85,1.57,1.05,2.28.2,2.88-.95,2.52-4.86,4.98-9.75,7.98-15.64Zm-289.45-297.15c-1.69-4.13-3.1-7.52-4.45-10.93-.82-2.07-2.18-2.37-4.03-1.43-4.6,2.3-9.2,4.59-14.97,7.47,8.41,1.75,15.44,3.22,23.46,4.89Zm92.97-30.8c2.95,2.65,5.87,5.36,8.88,7.95,2.53,2.17,5.16,6.48,7.76,5.67,2.54-.79,1.07-5.88,1.97-8.97.96-3.32-.72-4.6-3.81-4.63-4.77-.05-9.56.14-14.81-.01Zm-251.04,145.58c-.18-.13-.36-.27-.54-.4-4.92,6.52-9.87,13.03-14.74,19.59-.55.75-2.14,1.82-.95,2.65,2.15,1.51,4.89,1.81,7.48,2.11,2.21.25,2.2-1.81,2.61-3.16,2.1-6.91,4.1-13.86,6.13-20.79Zm30.91,123.01c-4.42.81-7.75,1.38-11.06,2.04-1.82.36-3.44,1.25-2.93,3.4,1.21,5.13,2.65,10.21,4.34,16.6,3.47-7.93,6.37-14.55,9.65-22.04Zm165.23,220.07c.03.29.07.57.1.86,13.13,3.39,26.27,6.78,39.4,10.16,1.42.37,3.24,1.35,3.56-1.19.25-2.02-.51-3.65-2.85-3.99-13.4-1.94-26.8-3.89-40.21-5.84Zm84.78-35.99c-4.36-2.52-7.58-4.64-11.03-6.29-2.96-1.41-6.33-5.66-8.67-3.76-2.63,2.13-.23,6.9.04,10.52.15,2.03,1.16,2.48,3.11,2.13,5.11-.92,10.26-1.63,16.55-2.6Zm44.73-12.6l-.15-1.03c-6.8-2.18-13.6-4.36-20.76-6.65.34,4.28,2.03,7.48,2.76,10.92.54,2.5,1.9,2.97,4,2.18,4.73-1.77,9.43-3.61,14.15-5.42Zm-21.3,7.21c-7.06-3.09-12.96-5.7-18.88-8.25-1.38-.6-2.98-1.06-2.6,1.41.49,3.2,1.15,6.37,1.84,9.53.44,2.03,1.92,2.11,3.61,1.64,4.88-1.34,9.78-2.65,16.03-4.33Zm166.53-210.01c-.35-.12-.69-.24-1.04-.35-4.23,4.7-8.48,9.37-12.66,14.12-.9,1.03-2.03,2.54.54,2.94,3.05.47,6.13.74,9.2,1.01,1.53.14,2.84-.32,2.96-2.14.36-5.19.67-10.39,1-15.58Zm-238.16,218.31c-5.52-4.9-10.22-9.1-14.98-13.24-.69-.6-2.07-2.16-2.5-.57-1.04,3.84-1.65,7.84-1.46,11.87.05.97.94,1.09,1.72,1.16,5.34.49,10.67,1.22,17.22.78Zm-185.03-349c7.29-2.41,13.31-4.34,19.28-6.41.89-.31,3.45-.55,1.96-2.02-2.81-2.79-6.27-4.95-9.58-7.2-.9-.62-1.76.43-2.25,1.17-2.96,4.47-5.86,8.99-9.41,14.48Zm265.4,375.52c.09.21.17.43.26.64,13.49-2.67,26.99-5.31,40.46-8.08,1.15-.24,3.8.41,2.88-2.31-.61-1.79-1.35-3.76-4.29-2.79-13.07,4.28-26.2,8.38-39.31,12.54Zm-194.51-61.48c.26-.22.51-.43.77-.65-2.28-6.84-4.55-13.68-7.12-21.38-2.86,3.72-4.93,6.57-7.16,9.29-1.38,1.68-1.33,2.93.52,4.14,4.34,2.85,8.66,5.74,12.99,8.61Zm-23.57-36.53c-3.33,3.59-5.93,6.41-8.55,9.21-.94,1-1.57,2.07-.24,3.14,4.3,3.44,8.65,6.81,13.86,10.9-1.82-8.36-3.35-15.37-5.07-23.25Zm19.36,96.73c-.35-.27-.69-.55-1.04-.82-4.86,5.11-9.69,10.25-14.59,15.32-1.72,1.78-1.12,2.67.98,2.98,2.43.35,4.94.3,7.33.82,2.75.6,4.11-.36,4.58-2.99.91-5.11,1.82-10.21,2.73-15.32Zm320.55-130.58c-.22-.26-.44-.52-.66-.78-6.13,1.95-12.27,3.89-18.39,5.86-.69.22-1.32.63-2.55,1.24,3.42,2.59,6.44,4.88,9.47,7.17,1.61,1.21,2.96.64,3.93-.82,2.78-4.19,5.48-8.44,8.2-12.67Zm-1.83-248.92c-.33.08-.65.15-.98.23-.76,6.78-1.63,13.55-2.21,20.35-.16,1.87,1.35,1.12,2.26.64,2.71-1.45,5.38-2.97,8.08-4.44,1.64-.89,2.23-2.11,1.18-3.77-2.75-4.35-5.55-8.67-8.33-13.01Zm-84.27,328.18c-7.66-1.63-14.24-3.04-20.83-4.43-.74-.16-1.55-.36-1.87.71-.28.91,4.33,11.41,5.24,11.6.69.14,1.55.02,2.18-.29,4.79-2.33,9.55-4.73,15.28-7.59Zm-141.11,24.12c.14-.31.29-.63.43-.94-4.24-4.68-8.48-9.35-12.72-14.03-1.88-2.07-2.7-1.28-3.16,1.07-.51,2.57-1.1,5.14-1.84,7.66-.67,2.27-.24,3.47,2.34,3.82,5,.68,9.97,1.6,14.95,2.42Zm-4.91-450.82c6.72,3.88,12.39,7.18,18.09,10.42,1.15.65,2.44,1.15,2.27-1.14-.23-3.06-.41-6.13-.6-9.2-.13-2.13-1.38-3.12-3.37-2.82-5.08.76-10.14,1.68-16.4,2.74Zm-170.2,176.94c-4.28-1.05-7.72-1.89-11.16-2.73-1.57-.39-3.26-.79-3.67,1.42-.99,5.3-1.83,10.64-2.95,17.3,6.45-5.8,11.81-10.61,17.79-15.98Zm412.57-57.79c-.33.06-.66.12-1,.19-1.3,6.13-2.58,12.27-3.92,18.39-.48,2.18.16,3.01,2.35,2.14,2.71-1.08,5.37-2.28,8.1-3.32,2.15-.82,2.33-2.26,1.44-4.02-2.28-4.48-4.64-8.92-6.96-13.37Zm-284.03,319.64c.26-.24.52-.49.78-.73-3.25-5.57-6.51-11.14-9.75-16.71-1.08-1.85-1.99-1.64-2.84.18-1.3,2.8-2.58,5.6-3.95,8.37-.92,1.86-.21,2.89,1.54,3.55,4.74,1.78,9.48,3.56,14.22,5.35Zm-4.87-425.75c7.41,2.35,13.55,4.28,19.68,6.26,2.09.67,3.03.23,2.35-2.11-.78-2.66-1.56-5.31-2.33-7.97-.64-2.21-1.82-2.89-4.12-1.97-4.69,1.88-9.46,3.53-15.58,5.79Zm-18.41,24.75c-2.31-4.3-3.97-7.42-5.65-10.52-.75-1.39-1.81-2.21-3.37-1.22-4.68,2.94-9.33,5.93-14.77,9.4,8.32.82,15.49,1.52,23.78,2.34Zm324.58,124.36c-3.01,6.62-5.56,12.21-8.08,17.81-.43.95-1.23,2.04-.38,2.98.8.89,2.03.4,3.07.2,2.57-.49,5.12-1.1,7.7-1.54,1.99-.34,2.53-1.3,1.99-3.24-1.4-5.02-2.67-10.07-4.29-16.21Zm-290.91,265.03c-1.66,4.71-2.94,8.3-4.19,11.9-.48,1.39-.16,2.36,1.43,2.79,5.23,1.39,10.44,2.84,16.91,4.61-5-6.82-9.16-12.51-14.14-19.3Zm296.26-242.09c-4.23,7.38-7.83,13.69-11.79,20.6,3.96.07,6.96-.05,10.02-.44,3.02-.39,4.46-1.53,3.96-4.72-.73-4.68-1.34-9.38-2.2-15.43Zm-451.81,79.03c3.86-6.63,7.13-12.17,10.32-17.76.72-1.27,1.33-2.8-1.25-2.61-3.06.23-6.12.51-9.19.74-2.21.16-2.97,1.52-2.67,3.46.79,4.98,1.7,9.94,2.78,16.17Zm352.17,151.13l-.02-1.02c-7.16-.71-14.32-1.41-22.53-2.22,2.34,4.26,4.21,7.75,6.16,11.19.99,1.76,2.28,1.04,3.53.25,4.29-2.74,8.57-5.47,12.86-8.21Zm36.77-31.33c-6.7.66-13.2,1.26-19.68,1.95-1.35.14-1.99,1.18-1.1,2.31,2.19,2.77,4.51,5.43,6.87,8.06.96,1.07,1.99.46,2.78-.38,3.63-3.86,7.23-7.74,11.14-11.93Zm63.83-127.11c-6.13,5.55-11.57,10.46-17.33,15.68,3.71,1.79,7.25,2.09,10.6,3,2.73.74,3.95-.25,4.3-3.06.61-4.87,1.49-9.71,2.43-15.61Zm-449.23-87.37c4.13-2.98,7.41-5.26,10.58-7.67,2.55-1.94,7.45-3.72,7.03-5.94-.55-2.97-5.64-2.6-8.6-4.07-2.77-1.38-4.31-.38-5.03,2.51-1.15,4.64-2.42,9.24-3.98,15.18Zm254.78-170.73c3.5,3.87,6.02,6.72,8.61,9.5,2.27,2.43,4.7,7.26,7,6.45,2.81-.99,2.05-6.23,3.16-9.53.05-.14.07-.3.09-.45.29-1.61-.32-2.89-1.9-3.18-5.2-.95-10.43-1.73-16.97-2.79Zm114.36,401.31c-4.98,0-9.11-.3-13.18.1-3.1.31-7.86-1.49-8.92,1.35-1.01,2.71,3.26,5.46,4.88,8.4,1.1,2,2.47,1.97,4.13.62,4.13-3.35,8.3-6.65,13.08-10.48Zm-337.47-47.83c.78-6.37,1.51-11.94,2.11-17.52.16-1.49.83-3.5-.33-4.42-1.59-1.26-3.03.7-4.48,1.35-1.68.74-3.23,1.79-4.89,2.58-2.09,1-2.68,2.36-1.35,4.38,2.84,4.31,5.67,8.64,8.95,13.63Zm320.03-298.29c2.81-3.63,4.97-6.43,7.13-9.22,1.02-1.32,1.76-2.74-.04-3.94-4.47-2.97-9.01-5.85-14.57-9.45,2.7,8.16,4.96,14.99,7.48,22.61Zm-170.21-38.99c-.74-4.28-1.3-7.6-1.89-10.92-.42-2.41-1.89-3.58-4.27-2.96-4.82,1.25-9.6,2.67-15.54,4.35,7.73,3.4,14.32,6.29,21.69,9.53Zm-257.06,130.01c.8,5.13,1.39,8.89,1.96,12.65.22,1.46.99,2.06,2.52,2.04,5.45-.06,10.91-.02,16.36-.02.04-.41.08-.82.12-1.23-6.57-4.21-13.14-8.42-20.96-13.44Zm540.61,180.97c.23.12.46.25.69.37,6.48-12.47,12.94-24.95,19.45-37.41.87-1.66.84-2.36-1.3-2.7-2.4-.39-3.65.17-4.54,2.55-4.68,12.43-9.51,24.8-14.29,37.19Zm-345.44,103.47c.27-.26.54-.53.81-.79-2.66-5.97-5.32-11.94-8.01-17.89-.31-.68-1.04-1.62-1.72-.77-2.49,3.13-4.62,6.52-6.21,10.2-.32.73.32,1.52,1.03,1.89,4.69,2.48,9.4,4.91,14.11,7.36Zm-126.17-214.61c.36.15.73.3,1.09.45,4.14-4.56,8.28-9.11,12.41-13.68,1.58-1.74,1.03-2.65-1.17-2.94-2.91-.38-5.82-.77-8.71-1.24-1.89-.31-2.33.79-2.74,2.3-1.35,5.01-.42,10.08-.88,15.11Zm319.88-185.31c1.21-.17,6.32-11.16,5.56-12.06-.28-.33-.76-.51-1.18-.68-4.3-1.71-8.59-3.42-12.91-5.07-.51-.19-1.32-.26-1.69.02-.81.6-.23,1.43.13,2.05,2.77,4.82,5.56,9.62,8.38,14.41.37.64.76,1.38,1.72,1.33Zm131.24,250.89c-6.21,4.51-11.44,8.3-16.64,12.12-.78.58-2.36,1.67-.8,2.36,3.63,1.62,7.49,2.81,11.34,3.86,1.15.31,1.53-1.25,1.81-2.3,1.31-4.9,2.62-9.79,4.29-16.05Zm-436.81-135.24c.27.25.55.49.82.74,6.1-3.59,12.2-7.19,19.02-11.21-4.21-2.07-7.4-3.58-10.53-5.2-1.97-1.02-3.18-.48-3.93,1.51-1.78,4.72-3.58,9.44-5.37,14.15Zm-64.51,140.11c.02-.34.04-.68.06-1.02-6.25-.83-12.49-1.7-18.74-2.48-1.19-.15-2.81-.64-3.53.4-.98,1.4.61,2.51,1.28,3.64,1.1,1.87,2.44,3.6,3.45,5.5,1.16,2.17,2.44,2.22,4.46,1.04,4.27-2.49,8.68-4.74,13.03-7.09Zm116.13-219.25c5.85-.64,12.23-1.29,18.58-2.09.9-.11,3.36.09,2.1-1.82-2.03-3.06-4.65-5.75-7.16-8.45-.96-1.03-2.03-.21-2.79.61-3.63,3.94-7.23,7.92-10.73,11.75Zm233.03-43.41c1.61-4.47,2.81-7.95,4.13-11.38.65-1.68.12-2.83-1.44-3.28-5.05-1.44-10.15-2.74-15.23-4.09-.17.31-.34.62-.52.92,4.15,5.66,8.3,11.32,13.06,17.82Zm-267.93,286c-4.36,1.85-7.89,3.31-11.38,4.85-1.23.54-2.11,1.47-1.38,2.94,2.35,4.77,4.75,9.51,7.13,14.27.32-.06.64-.11.97-.17,1.49-7,2.98-13.99,4.66-21.9Zm14.91-261.38c-.11-.15-.21-.31-.32-.46-6.26,3.19-12.53,6.36-18.78,9.56-5.28,2.7-5.39,3.24-.53,6.89,1.32,1,2.56,4.1,5.11.97,4.7-5.76,9.67-11.32,14.52-16.96Zm2.51,37.08c8.41-1.84,15.51-3.39,23.56-5.15-3.34-3.09-6.01-5.54-8.66-8.02-1.59-1.49-2.9-1.25-4.25.4-3.19,3.91-6.46,7.76-10.65,12.78Zm-68.28,321.72c4.33,2.74,7.54,4.81,10.79,6.83.96.6,2.05.89,2.89-.25,3.12-4.27,6.21-8.56,9.31-12.84-.29-.35-.59-.71-.88-1.06-6.93,2.3-13.87,4.59-22.11,7.33Zm126.41-437.48c.28-.09.57-.19.85-.28-.93-7.66-1.86-15.33-2.93-24.15-3.44,3.71-5.97,6.55-8.63,9.26-1.38,1.41-.72,2.31.32,3.46,3.5,3.86,6.93,7.8,10.39,11.71Zm-82.72,154.71c.28.25.57.51.85.76,5.75-2.58,11.51-5.15,17.25-7.77,1.1-.5,2.7-1.29.85-2.55-2.93-2-6.04-3.73-9.14-5.45-1.15-.64-2.12.12-2.66,1.16-2.41,4.6-4.77,9.23-7.14,13.85Zm366.38-61.48c-.49.26-.97.52-1.46.79.65,6.54,1.27,13.09,1.99,19.63.2,1.82,1.35,1.33,2.29.55,2.49-2.07,4.86-4.3,7.43-6.27,1.68-1.29,1.59-2.22.2-3.65-3.54-3.62-6.98-7.36-10.45-11.05Zm-60.38-41.98c3.53,7.8,6.49,14.33,9.81,21.67,2.5-4.05,4.41-7.19,6.37-10.3,1.06-1.69.69-2.89-1.05-3.77-4.66-2.34-9.32-4.68-15.12-7.6Zm-335,4.9c-1.49,4.87-2.55,8.39-3.64,11.91-.41,1.32-.33,2.51,1.08,3.13,4.82,2.14,9.66,4.22,14.5,6.32.24-.34.49-.68.73-1.02-3.96-6.36-7.93-12.72-12.67-20.34Zm21.06,285.73c1.56-4.68,2.96-8.43,4.04-12.27.86-3.03,3.91-7.08,1.95-8.88-2.24-2.05-6.17,1.19-9.44,1.83-2.54.5-3.21,1.92-2.23,4.38,1.83,4.57,3.51,9.21,5.67,14.94Zm355.26-264.65c.12,6.09,1.95,10.88,2.84,15.84.34,1.91.05,4.85,1.7,5.43,1.94.69,2.85-2.25,4.28-3.52,1.5-1.32,2.76-2.92,4.22-4.31,1.07-1.02,1.55-1.83.11-2.96-4.2-3.29-8.34-6.65-13.14-10.49Zm-157.1-48.14c5.99,4.28,11.18,8.01,16.38,11.72,1.85,1.32,2.44.4,2.46-1.44.02-2.92.04-5.84.04-8.76,0-1.91-1.02-2.72-2.89-2.76-5.02-.11-9.99.32-15.99,1.24Zm-213.67,242.75c4.88-6.79,9.04-12.58,13.75-19.13-4.46,0-7.85.1-11.24-.03-2.85-.11-3.97,1.14-3.74,3.88.39,4.61.74,9.22,1.22,15.28Zm443.63,62.86c-7.39,4.3-13.71,7.97-20.79,12.09,4.31,1.98,7.67,3.48,10.99,5.07,2.14,1.02,3.2-.08,3.9-1.87,1.85-4.71,3.65-9.45,5.9-15.28Zm-220.1,204.94c-.3-.05-.6-.1-.9-.14-2.59,7.19-5.18,14.37-8.15,22.63,4.75-1.68,8.04-2.95,11.4-3.99,1.91-.59,2.41-1.67,1.9-3.46-1.42-5.01-2.83-10.03-4.25-15.04Zm183.93-140.96c-.15-.35-.3-.69-.45-1.04-6.28,1.31-12.57,2.61-18.85,3.95-1.49.32-2.4,1.08-.98,2.48,2.3,2.28,4.68,4.47,7.06,6.65,1.53,1.4,2.83.71,3.93-.64,3.11-3.79,6.19-7.6,9.29-11.4Zm-341.38-1.74c-3.41,2.9-5.9,5.16-8.53,7.23-2.3,1.8-2.07,3.59-.21,5.39,3.49,3.39,7.06,6.7,11.25,10.67-.86-7.95-1.62-15.05-2.5-23.28Zm-14.15-17.44c-3.68,2.55-6.69,4.64-9.71,6.72-1.44.99-1.6,2.23-.57,3.55,3.17,4.06,6.4,8.07,10.27,12.94v-23.21Zm177.38-406.42c.33-.06.66-.11,1-.17,1.4-4.06,2.95-8.08,4.17-12.19.93-3.17,4.22-7.61,2.2-9.17-2.11-1.62-6.21,2.02-9.55,3.02-.15.04-.28.13-.42.19-1.48.66-2.05,1.66-1.57,3.32,1.44,4.99,2.79,10,4.18,15Zm-147.52,108.15c5.24,0,9.09.14,12.93-.04,3.15-.15,8,1.49,9.02-.89,1.12-2.62-3.04-5.5-4.73-8.36-1.36-2.31-2.91-2.34-4.88-.71-3.76,3.12-7.58,6.15-12.35,10.01Zm-107.55,204.04c-1.8,8.89-3.34,16.43-4.86,23.97-.27,1.34-.94,3.17.59,3.76,2.39.91,4.82-.33,7.14-1.03,1.47-.45,1.24-1.7,1-3.07-1.3-7.39-2.44-14.81-3.86-23.63Zm429.85,167.52l.45.73c10.59-7.94,21.19-15.86,31.74-23.85,1.05-.8,3.41-1.56,1.64-3.42-1.33-1.39-3.17-2.39-5.24-.42-9.48,9.03-19.05,17.98-28.59,26.96Zm68.83-378.22c-4.01-2.37-7.31-4.3-10.58-6.26-1.02-.61-1.94-.94-2.79.26-3.15,4.44-6.31,8.87-9.47,13.3.2.25.4.49.61.74,7.16-2.59,14.32-5.18,22.23-8.04Zm-70.66,57.84v-23.53c-3.58,2.98-6.52,5.44-9.46,7.88-1.01.84-1.2,1.78-.4,2.83,3.05,3.99,6.12,7.96,9.86,12.82Zm125.07,67.07c-2.72-4.1-4.58-6.93-6.47-9.74-.69-1.03-1.48-2.36-2.91-1.58-4.66,2.53-9.24,5.23-13.84,7.86.08.35.17.7.25,1.05,7.23.76,14.46,1.52,22.98,2.41Zm-178.98,336.06c.55.24,1.1.49,1.65.73,2.35-2.66,4.65-5.36,7.07-7.95,1.15-1.23,1.42-2.2.19-3.55-3.6-3.95-7.12-7.96-11.43-12.81.92,8.68,1.72,16.13,2.51,23.57Zm152.68-212.96c4.82,3.01,8.39,5.42,12.14,7.51,2.6,1.45,5.42,5.26,7.78,3.71,2.43-1.6-.2-5.68-.15-8.69.05-2.91-1.6-3.72-4.15-3.55-4.74.32-9.49.63-15.62,1.03Zm-42.76,133.58c1.46-4.21,2.69-7.66,3.84-11.13.33-.99.86-2.32-.42-2.91-4.87-2.24-9.68-4.69-15.48-5.23,3.88,6.21,7.77,12.41,12.06,19.27Zm-106.18-454.24c.41.29.81.58,1.22.86,3-3.23,6.13-6.34,8.95-9.72,1.98-2.36,6.78-4.39,5.36-7.03-1.34-2.5-6.28-.71-9.62-1.06-1.81-.19-2.87.66-3.2,2.54-.85,4.81-1.8,9.6-2.71,14.4Zm.55,427.44h23.54c-2.74-3.2-5.02-5.87-7.32-8.54-1.11-1.29-2.38-2.07-4-.84-3.88,2.95-7.73,5.93-12.22,9.38Zm-212.41-411.74c-8.16,0-15.72.08-23.26-.04-3.22-.05-3.38,1.18-2.04,3.58.75,1.35,1.33,2.79,1.97,4.2.64,1.4,1.58,1.69,3,1.06,6.59-2.89,13.2-5.72,20.33-8.81Zm71.6,12.68c-.34.19-.68.37-1.02.56.85,3.18.87,6.4.95,9.62.03,1.45.23,3.17,1.93,3.23,5.21.19,10.44.07,16.94.07-7.07-5.07-12.94-9.27-18.8-13.48Zm244.1,232.92c-.18-.39-.36-.78-.54-1.16-3.04,0-6.1.15-9.13-.04-2.95-.19-4.31,1.13-4.51,3.91-.3,4.34-.55,8.69-.89,14.11,5.51-6.14,10.29-11.47,15.08-16.81Zm-251.07,205.38c5.28,4.77,9.87,8.89,14.43,13.05,1.76,1.61,2.76,1.22,2.87-1.1.13-2.78.06-5.56.1-8.34.03-1.9-.91-2.75-2.78-2.96-4.57-.53-9.12-1.27-14.62-.65Zm227.43-276.2c1.64-5.26,2.99-9.17,4.06-13.16.76-2.85,3.7-6.57,1.61-8.33-1.9-1.61-5.44,1.66-8.32,2.58-2.44.77-3.51,2.06-2.4,4.82,1.71,4.25,3.11,8.62,5.06,14.1Zm-412.82,108.6c-.39-.06-.78-.13-1.17-.19-2.77,6.38-5.53,12.77-8.78,20.25,4.71-1.39,8.21-2.4,11.69-3.46,1.63-.5,2.03-1.54,1.58-3.22-1.19-4.44-2.23-8.92-3.33-13.39Zm307.7-249.88c-2.12,4.35-3.72,7.67-5.35,10.98-.65,1.31-.62,2.47.81,3.12,4.53,2.07,8.57,5.2,13.99,6.97-3.19-7.12-6.08-13.57-9.45-21.07Zm-224.26,377.68c-.35.32-.69.65-1.04.97,2.12,6.51,4.25,13.02,6.72,20.58,2.52-4.08,4.41-7.2,6.36-10.28.92-1.45.72-2.54-.72-3.51-3.79-2.56-7.55-5.17-11.32-7.76Zm171.71-380.39c-3.93-4.3-6.99-7.71-10.12-11.06-1.66-1.78-3.07-5.29-5.14-4.8-2.36.55-1.26,4.25-1.74,6.52-1.19,5.75-.71,6.27,4.95,7.34,3.57.67,7.17,1.19,12.05,2Zm-262.56,345.27c1.89,7.43,3.73,14.86,5.69,22.27.29,1.11.27,3.14,1.61,3.04,2.74-.19,4.39-2.64,6.43-4.22,1.07-.83.63-2.12-.1-2.91-5.17-5.57-9.21-11.97-13.63-18.18Zm401.17-30.94c.23.28.46.56.68.84,6.49-2.94,12.97-5.88,20.33-9.22-4.24-1.98-7.47-3.45-10.65-4.99-1.7-.83-2.89-.6-3.81,1.16-2.14,4.09-4.37,8.15-6.56,12.21Zm29.19-105.36c2.78-3.77,5.13-6.6,7.06-9.68,1.75-2.79,6.22-5.75,4.72-8.18-1.49-2.42-6.25.11-9.59.14-2.38.02-3.34,1.21-3.18,3.49.31,4.39.61,8.79.99,14.23Zm-193.11,211.26c6.94,3.96,13.09,7.47,20.09,11.47-.82-4.57-1.41-8.03-2.09-11.47-.23-1.18-.47-2.55-2.22-2.38-4.98.49-9.98.83-15.78,2.39Zm151.7-87.18c.29.28.58.56.87.84,6.61-2.23,13.22-4.46,20.75-7.01-4.03-2.5-7.04-4.37-10.04-6.23-1.38-.86-2.56-.84-3.56.65-2.65,3.93-5.34,7.83-8.02,11.74Zm-385.37-104.11c-2.74,4.73-5.05,8.37-6.99,12.19-1.26,2.49-4.67,5.06-3.11,7.44.95,1.45,5.04-.73,7.74-.9,4.01-.27,4.91-2.44,4.37-5.88-.62-3.93-1.23-7.86-2.01-12.85Zm104.36-220.8c2.15,3.97,3.9,7.15,5.6,10.35.91,1.7,2.2,1.99,3.85,1.19,4.23-2.04,8.45-4.09,13.76-6.67-8.28-1.74-15.29-3.21-23.22-4.88Zm320.95,177.57c.33.06.66.13.99.19,1.91-3.32,3.91-6.59,5.69-9.98,1.45-2.77,5.3-6.31,3.61-8.17-1.87-2.06-6.28.54-9.6,1.04-.3.05-.6.15-.91.2-1.52.26-2.01,1.15-1.79,2.65.7,4.69,1.34,9.38,2,14.07Zm8.87,75.84c-3.95-1.97-7.57-2.11-10.95-3.09-1.82-.52-2.99.34-3.51,2.1-1.34,4.52-2.66,9.05-4.32,14.71,6.73-4.91,12.44-9.09,18.78-13.72Zm-415.71-172.45c4.08,2.56,7.28,4.59,10.51,6.57.98.6,2.04.81,2.84-.36,2.71-3.96,5.41-7.92,8.12-11.87-.32-.33-.64-.66-.97-.99-6.5,2.11-13,4.22-20.51,6.65Zm375.04,257.45c-3.79-2.91-6.8-5.24-9.82-7.56-.82-.63-1.8-.84-2.52-.04-3.4,3.79-7.01,7.42-10.25,12.52,7.86-1.71,14.74-3.21,22.6-4.92Zm-323.44-296.38c-.14-.36-.28-.72-.41-1.07-4.25.44-8.56.57-12.73,1.41-2.62.53-7.04-.85-7.5,1.57-.51,2.66,3.67,4.43,5.71,6.67,1.72,1.89,3.48,2.23,5.52.22,3.05-3.02,6.27-5.88,9.41-8.8Zm328.62,52.66c.87-7.56,1.58-13.61,2.23-19.68.09-.87.36-1.99-.58-2.53-.96-.56-1.72.34-2.45.83-2.17,1.46-4.31,2.97-6.45,4.48-1.04.73-2.11,1.53-1.23,3,2.57,4.27,5.19,8.51,8.48,13.89Zm-120.16,307.5c-.12.35-.24.69-.37,1.04,6.89,2.18,13.78,4.37,21.46,6.8-1.69-4.06-3.1-7.13-4.25-10.3-.92-2.55-2.42-2.74-4.68-1.87-4.02,1.53-8.11,2.9-12.17,4.33Zm-96.71,22.65c1.88-4.11,1.32-7.77,2.17-11.2.35-1.41-.07-2.51-1.58-2.81-4.71-.94-9.44-1.82-14.16-2.72-.18.36-.36.72-.54,1.09,4.58,5.08,9.15,10.15,14.11,15.65Zm-172.11-290.42c-.34-.21-.69-.42-1.03-.64-5.6,4.08-11.2,8.17-17.76,12.95,4.67,1.1,8.08,1.84,11.45,2.72,1.88.49,2.93-.08,3.46-1.92,1.27-4.38,2.58-8.74,3.88-13.11Zm289.57,259.95l.32,1.02c6.89,1.39,13.79,2.79,21.49,4.35-2.17-4.08-3.93-7.31-5.62-10.58-.81-1.55-1.86-1.85-3.41-1.07-4.24,2.13-8.52,4.2-12.78,6.29Zm-173.68,0c-.25.27-.5.54-.75.81,3.53,6.04,7.06,12.09,11.18,19.16,1.63-4.66,2.76-7.99,3.96-11.28.57-1.56.31-2.67-1.33-3.34-4.36-1.77-8.71-3.56-13.06-5.35Zm296.48-149.84c6.21-4.66,11.08-9.54,16.27-14.46-3.85-1.8-7.54-1.08-10.96-2.01-1.83-.5-3.08.6-3.28,2.36-.5,4.4-2.13,8.65-2.03,14.11Zm-422.69-44.93c-.36-.05-.72-.1-1.09-.16-4.2,5.86-8.4,11.72-12.92,18.04,3.92-.2,6.83-.42,9.75-.47,2.78-.05,4.34-1.09,4.28-4.12-.09-4.43-.02-8.86-.02-13.29Zm84.45-187.11c2.67,3.8,4.82,6.79,6.88,9.84.95,1.41,1.9,1.81,3.44.83,3.98-2.53,8.01-4.96,12.03-7.43-.09-.35-.18-.7-.26-1.05-7-.69-14-1.39-22.08-2.19Zm273.32,30.21c-1.6-7.43-2.87-13.44-4.23-19.44-.2-.89-.6-2.98-1.69-1.92-2.73,2.67-5.37,5.67-7.11,9.02-1.1,2.11,2.16,2.92,3.49,4.21,2.65,2.54,5.58,4.79,9.54,8.13Zm-345.24,265.62c4.19-2.25,7.26-3.95,10.38-5.56,1.71-.88,2.1-2.01,1.24-3.74-2.17-4.36-4.26-8.75-6.76-13.91-1.66,7.94-3.13,14.96-4.86,23.21Zm57.15,49.33c-.07,4.85,1.19,8.46,2.06,12.1.73,3.04.09,8.19,2.7,8.55,2.83.39,4.23-4.61,6.48-7.07.31-.34.55-.74.83-1.11.68-.91.5-1.75-.3-2.44-3.69-3.17-7.4-6.31-11.76-10.02Zm272.52,29.76c-2.8-4.09-4.78-6.98-6.77-9.88-.94-1.37-2.14-1.7-3.58-.8-4.11,2.56-8.2,5.14-13.17,8.26,8.11.83,15.1,1.55,23.52,2.42Zm-182.72,33.65c1.07-4.31,1.89-7.71,2.76-11.11.32-1.26.55-2.76-.82-3.23-4.64-1.6-9.25-3.45-15.31-3.98,4.69,6.42,8.74,11.96,13.38,18.32Zm-131.3-114.76c-.34.08-.68.16-1.01.24-.68,7.04-1.37,14.08-2.14,22.07,3.69-2.53,6.43-4.5,9.26-6.33,2.01-1.3,2.13-2.78.94-4.67-2.37-3.76-4.7-7.54-7.04-11.31Zm350.1,49.82c-3.32-3.06-5.99-5.53-8.68-7.98-.89-.81-1.88-1.09-2.88-.16-3.73,3.45-7.46,6.91-11.19,10.36,7.6-.47,14.82-.35,22.74-2.22Zm-185.52-368.09c-4.44-2.57-8.07-4.84-11.86-6.79-2.54-1.31-5.7-4.84-7.48-3.35-1.89,1.58.41,5.64.73,8.63.32,3,1.76,4.05,4.61,3.61,4.36-.67,8.72-1.31,14-2.09Zm-45.08,9.54c-6.74-3.05-13.23-5.7-20.94-7.31,1.66,4.05,3.02,7.28,4.31,10.54.73,1.85,2,2.11,3.7,1.48,4.31-1.58,8.62-3.14,12.93-4.71Zm131.86-.14c.24-.27.48-.55.71-.82-2.25-3.08-4.42-6.22-6.78-9.22-1.88-2.38-3.65-7.18-5.71-6.54-2.97.92-2.13,5.79-3.25,8.87-.8,2.19-.09,3.48,2.19,4.09,4.29,1.15,8.56,2.41,12.84,3.62Zm12.13-76.68c-11.73-7.86-25-10.97-41.01-10.2,13.67,3.4,27.34,6.8,41.01,10.2Zm-13.94,497.33c-1.39-4.6-2.44-8.1-3.5-11.59-.5-1.63-1.64-2.16-3.23-1.77-4.57,1.14-9.14,2.31-14.99,3.79,7.61,3.35,14.02,6.17,21.72,9.56Zm24.3-411.99c-3-5.2-5.37-9.33-7.76-13.45-.77-1.34-1.52-2.69-2.36-3.98-.74-1.13-1.82-2.96-2.78-.43-1.3,3.43-3.85,6.99-3.02,10.47.64,2.69,4.87,2.65,7.47,3.9,2.36,1.13,4.83,2.01,8.46,3.5Zm-187.46,399.03c2.05-4.24,3.59-7.39,5.08-10.57.53-1.12,1.03-2.37-.43-3.23-4.24-2.49-8.46-5.04-14.15-7.14,3.35,7.39,6.18,13.63,9.49,20.94Zm-96.27-291.41c-.25-.29-.5-.57-.75-.86-6.05,3.5-12.1,7.01-18.63,10.79,3.91,2.36,7.7,3.07,11.26,4.35,1.81.65,2.47-.49,3.05-1.9,1.67-4.14,3.38-8.26,5.08-12.38Zm150.73-121.85c.08-.36.16-.73.23-1.09-3.63-1.61-7.2-3.39-10.92-4.76-2.77-1.02-6.04-4.48-8.15-2.44-1.56,1.5,1.2,5.58,1.85,8.56.54,2.5,1.64,3.71,4.5,2.86,4.11-1.22,8.32-2.1,12.49-3.13Zm258.18,284.77c-.08-.42-.16-.85-.24-1.27-3.19-1.1-6.38-2.18-9.57-3.29-1.06-.37-2.41-.8-2.94.33-2.07,4.45-3.91,9.01-5.84,13.53l1.2.8,17.39-10.11Zm-191.33-288.37c.14-.33.29-.66.43-.99-2.87-2.56-5.64-5.24-8.64-7.63-2.35-1.87-5.04-6.49-6.79-5.23-2.6,1.88-.79,6.56-1.05,10.04-.11,1.54.54,2.77,2.3,2.9,4.58.33,9.17.61,13.76.91Zm97.27,17.81c-2.57,4.11-4.43,7.11-6.31,10.1-.73,1.16-1.05,2.33.28,3.25,4.07,2.83,8.17,5.62,12.26,8.42.21-.26.42-.52.63-.79-2.14-6.57-4.29-13.14-6.85-20.99Zm-328.6,149.66c-5.98,4.48-11.79,8.63-16.75,14.55,3.93.48,7.13.83,10.32,1.27,2.51.34,3.73-.84,4.15-3.19.74-4.21,1.52-8.42,2.28-12.63Zm28.17-94.19c3.94,3.01,6.83,5.25,9.74,7.45.96.73,2.05.93,2.88-.13,3.05-3.89,6.85-7.22,9.8-12.33-7.66,1.71-14.46,3.23-22.43,5.01Zm-24.98,40.43c4.37,2.12,7.76,3.79,11.19,5.39.87.41,1.87.44,2.43-.57,2.39-4.32,4.75-8.66,7.12-13-.34-.25-.68-.5-1.02-.75-6.23,2.82-12.46,5.64-19.71,8.92Zm400.77,11.12c.41-.06.81-.13,1.22-.19.79-3.75,1.73-7.47,2.31-11.25.45-2.93,3.18-6.87.71-8.52-2.12-1.42-5.26,2.28-8.04,3.53-1.93.86-3.04,2.09-1.93,4.37,1.95,4,3.83,8.04,5.73,12.06Zm-398.31,152.88c-.38.05-.77.09-1.15.14-2.15,6.62-4.3,13.23-6.74,20.75,4.29-1.77,7.52-3.18,10.8-4.43,1.81-.69,2.38-1.73,1.72-3.54-1.57-4.3-3.09-8.61-4.63-12.92Zm43.38,77.53c.56,5.52,1.18,12.04,1.89,18.54.19,1.69,1.29,1.6,2.26.65,2.32-2.27,4.54-4.65,6.82-6.96,1.24-1.26.54-2.29-.45-3.15-3.58-3.14-7.21-6.22-10.53-9.08Zm378.89-207.92c-4.6,1.34-7.83,2.26-11.05,3.23-1.66.5-2.76,1.51-2.3,3.39,1.12,4.63,2.32,9.25,3.75,14.88,3.36-7.52,6.22-13.93,9.6-21.5Zm-58.97-76.81c-1.22-8.08-1.04-15.38-3.04-23.15-2.89,2.97-5.08,5.34-7.41,7.56-1.76,1.67-1.57,3.01.06,4.65,3.25,3.28,6.37,6.69,10.4,10.94Zm-333.68,287.76c3.99-1.83,6.3-5.02,9.32-7.28.87-.65.78-1.66.17-2.48-2.9-3.85-5.83-7.67-9.49-12.46v22.22Zm173.16,65.96c-.11.41-.21.82-.32,1.23,3.12,2.25,6.15,4.64,9.39,6.71,2.63,1.68,5.62,5.98,7.8,4.39,2.34-1.71-.05-6.33-.15-9.7-.06-1.93-.85-2.72-2.85-2.67-4.62.11-9.25.03-13.87.03Zm-124.22-385.16h-22.89c2.92,3.38,5.3,6.14,7.7,8.9.98,1.13,2.14,1.22,3.29.34,3.75-2.88,7.48-5.79,11.91-9.24Zm-88.33,149.58c-5.13,5.79-9.66,10.9-15.13,17.07,4.83,0,8.18.01,11.54,0,1.52,0,2.91-.44,2.96-2.22.14-4.59,1.67-9.11.63-14.85Zm162.41-263.46c-.1-.38-.19-.77-.29-1.15-15.05-1.12-30.81,2.55-39.19,9.42,13.53-2.83,26.51-5.55,39.48-8.26Zm-205.61,145.91c-.48-.26-.95-.51-1.43-.77-6.77,10.85-16.54,20.26-16.16,35.65,6.16-12.22,11.87-23.55,17.59-34.88Zm54.51-72.18c10.99-8.46,20.92-16.1,30.86-23.75-.33-.41-.66-.82-.99-1.24-10.83,6.49-23.19,11.04-29.87,24.98Zm68.23,432.29c4.36,5.14,8.68,10.31,13.1,15.4.77.88,2.04,3.02,3.07.82,1.1-2.34,5.16-5.35,2.12-7.38-5.52-3.69-11.44-7.07-18.29-8.84Zm325.54-435.51c.27-.33.53-.66.8-.99-10-9.75-17.74-22.31-33.16-25.73,10.91,9.01,21.63,17.87,32.36,26.72Zm-484.64,240.18c.07-13.27.02-26.58.15-39.9-3.57,13.37-6.03,26.73-.15,39.9Zm93.69-53.55c4.1-1.31,6.22-4.56,9.08-6.78,2-1.56,5.59-3.12,4.97-5.44-.57-2.15-4.59-1.51-6.97-2.44-3.63-1.41-4.72.61-5.22,3.6-.58,3.47-1.17,6.93-1.86,11.05Zm172.63,283.12c-.06.24-.12.47-.19.71,6.41,2.85,12.8,5.75,19.25,8.5,1.16.49,3.25,2.21,3.57-.48.26-2.24,1.88-5.98-1.84-6.6-6.86-1.15-13.86-1.47-20.8-2.14Zm-144.84-331.95c-9.87-7.32-11.11-7-15.24,3.39-.23.57-.48,1.14-.75,1.69-.4.83-1.03,1.81-.32,2.56.87.9,2.16.39,3.03-.08,4.31-2.35,8.55-4.85,13.27-7.56Zm146.31,261.51c-.5,3.86-.92,6.85-1.26,9.85-.23,2,.53,3.11,2.75,3.38,3.05.37,6.05,1.16,9.16.84.86-.09,2.08.32,2.29-.89.1-.59-.45-1.47-.96-1.96-3.75-3.59-7.56-7.11-11.97-11.22Zm290.87-294.21c.39-.19.79-.37,1.18-.56-4.75-12.49-6.12-26.57-18.16-36.44,5.87,12.78,11.42,24.89,16.98,36.99Zm-466.55,122.9c5.28-5.05,8.54-10.11,12.34-15.14-12.62-1.89-12.89-1.67-12.68,10.07.02,1.21.16,2.42.35,5.07Zm108.42-174.22c-1.79-3.43-3.25-5.93-4.44-8.56-1.23-2.73-2.85-2.71-5.07-1.24-3.39,2.23-6.85,4.34-10.51,6.65,6.56,1.67,12.81,2.13,20.02,3.15Zm111.17,358.65c2.76.69,5.48-1.06,8.43-.9.75.04,1.78.04,1.86-.88.06-.64-.38-1.6-.91-1.96-2.16-1.47-4.37-2.89-6.69-4.09-2.4-1.26-5.05-4.64-7.04-3.41-2.16,1.33.35,5.04.08,7.76-.29,2.86.76,4.56,4.26,3.5Zm159.76-155.65c4.28,1.01,7.24,1.67,10.19,2.41,1.79.45,3.07.03,3.44-1.9.78-4,1.5-8.01,2.36-12.65-6.32,2.94-10.17,7.77-15.99,12.14Zm-126.44,135.86c.17,1.37.17,1.83.29,2.26,3.96,13.36,1.51,10.41,13.34,6.67.96-.3,2.38-.24,2.37-1.73-.01-1.42-1.05-2.14-2.31-2.56-4.36-1.47-8.72-2.95-13.69-4.64Zm41.2-335.91c2.31-3.69,3.98-6.43,5.73-9.11,1.15-1.75.55-2.81-1.12-3.68-3.65-1.89-7.27-3.82-11.3-5.95.69,6.73,4.44,11.79,6.69,18.74Zm-287.63,211.43c3.38-2.75,4.48-6.2,5.95-9.39,1.01-2.19,3.66-4.74,2.39-6.6-1.45-2.13-4.48.32-6.88.36-3.8.06-5.57,1.51-3.88,5.74,1.18,2.95,1.55,6.22,2.41,9.89Zm215.99-306.18c-6.04-2.71-12.05-5.48-18.13-8.09-1.23-.52-3.54-2.52-3.74.61-.15,2.36-2.04,6.47,2.09,6.95,6.48.75,13.1.03,19.77.53Zm36.57,78.59c1.35-3.91,2.37-6.95,3.46-9.96.56-1.57.35-2.74-1.37-3.31-3.99-1.31-7.9-2.93-12.47-3.42,2.51,6.23,6.67,10.77,10.38,16.69Zm67.28,38.73c2.16-2.39,4.32-4.78,6.48-7.17.72-.8,1.75-1.68.59-2.73-3.36-3.02-7.17-5.49-10.39-8.86-.77,6.53,1.08,12.25,3.33,18.77Zm-159.73-59.08c3.56,4.39,8.56,6.28,12.87,9.16,1.02.68,2.5,1.29,2.67-.81.27-3.24.2-6.76-1.37-9.42-1.43-2.41-4.45-.5-6.8-.28-2.44.24-4.91.13-7.36,1.35Zm-235.77,307.47c-.4.19-.8.38-1.19.57,3.41,12.28,6.14,24.88,17.23,34.36-5.56-12.1-10.79-23.51-16.03-34.92Zm178.28,64.62c.2-3.66-1.51-6.47-2.82-9.31-1.17-2.51-1.32-7.1-4.01-6.93-2.49.16-3.43,4.64-5.12,7.17-.76,1.14-.91,2.46.44,3.21,3.69,2.03,6.99,4.87,11.51,5.86Zm-82.54-100.78c.5-1.99.09-2.85-2.3-2.26-8.61,2.12-9.41,3.58-5.78,11.37.39.84.8,1.67,1.25,2.49.49.91.63,2.43,1.9,2.3,1.25-.13,2.06-1.34,2.36-2.59.9-3.76,1.71-7.54,2.56-11.31Zm117.48-252.96c-1.02-3.49-1.87-5.95-2.44-8.48-.69-3.07-2.12-4.1-5.24-2.82-3.46,1.42-7.06,2.5-10.65,3.74,5.6,3.57,11.61,5.19,18.33,7.56Zm240.03,246.63c-6.34,1.34-11.06,5.08-16.51,7.92,10.32,7.35,10.71,7.26,15.27-3.45.53-1.25,1.49-2.38,1.23-4.47Zm-37.06,41.32c12.73,10.38,9.12,9.29,16.74-1.07.53-.71,1.01-1.46,2.23-3.24-7.11-.08-12.52,2.79-18.97,4.3Zm141.6-135.45c.69,13.59-1.16,27.17-.2,40.76,2.57-13.58,6.29-27.16.2-40.76Zm-340.33,216.4c-1.36-3.32-2.63-6.04-4.54-8.44-1.95-2.46-3.23-5.47-6.13-7.91-1.23,3.49-2.19,6.41-3.29,9.28-.75,1.94.02,2.93,1.79,3.46,3.93,1.18,7.87,2.34,12.16,3.61Zm72.3-376.32c3.68-10.84,3.08-11.91-6.56-13.16-.91-.12-1.78-.58-2.68-.64-.88-.06-2.13-.14-2.59.36-.9.98.02,2.08.75,2.8,3.51,3.45,7.09,6.82,11.09,10.63Zm148.66,111.77c4.23-1.7,7.05-2.84,9.88-3.97,2.05-.82,2.27-2.19,1.4-4.06-1.6-3.44-2.96-7-5.64-10.28-3.41,5.47-3.14,11.61-5.65,18.31Zm-338.59-33.89c4.11-1.06,7.26-.45,10.09-1.88,2.56-1.3,7.42-.69,7.56-3.21.17-2.93-4.43-4.13-6.81-6.26-1.44-1.29-2.39-.72-3.35.7-2.23,3.3-4.57,6.52-7.49,10.65Zm359.77,53.59c-2.43,2.71-4.25,5.62-5.51,8.84-.92,2.36-3.81,4.95-2.17,7.05,1.67,2.15,4.87-.32,7.44-.33,2.84-.02,3.73-1.64,3.04-4.32-.96-3.71-1.85-7.44-2.8-11.24Zm-346.44,178.18c3.15-2.96,1.59-6.68,1.74-9.97.12-2.66,2.14-6.62-.12-7.69-2.2-1.04-4.7,2.68-7.22,4.04-2.45,1.32-2.82,2.92-.99,5.14,2.24,2.72,4.33,5.56,6.59,8.48Zm27.58,10.33c-3.26,3.79-7.89,6.07-8.07,9.6-.11,2.16,4.8,4.58,7.45,6.89.23.2.46.41.66.64.62.66,1.22,1.59,2.26.93.8-.51,1.21-1.43,1.01-2.41-1.02-4.93-2.08-9.84-3.32-15.66Zm221.51,26.66c-3.94-.21-4.13.08-2.37,3.67q3.75,7.63,11.23,3.22c1.06-.62,2.09-1.28,3.13-1.93.76-.48,1.88-1.03,1.53-1.96-.25-.67-1.36-1.28-2.17-1.42-3.77-.63-7.56-1.08-11.35-1.58Zm-235.82-301.08c5.91.86,11.2-.03,16.5-.62,2.29-.25,2.01-1.13.92-2.66-5.88-8.28-6.78-8.34-13.68-.65-1.09,1.22-2.25,2.38-3.73,3.93Zm276.89,277c-3.23.72-6.92.8-10.61.87-2.05.04-3.11.69-1.37,2.71,1.71,1.98,3.39,3.98,5.09,5.96.91,1.06,1.89,1.56,3.12.41,2.12-1.99,4.31-3.92,6.36-5.99.7-.71,1.73-1.62,1.1-2.79-.67-1.24-2.02-1.23-3.68-1.16Zm-175.85,150.38c-13.19-3.26-25.98-6.43-38.77-9.59,11.91,7.12,24.59,10.88,38.77,9.59Zm194.55-414.07c-2.44,3.64-1.72,7.29-1.74,10.78-.02,2.24-1.28,5.55.64,6.5,2.18,1.08,4.07-2.07,6.2-3.16,3.13-1.6,3.26-3.7,1.1-6.3-2.07-2.48-4.01-5.06-6.2-7.83Zm43.72,113.82c-3.69,2.55-5.71,5.9-7.98,8.99-1.12,1.52-3.82,2.94-2.71,4.84.94,1.62,3.72.65,5.67.71,5.29.14,6.89-1.66,6.26-6.92-.29-2.41-.77-4.8-1.24-7.62Zm55.5,151.93c.37.18.74.37,1.11.55,6.66-11.05,16.25-20.63,16.73-35.6-6.18,12.13-12.01,23.59-17.84,35.05Zm-416.94,100.92c-10.08-8.35-19.48-16.14-28.88-23.93-.27.33-.54.66-.81.99,8.3,9.13,15.72,19.33,29.69,22.94Zm360.88-236.01c-4.25,0-7.44-.02-10.63,0-1.4.01-2.47.62-2.52,2.14-.12,3.99-1.27,7.96-.52,12.62,4.6-4.97,8.75-9.45,13.67-14.77Zm-.16,208.53c-9.73,7.44-19.46,14.88-29.19,22.32,10.15-2.69,23.61-12.85,29.19-22.32Zm-237.1-33.86c4.71,5.4,8.65,9.91,12.86,14.72,3.69-11.77,3.23-12.53-8.01-14.2-1.19-.18-2.4-.26-4.84-.52Zm2.48-360.14c-6.69-3.08-12.15-5.6-17.97-8.28q2.05,12.6,13.47,9.62c1.02-.27,2.02-.6,4.49-1.34Zm-71.79,32.22c-6.33-1.2-12.14-2.67-18.54-1.48,2.34,2.76,4.3,5.11,6.3,7.43.98,1.13,2.04,1.88,3.54.7,2.88-2.25,5.79-4.44,8.69-6.66Zm194.51,426.85c-6-.12-33.63,6-35.86,7.95,23.23-1.62,26.08-2.25,35.86-7.95Zm90.67-334.47c2.36-7,4.28-12.71,6.33-18.77-11.64,2.56-11.95,3.08-8.46,13.08.5,1.43,1.06,2.84,2.13,5.69Zm-83.18,228.6c-.96-3.82-2.85-6.42-4.34-9.2-.45-.84-1.31-1.6-2.26-1.17-3.75,1.7-7.97,2.61-11.39,6.19,6.22,1.45,11.82,2.75,17.98,4.18Zm-93.27,10.74c-.1.32-.21.64-.31.96,4.79,3.6,9.58,7.2,15.01,11.28,0-3.26-.02-5.39,0-7.52.04-3.46-1.52-5-5.1-4.76-3.19.22-6.4.05-9.6.05Zm194.75-219.36c-4.33.78-7.17,1.36-10.04,1.8-1.65.25-2.54.89-2.3,2.71.51,3.87.36,7.85,2.01,12.38,3.46-5.66,6.55-10.71,10.32-16.89Zm-330.56-88.37c-7.18,1.48-13.15,2.71-20.19,4.16,3.46,2.61,5.88,4.46,8.33,6.28,1.1.82,2.2,1.07,3.23-.16,2.62-3.13,5.25-6.25,8.64-10.28Zm263.47,273.45c-2.32-2.81-4.25-5.15-6.17-7.49-1.05-1.28-2.12-1.57-3.55-.42-3.09,2.49-6.27,4.87-10.21,7.91h19.93Zm9.23-290.84c-.41-.1-.81-.21-1.22-.31-2.15,2.37-4.3,4.73-6.45,7.1-.86.95-.91,1.88.02,2.83,2.74,2.81,5.48,5.62,8.22,8.43.3-.16.6-.33.9-.49-.49-5.85-.98-11.7-1.47-17.55Zm24.08,50.5c.88-7.16,1.62-13.2,2.51-20.47-3.65,2.54-6.39,4.42-9.1,6.35-1.71,1.21-.58,2.45.11,3.6,1.91,3.17,3.88,6.3,6.48,10.51Zm1.37,182.77c2.98-1.28,5.86-2.39,8.61-3.75,1.99-.99,5.55-.94,5.55-3.25,0-2.14-3.51-2.44-5.52-3.44-1.5-.75-3.42-2.53-4.9-.35-1.89,2.77-3.36,5.85-4.93,8.83-.71,1.35-.13,2.03,1.19,1.96Zm-265.89,75.98c2.18-3.54,3.94-6.37,5.67-9.22.76-1.26.47-2.3-.78-3.14-3.24-2.16-6.45-4.36-10.7-7.25,2.11,7.12,3.84,12.95,5.82,19.61Zm-56.73-76.72c-.95,7.2-1.75,13.25-2.67,20.23,3.29-2.23,5.87-4.09,8.56-5.76,1.93-1.2,1.86-2.31.65-4.06-2.09-3.02-3.93-6.22-6.54-10.41Zm352.75-44.87c-4.25-1.05-7.23-1.78-10.2-2.53-1.18-.3-2.38-.13-2.75,1.04-1.17,3.72-3.29,7.22-3.01,12.31,5.37-3.64,10.14-6.87,15.96-10.82Zm-285.93-219.36c1.97,3.65,3.34,6.21,4.74,8.76.69,1.26,1.48,2.58,3.2,1.73,3.59-1.78,7.44-3.09,11.23-5.97-6.48-1.53-12.28-2.89-19.17-4.51Zm18.12,341.21c2.85,7.05,7.03,14.22,9.34,16.26,5.38-13.62,4.96-10.17-6.19-15.16-.81-.36-1.69-.59-3.16-1.1Zm-60.46-26.88c9.03-5.88,9.28-7.29,2.36-14.28-1.25-1.26-2.18-2.97-4.37-3.64,1.04,6.07.05,12.13,2,17.93Zm162.53-336.4c-.51,4.03-.92,7.19-1.3,10.36-.13,1.08-.31,2.3,1.17,2.62,3.82.81,7.6,2.06,12.49,1.46-4.27-4.98-8.02-9.36-12.37-14.43Zm-218.39,148.91c4.07,1.05,6.85,1.8,9.64,2.47,1.99.48,3.25-.33,3.8-2.33.98-3.52,2.01-7.03,3.32-11.58-5.83,3.98-10.79,7.37-16.76,11.44Zm328.39,170.01c4.49-.8,7.62-1.25,10.68-1.94,2.61-.59,7.42-.29,7.33-2.13-.16-3.21-4.62-4.32-7.14-6.47-.85-.73-1.75-.31-2.41.47-2.53,2.99-5.05,6.01-8.46,10.07Zm-81.69,64.92c-.17-3.79-1.46-6.58-2.38-9.45-.58-1.81-2.02-2.24-3.68-1.9-3.69.75-7.36,1.61-12.11,2.66,6.57,3.14,12.13,5.8,18.17,8.69Zm-238.55-170.33c-2.74,4.44-4.92,7.64-6.73,11.03-.95,1.79-3.73,3.54-2.3,5.48,1.12,1.52,3.7-.41,5.69-.49,4.21-.16,6.2-1.87,4.72-6.5-.83-2.6-.83-5.46-1.38-9.52Zm258.53-186.64c.26-.3.52-.61.78-.91-2.81-5.11-5.62-10.23-8.93-16.28-1.43,3.96-2.35,6.72-3.44,9.42-.71,1.77-.42,2.94,1.42,3.67,3.4,1.34,6.78,2.74,10.17,4.11Zm29.09.47c-2.28,3.73-3.87,6.32-5.44,8.93-.72,1.2-.76,2.48.46,3.29,3.21,2.14,6.07,4.9,10.51,6.39-1.85-6.22-3.49-11.75-5.53-18.61Zm-281.93,82.91c3.63,1.72,6.41,3.02,9.16,4.34,1.22.59,2.48.86,3.27-.48,2.02-3.44,4.49-6.69,5.58-11.36-6.2,2.58-11.69,4.87-18.01,7.5Zm2.09,141.23c-1.83,5.01-3.26,8.9-4.68,12.79-.26.72-.51,1.45-.76,2.18-.29.86-.87,1.79.04,2.54.87.72,1.73.02,2.58-.26,8.09-2.72,8.24-3.01,5.31-11-.63-1.72-1.35-3.4-2.5-6.25Zm161.66-252.18c-.8,3.95.07,6.97.43,10.02.14,1.17.48,2.17,1.89,2.18,4,.02,8,0,12,0,.03-.42.06-.85.1-1.27-4.65-3.53-9.3-7.05-14.42-10.94Zm104.83,435.73c5.47,0,11.8.04,18.12-.03,1.3-.01,3.3.64,3.7-.97.49-1.99-1.04-3.78-2.04-5.48-.93-1.59-2.21-.48-3.25-.04-5.79,2.48-11.48,5.19-16.54,6.53Zm-287.01-245.63c4.22.27,8.89,2.14,11.03-.64,2.41-3.14,2.22-8.02,1.59-13.2-4.85,4.85-8.91,8.76-12.62,13.85Zm325.3-215.07c.16-.16.32-.31.48-.47-3.79-4.52-7.57-9.04-11.36-13.56-.53-.63-1.12-.97-1.96-.45-2.36,1.47-2.52,6.37-.07,7.73,4.24,2.36,8.6,4.51,12.91,6.75Zm-135.62-80.37c-8.95-7.46-11.59-7.56-20.6-1.05,6.67,1.35,13.23,1.14,20.6,1.05Zm258.3,262.48c-.24,0-.48.02-.72.03-1.29,5.04-2.5,10.11-3.9,15.12-.72,2.59.17,3.21,2.65,3.18,3-.04,4.29-1.29,3.91-4.22-.62-4.71-1.29-9.41-1.94-14.11Zm-261.4-211.56c4.04,3.4,8.84,4.37,13.3,6.15,1.2.48,3.21,1.99,3.53-.7.23-1.98,1.37-5.16-2.31-5.38-4.82-.28-9.67-.07-14.51-.07Zm264.41,237.08c-.26,0-.52-.02-.79-.03-1.77,4.92-3.57,9.84-5.3,14.78-.38,1.09-1.34,2.39-.1,3.4,1.29,1.05,2.97.7,4.46.43,1.53-.27,1.71-1.6,1.71-2.88.01-5.23,0-10.47,0-15.7Zm-3.03,53.22l-.8-.17c-2.69,4.29-5.39,8.57-8.04,12.89-.53.86-1.65,1.82-.75,2.87,1.31,1.52,3.36,1.39,5.14,1.55,1.35.12,1.56-1.18,1.76-2.28.88-4.96,1.79-9.91,2.69-14.86Zm-158.51-273.72c4.03,4.29,7.58,8.09,11.17,11.86,1.29,1.35,2.75,1.19,3.12-.58.36-1.7,4.05-3.53.5-5.23-4.64-2.22-9.54-3.92-14.79-6.04Zm105.61,392.29c-.16-.11-.33-.21-.49-.32-4.49,2.36-9.01,4.67-13.45,7.11-1.09.6-3.05.95-2.45,2.78.53,1.62,2.02,2.73,3.55,3.47,1.42.68,2.26-.54,3.05-1.46,3.28-3.85,6.54-7.72,9.8-11.59Zm-374.16-334.43c5.1-2.06,9.89-4.02,14.7-5.93,1.82-.72,2.64-1.89,1.08-3.4-1.29-1.25-2.15-4.7-4.85-2.15-3.73,3.53-7.11,7.43-10.93,11.47Zm243.13,419.57c0-.24,0-.47,0-.71-5.01-.66-10.02-1.32-15.03-1.97-1.16-.15-2.64-1.08-3.4.23-1,1.73.19,3.59.59,5.32.41,1.79,2.04.9,3.11.66,4.93-1.12,9.83-2.35,14.73-3.53Zm37.33-528.09c7.03,3.42,13.22,6.44,20.13,9.8-7.56-11.9-4.12-10.38-20.13-9.8Zm-327.32,400.26c-.69-6.44.46-12.84-1.14-19.54-2.03,1.94-7.15.24-5.57,5.05,1.65,5.02,4.43,9.68,6.71,14.49Zm110.56-338.84c.11.29.23.58.34.87,4.88-.32,9.76-.61,14.64-.98,1.14-.09,2.87.62,3.28-.81.53-1.86-.89-3.47-1.79-5.02-.82-1.43-2.13-.76-3.25-.24-4.41,2.05-8.81,4.12-13.22,6.19Zm49.17-18.77c.04.27.09.54.13.8,5,.7,10,1.45,15.01,2.04,1.06.13,2.89.96,3.15-.7.24-1.55-.37-3.31-.88-4.89-.43-1.32-1.65-1.08-2.74-.81-4.89,1.19-9.78,2.37-14.67,3.55Zm-184.14,282.26c.23.02.46.05.68.07,1.34-5.42,2.69-10.84,3.99-16.27.2-.85.42-1.78-.95-2.1-3.32-.8-6.18,1.52-5.74,4.89.58,4.48,1.33,8.94,2.01,13.41Zm426.98-217.24c2.3,5.7,4.13,10.23,5.95,14.75.34.84.61,2.21,1.52,2.02,1.99-.41,3.35-2.04,4.66-3.5.77-.86.06-1.74-.62-2.38-3.52-3.36-7.06-6.69-11.51-10.89Zm-138.37-70.65c-.12.21-.24.42-.36.62,4.28,2.65,8.55,5.31,12.84,7.93,1.01.62,2.17,1.94,3.25,1.08,1.32-1.05,1.52-2.94,1.5-4.63-.02-1.77-1.32-2.15-2.8-2.41-4.82-.83-9.62-1.73-14.42-2.6Zm204.13,313.41c-.28-.13-.56-.26-.83-.38-3.03,3.89-6.07,7.76-9.06,11.68-.7.92-2.04,1.9-.86,3.19,1.19,1.3,2.96,1.68,4.64,1.86,1.45.16,1.61-1.23,1.91-2.22,1.43-4.7,2.81-9.42,4.2-14.13Zm-129.03-289.25c-.13.19-.27.38-.4.57,3.3,3.97,6.59,7.94,9.91,11.89.66.79,1.34,2.18,2.46,1.69,1.77-.77,2.25-2.8,3.07-4.4.69-1.34-.51-1.91-1.43-2.42-4.52-2.46-9.07-4.89-13.6-7.32Zm-366.79,238.23l.78.1c1.69-4.59,3.43-9.17,5.03-13.79.42-1.21,1.58-2.65.31-3.85-1.21-1.15-2.93-.82-4.4-.48-2.06.47-1.7,2.28-1.71,3.77-.03,4.75-.01,9.51-.01,14.26Zm161.67-248.42c6.15,1.64,11.05.81,15.87,1.03,1.57.07,3.46-.06,2.73-2.4-.55-1.8-.34-4.97-3.72-3.92-4.61,1.43-9.1,3.22-14.88,5.29Zm249.3,38.72c-.14.2-.27.4-.41.6,2.31,4.36,4.59,8.75,6.97,13.08.56,1.01.9,2.81,2.32,2.52,1.85-.38,3-2.13,3.91-3.71.83-1.44-.61-2.24-1.49-2.99-3.73-3.2-7.52-6.33-11.29-9.49Zm-370.51,332.85c.24-.1.49-.21.73-.31-.9-4.97-1.79-9.93-2.68-14.9-.21-1.16.02-2.82-1.66-2.82-1.72,0-3.14,1.18-4.43,2.26-1.08.9-.5,1.95.09,2.89,2.65,4.3,5.3,8.59,7.95,12.88Zm191.29-428.35c-8.48-.74-16.02-1.4-23.57-2.04-2.13-.18-3.85.33-3.54,2.95.32,2.71,2.3,1.79,3.93,1.61,7.37-.82,14.74-1.61,23.18-2.53Zm231.44,428.6c-.24-.24-.48-.48-.71-.71-4.05,2.68-8.12,5.34-12.14,8.07-.84.57-2.39,1.05-2.04,2.21.56,1.86,2.64,2.45,4.08,3.54,1.24.94,1.97-.17,2.59-1.06,2.76-4.01,5.49-8.03,8.23-12.05Zm13.57-252.69c.78,5.63-.29,11.22.83,16.66.37,1.8.98,3.02,3.04,2.03,1.62-.78,4.54-.75,3.18-3.82-2.23-5.01-4.69-9.92-7.05-14.87Zm-362.16,326.35c.19-.19.39-.39.58-.58-2.86-4.17-5.69-8.36-8.6-12.51-.65-.93-1.04-2.77-2.46-2.27-1.76.62-2.63,2.54-3.38,4.17-.65,1.42.76,2.14,1.76,2.83,4.03,2.79,8.06,5.57,12.1,8.35Zm349.46-348.09l-.78.32c.86,4.95,1.73,9.9,2.56,14.86.18,1.05.08,2.54,1.3,2.65,1.9.18,3.38-1.26,4.91-2.22,1.3-.81.5-1.88-.06-2.78-2.64-4.28-5.29-8.56-7.94-12.83Zm-423.3.29c.2.19.39.38.59.57,4.08-2.74,8.2-5.44,12.22-8.27,1.01-.71,3.2-1.12,2.31-2.8-.72-1.36-2.43-2.29-3.87-3.13-1.49-.87-2.19.52-2.88,1.5-2.81,4.03-5.58,8.08-8.37,12.12Zm446.77,45.53c-.44,6.27-.81,11.25-1.12,16.24-.07,1.19-.32,2.72,1.26,3.07,1.7.38,3.32-.46,4.82-1.18,1.25-.6.93-1.85.57-2.86-1.67-4.71-3.4-9.4-5.54-15.27Zm16.64,103.68c-.19-.08-.38-.17-.57-.25-2.12,4.39-4.27,8.77-6.33,13.19-.55,1.18-1.94,2.53-.83,3.74,1.14,1.24,3.05,1.55,4.72,1.19,1.85-.4,2.01-2.17,2.12-3.69.35-4.73.6-9.46.9-14.19Zm-392.12-281.94c-11.41-2.71-10.97-2.87-19.1,9.09,6.45-3.14,12.82-5.31,19.1-9.09Zm351.91,69.7c-3.06-4.59-7-10.45-10.87-16.34-1.17-1.79-2.53-2.12-4.23-.89-2.17,1.56-.39,2.72.59,3.66,5.11,4.88,10.31,9.66,14.51,13.57Zm-460.97,161.03c.21.05.42.1.63.15,2.95-4.67,5.92-9.33,8.83-14.02.42-.68,1.67-1.66.47-2.27-1.45-.74-3.21-1.06-4.86-1.14-1.71-.08-2.17,1.38-2.43,2.84-.86,4.81-1.76,9.62-2.64,14.43Zm472.46,152.92c-3.75,3.1-7.52,6.18-11.25,9.3-1.04.87-2.6,1.99-.55,3.15,1.63.93,3.62,3.92,5.41,1.26,2.77-4.11,5.43-8.42,6.39-13.71Zm-338.85,109.47c.26-.24.53-.48.79-.72-2.86-3.4-5.67-6.83-8.59-10.18-3.4-3.9-3.57-3.78-6.06.74-.86,1.57-.89,2.33.81,3.2,4.39,2.23,8.71,4.63,13.05,6.96Zm293.53-45.7c-.23-.27-.47-.54-.7-.8-4.54,1.83-9.09,3.61-13.6,5.5-1.25.53-3.66.92-1.85,2.98,1.22,1.39,1.99,5.15,5.1,2.54,3.83-3.23,7.38-6.8,11.05-10.22Zm-216.83-426.15c.01.28.02.56.04.85,4.75,1.16,9.5,2.33,14.25,3.49,2.39.58,3.43-.37,3.41-2.82-.02-2.28-.41-4.05-3.3-3.63-4.8.7-9.59,1.42-14.39,2.13Zm274.31,338.27c-.28-.18-.56-.35-.84-.53-3.46,3.65-6.94,7.27-10.35,10.97-.93,1.01-2.88,2.28-.39,3.53,1.82.91,4.15,3.35,5.77-.14,2.11-4.53,3.89-9.22,5.81-13.83Zm-169.86-332.94c-.15.19-.29.38-.44.57,4.35,3.4,8.7,6.8,13.04,10.22.75.59,1.31,1.21,2.3.2,2.43-2.49,1.7-6.17-1.61-7.19-4.4-1.35-8.85-2.54-13.28-3.8Zm177.8,175.86c-.89,6.09-1.59,10.91-2.32,15.72-.2,1.34-1.03,3,.25,3.88,1.47,1.02,3.32.13,4.81-.46,1.84-.74,1.39-2.51,1.02-4.01-1.12-4.61-2.29-9.21-3.77-15.12Zm-479.03,157.22c.21-.08.42-.16.62-.24.28-4.76.64-9.52.81-14.28.04-1.24.8-3.11-1.03-3.59-1.67-.44-3.36.47-4.77,1.38-1.25.8-.88,2.12-.44,3.35,1.62,4.45,3.21,8.92,4.81,13.38Zm276.83,157.75c-6.21-1.52-11.27-2.8-16.34-3.98-1.1-.26-2.57-1.19-3.33.26-.79,1.52-.51,3.34-.1,4.96.44,1.75,1.95,1.05,3.09.9,5.17-.64,10.34-1.33,16.69-2.15Zm-284.84-312.62c.2.11.4.21.59.32,3.85-4.9,7.7-9.8,11.59-14.75-6.74-3.35-6.92-3.28-8.95,3.52-1.09,3.63-2.16,7.27-3.23,10.91Zm-46.5,19.54l-.42-.09c-2.23,6.91-4.43,13.83-6.72,20.72-.76,2.29.04,3.67,2.23,4.19,3.17.76,2.12-1.82,2.3-3.22.92-7.2,1.75-14.41,2.61-21.61Zm277.33,295.67c-5.17-2.51-9.69-4.75-14.26-6.9-1.28-.6-3.18-1.99-3.57.62-.3,1.97-1.64,5.28,2.06,5.48,5,.28,9.96,1.72,15.78.8Zm-123.82-461.57c.13.33.25.66.38.99,4.81-.89,9.62-1.79,14.43-2.67,1.79-.33,3.69-.7,2.2-3.14-.97-1.6-1.28-4.74-4.48-2.83-4.2,2.5-8.35,5.1-12.52,7.65Zm-58.42,370.87c-1.81-6.34-3.23-11.36-4.69-16.36-.33-1.12-.46-2.99-1.94-2.65-1.53.36-2.95,1.59-4.18,2.7-1.02.91-.26,2.04.39,2.9,3.17,4.12,6.38,8.22,10.42,13.41Zm36.68-355.14c.12.25.24.5.37.75,4.93-1.44,9.86-2.91,14.8-4.31,1.72-.49,3.13-1.29,1.67-3.13-1.1-1.38-1.53-4.86-4.56-2.72-4.21,2.97-8.2,6.26-12.29,9.42Zm-1.54,390c.32-.23.64-.46.96-.69-2.22-4.17-4.39-8.36-6.68-12.48-.54-.97-.83-3-2.25-2.37-1.41.62-2.44,2.25-3.46,3.58-1.04,1.34-.01,2.24.97,3.07,3.49,2.97,6.98,5.93,10.48,8.9Zm-61.88-297.99c-2.76-.14-4.92-5.02-7.41-1.04-2.63,4.21-4.02,9.21-5.76,13.42,4.2-3.94,8.51-8,13.17-12.38Zm-21.98,168.06l.88-.21c.7-4.68,1.45-9.36,2.08-14.06.15-1.12.9-2.71-.5-3.33-1.58-.7-3.33-.16-4.88.64-1.37.71-1.37,1.94-1.06,3.19,1.14,4.59,2.32,9.18,3.49,13.76Zm440.66-222.48c-.34.16-.68.32-1.01.48,1.4,4.92,2.75,9.85,4.21,14.75.55,1.85,1.94,1.97,3.16.79,1.19-1.16,4.64-1.32,2.73-4.14-2.8-4.12-6.03-7.94-9.08-11.89Zm-83.62,382.03c-5.03-.96-9.62-.71-14.2.01-1.66.26-3.83.04-2.7,2.8.74,1.8.83,4.84,4.15,3.34,4.3-1.94,8.51-4.09,12.76-6.15Zm44.93-28.86c-.14-.27-.27-.55-.41-.82-4.67,1.33-9.37,2.57-13.99,4.07-1.2.39-4.2.15-2.4,2.99,1.13,1.78,2.09,4.82,5.16,2.65,3.98-2.82,7.77-5.91,11.64-8.89Zm-353.84-353.69c.18.22.36.43.54.65,4.35-2.3,8.72-4.56,13.05-6.9,1-.54,2.85-.96,2.11-2.46-.7-1.43-2.15-2.59-3.47-3.59-1.17-.89-2,.28-2.67,1.07-3.21,3.72-6.37,7.49-9.55,11.23Zm129.43,400.88c.14-.3.29-.6.43-.9-3.98-3.1-7.95-6.2-11.94-9.29-1.21-.93-2.64-1.67-3.26.41-.53,1.79-2.98,4.24.34,5.47,4.7,1.74,9.61,2.9,14.43,4.32Zm-81.83-495.07c-.07-.24-.13-.47-.2-.71-6.33,2.35-12.65,4.69-18.98,7.04-2.24.83-2.68,2.52-1.78,4.47,1.13,2.45,2.55.67,3.71-.05,5.77-3.55,11.51-7.16,17.25-10.76Zm107.73,500.63c.12-.3.25-.6.37-.9-4.11-2.56-8.19-5.18-12.37-7.63-1.12-.66-2.83-3-3.73.21-.57,2.01-2.31,4.73,1.41,5.58,4.74,1.08,9.54,1.85,14.32,2.75Zm52.85-498.88c4.83,2.33,9.67,4.63,14.49,6.99,2.5,1.22,3.68.6,3.86-2.26.16-2.48-.79-3.64-3.22-4.05-5-.84-10.12-.05-15.13-.68Zm125.26,39.74c-.21.18-.42.36-.63.54,2.84,4.2,5.67,8.42,8.54,12.6.58.85,1.12,2.24,2.39,1.75,1.81-.7,2.66-2.54,3.5-4.15.7-1.34-.75-1.84-1.57-2.41-4.05-2.81-8.15-5.55-12.23-8.32Zm-389.05,198.3c2.24-4.55,4.53-9.08,6.7-13.67.59-1.24,2.02-3.06-.52-3.66-1.79-.43-4.11-1.16-5.27,1.33-.44.95-.7,2.07-.74,3.13-.18,4.28-.19,8.57-.17,12.87Zm265.36,263.27c-5.68-2.08-10.41-3.87-15.2-5.51-1.04-.36-2.48-1.42-3.33.02-.88,1.49-.56,3.32-.26,4.96.29,1.59,1.66,1.55,2.94,1.47,4.91-.3,9.83-.58,15.84-.94Zm76.47-16.21c-.05-.31-.11-.63-.16-.94-5.2,0-10.4-.04-15.6.02-1.31.02-3.73-.87-2.99,1.86.49,1.8-.15,5.51,3.72,4.32,5.07-1.55,10.02-3.49,15.02-5.27Zm-181.02.37c.09-.23.17-.47.26-.7-3.68-3.49-7.33-7.02-11.07-10.45-.81-.74-1.65-2.61-2.84-1.56-1.17,1.03-1.71,2.87-2.3,4.43-.63,1.66.82,2.14,1.92,2.6,4.66,1.93,9.35,3.8,14.03,5.69Zm-133.7-349.6c.31.24.62.48.94.71,3.64-3.08,7.29-6.14,10.91-9.25,1.32-1.13,2.99-2.47.26-3.77-1.63-.78-3.4-3.67-5.28-.24-2.29,4.18-4.55,8.36-6.82,12.55Zm448.17,211.12l.54.25c3.4-3.29,6.86-6.52,10.16-9.92.81-.84,3.4-2.01.97-3.37-1.77-.99-4.54-3.45-6.26.06-2.06,4.2-3.62,8.64-5.4,12.98Zm-88.09,115.13c-.16-.38-.31-.77-.47-1.15-4.69.8-9.38,1.54-14.05,2.41-1.82.34-2.86,1.45-1.63,3.29.95,1.43,1.01,4.62,4.05,2.89,4.12-2.34,8.08-4.96,12.11-7.45Zm106.79-239.06c.21,0,.41.02.62.03,1.36-5.32,2.75-10.64,4.07-15.97.2-.79.58-1.83-.84-2.17-2.94-.7-6.14,1.73-5.8,4.66.53,4.5,1.29,8.97,1.95,13.45Zm-486.02,3.49c-2.24,4.52-4.53,9.02-6.69,13.57-.5,1.04-1.91,2.1-1.09,3.28.88,1.26,2.55.6,3.89.69,2.55.16,2.92-1.68,3.29-3.57.89-4.54-.05-9.22.6-13.97Zm64.82,200.35c-1.25-3.1-3.19-7.94-5.18-12.77-.45-1.08-.77-2.94-2.23-2.42-1.49.54-2.75,1.94-3.89,3.17-1.02,1.09-.03,2.05.76,2.76,3.89,3.47,7.83,6.89,10.54,9.26Zm364.45-1.04c5.46-2.82,10.19-5.25,14.92-7.7.79-.41,2.14-.77,1.86-1.71-.6-2.02-2.85-2.63-4.24-4.02-.97-.97-1.62-.02-2.2.69-3.26,4.01-6.52,8.03-10.34,12.74Zm46.03-251.53c.25,0,.49,0,.74,0,0-5.07.04-10.13-.03-15.2-.02-1.27.77-3.25-.95-3.59-1.3-.26-2.94.62-4.28,1.29-1.73.87-.92,2.42-.49,3.65,1.62,4.63,3.33,9.23,5,13.84Zm-198.25-172.4c-1.78,7.22-1.79,7.25,4.66,8.5,3.57.69,7.17,1.24,10.75,1.85.08-.2.16-.41.24-.61-5.08-3.16-10.16-6.32-15.65-9.74Zm-278.02,251.7l-.9.04c-1.47,4.04-2.97,8.08-4.41,12.13-.45,1.25-1.64,2.78-.42,3.82,1.32,1.12,3.29.6,4.91.23,1.76-.4,1.65-2.06,1.58-3.43-.21-4.27-.5-8.54-.76-12.81Zm5.82,49.41c-.23.06-.46.12-.69.18-.67,5.31-1.38,10.62-1.99,15.94-.1.87-.95,2.19.89,2.5,2.89.5,5.75-2.12,5.13-4.89-1.03-4.6-2.22-9.16-3.34-13.73Zm-4.35-216.82c.21.33.42.66.63.99-5.34,4.66-10.62,9.38-16.04,13.94-2.27,1.91-.3,2.88.63,4.01,1.45,1.78,2.35.44,3.13-.78,3.89-6.05,7.76-12.11,11.64-18.16Zm21.62,284.19c2.26-2.11,6.82-1.85,4.92-6.32-1.9-4.48-4.2-8.8-6.32-13.19.69,6.39-.47,12.76,1.4,19.5Zm459.79-171.92c.2.02.4.05.6.07.64-4.89,1.35-9.78,1.87-14.68.13-1.22,1.5-3.07-.32-3.65-1.25-.4-2.96.44-4.42.88-1.93.57-1.47,2.17-1.17,3.46,1.09,4.65,2.28,9.28,3.44,13.92Zm-481.28-131.38c-11.7,3.49-13.39,5.71-13.25,16.51,4.32-5.39,8.43-10.51,13.25-16.51Zm404.66,1.24c.23-.15.46-.29.68-.44-2.24-4.16-4.44-8.35-6.75-12.48-.64-1.14-.88-3.25-2.37-3.01-1.62.25-2.42,2.2-3.3,3.63-1.16,1.89.43,2.75,1.57,3.72,3.38,2.87,6.78,5.72,10.16,8.58Zm82.11,204.92c2.2-4.53,4.4-9.06,6.58-13.6.43-.91,1.23-1.92-.19-2.74-2.25-1.3-5.74.34-6.27,2.96-.88,4.38-.88,8.8-.11,13.38Zm-143.36,198.64c.07.25.15.5.22.75,4.74-.3,9.48-.59,14.21-.91,1.35-.09,3.06.13,3.44-1.58.36-1.59-.85-2.89-1.72-4.12-.94-1.32-2.17-.73-3.3-.19-4.29,2.02-8.57,4.04-12.86,6.06Zm-343.41-193.97l-.62.11c-1.17,4.77-2.37,9.53-3.5,14.31-.32,1.36-1.52,3.36,1.08,3.53,1.86.12,4.23.03,4.89-2.44.31-1.14.12-2.46-.05-3.67-.55-3.95-1.19-7.89-1.8-11.84Zm165.92-257.98c-5.63-1.24-10.38-1.24-15.11-1.11-1.26.04-3.77-.9-3.12,1.82.46,1.91.48,5.31,4.03,4.27,4.53-1.33,8.93-3.1,14.21-4.97Zm-43.82,442.36c-.12.25-.25.49-.37.74,3.07,3.67,6.13,7.36,9.23,11.01.77.91,1.45,2.65,2.68,2.23,1.69-.58,1.84-2.69,2.48-4.23.63-1.5-.28-2.32-1.45-2.96-4.18-2.27-8.37-4.53-12.56-6.8Zm-110.89-133.95c-.41.06-.83.13-1.24.19,0,4.57-.03,9.13.02,13.7.01,1.16-.54,2.75.83,3.33,1.53.65,2.9-.61,4.29-1.16,1.62-.65,1.18-1.99.78-3.14-1.52-4.32-3.11-8.61-4.68-12.92Zm305.72-309.57c.08-.17.16-.34.25-.51-3.85-2.99-7.67-6.01-11.56-8.96-1.03-.78-2.05-2.41-3.5-1.53-1.58.96-1.2,3.04-1.53,4.64-.33,1.59,1.14,1.93,2.33,2.28,4.67,1.36,9.34,2.72,14.01,4.08Zm-197.3,22.08l-.29-.53c-4.66.85-9.31,1.71-13.97,2.56-1.46.26-3.58-.14-3.97,1.53-.39,1.66,1.31,2.98,2.46,4.17,1.49,1.55,2.84.24,4.09-.51,3.92-2.36,7.8-4.8,11.69-7.21Zm-57.62,375.12c1.83,4.49,3.61,9,5.52,13.45.43,1.01.57,3.64,2.48,1.79,1.34-1.29,5.12-2.34,2.86-5.14-3.03-3.77-6.24-7.51-10.86-10.1Zm345.08,14.09c.11.18.22.37.33.55,4.92-2,9.84-3.99,14.76-6,.82-.33,2.14-.59,1.92-1.62-.4-1.89-2.28-2.77-3.53-4.07-.93-.97-1.6-.2-2.29.46-3.72,3.57-7.46,7.12-11.19,10.68Zm-462.71-239.89c-9.41,7.37-8.92,6.45-4.85,20.4,1.62-6.82,3.14-13.19,4.85-20.4Zm87.88,184.04c-.29.05-.59.11-.88.16.87,4.67,1.69,9.34,2.65,13.99.25,1.22-.49,3.28,1.4,3.44,1.7.15,2.98-1.43,4.25-2.53,1.3-1.12.49-2.23-.16-3.28-2.42-3.93-4.85-7.86-7.27-11.79Zm13.87,20.97c-.22.12-.44.24-.67.37,1.36,4.67,2.67,9.36,4.12,14,.33,1.05.05,2.84,1.72,2.87,1.62.03,2.66-1.39,3.75-2.46,1.09-1.07.82-2.18-.03-3.28-2.97-3.83-5.92-7.66-8.89-11.49Zm13.98-305.5l-.49-.66c-4.41,2.34-8.84,4.66-13.23,7.04-.87.47-2.41.73-2.09,2.07.42,1.77,2.33,2.31,3.63,3.33,1.18.92,1.93.13,2.68-.74,3.15-3.69,6.33-7.36,9.49-11.03Zm365.45,321.7c.19.23.38.47.57.7,4.18-2.24,8.37-4.45,12.52-6.73,1.01-.56,2.96-1.01,2.39-2.28-.62-1.39-2.27-2.4-3.62-3.36-1.4-1-2.25.24-3.03,1.15-2.96,3.49-5.9,7.01-8.84,10.51Zm-130.19,76.6c-.04.29-.08.57-.11.86,4.56.58,9.11,1.21,13.68,1.72,1.39.15,3.2,1.59,4.09-.42.63-1.41-.38-2.98-1.06-4.33-.78-1.55-2.21-1.41-3.63-1.06-4.32,1.08-8.65,2.16-12.97,3.23Zm-194.68-39.33c-.21.18-.43.35-.64.53,2.9,4.32,5.78,8.65,8.72,12.94.56.82,1.09,2,2.53,1.17,2.54-1.46,2.82-5.38.4-7.09-3.64-2.56-7.34-5.04-11.01-7.56Zm245.97-469.79l.29-.67c-5.78-3.46-11.58-6.88-17.31-10.41-1.97-1.22-3.11-.49-4.11,1.21-.78,1.32-.7,2.21.96,2.78,6.74,2.32,13.45,4.72,20.17,7.09Zm118.51,171.08c-.37-5.36.23-10.18-.4-14.89-.18-1.35.13-4.06-2.7-3-2.02.76-4.81,1.49-3.22,4.82,2.08,4.37,4.21,8.71,6.32,13.07Zm-271.2,339.05c-.14.26-.28.52-.41.78,4.41,2.76,8.81,5.53,13.23,8.26.74.46,1.51,1.19,2.4.17,1.93-2.2.79-6.2-2.11-6.82-4.34-.93-8.74-1.6-13.11-2.39Zm190.12-436.89l.66-.89c-2.59-3.84-5.14-7.71-7.82-11.49-.63-.89-1.04-2.98-2.43-2.13-1.3.8-2.02,2.64-2.85,4.09-.68,1.19.03,2.02,1.03,2.69,3.81,2.56,7.61,5.14,11.41,7.72Zm-17.51,407.82c.11.29.22.57.33.86,5.12-.95,10.23-1.89,15.34-2.87.82-.16,1.94.07,1.92-1.39-.03-2.75-3.84-5.05-6.29-3.61-3.82,2.24-7.54,4.66-11.31,7.01Zm109.1-137.34l1.07.52c2.73-3.46,5.55-6.86,8.11-10.44.73-1.02,3.49-2.38.83-3.79-1.91-1.01-4.86-2.55-6.14,1.09-1.45,4.15-2.59,8.41-3.87,12.62Zm52.87-167.78c1.81,7.5,3.39,14.01,4.97,20.57,5.3-8.2,2.25-14.43-4.97-20.57Zm-287.18-148.01c-5.1-1.84-9.11-3.35-13.17-4.71-1.21-.41-2.64-1.56-3.82-.2-1.1,1.27-.66,2.96-.3,4.42.42,1.75,2.02,1.61,3.39,1.61,4.29.02,8.58.15,13.9-1.13Zm211.68,119.9c.29-.12.59-.24.88-.35-.88-4.68-1.74-9.37-2.65-14.05-.2-1.01.16-2.55-1.14-2.79-1.84-.34-3.04,1.28-4.4,2.22-1.41.97-.72,2.16-.04,3.24,2.45,3.91,4.9,7.82,7.35,11.73Zm-449.47,75.56c-.24-.09-.49-.19-.73-.28-2.52,4.02-5.09,8.01-7.51,12.09-.62,1.05-2.42,2.4-.94,3.5,1.21.9,3.2.96,4.85.96,1.57,0,1.63-1.51,1.85-2.74.8-4.52,1.65-9.02,2.48-13.53Zm212.24-193.28c.03-.21.06-.42.09-.63-4.94-1.21-9.96-2.17-14.81-3.7-4.07-1.28-3.6.86-3.16,3.39.41,2.37,2.01,2.95,4.09,2.7,4.6-.56,9.19-1.17,13.79-1.76Zm-134.92,424.06c-.23.18-.45.36-.68.54,2.35,4.46,4.66,8.94,7.07,13.36.52.96.95,2.49,2.71,1.4,2.79-1.73,3.18-4.81.68-7.03-3.19-2.83-6.51-5.52-9.78-8.27Zm335.82-364.06c-1.81,2.31-6.61,2.97-4.09,6.36,2.77,3.72,6.4,6.8,9.65,10.16.3-.21.6-.43.9-.64-2.15-5.29-4.31-10.58-6.46-15.88Zm-274.57-39.73c-6.54-.81-11.54.45-16.61.66-1.01.04-2.25-.19-1.83,1.72.78,3.49,3.01,4.89,6.19,3.46,3.75-1.69,7.44-3.53,12.25-5.83Zm197.75-1.9c.26-.24.51-.48.77-.73-4.39-4.11-8.78-8.22-13.27-12.42-3.09,6.71-3.05,6.83,3.15,9.35,3.12,1.27,6.23,2.53,9.35,3.8Zm-170.49,455.38c-.17.27-.34.55-.51.82,3.72,2.89,7.45,5.78,11.17,8.67.48.38.96.76,1.45,1.13.62.47,1.16.89,1.95.14,1.9-1.82,1.15-6.27-1.34-7.05-4.21-1.32-8.48-2.48-12.72-3.71Zm-139.12-351.49c-.21-.17-.43-.33-.64-.5-3.61,2.98-7.25,5.92-10.8,8.96-.95.81-3,1.48-2.08,3.01.68,1.12,2.51,1.58,3.87,2.24,1.45.7,2.31-.16,2.95-1.34,2.24-4.12,4.47-8.25,6.7-12.38Zm187.62,361.89c5.28,2.51,9.65,4.64,14.07,6.67,1.07.49,2.8,2.05,3.27-.2.41-1.96,1.5-5.32-1.86-5.63-4.78-.43-9.57-1.7-15.48-.84Zm221.11-387.44c.24-.14.48-.27.72-.41-1.29-4.54-2.5-9.11-3.94-13.6-.37-1.15.05-3.4-1.84-3.15-1.29.18-2.44,1.69-3.57,2.71-1.17,1.05-.77,2.23.04,3.29,2.85,3.73,5.72,7.44,8.58,11.16Zm80.29,58c.23-.06.45-.12.68-.18-.97-6.66-1.94-13.32-2.92-19.98-.36-2.45-2.19-2.2-3.89-2.04-1.83.17-1.24,1.48-.91,2.42,2.31,6.6,4.68,13.18,7.03,19.77Zm-36.65,135.32c2.97-4.71,5.41-8.36,7.59-12.16.6-1.05,3.07-2.55.77-3.61-1.98-.91-5.51-1.82-6.36,1.25-1.17,4.25-2.46,8.68-2.01,14.52Zm-293.04-285.7c-.03-.28-.06-.57-.1-.85-4.69-.68-9.36-1.43-14.06-1.98-1.34-.16-3.61-.69-3.04,1.99.4,1.86.04,4.92,3.51,4.17,4.59-.99,9.12-2.21,13.68-3.32Zm-227.54,324.02c-.22.05-.44.09-.66.14.95,6.46,1.9,12.92,2.84,19.39.32,2.2,1.77,2.64,3.67,2.5,2.02-.15,1.67-1.57,1.27-2.69-2.32-6.46-4.73-12.89-7.11-19.33Zm525.05-89.47c.2.05.4.09.6.14,1.75-4.78,3.53-9.54,5.22-14.34.37-1.06,1.18-2.41-.93-2.83-3.43-.69-6.02,1.5-5.78,5.02.27,4.01.58,8.01.88,12.01Zm-442.77-138.55c-.17-.16-.34-.33-.5-.49-4.05,2.76-8.12,5.49-12.15,8.29-.95.66-2.65,1.02-2.31,2.53.38,1.65,2.22,1.98,3.53,2.74,1.38.8,2.37.1,3.14-1.01,2.78-4.01,5.53-8.03,8.29-12.05Zm343.31,336.71l.34.65c4.7-1.33,9.41-2.59,14.08-4.03,1.03-.32,3.04-.19,2.71-1.79-.28-1.35-1.64-2.53-2.63-3.68-1.07-1.24-2.24-.65-3.27.14-3.75,2.88-7.48,5.8-11.22,8.7Zm-290.72-390.06c-.19-.36-.37-.71-.56-1.07-4.23,1.22-8.47,2.43-12.7,3.67-1.25.37-3.16.2-3.13,2.03.03,1.57,1.65,2.49,2.67,3.61,1.16,1.27,2.18.54,3.2-.24,3.5-2.67,7.01-5.34,10.51-8Zm344.27,335.82c.18.17.35.33.53.5,4.16-2.8,8.34-5.59,12.48-8.43.84-.57,2.3-1.07,1.85-2.31-.62-1.69-2.57-2.07-4-2.92-1.22-.73-1.97.09-2.63,1.06-2.73,4.04-5.48,8.07-8.23,12.1Zm14.31-22.46c.29.24.59.49.88.73,3.47-2.91,6.96-5.79,10.39-8.74.87-.75,2.71-1.27,2.08-2.64-.71-1.56-2.77-1.75-4.27-2.46-1.24-.58-2.04.09-2.61,1.15-2.15,3.99-4.31,7.98-6.46,11.97Zm-211.2,124.28c-.1.3-.2.59-.3.89,4.28,1.54,8.54,3.13,12.84,4.61,1.35.46,2.87,1.83,4.2.42.99-1.04.49-2.65.23-3.99-.4-2.05-2.12-1.91-3.64-1.92-4.44-.02-8.89,0-13.33,0Zm23.19-485.42c-4.56-2.17-9.09-4.41-13.69-6.48-1.17-.53-2.95-2.39-3.75.13-.6,1.92-1.11,4.46,1.82,5.41,1.16.38,2.41.6,3.63.65,3.95.18,7.91,0,11.99.29Zm3.12,484.05c-.03.29-.06.58-.09.87,4.69,1.2,9.37,2.45,14.08,3.57,1.92.46,2.97-.46,2.82-2.5-.15-2.09-.38-4.25-3.31-3.88-4.51.57-9,1.29-13.5,1.94Zm-193.25-421.3c-4.62,1.87-8.98,3.63-13.33,5.39-.98.4-2.39.63-2.37,1.85.03,1.88,1.87,2.65,3.04,3.81,1.02,1.01,1.97.49,2.77-.38,3.2-3.44,6.39-6.89,9.89-10.67Zm-49.79,379.1c-.11.17-.23.34-.34.51,1.7,2.57,3.38,5.15,5.09,7.71,1.88,2.82,3.76,5.65,5.69,8.44,1.34,1.93,2.95,1.15,4.45.22,1.25-.77,1.07-1.73.11-2.65-5-4.75-10-9.49-15-14.23Zm-75.52-106.11c-1.49-6.1-2.97-12.2-4.57-18.78-6.62,8.52-.98,13.63,4.57,18.78Zm410.37-305.45c.22-.32.44-.63.65-.95-3.19-3.73-6.35-7.48-9.57-11.17-.65-.75-1.28-1.85-2.63-.72-2.23,1.89-2.19,5.35.28,6.74,3.72,2.1,7.51,4.07,11.27,6.1Zm-216.32,435.67c-.1.28-.2.56-.3.84,2.99,3.09,5.93,6.22,8.99,9.23.91.9,1.79,2.9,3.13,2.05,1.06-.67,1.38-2.63,1.86-4.07.55-1.67-.47-2.62-1.87-3.2-3.93-1.63-7.87-3.23-11.81-4.85Zm-136.54-294.86c-4.06,1.98-6.07,5.81-8.83,8.98-.87,1-2.36,2.09-1.75,3.5.7,1.63,2.72,1.04,4.14,1.47,1.83.55,2.46-.63,2.89-2.09,1.18-3.96,2.37-7.91,3.55-11.87Zm310.06,302c-.01.28-.03.55-.04.83h18.33c-1.48-6.42-1.88-6.68-7.45-4.73-3.63,1.27-7.23,2.6-10.84,3.9Zm-301.07-326.32c-.28-.27-.57-.54-.85-.81-3.71,3.83-7.44,7.65-11.11,11.52-.69.73-.12,1.34.57,1.86,2.6,1.97,5.45,1.42,6.75-1.49,1.63-3.66,3.1-7.39,4.64-11.09Zm115.94,379.8c-5.98-3.66-12.12-6.23-18.35-8.94,3.02,9.33,10.22,9.72,18.35,8.94Zm-.31-12.66c-.07.17-.13.35-.2.52,5.7,3.36,11.43,6.65,17.07,10.1,2.21,1.35,3.9,1.09,4.85-1.21,1.02-2.48-1.48-2.13-2.64-2.56-6.33-2.36-12.71-4.58-19.08-6.85Z"/>
    <rect class="cls-2" width="1073.18" height="1073.18"/>
  </g>
</svg>