<?xml version="1.0" encoding="UTF-8"?>
<svg id="Layer_2" data-name="Layer 2" xmlns="http://www.w3.org/2000/svg" viewBox="0 0 1073.18 1073.18">
  <defs>
    <style>
      .cls-1 {
        stroke: #fff;
        stroke-miterlimit: 10;
        stroke-width: 2px;
      }

      .cls-1, .cls-2 {
        fill: none;
      }
    </style>
  </defs>
  <g id="Layer_1-2" data-name="Layer 1">
    <rect class="cls-2" width="1073.18" height="1073.18"/>
    <g id="Layer_1-2" data-name="Layer 1-2">
      <path class="cls-1" d="m500.56,627.91c-42.06.04-84.12-.28-126.17-.26-43.13.01-86.26.29-129.39.42-3.41.01-6.84-.05-10.24-.29-11.04-.79-11.29-.82-11.51-11.69-.1-5.12-2.06-6.57-6.93-6.47-10.67.21-21.35-.36-32.01-.05-6.08.18-7.89-2.23-7.56-7.95,1.24-21.5,2.29-43.01,3.28-64.53.18-3.81,1.88-5.85,5.46-6.79,5.3-1.39,10.55-2.95,16.88-4.73-5.63-4.35-10.47-8.08-15.29-11.83-1.83-1.42-4.58-2.66-4.29-5.18.34-2.94,3.64-2.45,5.74-3.02,57.05-15.48,114.12-30.89,171.18-46.31,16.69-4.51,33.4-8.94,50.03-13.63,5.26-1.48,8.65-1.35,8.95,5.37.18,4.01,1.52,7.96,1.83,11.98.4,5.19,3.02,5.97,7.19,4.22,12.41-5.21,24.51-4.25,36.41,1.66,1.14.57,2.39.9,3.6,1.33,9.18,3.24,14.26-.04,15.26-9.85,1.07-10.58,1.12-10.73,11.34-7.42l1.71.44,9.71,3.41c.5.24,1.05.46,1.65.67,85.45,29.85,170.86,59.83,256.28,89.77,42.51,14.9,85.03,29.77,127.53,44.69,2.29.81,5.59,1.09,5.29,4.54-.27,3.2-1.42,6.32-4.89,7.64-2.19.83-4.41,1.6-6.67,2.21-7.62,2.05-15.32,3.82-22.88,6.05-13.37,3.95-26.45,3.41-39.38-1.79-1.35-.54-2.87-.99-4.3-.96-22.17.52-44.34,1.12-65.59,1.68,1.02.39,3,1.16,4.98,1.92,9.37,3.6,18.75,7.16,28.08,10.86,1.19.47,3.3.8,2.58,2.91-.49,1.42-2.12,1.14-3.35,1.2-1.49.08-2.99.05-4.48.05-35.01,0-70.03.33-105.04-.12-15.17-.2-30.34.72-45.47.03-20.29-.93-40.55.46-60.84-.25-17.69-.62-35.44.86-53.15-.2l-15.48.28h0Zm344.24-20.86c0-.4,0-.79-.01-1.19-.79-.3-1.57-.63-2.37-.91-60.19-21.22-120.39-42.43-180.58-63.64-69.65-24.55-139.31-49.09-208.95-73.67-3.33-1.18-6.01-2.58-5.92,3.22.73,43.32,1.29,86.65,1.81,129.98.05,4.31,1.56,6.01,6.05,6.01,42.9,0,85.81.24,128.71.25,27.33,0,54.66-.69,81.98-.25,16.66.27,33.3-.25,49.95-.15,43.11.25,86.22.25,129.32.35h0Zm-658.15-.87c2.66,1.33,5.45.9,8.14.88,27.1-.14,54.2-.78,81.29-.29,18.15.33,36.27-.3,54.4-.13,36.47.33,72.95.24,109.42.49,4.92.03,6.08-2,6.01-6.55-.45-27.94-.71-55.88-.95-83.81-.12-13.86-.86-27.71-.1-41.59.49-8.9-.15-9.18-7.93-4.99-81.9,44.11-163.8,88.24-245.68,132.39-1.6.86-3.69,1.21-4.61,3.6h0Zm245.99-136.8c-.08-.24-.16-.48-.24-.72-80.71,20.99-161.41,42.04-242.18,62.84-5.67,1.46-7.66,4.36-7.88,9.7-.77,18.53-1.82,37.06-2.5,55.59-.33,8.81,0,8.88,7.61,4.79,49.25-26.52,98.51-53.03,147.75-79.57,32.5-17.52,64.96-35.08,97.44-52.62Zm343.87,154.12c-19.76-9.5-42.08-16-66.95-14.16-22.93,1.7-46.07.48-69.12.47-41.82-.02-83.65-.05-125.47-.19-4.71-.02-7.31,1.18-6.82,6.5.42,4.67-.58,9.62,6.88,9.5,18.35-.28,36.7-.12,55.06-.19,26.47-.1,52.93-.33,79.4-.35,17.92-.02,35.85.54,53.76.28,25.14-.36,50.26-1.25,73.27-1.85h0Zm-546.85,1.72c15.66.17,29.32.01,42.97.08,55.93.27,111.87-.1,167.8-.13,4.8,0,7.62-.79,7.29-6.66-.47-8.29-.77-9.15-7.74-9.24-3.63-.05-7.26.16-10.89.17-26.48.1-52.95.2-79.43.25-30.1.05-60.2.05-90.3.08-1.95,0-3.79.37-5.52,1.38-7.52,4.41-15.07,8.77-24.2,14.07h0Zm541.44-55.22c.1-.33.21-.66.31-.98-1.55-.66-3.09-1.35-4.65-1.99-44.08-17.94-88.18-35.83-132.23-53.83-46.41-18.96-92.77-38.02-139.15-57.04-8.42-3.45-10.34-2.37-10.09,5.35.14,4.45,3.62,4.81,6.49,5.87,55.27,20.35,110.56,40.66,165.85,60.97,37.82,13.89,75.65,27.77,113.48,41.65h0Zm-168.74-74.02c-.09.36-.17.73-.26,1.09,1.35.6,2.69,1.23,4.05,1.79,85.41,34.75,170.9,69.33,256.15,104.48,8.88,3.66,16.13,2.41,25.5-1.11-96.03-35.74-190.74-70.99-285.45-106.24h0Zm-228.91-36.73c-.07-.25-.13-.49-.2-.74-.79.11-1.59.14-2.35.35-41.8,11.28-83.6,22.57-125.4,33.87-17.91,4.84-35.83,9.65-53.7,14.68-1.47.41-5.32-.41-3.91,3.32,1.89,5.02,14.27,10.09,19.42,8.25,32.13-11.52,64.27-23.05,96.39-34.59,23.25-8.36,46.5-16.76,69.74-25.14Zm384.67,109.99c.1-.33.2-.66.3-.98-.77-.31-1.54-.63-2.31-.91-82.09-30.18-164.19-60.36-246.28-90.53-1.2-.44-2.42-.84-3.61-1.29-4.01-1.5-4.39.83-4.03,3.85.51,4.22,4.29,4.36,7.14,5.36,53.91,18.91,107.56,38.53,162,55.9,29.02,9.26,57.87,19.06,86.8,28.62h0Zm-507.64-62.92c1.18.28,1.59.52,1.91.43,53.56-15.15,107.11-30.33,160.67-45.47,7.31-2.07,3.04-7.44,2.72-11.03-.42-4.77-4.27-2.04-6.44-1.26-28.31,10.14-56.55,20.45-84.83,30.68-24.44,8.84-48.9,17.61-74.02,26.66h0Zm423.14,12.11c-.13.27-.27.55-.4.82.54.3,1.05.67,1.63.89,70.42,26.22,140.84,52.42,211.26,78.62,1,.37,2.02.69,3.04,1.02,1.92.62,3.41.18,4.09-1.84.65-1.92-.62-2.7-2.14-3.26-1.2-.44-2.4-.88-3.61-1.3-39.07-13.71-78.15-27.43-117.22-41.13-32.21-11.29-64.43-22.55-96.64-33.82h0Zm-191.37,107.05c6.4-.17,12.8-.49,19.2-.45,4.84.02,5.72-2.73,5.35-6.65-.35-3.78,1.12-8.36-5.49-8.63-15.15-.62-30.29,0-45.43,0-4.91,0-5.62,2.79-5.31,6.66.3,3.81-1.14,8.35,5.45,8.65,8.75.4,17.48.4,26.23.42h0Zm-107.49-150.63c-56.62,16.02-113.24,32.03-169.86,48.05.22.75.43,1.5.65,2.25,56.52-16.37,114.88-26.32,169.21-50.3h0Zm-11.31,7.91c.11.34.21.68.32,1.01,17.27-4.5,34.54-8.99,51.81-13.5,2.71-.71,3.05-2.57,2.42-4.96-.8-3.05-3.04-1.92-4.62-1.34-6.19,2.27-12.25,4.87-18.42,7.18-10.48,3.93-21.01,7.74-31.51,11.6Zm-114.58,128.21c-6.8-2.21-13.26-1.51-19.68-1.27-2.02.07-3.03,1.49-3.02,3.4.02,3.14-.58,6.36.86,9.33.13.27,1.64.19,2.26-.16,6.56-3.72,13.06-7.52,19.58-11.3h0Zm553.5-24.13l-.52.93c18.17,6.5,36.34,12.99,55.02,19.67-2.79,3.34-5.75,1.37-8.12,3.54,6.24,1.41,11.19-.77,17.9-3.22-22.46-7.31-43.37-14.11-64.29-20.91Z"/>
    </g>
  </g>
</svg>