<?xml version="1.0" encoding="UTF-8"?>
<svg id="Layer_2" data-name="Layer 2" xmlns="http://www.w3.org/2000/svg" viewBox="0 0 5786.35 1482.75">
  <defs>
    <style>
      .cls-1 {
        fill: none;
        stroke: #fff;
        stroke-miterlimit: 10;
        stroke-width: 10px;
      }
    </style>
  </defs>
  <g id="Layer_1-2" data-name="Layer 1">
    <path class="cls-1" d="m2604,1474.21c-337.52.36-675.04-2.22-1012.56-2.11-346.14.11-692.27,2.3-1038.41,3.39-27.4.09-54.87-.4-82.18-2.34-88.6-6.3-90.59-6.57-92.36-93.8-.83-41.06-16.55-52.73-55.63-51.95-85.61,1.69-171.36-2.91-256.92-.38-48.78,1.44-63.29-17.88-60.64-63.78,9.96-172.55,18.4-345.19,26.35-517.84,1.41-30.61,15.08-46.98,43.79-54.53,42.52-11.18,84.69-23.64,135.43-37.93-45.18-34.93-84.01-64.84-122.72-94.93-14.71-11.43-36.74-21.37-34.44-41.57,2.69-23.6,29.22-19.65,46.03-24.21,457.83-124.25,915.83-247.87,1373.78-371.66,133.91-36.2,268.01-71.72,401.51-109.41,42.2-11.91,69.43-10.82,71.79,43.06,1.41,32.21,12.2,63.92,14.71,96.18,3.24,41.66,24.23,47.9,57.72,33.84,99.6-41.82,196.68-34.11,292.17,13.29,9.15,4.54,19.22,7.26,28.92,10.68q110.46,39.04,122.43-79.02c8.61-84.89,9-86.11,90.99-59.56l13.7,3.54,77.91,27.34c4.02,1.92,8.42,3.69,13.21,5.36,685.78,239.54,1371.18,480.16,2056.7,720.46,341.14,119.58,682.38,238.88,1023.44,358.68,18.41,6.47,44.85,8.75,42.49,36.47-2.19,25.72-11.37,50.73-39.26,61.33-17.57,6.67-35.42,12.86-53.55,17.73-61.13,16.43-122.91,30.63-183.6,48.53-107.33,31.66-212.26,27.38-316-14.35-10.84-4.36-23.06-7.95-34.54-7.68-177.93,4.14-355.85,8.98-526.36,13.46,8.16,3.14,24.05,9.27,39.96,15.39,75.16,28.91,150.45,57.5,225.33,87.12,9.59,3.8,26.5,6.43,20.67,23.32-3.94,11.43-16.99,9.13-26.87,9.66-11.97.64-23.99.42-35.99.42-281,.08-562.03,2.68-842.98-.98-121.73-1.58-243.46,5.78-364.92.21-162.8-7.47-325.42,3.66-488.28-2.03-141.97-4.96-284.44,6.88-426.56-1.63l-124.24,2.25Zm2762.57-167.38c-.04-3.17-.07-6.34-.11-9.51-6.33-2.44-12.6-5.04-19-7.29-483.06-170.26-966.14-340.49-1449.2-510.74-558.99-197.01-1117.99-393.99-1676.89-591.25-26.71-9.43-48.27-20.73-47.49,25.81,5.88,347.68,10.39,695.38,14.53,1043.08.41,34.55,12.52,48.27,48.54,48.26,344.32-.02,688.63,1.93,1032.95,2.01,219.31.05,438.69-5.53,657.92-1.97,133.73,2.17,267.26-2.02,400.89-1.24,345.94,2.01,691.9,2.02,1037.84,2.82Zm-5281.77-6.97c21.38,10.68,43.71,7.2,65.33,7.09,217.46-1.1,434.98-6.24,652.34-2.34,145.63,2.61,291.04-2.39,436.58-1.07,292.69,2.66,585.42,1.94,878.12,3.9,39.49.26,48.82-16.09,48.24-52.58-3.61-224.19-5.7-448.42-7.61-672.63-.95-111.23-6.9-222.4-.81-333.73,3.91-71.39-1.2-73.64-63.6-40.02C1436.12,562.51,778.88,916.59,121.77,1270.93c-12.87,6.94-29.62,9.71-36.97,28.93ZM2058.94,202c-.65-1.94-1.31-3.87-1.96-5.81C1409.23,364.62,761.6,533.53,113.46,700.46c-45.49,11.71-61.45,34.98-63.24,77.85-6.21,148.74-14.58,297.39-20.07,446.15-2.61,70.72.04,71.29,61.07,38.43,395.28-212.79,790.56-425.56,1185.71-638.57,260.78-140.57,521.35-281.54,782.01-422.32Zm2759.63,1236.84c-158.57-76.2-337.68-128.41-537.27-113.64-183.99,13.62-369.74,3.83-554.72,3.76-335.63-.13-671.27-.38-1006.9-1.53-37.78-.13-58.63,9.43-54.76,52.15,3.39,37.46-4.68,77.18,55.23,76.26,147.25-2.27,294.56-.98,441.84-1.55,212.39-.82,424.77-2.64,637.16-2.83,143.82-.13,287.67,4.32,431.44,2.24,201.72-2.92,403.38-10,587.97-14.85Zm-4388.6,13.84c125.67,1.34,235.3.1,344.88.63,448.87,2.15,897.76-.82,1346.65-1.05,38.49-.02,61.16-6.37,58.47-53.44-3.81-66.49-6.2-73.42-62.08-74.16-29.12-.39-58.27,1.28-87.4,1.39-212.47.78-424.94,1.62-637.42,2.01-241.55.44-483.11.41-724.66.64-15.61.01-30.38,2.93-44.26,11.07-60.34,35.41-120.94,70.39-194.18,112.92Zm4345.18-443.15c.83-2.63,1.67-5.26,2.5-7.89-12.43-5.33-24.78-10.85-37.31-15.95-353.74-143.99-707.66-287.55-1061.21-432-372.41-152.15-744.48-305.13-1116.68-457.78-67.58-27.72-83.01-19.01-81,42.96,1.15,35.72,29.04,38.63,52.09,47.11,443.57,163.32,887.25,326.34,1330.95,489.32,303.53,111.49,607.11,222.82,910.67,334.22Zm-1354.13-594.03c-.69,2.92-1.37,5.84-2.06,8.76,10.84,4.8,21.56,9.89,32.54,14.36,685.46,278.88,1371.47,556.42,2055.64,838.44,71.3,29.39,129.43,19.34,204.66-8.94-770.67-286.84-1530.72-569.72-2290.78-852.61ZM1584,120.73c-.53-1.97-1.06-3.94-1.6-5.91-6.3.89-12.78,1.13-18.87,2.77-335.46,90.54-670.91,181.15-1006.33,271.85-143.75,38.87-287.58,77.48-430.92,117.81-11.81,3.32-42.67-3.31-31.38,26.64,15.19,40.29,114.54,80.98,155.84,66.17,257.87-92.49,515.76-184.95,773.56-277.61,186.62-67.08,373.14-134.47,559.7-201.72Zm3087.06,882.7c.81-2.63,1.63-5.26,2.44-7.89-6.19-2.45-12.33-5.04-18.57-7.33-658.81-242.19-1317.62-484.37-1976.44-726.53-9.64-3.54-19.39-6.77-29.01-10.37-32.19-12.07-35.24,6.67-32.34,30.88,4.06,33.9,34.4,34.98,57.28,43.01,432.6,151.72,863.21,309.18,1300.1,448.58,232.9,74.31,464.41,152.97,696.55,229.66ZM597.12,498.48c9.45,2.25,12.76,4.21,15.32,3.49,429.81-121.55,859.55-243.38,1289.37-364.92,58.68-16.59,24.37-59.71,21.84-88.55-3.36-38.26-34.27-16.39-51.7-10.14-227.16,81.4-453.84,164.14-680.77,246.18-196.15,70.91-392.46,141.36-594.05,213.94Zm3395.76,97.21c-1.08,2.19-2.16,4.38-3.24,6.57,4.34,2.4,8.46,5.4,13.06,7.11,565.11,210.39,1130.25,420.69,1695.41,630.95,8.02,2.99,16.22,5.51,24.36,8.16,15.37,4.99,27.36,1.48,32.83-14.73,5.19-15.37-4.94-21.7-17.14-26.16-9.65-3.53-19.3-7.03-29-10.43-313.58-110.04-627.13-220.16-940.75-330.07-258.47-90.59-517.03-180.94-775.54-271.39Zm-1535.76,859.13c51.36-1.35,102.72-3.92,154.07-3.65,38.86.2,45.88-21.92,42.95-53.39-2.83-30.37,8.97-67.1-44.04-69.26-121.61-4.97-243.08.02-364.61,0-39.43,0-45.1,22.42-42.65,53.45,2.42,30.61-9.11,67,43.75,69.44,70.24,3.24,140.31,3.21,210.54,3.41ZM1594.5,246c-454.38,128.53-908.76,257.07-1363.14,385.6,1.73,6.01,3.46,12.02,5.18,18.03,453.55-131.41,921.94-211.21,1357.95-403.64Zm-90.8,63.47c.86,2.71,1.72,5.43,2.59,8.14,138.59-36.1,277.19-72.18,415.77-108.34,21.75-5.67,24.5-20.59,19.44-39.79-6.46-24.48-24.38-15.39-37.07-10.73-49.65,18.2-98.31,39.05-147.83,57.62-84.11,31.55-168.58,62.12-252.9,93.1Zm-919.52,1028.92c-54.61-17.71-106.38-12.13-157.95-10.21-16.18.6-24.35,11.95-24.24,27.32.18,25.17-4.68,51.04,6.87,74.86,1.04,2.14,13.18,1.54,18.17-1.29,52.62-29.82,104.83-60.35,157.15-90.69Zm4441.97-193.61l-4.17,7.47c145.83,52.13,291.65,104.26,441.58,157.85-22.42,26.77-46.13,11-65.18,28.37,50.11,11.3,89.84-6.14,143.68-25.88-180.25-58.63-348.08-113.22-515.91-167.81Z"/>
  </g>
</svg>