<?xml version="1.0" encoding="UTF-8"?>
<svg id="Layer_2" data-name="Layer 2" xmlns="http://www.w3.org/2000/svg" viewBox="0 0 254.47 237.04">
  <g id="Layer_1-2" data-name="Layer 1">
    <path d="M169.51,157.91l-56.3.05-.1,26.38,84.85-.02-.02-131.73H56.64s0,184.44,0,184.44l197.82.03-.11-237.04L.25.09l-.08,184.02,28.12.06.06-157.97h197.95s-.03,184.53-.03,184.53l-141.36-.08-.05-131.57h84.92s-.27,78.83-.27,78.83ZM141.51,105.33h-28.42v26.24h28.42v-26.24ZM28.37,236.71l-.07-25.75-27.95-.02c-.34,9.14-.66,16.93.26,25.92l27.76-.15Z"/>
  </g>
</svg>